<svg width="64" height="64" viewBox="0 0 64 64" fill="none" xmlns="http://www.w3.org/2000/svg">
<rect x="1" y="1" width="62" height="62" rx="7" fill="#0B0B0D" stroke="#E7E7E7" stroke-width="2"/>
<path fill-rule="evenodd" clip-rule="evenodd" d="M19.6239 19.6144C13.2246 25.9388 12.459 36.1985 18.155 43.4369C24.2776 51.2167 35.547 52.5605 43.3273 46.4387L43.3605 46.4125L39.0836 40.9722C38.9465 41.0971 38.7931 41.2316 38.6262 41.3747L38.4777 41.5014C37.6038 42.2432 36.3694 43.1818 34.9571 43.9233C33.5551 44.6593 31.8974 45.2433 30.203 45.1762C28.4566 45.1069 26.7652 44.3462 25.3735 42.5762C24.273 41.1765 24.139 39.4462 24.4238 37.808C24.7086 36.1707 25.4304 34.4899 26.2275 33.0103C27.0298 31.5208 27.9388 30.18 28.643 29.2165L28.6945 29.1463C28.8028 28.9989 28.9063 28.8604 29.0037 28.7317C29.093 28.6137 29.1773 28.5041 29.2554 28.4033L29.3363 28.2996L29.4044 28.2129L29.5172 28.0704C29.5233 28.0628 29.5294 28.0552 29.5355 28.0475C29.5783 27.9942 29.6209 27.9413 29.6554 27.8988C29.7017 27.8419 29.7412 27.7938 29.7732 27.7549L29.8445 27.669L29.863 27.6457L31.3951 28.9332L31.3768 28.9545L31.3533 28.9833L31.3169 29.028L31.2501 29.1091L31.1811 29.1932L31.1212 29.2675L31.0819 29.3165C30.99 29.4318 30.8807 29.5712 30.7573 29.7318L30.7225 29.7772L30.639 29.887L30.5648 29.9852L30.4994 30.0724L30.3718 30.2439L30.3134 30.3232L30.2585 30.3979C29.5874 31.3161 28.7339 32.5763 27.9887 33.9594C27.2383 35.3523 26.6271 36.8173 26.3948 38.1528C26.1628 39.4877 26.3292 40.5573 26.945 41.3407C27.9806 42.6578 29.1297 43.1331 30.28 43.1789C31.4827 43.2266 32.7785 42.8059 34.0257 42.1512C35.262 41.5022 36.373 40.6638 37.1824 39.9768C37.5847 39.6352 37.9079 39.3347 38.1281 39.1225C38.2378 39.0168 38.3222 38.9333 38.3777 38.877L38.4403 38.8138L38.4562 38.796L39.2511 37.9531L44.8599 45.0866C51.2589 38.7623 52.0259 28.5035 46.3306 21.2652C40.208 13.4847 28.9361 12.1405 21.1555 18.2631L21.1232 18.2885L24.2401 22.2535C24.4171 22.0923 24.6213 21.9151 24.846 21.7243C25.7199 20.9825 26.9543 20.0439 28.3666 19.3024C29.7686 18.5665 31.4263 17.9824 33.1207 18.0496C34.8672 18.1188 36.5585 18.8795 37.9502 20.6495C39.0507 22.0493 39.1848 23.7795 38.8999 25.4177C38.6151 27.055 37.8933 28.7358 37.0963 30.2154C36.2939 31.7049 35.3849 33.0457 34.6807 34.0091C34.5132 34.2383 34.3566 34.4467 34.2152 34.6316C34.0585 34.8364 33.9204 35.0122 33.8065 35.1553C33.7424 35.2357 33.6856 35.3058 33.6375 35.3649L33.5505 35.4708L33.4793 35.5567L33.4608 35.58L31.9287 34.2925L31.947 34.2711L31.9726 34.2397L32.0068 34.1977L32.0332 34.1657C32.0854 34.1024 32.1565 34.0165 32.2419 33.9092L32.3064 33.828L32.3822 33.7316C32.5683 33.4939 32.802 33.1879 33.0653 32.8277C33.7363 31.9096 34.5899 30.6494 35.335 29.2663C36.0855 27.8734 36.6966 26.4084 36.9289 25.0729C37.1609 23.738 36.9945 22.6684 36.3787 21.885C35.3432 20.5679 34.1942 20.0926 33.0438 20.0468C31.841 19.9991 30.5452 20.4198 29.2981 21.0745C28.0618 21.7235 26.9509 22.5618 26.1414 23.2489C25.7391 23.5904 25.4158 23.8909 25.1956 24.1032L25.1292 24.1676L25.0988 24.1972L25.0186 24.2761L24.9461 24.3486C24.9183 24.3768 24.8966 24.3984 24.8835 24.4119L24.8676 24.4297L24.0727 25.2726L19.6239 19.6144Z" fill="black"/>
<path d="M51.56 32.28C51.56 42.9281 42.9281 51.56 32.28 51.56C21.632 51.56 13 42.9281 13 32.28C13 21.632 21.632 13 32.28 13C42.9281 13 51.56 21.632 51.56 32.28Z" fill="#0B0B0D"/>
<path fill-rule="evenodd" clip-rule="evenodd" d="M19.6239 19.6144C13.2246 25.9388 12.459 36.1985 18.155 43.4369C24.2776 51.2167 35.547 52.5605 43.3273 46.4387L43.3605 46.4125L39.0836 40.9722C38.9465 41.0971 38.7931 41.2316 38.6262 41.3747L38.4777 41.5014C37.6038 42.2432 36.3694 43.1818 34.9571 43.9233C33.5551 44.6593 31.8974 45.2433 30.203 45.1762C28.4566 45.1069 26.7652 44.3462 25.3735 42.5762C24.273 41.1765 24.139 39.4462 24.4238 37.808C24.7086 36.1707 25.4304 34.4899 26.2275 33.0103C27.0298 31.5208 27.9388 30.18 28.643 29.2165L28.6945 29.1463C28.8028 28.9989 28.9063 28.8604 29.0037 28.7317C29.093 28.6137 29.1773 28.5041 29.2554 28.4033L29.3363 28.2996L29.4044 28.2129L29.5172 28.0704C29.5233 28.0628 29.5294 28.0552 29.5355 28.0475C29.5783 27.9942 29.6209 27.9413 29.6554 27.8988C29.7017 27.8419 29.7412 27.7938 29.7732 27.7549L29.8445 27.669L29.863 27.6457L31.3951 28.9332L31.3768 28.9545L31.3533 28.9833L31.3169 29.028L31.2501 29.1091L31.1811 29.1932L31.1212 29.2675L31.0819 29.3165C30.99 29.4318 30.8807 29.5712 30.7573 29.7318L30.7225 29.7772L30.639 29.887L30.5648 29.9852L30.4994 30.0724L30.3718 30.2439L30.3134 30.3232L30.2585 30.3979C29.5874 31.3161 28.7339 32.5763 27.9887 33.9594C27.2383 35.3523 26.6271 36.8173 26.3948 38.1528C26.1628 39.4877 26.3292 40.5573 26.945 41.3407C27.9806 42.6578 29.1297 43.1331 30.28 43.1789C31.4827 43.2266 32.7785 42.8059 34.0257 42.1512C35.262 41.5022 36.373 40.6638 37.1824 39.9768C37.5847 39.6352 37.9079 39.3347 38.1281 39.1225C38.2378 39.0168 38.3222 38.9333 38.3777 38.877L38.4403 38.8138L38.4562 38.796L39.2511 37.9531L44.8599 45.0866C51.2589 38.7623 52.0259 28.5035 46.3306 21.2652C40.208 13.4847 28.9361 12.1405 21.1555 18.2631L21.1232 18.2885L24.2401 22.2535C24.4171 22.0923 24.6213 21.9151 24.846 21.7243C25.7199 20.9825 26.9543 20.0439 28.3666 19.3024C29.7686 18.5665 31.4263 17.9824 33.1207 18.0496C34.8672 18.1188 36.5585 18.8795 37.9502 20.6495C39.0507 22.0493 39.1848 23.7795 38.8999 25.4177C38.6151 27.055 37.8933 28.7358 37.0963 30.2154C36.2939 31.7049 35.3849 33.0457 34.6807 34.0091C34.5132 34.2383 34.3566 34.4467 34.2152 34.6316C34.0585 34.8364 33.9204 35.0122 33.8065 35.1553C33.7424 35.2357 33.6856 35.3058 33.6375 35.3649L33.5505 35.4708L33.4793 35.5567L33.4608 35.58L31.9287 34.2925L31.947 34.2711L31.9726 34.2397L32.0068 34.1977L32.0332 34.1657C32.0854 34.1024 32.1565 34.0165 32.2419 33.9092L32.3064 33.828L32.3822 33.7316C32.5683 33.4939 32.802 33.1879 33.0653 32.8277C33.7363 31.9096 34.5899 30.6494 35.335 29.2663C36.0855 27.8734 36.6966 26.4084 36.9289 25.0729C37.1609 23.738 36.9945 22.6684 36.3787 21.885C35.3432 20.5679 34.1942 20.0926 33.0438 20.0468C31.841 19.9991 30.5452 20.4198 29.2981 21.0745C28.0618 21.7235 26.9509 22.5618 26.1414 23.2489C25.7391 23.5904 25.4158 23.8909 25.1956 24.1032L25.1292 24.1676L25.0988 24.1972L25.0186 24.2761L24.9461 24.3486C24.9183 24.3768 24.8966 24.3984 24.8835 24.4119L24.8676 24.4297L24.0727 25.2726L19.6239 19.6144Z" fill="#F6F8FA"/>
<path d="M32.2803 12.5C43.2043 12.5001 52.0596 21.3562 52.0596 32.2803C52.0594 43.2043 43.2043 52.0594 32.2803 52.0596C21.3562 52.0596 12.5001 43.2043 12.5 32.2803C12.5 21.3561 21.3561 12.5 32.2803 12.5Z" stroke="#F6F8FA"/>
</svg>
