<svg width="96" height="96" viewBox="0 0 96 96" fill="none" xmlns="http://www.w3.org/2000/svg">
<rect x="1" y="1" width="94" height="94" rx="29" fill="#0B0B0D" stroke="#E7E7E7" stroke-width="2"/>
<path fill-rule="evenodd" clip-rule="evenodd" d="M35.6239 35.6144C29.2246 41.9388 28.459 52.1985 34.155 59.4369C40.2776 67.2167 51.547 68.5605 59.3273 62.4387L59.3605 62.4125L55.0836 56.9722C54.9465 57.0971 54.7931 57.2316 54.6262 57.3747L54.4777 57.5014C53.6038 58.2432 52.3694 59.1818 50.9571 59.9233C49.5551 60.6593 47.8974 61.2433 46.203 61.1762C44.4566 61.1069 42.7652 60.3462 41.3735 58.5762C40.273 57.1765 40.139 55.4462 40.4238 53.808C40.7086 52.1707 41.4304 50.4899 42.2275 49.0103C43.0298 47.5208 43.9388 46.18 44.643 45.2165L44.6945 45.1463C44.8028 44.9989 44.9063 44.8604 45.0037 44.7317C45.093 44.6137 45.1773 44.5041 45.2554 44.4033L45.3363 44.2996L45.4044 44.2129L45.5172 44.0704C45.5233 44.0628 45.5294 44.0552 45.5355 44.0475C45.5783 43.9942 45.6209 43.9413 45.6554 43.8988C45.7017 43.8419 45.7412 43.7938 45.7732 43.7549L45.8445 43.669L45.863 43.6457L47.3951 44.9332L47.3768 44.9545L47.3533 44.9833L47.3169 45.028L47.2501 45.1091L47.1811 45.1932L47.1212 45.2675L47.0819 45.3165C46.99 45.4318 46.8807 45.5712 46.7573 45.7318L46.7225 45.7772L46.639 45.887L46.5648 45.9852L46.4994 46.0724L46.3718 46.2439L46.3134 46.3232L46.2585 46.3979C45.5874 47.3161 44.7339 48.5763 43.9887 49.9594C43.2383 51.3523 42.6271 52.8173 42.3948 54.1528C42.1628 55.4877 42.3292 56.5573 42.945 57.3407C43.9806 58.6578 45.1297 59.1331 46.28 59.1789C47.4827 59.2266 48.7785 58.8059 50.0257 58.1512C51.262 57.5022 52.373 56.6638 53.1824 55.9768C53.5847 55.6352 53.9079 55.3347 54.1281 55.1225C54.2378 55.0168 54.3222 54.9333 54.3777 54.877L54.4403 54.8138L54.4562 54.796L55.2511 53.9531L60.8599 61.0866C67.2589 54.7623 68.0259 44.5035 62.3306 37.2652C56.208 29.4847 44.9361 28.1405 37.1555 34.2631L37.1232 34.2885L40.2401 38.2535C40.4171 38.0923 40.6213 37.9151 40.846 37.7243C41.7199 36.9825 42.9543 36.0439 44.3666 35.3024C45.7686 34.5665 47.4263 33.9824 49.1207 34.0496C50.8672 34.1188 52.5585 34.8795 53.9502 36.6495C55.0507 38.0493 55.1848 39.7795 54.8999 41.4177C54.6151 43.055 53.8933 44.7358 53.0963 46.2154C52.2939 47.7049 51.3849 49.0457 50.6807 50.0091C50.5132 50.2383 50.3566 50.4467 50.2152 50.6316C50.0585 50.8364 49.9204 51.0122 49.8065 51.1553C49.7424 51.2357 49.6856 51.3058 49.6375 51.3649L49.5505 51.4708L49.4793 51.5567L49.4608 51.58L47.9287 50.2925L47.947 50.2711L47.9726 50.2397L48.0068 50.1977L48.0332 50.1657C48.0854 50.1024 48.1565 50.0165 48.2419 49.9092L48.3064 49.828L48.3822 49.7316C48.5683 49.4939 48.802 49.1879 49.0653 48.8277C49.7363 47.9096 50.5899 46.6494 51.335 45.2663C52.0855 43.8734 52.6966 42.4084 52.9289 41.0729C53.1609 39.738 52.9945 38.6684 52.3787 37.885C51.3432 36.5679 50.1942 36.0926 49.0438 36.0468C47.841 35.9991 46.5452 36.4198 45.2981 37.0745C44.0618 37.7235 42.9509 38.5618 42.1414 39.2489C41.7391 39.5904 41.4158 39.8909 41.1956 40.1032L41.1292 40.1676L41.0988 40.1972L41.0186 40.2761L40.9461 40.3486C40.9183 40.3768 40.8966 40.3984 40.8835 40.4119L40.8676 40.4297L40.0727 41.2726L35.6239 35.6144Z" fill="black"/>
<path d="M67.56 48.28C67.56 58.9281 58.9281 67.56 48.28 67.56C37.632 67.56 29 58.9281 29 48.28C29 37.632 37.632 29 48.28 29C58.9281 29 67.56 37.632 67.56 48.28Z" fill="#0B0B0D"/>
<path fill-rule="evenodd" clip-rule="evenodd" d="M35.6239 35.6144C29.2246 41.9388 28.459 52.1985 34.155 59.4369C40.2776 67.2167 51.547 68.5605 59.3273 62.4387L59.3605 62.4125L55.0836 56.9722C54.9465 57.0971 54.7931 57.2316 54.6262 57.3747L54.4777 57.5014C53.6038 58.2432 52.3694 59.1818 50.9571 59.9233C49.5551 60.6593 47.8974 61.2433 46.203 61.1762C44.4566 61.1069 42.7652 60.3462 41.3735 58.5762C40.273 57.1765 40.139 55.4462 40.4238 53.808C40.7086 52.1707 41.4304 50.4899 42.2275 49.0103C43.0298 47.5208 43.9388 46.18 44.643 45.2165L44.6945 45.1463C44.8028 44.9989 44.9063 44.8604 45.0037 44.7317C45.093 44.6137 45.1773 44.5041 45.2554 44.4033L45.3363 44.2996L45.4044 44.2129L45.5172 44.0704C45.5233 44.0628 45.5294 44.0552 45.5355 44.0475C45.5783 43.9942 45.6209 43.9413 45.6554 43.8988C45.7017 43.8419 45.7412 43.7938 45.7732 43.7549L45.8445 43.669L45.863 43.6457L47.3951 44.9332L47.3768 44.9545L47.3533 44.9833L47.3169 45.028L47.2501 45.1091L47.1811 45.1932L47.1212 45.2675L47.0819 45.3165C46.99 45.4318 46.8807 45.5712 46.7573 45.7318L46.7225 45.7772L46.639 45.887L46.5648 45.9852L46.4994 46.0724L46.3718 46.2439L46.3134 46.3232L46.2585 46.3979C45.5874 47.3161 44.7339 48.5763 43.9887 49.9594C43.2383 51.3523 42.6271 52.8173 42.3948 54.1528C42.1628 55.4877 42.3292 56.5573 42.945 57.3407C43.9806 58.6578 45.1297 59.1331 46.28 59.1789C47.4827 59.2266 48.7785 58.8059 50.0257 58.1512C51.262 57.5022 52.373 56.6638 53.1824 55.9768C53.5847 55.6352 53.9079 55.3347 54.1281 55.1225C54.2378 55.0168 54.3222 54.9333 54.3777 54.877L54.4403 54.8138L54.4562 54.796L55.2511 53.9531L60.8599 61.0866C67.2589 54.7623 68.0259 44.5035 62.3306 37.2652C56.208 29.4847 44.9361 28.1405 37.1555 34.2631L37.1232 34.2885L40.2401 38.2535C40.4171 38.0923 40.6213 37.9151 40.846 37.7243C41.7199 36.9825 42.9543 36.0439 44.3666 35.3024C45.7686 34.5665 47.4263 33.9824 49.1207 34.0496C50.8672 34.1188 52.5585 34.8795 53.9502 36.6495C55.0507 38.0493 55.1848 39.7795 54.8999 41.4177C54.6151 43.055 53.8933 44.7358 53.0963 46.2154C52.2939 47.7049 51.3849 49.0457 50.6807 50.0091C50.5132 50.2383 50.3566 50.4467 50.2152 50.6316C50.0585 50.8364 49.9204 51.0122 49.8065 51.1553C49.7424 51.2357 49.6856 51.3058 49.6375 51.3649L49.5505 51.4708L49.4793 51.5567L49.4608 51.58L47.9287 50.2925L47.947 50.2711L47.9726 50.2397L48.0068 50.1977L48.0332 50.1657C48.0854 50.1024 48.1565 50.0165 48.2419 49.9092L48.3064 49.828L48.3822 49.7316C48.5683 49.4939 48.802 49.1879 49.0653 48.8277C49.7363 47.9096 50.5899 46.6494 51.335 45.2663C52.0855 43.8734 52.6966 42.4084 52.9289 41.0729C53.1609 39.738 52.9945 38.6684 52.3787 37.885C51.3432 36.5679 50.1942 36.0926 49.0438 36.0468C47.841 35.9991 46.5452 36.4198 45.2981 37.0745C44.0618 37.7235 42.9509 38.5618 42.1414 39.2489C41.7391 39.5904 41.4158 39.8909 41.1956 40.1032L41.1292 40.1676L41.0988 40.1972L41.0186 40.2761L40.9461 40.3486C40.9183 40.3768 40.8966 40.3984 40.8835 40.4119L40.8676 40.4297L40.0727 41.2726L35.6239 35.6144Z" fill="#F6F8FA"/>
<path d="M48.2803 28.5C59.2043 28.5001 68.0596 37.3562 68.0596 48.2803C68.0594 59.2043 59.2043 68.0594 48.2803 68.0596C37.3562 68.0596 28.5001 59.2043 28.5 48.2803C28.5 37.3561 37.3561 28.5 48.2803 28.5Z" stroke="#F6F8FA"/>
</svg>
