<svg width="96" height="96" viewBox="0 0 96 96" fill="none" xmlns="http://www.w3.org/2000/svg">
<rect x="1" y="1" width="94" height="94" rx="29" fill="#484A55" stroke="#E7E7E7" stroke-width="2"/>
<path d="M35.9021 33.0406C44.1137 26.6722 55.9389 28.1147 62.3757 36.2946C68.8404 44.5102 67.4213 56.4107 59.2058 62.8756C50.9902 69.3405 39.0897 67.9212 32.6248 59.7057C26.5487 51.9844 27.4365 41.008 34.3855 34.3483L39.0466 40.275L39.7634 41.1871L40.5583 40.3434L40.5593 40.3444C40.5597 40.344 40.5601 40.3427 40.5613 40.3414C40.564 40.3386 40.5694 40.3336 40.5759 40.3268C40.589 40.3132 40.6097 40.2914 40.6375 40.2633C40.693 40.207 40.7768 40.1229 40.8865 40.0172C41.1066 39.805 41.4295 39.5061 41.8318 39.1647C42.6413 38.4775 43.7523 37.6382 44.989 36.9889C46.2363 36.3341 47.5322 35.9149 48.7351 35.9625C49.8858 36.0082 51.0359 36.4817 52.072 37.7994C52.6883 38.5832 52.8548 39.654 52.6228 40.9889C52.3905 42.3246 51.7786 43.7902 51.0281 45.1832C50.2829 46.5664 49.4297 47.8266 48.7585 48.7448C48.4239 49.2025 48.1365 49.5719 47.9343 49.8258C47.8333 49.9527 47.7537 50.0506 47.7 50.1158C47.6731 50.1484 47.6527 50.1732 47.6394 50.1891C47.6329 50.1968 47.6277 50.2021 47.6248 50.2057C47.6232 50.2075 47.6214 50.2099 47.6208 50.2106C47.6209 50.2105 47.6217 50.2098 48.3835 50.8571C49.1457 51.5045 49.146 51.5048 49.1462 51.5045V51.5035L49.1541 51.4957C49.1586 51.4903 49.1644 51.4821 49.1726 51.4723C49.189 51.4527 49.2129 51.4248 49.2429 51.3883C49.3033 51.315 49.3903 51.2081 49.4988 51.0719C49.7156 50.7996 50.0197 50.4076 50.3728 49.9244C51.0771 48.9608 51.9863 47.6211 52.7888 46.1315C53.5862 44.6514 54.3077 42.9696 54.5925 41.3317C54.8774 39.6933 54.7447 37.9627 53.6443 36.5631C52.2527 34.7934 50.5608 34.0328 48.8142 33.9635C47.1195 33.8964 45.4616 34.4823 44.0593 35.2184C42.6469 35.9599 41.4118 36.8974 40.5378 37.6393C40.3137 37.8296 40.1109 38.0078 39.9343 38.1686L35.9021 33.0406ZM45.5603 43.5563C45.559 43.5579 45.5567 43.5604 45.5544 43.5631C45.55 43.5684 45.5439 43.576 45.5359 43.5856C45.5195 43.6052 45.4957 43.634 45.4656 43.6705C45.4052 43.7437 45.318 43.85 45.2097 43.986C44.9929 44.2582 44.6888 44.6504 44.3357 45.1334C43.6314 46.097 42.7223 47.4376 41.9197 48.9274C41.1224 50.4073 40.3998 52.0883 40.115 53.7262C39.8301 55.3647 39.9638 57.0951 41.0642 58.4948C42.4559 60.2647 44.1475 61.0251 45.8943 61.0944C47.589 61.1615 49.2469 60.5766 50.6492 59.8405C52.0617 59.0989 53.2967 58.1605 54.1707 57.4186C54.3949 57.2282 54.5965 57.0492 54.7732 56.8883L59.0632 62.3453L60.6355 61.109L55.6619 54.7828L54.9451 53.8717L54.1492 54.7145C54.1487 54.7149 54.1475 54.7161 54.1462 54.7174C54.1435 54.7203 54.1389 54.7255 54.1326 54.7321C54.1195 54.7456 54.0987 54.7666 54.071 54.7946C54.0155 54.8509 53.931 54.9346 53.821 55.0406C53.6009 55.2529 53.279 55.5527 52.8767 55.8942C52.0671 56.5814 50.9562 57.4207 49.7195 58.0699C48.4722 58.7247 47.1763 59.144 45.9734 59.0963C44.8226 59.0507 43.6727 58.5763 42.6365 57.2584C42.0202 56.4745 41.8535 55.4041 42.0857 54.069C42.318 52.7333 42.9299 51.2687 43.6804 49.8756C44.4256 48.4924 45.2788 47.2323 45.95 46.3141C46.2846 45.8563 46.572 45.4859 46.7742 45.2321C46.875 45.1055 46.9548 45.0081 47.0085 44.943C47.0354 44.9104 47.0558 44.8856 47.0691 44.8698C47.0757 44.8619 47.0807 44.8557 47.0837 44.8522C47.0851 44.8505 47.0861 44.8489 47.0867 44.8483L46.325 44.2008C45.6117 43.5949 45.5654 43.5566 45.5623 43.5543H45.5613L45.5603 43.5563Z" stroke="#8C94A6" stroke-width="2"/>
</svg>
