<svg width="64" height="64" viewBox="0 0 64 64" fill="none" xmlns="http://www.w3.org/2000/svg">
<rect x="1" y="1" width="62" height="62" rx="7" fill="#484A55" stroke="#E7E7E7" stroke-width="2"/>
<path d="M19.9021 17.0406C28.1137 10.6722 39.9389 12.1147 46.3757 20.2946C52.8404 28.5102 51.4213 40.4107 43.2058 46.8756C34.9902 53.3405 23.0897 51.9212 16.6248 43.7057C10.5487 35.9844 11.4365 25.008 18.3855 18.3483L23.0466 24.275L23.7634 25.1871L24.5583 24.3434L24.5593 24.3444C24.5597 24.344 24.5601 24.3427 24.5613 24.3414C24.564 24.3386 24.5694 24.3336 24.5759 24.3268C24.589 24.3132 24.6097 24.2914 24.6375 24.2633C24.693 24.207 24.7768 24.1229 24.8865 24.0172C25.1066 23.805 25.4295 23.5061 25.8318 23.1647C26.6413 22.4775 27.7523 21.6382 28.989 20.9889C30.2363 20.3341 31.5322 19.9149 32.7351 19.9625C33.8858 20.0082 35.0359 20.4817 36.072 21.7994C36.6883 22.5832 36.8548 23.654 36.6228 24.9889C36.3905 26.3246 35.7786 27.7902 35.0281 29.1832C34.2829 30.5664 33.4297 31.8266 32.7585 32.7448C32.4239 33.2025 32.1365 33.5719 31.9343 33.8258C31.8333 33.9527 31.7537 34.0506 31.7 34.1158C31.6731 34.1484 31.6527 34.1732 31.6394 34.1891C31.6329 34.1968 31.6277 34.2021 31.6248 34.2057C31.6232 34.2075 31.6214 34.2099 31.6208 34.2106C31.6209 34.2105 31.6217 34.2098 32.3835 34.8571C33.1457 35.5045 33.146 35.5048 33.1462 35.5045V35.5035L33.1541 35.4957C33.1586 35.4903 33.1644 35.4821 33.1726 35.4723C33.189 35.4527 33.2129 35.4248 33.2429 35.3883C33.3033 35.315 33.3903 35.2081 33.4988 35.0719C33.7156 34.7996 34.0197 34.4076 34.3728 33.9244C35.0771 32.9608 35.9863 31.6211 36.7888 30.1315C37.5862 28.6514 38.3077 26.9696 38.5925 25.3317C38.8774 23.6933 38.7447 21.9627 37.6443 20.5631C36.2527 18.7934 34.5608 18.0328 32.8142 17.9635C31.1195 17.8964 29.4616 18.4823 28.0593 19.2184C26.6469 19.9599 25.4118 20.8974 24.5378 21.6393C24.3137 21.8296 24.1109 22.0078 23.9343 22.1686L19.9021 17.0406ZM29.5603 27.5563C29.559 27.5579 29.5567 27.5604 29.5544 27.5631C29.55 27.5684 29.5439 27.576 29.5359 27.5856C29.5195 27.6052 29.4957 27.634 29.4656 27.6705C29.4052 27.7437 29.318 27.85 29.2097 27.986C28.9929 28.2582 28.6888 28.6504 28.3357 29.1334C27.6314 30.097 26.7223 31.4376 25.9197 32.9274C25.1224 34.4073 24.3998 36.0883 24.115 37.7262C23.8301 39.3647 23.9638 41.0951 25.0642 42.4948C26.4559 44.2647 28.1475 45.0251 29.8943 45.0944C31.589 45.1615 33.2469 44.5766 34.6492 43.8405C36.0617 43.0989 37.2967 42.1605 38.1707 41.4186C38.3949 41.2282 38.5965 41.0492 38.7732 40.8883L43.0632 46.3453L44.6355 45.109L39.6619 38.7828L38.9451 37.8717L38.1492 38.7145C38.1487 38.7149 38.1475 38.7161 38.1462 38.7174C38.1435 38.7203 38.1389 38.7255 38.1326 38.7321C38.1195 38.7456 38.0987 38.7666 38.071 38.7946C38.0155 38.8509 37.931 38.9346 37.821 39.0406C37.6009 39.2529 37.279 39.5527 36.8767 39.8942C36.0671 40.5814 34.9562 41.4207 33.7195 42.0699C32.4722 42.7247 31.1763 43.144 29.9734 43.0963C28.8226 43.0507 27.6727 42.5763 26.6365 41.2584C26.0202 40.4745 25.8535 39.4041 26.0857 38.069C26.318 36.7333 26.9299 35.2687 27.6804 33.8756C28.4256 32.4924 29.2788 31.2323 29.95 30.3141C30.2846 29.8563 30.572 29.4859 30.7742 29.2321C30.875 29.1055 30.9548 29.0081 31.0085 28.943C31.0354 28.9104 31.0558 28.8856 31.0691 28.8698C31.0757 28.8619 31.0807 28.8557 31.0837 28.8522C31.0851 28.8505 31.0861 28.8489 31.0867 28.8483L30.325 28.2008C29.6117 27.5949 29.5654 27.5566 29.5623 27.5543H29.5613L29.5603 27.5563Z" stroke="#8C94A6" stroke-width="2"/>
</svg>
