<svg width="64" height="64" viewBox="0 0 64 64" fill="none" xmlns="http://www.w3.org/2000/svg">
<rect x="1" y="1" width="62" height="62" rx="7" fill="#EFF2F5" stroke="#484A55" stroke-width="2"/>
<path d="M20.332 16.9707C28.5437 10.6023 40.3689 12.0448 46.8057 20.2246C53.2704 28.4402 51.8513 40.3408 43.6357 46.8057C35.4202 53.2705 23.5197 51.8512 17.0547 43.6357C10.9787 35.9144 11.8664 24.938 18.8154 18.2783L23.4766 24.2051L24.1934 25.1172L24.9883 24.2734L24.9893 24.2744C24.9896 24.274 24.99 24.2727 24.9912 24.2715C24.9939 24.2686 24.9993 24.2636 25.0059 24.2568C25.0189 24.2433 25.0397 24.2215 25.0674 24.1934C25.1229 24.137 25.2067 24.053 25.3164 23.9473C25.5366 23.735 25.8595 23.4362 26.2617 23.0947C27.0713 22.4075 28.1822 21.5682 29.4189 20.9189C30.6662 20.2642 31.9622 19.8449 33.165 19.8926C34.3157 19.9382 35.4658 20.4118 36.502 21.7295C37.1182 22.5133 37.2848 23.584 37.0527 24.9189C36.8205 26.2547 36.2085 27.7202 35.458 29.1133C34.7128 30.4965 33.8596 31.7566 33.1885 32.6748C32.8539 33.1326 32.5665 33.502 32.3643 33.7559C32.2632 33.8827 32.1836 33.9807 32.1299 34.0459C32.103 34.0785 32.0826 34.1033 32.0693 34.1191C32.0629 34.1269 32.0577 34.1322 32.0547 34.1357C32.0532 34.1375 32.0514 34.1399 32.0508 34.1406C32.0509 34.1405 32.0516 34.1399 32.8135 34.7871C33.5756 35.4346 33.576 35.4348 33.5762 35.4346V35.4336L33.584 35.4258C33.5885 35.4204 33.5943 35.4122 33.6025 35.4023C33.6189 35.3828 33.6428 35.3548 33.6729 35.3184C33.7333 35.2451 33.8202 35.1382 33.9287 35.002C34.1456 34.7297 34.4496 34.3377 34.8027 33.8545C35.507 32.8909 36.4162 31.5512 37.2188 30.0615C38.0161 28.5815 38.7376 26.8997 39.0225 25.2617C39.3073 23.6233 39.1746 21.8927 38.0742 20.4932C36.6826 18.7234 34.9908 17.9628 33.2441 17.8936C31.5494 17.8264 29.8915 18.4123 28.4893 19.1484C27.0768 19.89 25.8417 20.8275 24.9678 21.5693C24.7436 21.7596 24.5409 21.9378 24.3643 22.0986L20.332 16.9707ZM29.9902 27.4863C29.9889 27.4879 29.9867 27.4905 29.9844 27.4932C29.9799 27.4985 29.9738 27.5061 29.9658 27.5156C29.9494 27.5352 29.9257 27.564 29.8955 27.6006C29.8352 27.6738 29.748 27.78 29.6396 27.916C29.4228 28.1882 29.1187 28.5804 28.7656 29.0635C28.0613 30.0271 27.1522 31.3676 26.3496 32.8574C25.5523 34.3374 24.8298 36.0184 24.5449 37.6562C24.26 39.2947 24.3937 41.0252 25.4941 42.4248C26.8858 44.1948 28.5775 44.9552 30.3242 45.0244C32.019 45.0916 33.6769 44.5066 35.0791 43.7705C36.4917 43.0289 37.7266 42.0905 38.6006 41.3486C38.8248 41.1583 39.0265 40.9792 39.2031 40.8184L43.4932 46.2754L45.0654 45.0391L40.0918 38.7129L39.375 37.8018L38.5791 38.6445C38.5787 38.645 38.5774 38.6461 38.5762 38.6475C38.5734 38.6504 38.5688 38.6556 38.5625 38.6621C38.5494 38.6757 38.5286 38.6966 38.501 38.7246C38.4454 38.7809 38.3609 38.8647 38.251 38.9707C38.0308 39.1829 37.7089 39.4827 37.3066 39.8242C36.4971 40.5114 35.3862 41.3507 34.1494 42C32.9022 42.6548 31.6062 43.074 30.4033 43.0264C29.2525 42.9807 28.1026 42.5064 27.0664 41.1885C26.4501 40.4046 26.2835 39.3341 26.5156 37.999C26.7479 36.6633 27.3599 35.1987 28.1104 33.8057C28.8555 32.4225 29.7087 31.1624 30.3799 30.2441C30.7145 29.7864 31.0019 29.416 31.2041 29.1621C31.3049 29.0355 31.3848 28.9382 31.4385 28.873C31.4654 28.8404 31.4857 28.8157 31.499 28.7998C31.5056 28.7919 31.5107 28.7858 31.5137 28.7822C31.515 28.7806 31.5161 28.779 31.5166 28.7783L30.7549 28.1309C30.0417 27.525 29.9953 27.4867 29.9922 27.4844H29.9912L29.9902 27.4863Z" stroke="#0B0B0D" stroke-width="2"/>
</svg>
