<svg xmlns="http://www.w3.org/2000/svg" width="64" height="64" viewBox="0 0 64 64" fill="none">
  <rect x="1" y="1" width="62" height="62" rx="7" fill="#EFF2F5" stroke="#484A55" stroke-width="2"/>
  <path d="M19.6054 16.2686C28.255 9.46208 40.7852 10.9559 47.5918 19.6055C54.3983 28.2552 52.9035 40.7855 44.2539 47.592L43.8457 47.9045C35.3511 54.2473 23.3565 52.817 16.5917 44.6545L16.2685 44.2541C9.56855 35.7397 10.9112 23.4658 19.205 16.5918L19.6054 16.2686ZM46.0195 20.8428C39.9241 13.0969 28.7277 11.7297 20.9501 17.7569L24.3642 22.0987C24.5408 21.9379 24.7435 21.7597 24.9677 21.5694C25.8417 20.8276 27.0767 19.89 28.4892 19.1485C29.8914 18.4124 31.5493 17.8265 33.2441 17.8936C34.9907 17.9629 36.6826 18.7235 38.0742 20.4932C39.1746 21.8928 39.3073 23.6234 39.0224 25.2618C38.7376 26.8998 38.0161 28.5816 37.2187 30.0616C36.4162 31.5513 35.507 32.891 34.8027 33.8546C34.4495 34.3378 34.1455 34.7298 33.9287 35.0021C33.8202 35.1383 33.7332 35.2452 33.6728 35.3185C33.6427 35.355 33.6189 35.3829 33.6025 35.4025C33.5943 35.4123 33.5885 35.4205 33.5839 35.4259L33.5761 35.4337C33.5759 35.434 33.5755 35.4347 32.8134 34.7872C32.0516 34.14 32.0508 34.1407 32.0507 34.1408C32.0513 34.1401 32.0531 34.1377 32.0546 34.1359C32.0576 34.1323 32.0628 34.127 32.0693 34.1193C32.0826 34.1034 32.103 34.0786 32.1298 34.046C32.1836 33.9808 32.2631 33.8829 32.3642 33.756C32.5664 33.5021 32.8538 33.1327 33.1884 32.6749C33.8595 31.7567 34.7127 30.4966 35.458 29.1134C36.2085 27.7203 36.8204 26.2547 37.0527 24.919C37.2847 23.5841 37.1182 22.5134 36.5019 21.7296C35.4658 20.4118 34.3157 19.9383 33.165 19.8926C31.9621 19.845 30.6661 20.2642 29.4189 20.919C28.1821 21.5683 27.0712 22.4076 26.2617 23.0948C25.8594 23.4363 25.5365 23.7351 25.3163 23.9473C25.2067 24.0531 25.1229 24.1371 25.0673 24.1934C25.0396 24.2215 25.0189 24.2434 25.0058 24.2569C24.9992 24.2637 24.9939 24.2687 24.9911 24.2716C24.99 24.2728 24.9896 24.2741 24.9892 24.2745L24.9882 24.2735L24.1933 25.1173L19.4364 19.0674C12.9196 25.3819 12.1056 35.7307 17.8398 43.0178C23.9632 50.7994 35.2359 52.1432 43.0175 46.0197C43.0742 45.9751 43.1295 45.9291 43.1855 45.884L39.2031 40.8185C39.0264 40.9794 38.8248 41.1584 38.6005 41.3488C37.7266 42.0907 36.4916 43.0291 35.0791 43.7707C33.6768 44.5068 32.0189 45.0918 30.3242 45.0246C28.5774 44.9554 26.8857 44.1949 25.4941 42.425C24.3936 41.0254 24.2599 39.2949 24.5449 37.6564C24.8297 36.0185 25.5522 34.3375 26.3495 32.8576C27.1521 31.3678 28.0612 30.0272 28.7656 29.0636C29.1186 28.5805 29.4228 28.1883 29.6396 27.9161C29.7479 27.7801 29.8351 27.6739 29.8954 27.6007C29.9256 27.5641 29.9493 27.5353 29.9658 27.5157C29.9737 27.5062 29.9798 27.4986 29.9843 27.4933C29.9866 27.4906 29.9888 27.488 29.9902 27.4864L29.9911 27.4845C29.9943 27.4868 30.0416 27.5251 30.7548 28.131L31.5165 28.7784C31.516 28.7791 31.515 28.7807 31.5136 28.7823C31.5106 28.7859 31.5056 28.792 31.499 28.7999C31.4857 28.8158 31.4653 28.8406 31.4384 28.8732C31.3847 28.9383 31.3049 29.0356 31.204 29.1622C31.0018 29.4161 30.7144 29.7865 30.3798 30.2443C29.7087 31.1625 28.8555 32.4226 28.1103 33.8058C27.3598 35.1989 26.7478 36.6635 26.5156 37.9992C26.2834 39.3343 26.4501 40.4048 27.0663 41.1886C28.1026 42.5066 29.2525 42.9809 30.4033 43.0265C31.6061 43.0742 32.9021 42.655 34.1494 42.0002C35.3861 41.3509 36.497 40.5116 37.3066 39.8244C37.7089 39.4829 38.0308 39.1831 38.2509 38.9709C38.3609 38.8649 38.4454 38.7811 38.5009 38.7248C38.5285 38.6968 38.5494 38.6758 38.5625 38.6623C38.5688 38.6557 38.5734 38.6505 38.5761 38.6476C38.5774 38.6463 38.5786 38.6451 38.5791 38.6447L39.375 37.8019L44.6738 44.5412C50.9583 38.2064 51.6788 28.0347 46.0195 20.8428Z" fill="#0B0B0D"/>
</svg>