<svg xmlns="http://www.w3.org/2000/svg" width="96" height="96" viewBox="0 0 96 96" fill="none">
  <rect x="1" y="1" width="94" height="94" rx="29" fill="#EFF2F5" stroke="#484A55" stroke-width="2"/>
  <path d="M35.6054 32.2686C44.255 25.4621 56.7852 26.9559 63.5918 35.6055C70.3983 44.2552 68.9035 56.7855 60.2539 63.592L59.8457 63.9045C51.3511 70.2473 39.3565 68.817 32.5917 60.6545L32.2685 60.2541C25.5685 51.7397 26.9112 39.4658 35.205 32.5918L35.6054 32.2686ZM62.0195 36.8428C55.9241 29.0969 44.7277 27.7297 36.9501 33.7569L40.3642 38.0987C40.5408 37.9379 40.7435 37.7597 40.9677 37.5694C41.8417 36.8276 43.0767 35.89 44.4892 35.1485C45.8914 34.4124 47.5493 33.8265 49.2441 33.8936C50.9907 33.9629 52.6826 34.7235 54.0742 36.4932C55.1746 37.8928 55.3073 39.6234 55.0224 41.2618C54.7376 42.8998 54.0161 44.5816 53.2187 46.0616C52.4162 47.5513 51.507 48.891 50.8027 49.8546C50.4495 50.3378 50.1455 50.7298 49.9287 51.0021C49.8202 51.1383 49.7332 51.2452 49.6728 51.3185C49.6427 51.355 49.6189 51.3829 49.6025 51.4025C49.5943 51.4123 49.5885 51.4205 49.5839 51.4259L49.5761 51.4337C49.5759 51.434 49.5755 51.4347 48.8134 50.7872C48.0516 50.14 48.0508 50.1407 48.0507 50.1408C48.0513 50.1401 48.0531 50.1377 48.0546 50.1359C48.0576 50.1323 48.0628 50.127 48.0693 50.1193C48.0826 50.1034 48.103 50.0786 48.1298 50.046C48.1836 49.9808 48.2631 49.8829 48.3642 49.756C48.5664 49.5021 48.8538 49.1327 49.1884 48.6749C49.8595 47.7567 50.7127 46.4966 51.458 45.1134C52.2085 43.7203 52.8204 42.2547 53.0527 40.919C53.2847 39.5841 53.1182 38.5134 52.5019 37.7296C51.4658 36.4118 50.3157 35.9383 49.165 35.8926C47.9621 35.845 46.6661 36.2642 45.4189 36.919C44.1821 37.5683 43.0712 38.4076 42.2617 39.0948C41.8594 39.4363 41.5365 39.7351 41.3163 39.9473C41.2067 40.0531 41.1229 40.1371 41.0673 40.1934C41.0396 40.2215 41.0189 40.2434 41.0058 40.2569C40.9992 40.2637 40.9939 40.2687 40.9911 40.2716C40.99 40.2728 40.9896 40.2741 40.9892 40.2745L40.9882 40.2735L40.1933 41.1173L35.4364 35.0674C28.9196 41.3819 28.1056 51.7307 33.8398 59.0178C39.9632 66.7994 51.2359 68.1432 59.0175 62.0197C59.0742 61.9751 59.1295 61.9291 59.1855 61.884L55.2031 56.8185C55.0264 56.9794 54.8248 57.1584 54.6005 57.3488C53.7266 58.0907 52.4916 59.0291 51.0791 59.7707C49.6768 60.5068 48.0189 61.0918 46.3242 61.0246C44.5774 60.9554 42.8857 60.1949 41.4941 58.425C40.3936 57.0254 40.2599 55.2949 40.5449 53.6564C40.8297 52.0185 41.5522 50.3375 42.3495 48.8576C43.1521 47.3678 44.0612 46.0272 44.7656 45.0636C45.1186 44.5805 45.4228 44.1883 45.6396 43.9161C45.7479 43.7801 45.8351 43.6739 45.8954 43.6007C45.9256 43.5641 45.9493 43.5353 45.9658 43.5157C45.9737 43.5062 45.9798 43.4986 45.9843 43.4933C45.9866 43.4906 45.9888 43.488 45.9902 43.4864L45.9911 43.4845C45.9943 43.4868 46.0416 43.5251 46.7548 44.131L47.5165 44.7784C47.516 44.7791 47.515 44.7807 47.5136 44.7823C47.5106 44.7859 47.5056 44.792 47.499 44.7999C47.4857 44.8158 47.4653 44.8406 47.4384 44.8732C47.3847 44.9383 47.3049 45.0356 47.204 45.1622C47.0018 45.4161 46.7144 45.7865 46.3798 46.2443C45.7087 47.1625 44.8555 48.4226 44.1103 49.8058C43.3598 51.1989 42.7478 52.6635 42.5156 53.9992C42.2834 55.3343 42.4501 56.4048 43.0663 57.1886C44.1026 58.5066 45.2525 58.9809 46.4033 59.0265C47.6061 59.0742 48.9021 58.655 50.1494 58.0002C51.3861 57.3509 52.497 56.5116 53.3066 55.8244C53.7089 55.4829 54.0308 55.1831 54.2509 54.9709C54.3609 54.8649 54.4454 54.7811 54.5009 54.7248C54.5285 54.6968 54.5494 54.6758 54.5625 54.6623C54.5688 54.6557 54.5734 54.6505 54.5761 54.6476C54.5774 54.6463 54.5786 54.6451 54.5791 54.6447L55.375 53.8019L60.6738 60.5412C66.9583 54.2064 67.6788 44.0347 62.0195 36.8428Z" fill="#0B0B0D"/>
</svg>