<svg width="96" height="96" viewBox="0 0 96 96" fill="none" xmlns="http://www.w3.org/2000/svg">
<rect x="1" y="1" width="94" height="94" rx="7" fill="#EFF2F5" stroke="#484A55" stroke-width="2"/>
<path d="M36.332 32.9707C44.5437 26.6023 56.3689 28.0448 62.8057 36.2246C69.2704 44.4402 67.8513 56.3408 59.6357 62.8057C51.4202 69.2705 39.5197 67.8512 33.0547 59.6357C26.9787 51.9144 27.8664 40.938 34.8154 34.2783L39.4766 40.2051L40.1934 41.1172L40.9883 40.2734L40.9893 40.2744C40.9896 40.274 40.99 40.2727 40.9912 40.2715C40.9939 40.2686 40.9993 40.2636 41.0059 40.2568C41.0189 40.2433 41.0397 40.2215 41.0674 40.1934C41.1229 40.137 41.2067 40.053 41.3164 39.9473C41.5366 39.735 41.8595 39.4362 42.2617 39.0947C43.0713 38.4075 44.1822 37.5682 45.4189 36.9189C46.6662 36.2642 47.9622 35.8449 49.165 35.8926C50.3157 35.9382 51.4658 36.4118 52.502 37.7295C53.1182 38.5133 53.2848 39.584 53.0527 40.9189C52.8205 42.2547 52.2085 43.7202 51.458 45.1133C50.7128 46.4965 49.8596 47.7566 49.1885 48.6748C48.8539 49.1326 48.5665 49.502 48.3643 49.7559C48.2632 49.8827 48.1836 49.9807 48.1299 50.0459C48.103 50.0785 48.0826 50.1033 48.0693 50.1191C48.0629 50.1269 48.0577 50.1322 48.0547 50.1357C48.0532 50.1375 48.0514 50.1399 48.0508 50.1406C48.0509 50.1405 48.0516 50.1399 48.8135 50.7871C49.5756 51.4346 49.576 51.4348 49.5762 51.4346V51.4336L49.584 51.4258C49.5885 51.4204 49.5943 51.4122 49.6025 51.4023C49.6189 51.3828 49.6428 51.3548 49.6729 51.3184C49.7333 51.2451 49.8202 51.1382 49.9287 51.002C50.1456 50.7297 50.4496 50.3377 50.8027 49.8545C51.507 48.8909 52.4162 47.5512 53.2188 46.0615C54.0161 44.5815 54.7376 42.8997 55.0225 41.2617C55.3073 39.6233 55.1746 37.8927 54.0742 36.4932C52.6826 34.7234 50.9908 33.9628 49.2441 33.8936C47.5494 33.8264 45.8915 34.4123 44.4893 35.1484C43.0768 35.89 41.8417 36.8275 40.9678 37.5693C40.7436 37.7596 40.5409 37.9378 40.3643 38.0986L36.332 32.9707ZM45.9902 43.4863C45.9889 43.4879 45.9867 43.4905 45.9844 43.4932C45.9799 43.4985 45.9738 43.5061 45.9658 43.5156C45.9494 43.5352 45.9257 43.564 45.8955 43.6006C45.8352 43.6738 45.748 43.78 45.6396 43.916C45.4228 44.1882 45.1187 44.5804 44.7656 45.0635C44.0613 46.0271 43.1522 47.3676 42.3496 48.8574C41.5523 50.3374 40.8298 52.0184 40.5449 53.6562C40.26 55.2947 40.3937 57.0252 41.4941 58.4248C42.8858 60.1948 44.5775 60.9552 46.3242 61.0244C48.019 61.0916 49.6769 60.5066 51.0791 59.7705C52.4917 59.0289 53.7266 58.0905 54.6006 57.3486C54.8248 57.1583 55.0265 56.9792 55.2031 56.8184L59.4932 62.2754L61.0654 61.0391L56.0918 54.7129L55.375 53.8018L54.5791 54.6445C54.5787 54.645 54.5774 54.6461 54.5762 54.6475C54.5734 54.6504 54.5688 54.6556 54.5625 54.6621C54.5494 54.6757 54.5286 54.6966 54.501 54.7246C54.4454 54.7809 54.3609 54.8647 54.251 54.9707C54.0308 55.1829 53.7089 55.4827 53.3066 55.8242C52.4971 56.5114 51.3862 57.3507 50.1494 58C48.9022 58.6548 47.6062 59.074 46.4033 59.0264C45.2525 58.9807 44.1026 58.5064 43.0664 57.1885C42.4501 56.4046 42.2835 55.3341 42.5156 53.999C42.7479 52.6633 43.3599 51.1987 44.1104 49.8057C44.8555 48.4225 45.7087 47.1624 46.3799 46.2441C46.7145 45.7864 47.0019 45.416 47.2041 45.1621C47.3049 45.0355 47.3848 44.9382 47.4385 44.873C47.4654 44.8404 47.4857 44.8157 47.499 44.7998C47.5056 44.7919 47.5107 44.7858 47.5137 44.7822C47.515 44.7806 47.5161 44.779 47.5166 44.7783L46.7549 44.1309C46.0417 43.525 45.9953 43.4867 45.9922 43.4844H45.9912L45.9902 43.4863Z" stroke="#0B0B0D" stroke-width="2"/>
</svg>
