<svg width="96" height="157" viewBox="0 0 96 157" fill="none" xmlns="http://www.w3.org/2000/svg">
<path d="M48 2C73.4135 2 93.9998 22.5059 94 47.7822C94 58.9163 90.0916 71.6876 84.5068 84.5928C78.935 97.4679 71.7842 110.279 65.458 121.483C59.8161 131.475 55.0139 140.115 51.6211 146.256C50.1226 148.968 48.8992 151.193 48 152.833C47.1008 151.193 45.8774 148.968 44.3789 146.256C40.9861 140.115 36.1839 131.475 30.542 121.483C24.2158 110.279 17.065 97.4679 11.4932 84.5928C5.90838 71.6876 2 58.9163 2 47.7822C2.00021 22.5059 22.5865 2 48 2Z" fill="#F6F8FA" stroke="#E7E7E7" stroke-width="4"/>
<path fill-rule="evenodd" clip-rule="evenodd" d="M47.8942 74.236L32.7143 83.0001L15 52.318L45.6821 34.6037L56.6817 53.6555L54.3771 57.4547L40.4982 56.7726L52.0677 50.0929L44.8712 37.6288L18.0252 53.1288L33.5252 79.9749L45.7329 72.9265L47.8942 74.236ZM50.1806 72.9159L63.3964 65.2858L61.6414 62.2461L56.7957 62.0076L50.1806 72.9159ZM45.5475 72.0134L51.7649 61.76L39.2738 61.1472L45.5475 72.0134Z" fill="black"/>
<path fill-rule="evenodd" clip-rule="evenodd" d="M67.3185 21.3558L67.7619 17.81L70.7384 18.183L70.3129 21.5859C74.1554 22.5537 76.9996 26.0324 76.9996 30.1754L76.9888 30.6304C76.7683 34.9846 73.4032 38.5089 69.1193 38.9786L75.1241 61.8011L56.1913 60.8702L48.6078 73.3742L46.7136 72.226L53.6765 60.7459L39.8567 60.0669L39.9648 57.8547L54.9826 58.5932L57.3137 54.7501L67.1426 38.9767C62.8701 38.4965 59.5175 34.9765 59.2974 30.6304L59.2857 30.1754C59.2857 25.5618 62.8135 21.7718 67.3185 21.3558ZM68.1431 24.3179C71.3778 24.3181 73.9996 26.9407 73.9996 30.1754C73.9994 33.41 71.3777 36.0317 68.1431 36.0318C64.9084 36.0318 62.2859 33.4101 62.2857 30.1754C62.2857 26.9406 64.9083 24.3179 68.1431 24.3179ZM72.233 59.4409L67.7234 41.8574L57.4974 58.7165L72.233 59.4409Z" fill="black"/>
</svg>
