<svg width="96" height="157" viewBox="0 0 96 157" fill="none" xmlns="http://www.w3.org/2000/svg">
<path d="M48 2C73.4135 2 93.9998 22.5059 94 47.7822C94 58.9163 90.0916 71.6876 84.5068 84.5928C78.935 97.4679 71.7842 110.279 65.458 121.483C59.8161 131.475 55.0139 140.115 51.6211 146.256C50.1226 148.968 48.8992 151.193 48 152.833C47.1008 151.193 45.8774 148.968 44.3789 146.256C40.9861 140.115 36.1839 131.475 30.542 121.483C24.2158 110.279 17.065 97.4679 11.4932 84.5928C5.90838 71.6876 2 58.9163 2 47.7822C2.00021 22.5059 22.5865 2 48 2Z" fill="#0B0B0D" stroke="#484A55" stroke-width="4"/>
<path d="M70.4355 19.4053L70.0156 22.7656C73.7087 23.7685 76.4248 27.1447 76.4248 31.1553C76.4248 35.6322 73.0403 39.3188 68.6904 39.7959L74.584 62.1943L56.002 61.2812L48.7012 73.3193L48.958 73.7637L32.9609 83L15.5752 52.8877L45.6875 35.502L54.9238 51.499L42.8701 58.459L54.8154 59.0459L66.7549 39.7939C62.414 39.3084 59.0391 35.6258 59.0391 31.1553C59.0391 26.6823 62.4175 22.9981 66.7617 22.5156L67.2012 19L70.4355 19.4053ZM47.4609 71.1709L53.5342 61.1592L41.335 60.5596L47.4609 71.1709ZM57.2842 59.167L71.7461 59.8779L67.3203 42.6211L57.2842 59.167Z" fill="white"/>
</svg>
