<svg width="96" height="157" viewBox="0 0 96 157" fill="none" xmlns="http://www.w3.org/2000/svg">
<path d="M48 2C73.4135 2 93.9998 22.5059 94 47.7822C94 58.9163 90.0916 71.6876 84.5068 84.5928C78.935 97.4679 71.7842 110.279 65.458 121.483C59.8161 131.475 55.0139 140.115 51.6211 146.256C50.1226 148.968 48.8992 151.193 48 152.833C47.1008 151.193 45.8774 148.968 44.3789 146.256C40.9861 140.115 36.1839 131.475 30.542 121.483C24.2158 110.279 17.065 97.4679 11.4932 84.5928C5.90838 71.6876 2 58.9163 2 47.7822C2.00021 22.5059 22.5865 2 48 2Z" fill="#F6F8FA" stroke="#E7E7E7" stroke-width="4"/>
<path fill-rule="evenodd" clip-rule="evenodd" d="M21.0757 58.3895L32.5284 58.6624L23.4443 82.1743L25.5813 83L34.9621 58.7204L53.2978 59.1574L54.6918 70.2461L56.9654 69.9597L55.6143 59.2126L61.6201 59.3557L70.4129 82.9866L72.5612 82.1877L64.0874 59.4145L74.9242 59.6728V27.5928H52.9135L49.8213 19H47.803L44.4899 27.5928H22.7584L21.0757 58.3895ZM50.0665 26.4471H47.3868L48.772 22.8522L50.0665 26.4471ZM72.6328 29.8843V57.3266L23.4924 56.1551L24.9279 29.8843H72.6328Z" fill="black"/>
<path fill-rule="evenodd" clip-rule="evenodd" d="M54.2611 34.7457C56.8002 34.8839 58.7466 37.0547 58.6087 39.5938C58.4705 42.1327 56.3005 44.0791 53.7616 43.9415C53.7204 43.9392 53.6793 43.9364 53.6384 43.9331C53.0632 44.6685 52.3638 45.2997 51.5737 45.7967C52.113 46.0002 52.6856 46.1384 53.2826 46.2013L53.6373 46.2295C57.3211 46.4293 60.4863 43.6997 60.8685 40.0718L60.8967 39.7181C61.0968 36.0341 58.3672 32.868 54.739 32.4858L54.3854 32.4576C53.6601 32.4182 52.955 32.4924 52.2872 32.6646C53.0187 33.2442 53.6456 33.9474 54.1377 34.7406C54.1787 34.7417 54.2199 34.7434 54.2611 34.7457Z" fill="black"/>
<path d="M69.814 43.8835L64.7941 52.0793L67.384 53.824C67.9084 54.1777 68.0464 54.8901 67.6929 55.4147C67.3391 55.939 66.6279 56.0771 66.1034 55.7235L61.6953 52.7537L65.3353 46.8077L55.9311 52.6508C55.3936 52.9846 54.6878 52.8194 54.3539 52.282C54.0202 51.7445 54.1853 51.0386 54.7227 50.7048L68.2329 42.3125L69.814 43.8835Z" fill="black"/>
<path d="M54.1791 39.3532C54.2694 37.6896 53.7623 36.1316 52.8449 34.8878C52.3377 34.2004 51.7052 33.6089 50.9788 33.1487C50.1093 32.5979 49.1055 32.2351 48.0214 32.1209L47.6677 32.0927C43.8647 31.8862 40.6137 34.8022 40.4072 38.6052L40.3969 38.9598C40.3843 42.4902 43.0539 45.4665 46.5649 45.8364L46.9197 45.8646C48.1391 45.9307 49.3017 45.6759 50.3254 45.1737C51.0975 44.7949 51.7905 44.2754 52.3693 43.6468C53.3411 42.5913 53.9906 41.228 54.1509 39.7069L54.1791 39.3532ZM47.5434 34.3808C48.0329 34.4074 48.5004 34.5096 48.9351 34.6754C49.6774 34.9585 50.3243 35.427 50.8226 36.0216C51.5465 36.8853 51.9569 38.015 51.891 39.2289C51.825 40.4426 51.2946 41.5209 50.4816 42.3009C49.9216 42.838 49.2277 43.2336 48.459 43.4346C48.009 43.5522 47.5333 43.6031 47.044 43.5766C44.5048 43.4387 42.5576 41.2686 42.6952 38.7295C42.8332 36.1901 45.0041 34.2429 47.5434 34.3808Z" fill="black"/>
<path d="M40.3403 47.8216C41.5052 50.0387 39.9841 52.6862 37.5376 52.8498L37.297 52.8576H26.4978L34.7427 37.169L40.3403 47.8216ZM30.2907 50.5662H37.297C38.1587 50.5662 38.7123 49.6507 38.3118 48.8879L34.7416 42.0942L30.2907 50.5662Z" fill="black"/>
</svg>
