<svg width="96" height="157" viewBox="0 0 96 157" fill="none" xmlns="http://www.w3.org/2000/svg">
<path d="M48 2C73.4135 2 93.9998 22.5059 94 47.7822C94 58.9163 90.0916 71.6876 84.5068 84.5928C78.935 97.4679 71.7842 110.279 65.458 121.483C59.8161 131.475 55.0139 140.115 51.6211 146.256C50.1226 148.968 48.8992 151.193 48 152.833C47.1008 151.193 45.8774 148.968 44.3789 146.256C40.9861 140.115 36.1839 131.475 30.542 121.483C24.2158 110.279 17.065 97.4679 11.4932 84.5928C5.90838 71.6876 2 58.9163 2 47.7822C2.00021 22.5059 22.5865 2 48 2Z" fill="#0B0B0D" stroke="#484A55" stroke-width="4"/>
<path fill-rule="evenodd" clip-rule="evenodd" d="M52.8187 28.6671L49.3395 19H48.2852L44.5581 28.6671H23.2478L21.5977 58.8667L32.8283 59.1344L23.9204 82.1903L26.016 83L35.2146 59.1915L53.195 59.6194L54.5621 70.4934L56.7915 70.2125L56.7718 70.0534L55.4661 59.6742L61.3557 59.8146L69.9784 82.9868L72.0849 82.2035L63.775 59.8717L74.4022 60.1251V28.6671H52.8187ZM54.0102 33.055L53.6635 33.0275C52.9523 32.9889 52.26 33.0617 51.6052 33.2305C52.3225 33.7988 52.9374 34.488 53.4199 35.2658C53.4601 35.2669 53.5013 35.2691 53.5417 35.2713C56.0313 35.407 57.9394 37.5355 57.8042 40.0253C57.6685 42.5148 55.5408 44.4227 53.0513 44.2878C53.0109 44.2856 52.9706 44.2833 52.9306 44.2801C52.3665 45.0012 51.6811 45.6206 50.9063 46.108C51.435 46.3074 51.9965 46.4424 52.5817 46.5041L52.9295 46.5315C56.5418 46.7274 59.6456 44.0513 60.0205 40.4938L60.0479 40.1471C60.2441 36.5345 57.5679 33.4299 54.0102 33.055ZM47.0761 32.6688L47.4228 32.6973C48.4857 32.8093 49.4701 33.1644 50.3226 33.7045C51.0349 34.1558 51.6554 34.7364 52.1527 35.4106C53.0522 36.6302 53.5491 38.1581 53.4605 39.7894L53.4331 40.1361C53.2759 41.6276 52.6392 42.9642 51.6864 43.9992C51.1189 44.6156 50.439 45.1254 49.6819 45.4969C48.6781 45.9893 47.5378 46.2387 46.3421 46.1738L45.9943 46.1464C42.5514 45.7836 39.9333 42.8651 39.9456 39.4032L39.9555 39.0554C40.1581 35.3261 43.3468 32.4662 47.0761 32.6688ZM37.1423 53.0234C39.5413 52.8628 41.033 50.2667 39.8907 48.0928L34.4016 37.6466L26.3166 53.0311H36.9064L37.1423 53.0234ZM68.7923 44.2318L63.8704 52.2686L66.4093 53.9791C66.9235 54.3259 67.0598 55.0248 66.7132 55.5392C66.3664 56.0534 65.6685 56.1886 65.1541 55.8421L60.8313 52.9302L64.4004 47.0987L55.1787 52.8292C54.6517 53.1562 53.9601 52.9939 53.6328 52.4672C53.3056 51.9401 53.4668 51.2475 53.9937 50.9202L67.242 42.6914L68.7923 44.2318Z" fill="white"/>
<path fill-rule="evenodd" clip-rule="evenodd" d="M42.1992 39.1772C42.3345 36.6871 44.4642 34.7772 46.9543 34.9125C47.4342 34.9386 47.893 35.0396 48.3192 35.2021C49.0467 35.4797 49.6805 35.9392 50.169 36.522C50.8788 37.369 51.2815 38.4772 51.2168 39.6676C51.1519 40.8574 50.6325 41.9146 49.8355 42.6793C49.2865 43.206 48.6055 43.5937 47.8518 43.7908C47.4105 43.9061 46.9437 43.9561 46.4639 43.9301C43.9741 43.7947 42.0642 41.667 42.1992 39.1772Z" fill="white"/>
<path fill-rule="evenodd" clip-rule="evenodd" d="M36.9064 50.7841H30.036L34.4005 42.4764L37.9016 49.1384C38.2942 49.8863 37.7513 50.7839 36.9064 50.7841Z" fill="white"/>
</svg>
