<svg width="96" height="157" viewBox="0 0 96 157" fill="none" xmlns="http://www.w3.org/2000/svg">
<path d="M48 2C73.4135 2 93.9998 22.5059 94 47.7822C94 58.9163 90.0916 71.6876 84.5068 84.5928C78.935 97.4679 71.7842 110.279 65.458 121.483C59.8161 131.475 55.0139 140.115 51.6211 146.256C50.1226 148.968 48.8992 151.193 48 152.833C47.1008 151.193 45.8774 148.968 44.3789 146.256C40.9861 140.115 36.1839 131.475 30.542 121.483C24.2158 110.279 17.065 97.4679 11.4932 84.5928C5.90838 71.6876 2 58.9163 2 47.7822C2.00021 22.5059 22.5865 2 48 2Z" fill="#0B0B0D" stroke="#484A55" stroke-width="4"/>
<path fill-rule="evenodd" clip-rule="evenodd" d="M22.4913 43.4694H51.558V73.6987C51.558 78.8357 47.3936 83 42.2566 83H31.7926C26.6557 83 22.4913 78.8357 22.4913 73.6987V71.0895C22.4404 71.0895 22.3496 71.1013 22.1212 71.1519L22.0313 71.1721C21.8372 71.2158 21.5725 71.2755 21.2878 71.3166C20.5732 71.4197 19.7011 71.4135 18.6218 71.0191C17.2216 70.5074 16.3675 69.2599 15.8185 68.109C15.2653 66.9495 14.9056 65.6348 14.6332 64.6392L14.6217 64.5972C14.467 64.0316 14.1215 62.4021 13.8213 60.8673C13.6693 60.0903 13.5248 59.3186 13.4182 58.693C13.321 58.123 13.2309 57.5426 13.2309 57.2442L13.2297 57.2113C13.2292 57.1978 13.2283 57.182 13.2273 57.1636L13.2252 57.1261L13.2116 56.8593C13.2007 56.6469 13.1891 56.3734 13.19 56.0634C13.1916 55.4512 13.24 54.6592 13.45 53.8652C13.6596 53.0728 14.0502 52.2034 14.7898 51.5297C15.5517 50.8357 16.5784 50.4455 17.8634 50.4454H22.4913V43.4694ZM22.4913 68.7642V52.7707H17.8634C17.0765 52.7708 16.6328 52.9962 16.3555 53.2487C16.0558 53.5217 15.838 53.9306 15.6981 54.4591C15.4653 55.3392 15.5097 56.2118 15.5402 56.8114C15.5486 56.9759 15.5564 57.1297 15.5564 57.2471C15.5577 57.2637 15.5644 57.3524 15.5914 57.5474C15.6188 57.7451 15.6594 58.0018 15.7106 58.3024C15.8129 58.9025 15.9534 59.6541 16.1035 60.4211C16.4073 61.9742 16.7362 63.5149 16.8642 63.9829C17.1481 65.0204 17.4616 66.1511 17.9179 67.1076C18.3862 68.0894 18.8923 68.6417 19.42 68.8346C20.0875 69.0785 20.5651 69.0715 20.9562 69.0151C21.1389 68.9887 21.2993 68.9526 21.492 68.9093L21.6182 68.8811C21.8397 68.832 22.1569 68.7642 22.4913 68.7642ZM39.9313 47.4853H46.9073V60.856L39.9313 47.4853Z" fill="#F6F8FA"/>
<path fill-rule="evenodd" clip-rule="evenodd" d="M68.6824 43.2411C67.0491 45.6986 64.8692 47.6217 62.022 48.0367V71.8173L73.006 77.3093L72.486 79.512H52.3279C53.152 78.0873 53.6825 76.4715 53.8366 74.7473L59.6967 71.8173V48.0367C57.3158 47.6896 55.4015 46.2881 53.8833 44.4013C53.586 44.0318 53.3038 43.6436 53.0363 43.2411C52.6008 42.5858 52.1968 41.8825 51.8221 41.144C50.6088 38.7529 49.7017 35.9922 49.0204 33.2892C48.1243 29.7345 47.5977 26.1921 47.2945 23.5462C47.1427 22.2211 47.0464 21.1155 46.988 20.3398C46.9588 19.9519 46.9392 19.646 46.9266 19.436C46.9204 19.331 46.9159 19.2496 46.913 19.1942L46.9096 19.1306L46.9085 19.1135C46.9085 19.1135 46.9086 19.1066 48.07 19.0534L49.2315 19L49.2327 19.017L49.2333 19.0341L49.2339 19.0495L49.235 19.0731C49.2376 19.1232 49.2416 19.2002 49.2474 19.2975C49.2593 19.4962 49.2782 19.79 49.3065 20.1649C49.363 20.9151 49.4572 21.9899 49.6051 23.2805C49.6623 23.7797 49.7275 24.3105 49.8017 24.8667H71.917C71.9912 24.3105 72.0564 23.7797 72.1136 23.2805C72.2615 21.9899 72.3557 20.9151 72.4122 20.1649C72.4404 19.79 72.4594 19.4962 72.4712 19.2975C72.4771 19.1997 72.4811 19.1228 72.4837 19.0727C72.4845 19.0575 72.485 19.0446 72.4853 19.0341C72.4856 19.0275 72.4858 19.0217 72.486 19.017C72.4857 19.0196 72.4862 19.0135 72.486 19.017L72.4871 19.0034C72.4871 19.0034 72.4893 19.0002 73.6487 19.0534C74.8101 19.1066 74.8102 19.1079 74.8102 19.1079L74.8091 19.1306L74.8057 19.1942C74.8027 19.2496 74.7983 19.331 74.792 19.436C74.7795 19.646 74.7599 19.9519 74.7307 20.3398C74.6723 21.1155 74.576 22.2211 74.4242 23.5462C74.121 26.1921 73.5943 29.7345 72.6983 33.2892C71.8065 36.827 70.5281 40.4638 68.6824 43.2411ZM69.8142 27.192H65.6534L64.4827 41.6086C67.3334 38.7211 68.9307 32.5804 69.8142 27.192ZM62.022 74.4174L67.5606 77.1867H59.0671L61.4236 75.8775L62.022 75.546V74.4174Z" fill="#F6F8FA"/>
</svg>
