<svg width="96" height="157" viewBox="0 0 96 157" fill="none" xmlns="http://www.w3.org/2000/svg">
<path d="M48 2C73.4135 2 93.9998 22.5059 94 47.7822C94 58.9163 90.0916 71.6876 84.5068 84.5928C78.935 97.4679 71.7842 110.279 65.458 121.483C59.8161 131.475 55.0139 140.115 51.6211 146.256C50.1226 148.968 48.8992 151.193 48 152.833C47.1008 151.193 45.8774 148.968 44.3789 146.256C40.9861 140.115 36.1839 131.475 30.542 121.483C24.2158 110.279 17.065 97.4679 11.4932 84.5928C5.90838 71.6876 2 58.9163 2 47.7822C2.00021 22.5059 22.5865 2 48 2Z" fill="#F6F8FA" stroke="#E7E7E7" stroke-width="4"/>
<path fill-rule="evenodd" clip-rule="evenodd" d="M15.0163 56.9263C15.0148 56.8965 15.0132 56.8659 15.0115 56.8345L15.0163 56.9263ZM12.6468 57.1866L12.6447 57.1491C12.6461 57.1762 12.6476 57.1989 12.6486 57.2179C12.6481 57.2084 12.6475 57.198 12.6468 57.1866Z" fill="#0B0B0D"/>
<path fill-rule="evenodd" clip-rule="evenodd" d="M74.4211 19.0763C75.6086 19.1295 75.6086 19.1308 75.6086 19.1308L75.6075 19.1535L75.604 19.2171C75.601 19.2726 75.5965 19.3539 75.5901 19.4589C75.5773 19.669 75.5572 19.9749 75.5274 20.3627C75.4677 21.1384 75.3692 22.2441 75.214 23.5692C74.904 26.215 74.3656 29.7575 73.4495 33.3122C72.5377 36.85 71.2307 40.4868 69.3436 43.2641C67.6738 45.7215 65.445 47.6427 62.5341 48.0578V71.8402L73.7641 77.3322L73.2324 79.535H51.1862C52.0318 78.3156 52.6212 76.9124 52.8788 75.3995L60.1567 71.8402V48.0578C57.2459 47.6426 55.0169 45.7215 53.3472 43.2641C51.4601 40.4868 50.1531 36.85 49.2413 33.3122C48.3252 29.7575 47.7868 26.215 47.4768 23.5692C47.3216 22.2441 47.2231 21.1384 47.1634 20.3627C47.1336 19.9749 47.1135 19.669 47.1007 19.4589C47.0943 19.3539 47.0898 19.2726 47.0868 19.2171L47.0833 19.1535L47.0822 19.1365C47.0822 19.1365 47.0822 19.1295 48.2697 19.0763L49.4572 19.0229L49.4584 19.04L49.4591 19.0569C49.4594 19.0675 49.4601 19.0834 49.4609 19.0986C49.4636 19.1487 49.4676 19.2232 49.4735 19.3204C49.4856 19.5191 49.505 19.8129 49.5339 20.1879C49.5916 20.9381 49.688 22.0128 49.8392 23.3035C50.1421 25.8895 50.6651 29.3235 51.5467 32.7445C52.4328 36.1824 53.6598 39.5219 55.3276 41.9765C56.9923 44.4266 58.9629 45.8176 61.3454 45.8176C63.7279 45.8176 65.6984 44.4266 67.3632 41.9765C69.031 39.5219 70.258 36.1825 71.144 32.7445C72.0257 29.3235 72.5487 25.8895 72.8516 23.3035C73.0028 22.0128 73.0992 20.9381 73.1569 20.1879C73.1858 19.8129 73.2052 19.5191 73.2173 19.3204C73.2232 19.223 73.2274 19.1463 73.23 19.0962C73.2309 19.081 73.2314 19.0675 73.2317 19.0569L73.2324 19.04C73.2327 19.034 73.2334 19.0291 73.2336 19.0264C73.2336 19.0264 73.2358 19.0232 74.4211 19.0763ZM68.1967 77.2096L61.3454 73.859L54.4941 77.2096H68.1967Z" fill="#0B0B0D"/>
<path fill-rule="evenodd" clip-rule="evenodd" d="M63.7228 23.0923H70.3601C69.6182 28.9071 69.0246 36.4194 64.9115 41.1136L63.7228 40.5323V23.0923Z" fill="#0B0B0D"/>
<path d="M47.6753 60.8789V47.5083H40.2146L46.54 61.1196L47.6753 60.8789Z" fill="#0B0B0D"/>
<path fill-rule="evenodd" clip-rule="evenodd" d="M51.5334 76.0574C51.7308 75.3111 51.8358 74.5283 51.8358 73.7216V43.4923H22.1183V50.4683H17.3867C16.073 50.4684 15.0233 50.8587 14.2443 51.5526C13.4882 52.2263 13.0888 53.0957 12.8745 53.8882C12.6598 54.6821 12.6104 55.4741 12.6087 56.0863C12.6078 56.3963 12.6196 56.6698 12.6307 56.8823L12.6447 57.1491L12.6468 57.1866C12.6479 57.205 12.6488 57.2207 12.6493 57.2342L12.6505 57.2672C12.6505 57.5655 12.7427 58.1459 12.842 58.716C12.951 59.3415 13.0987 60.1133 13.2541 60.8903C13.5611 62.425 13.9143 64.0545 14.0725 64.6201L14.0842 64.662C14.3627 65.6577 14.7305 66.9724 15.296 68.132C15.8573 69.2828 16.7306 70.5303 18.1621 71.042C19.2656 71.4364 20.1573 71.4426 20.8878 71.3395C21.179 71.2984 21.4497 71.2387 21.6481 71.195L21.7399 71.1749C21.9733 71.1243 22.0662 71.1124 22.1183 71.1124V73.7216L22.1311 74.2008C22.3778 78.9563 26.276 82.7691 31.138 83.0105L31.6279 83.0229H42.3262C45.3293 83.0229 48.0073 81.6614 49.7501 79.535C50.5765 78.5266 51.1927 77.3462 51.5334 76.0574ZM31.6279 80.6976C27.6889 80.6976 24.4957 77.5743 24.4957 73.7216V45.8176H49.4584V73.7216C49.4584 77.5744 46.2652 80.6976 42.3262 80.6976H31.6279ZM15.8451 53.2716C16.1286 53.0191 16.5822 52.7937 17.3867 52.7936H22.1183V68.7871C21.7764 68.7871 21.452 68.855 21.2256 68.904L21.0966 68.9323C20.8996 68.9756 20.7356 69.0116 20.5488 69.038C20.149 69.0945 19.6607 69.1014 18.9782 68.8575C18.4387 68.6646 17.9213 68.1123 17.4424 67.1305C16.9759 66.174 16.6554 65.0433 16.3652 64.0059C16.2343 63.5378 15.8981 61.9971 15.5874 60.4441C15.434 59.6771 15.2903 58.9254 15.1858 58.3254C15.1334 58.0247 15.0919 57.7681 15.0639 57.5703C15.033 57.3526 15.0279 57.2672 15.0279 57.2672C15.0279 57.1481 15.0203 57.0019 15.0115 56.8345C14.9803 56.2348 14.9349 55.3622 15.173 54.482C15.316 53.9536 15.5387 53.5447 15.8451 53.2716Z" fill="#0B0B0D"/>
</svg>
