<svg width="96" height="157" viewBox="0 0 96 157" fill="none" xmlns="http://www.w3.org/2000/svg">
<path d="M48 2C73.4135 2 93.9998 22.5059 94 47.7822C94 58.9163 90.0916 71.6876 84.5068 84.5928C78.935 97.4679 71.7842 110.279 65.458 121.483C59.8161 131.475 55.0139 140.115 51.6211 146.256C50.1226 148.968 48.8992 151.193 48 152.833C47.1008 151.193 45.8774 148.968 44.3789 146.256C40.9861 140.115 36.1839 131.475 30.542 121.483C24.2158 110.279 17.065 97.4679 11.4932 84.5928C5.90838 71.6876 2 58.9163 2 47.7822C2.00021 22.5059 22.5865 2 48 2Z" fill="#F6F8FA" stroke="#E7E7E7" stroke-width="4"/>
<path d="M34.8432 41.4743C35.1902 41.4257 35.5514 41.4 35.9223 41.4C38.6049 41.4 40.7795 42.7431 40.7795 44.4C40.7795 46.0569 38.6049 47.4 35.9223 47.4C33.4022 47.4 31.3304 46.2146 31.0887 44.6973C31.0732 44.5995 31.0652 44.5003 31.0652 44.4C31.0652 42.9722 32.68 41.7774 34.8432 41.4743Z" fill="#0B0B0D"/>
<path d="M79.6366 51C79.6366 45.3489 76.3959 40.0063 70.6955 35.9824C64.9997 31.9618 57.0062 29.4 48.0652 29.4C39.1242 29.4 31.1307 31.9618 25.4349 35.9824C19.7345 40.0063 16.4938 45.3489 16.4938 51C16.4938 56.6511 19.7345 61.9937 25.4349 66.0176C31.1307 70.0382 39.1242 72.6 48.0652 72.6C57.0062 72.6 64.9997 70.0382 70.6955 66.0176C76.3959 61.9937 79.6366 56.6511 79.6366 51ZM82.0652 51C82.0652 64.2548 66.8429 75 48.0652 75C29.2875 75 14.0652 64.2548 14.0652 51C14.0652 37.7452 29.2875 27 48.0652 27C66.8429 27 82.0652 37.7452 82.0652 51Z" fill="black"/>
<path fill-rule="evenodd" clip-rule="evenodd" d="M55.0781 37.2658C54.6657 35.931 53.8083 34.8691 52.6543 34.1391C50.8968 33.0271 48.5728 32.7541 46.3315 33.2133L46.2627 33.2273L46.1963 33.2496C44.6972 33.7411 43.5387 34.6625 42.5855 35.475C42.435 35.6033 42.2908 35.7275 42.1517 35.8474C41.3517 36.5366 40.7194 37.0813 40.0134 37.4285C39.6713 37.5966 39.3014 37.6387 38.7956 37.5645C38.2849 37.4894 37.7364 37.3142 37.0134 37.0831L36.8473 37.0301C35.2982 36.5361 33.2603 35.9215 30.7379 36.5121C28.7864 36.9691 27.0782 37.8898 25.8404 39.0832C24.61 40.2697 23.7797 41.7959 23.7795 43.4391L23.789 43.7379C23.8782 45.2365 24.6214 46.8273 25.5547 48.1969C26.0995 48.9964 26.7429 49.7704 27.4367 50.4649C27.4272 50.6425 27.4223 50.8209 27.4223 51C27.4223 53.6084 28.4457 56.0547 30.2353 58.1648L30.8614 63.4629L55.4369 68.7233L59.4153 63.4269C61.907 62.4357 64.0741 61.1101 65.7825 59.5412L72.3471 61.2669L71.1439 51.0854L69.9208 50.8236C69.808 44.4604 63.6049 39.0903 55.0781 37.2658ZM55.3177 39.8473C55.36 39.3968 55.3617 38.9646 55.326 38.5518C58.27 39.2403 60.8895 40.37 63.0113 41.8078C65.0737 43.2054 66.6337 44.8667 67.5951 46.6777L60.9373 40.9031L55.0127 47.6325L52.3264 47.0575C53.9908 45.1174 55.0382 42.8252 55.3177 39.8473ZM65.65 49.9094L67.8186 47.1243C68.3376 48.2276 68.6373 49.3816 68.697 50.5616L65.65 49.9094ZM42.072 62.3309L52.3891 63.9714L54.4461 64.2984L55.061 63.5088L55.8396 62.5088L56.7345 62.7441L56.415 63.1694L55.2711 64.6922L54.1911 66.1299L50.5285 65.3458L34.9929 62.02L33.1414 61.6236L33.0384 60.7531L32.838 59.0589L32.521 56.3782L44.5326 59.5361L42.072 62.3309ZM29.9399 55.6654L29.6581 53.2814L46.2087 57.6323L48.5228 55.0039L41.1328 53.0612L41.3845 52.7261C40.6088 52.8838 39.8227 53.0177 39.0434 53.1234C37.1998 53.3735 35.3358 53.4741 33.6764 53.3426C32.0487 53.2135 30.4683 52.8502 29.3161 52.0512C29.0943 51.8974 28.8734 51.7324 28.6545 51.5577C28.7461 52.9806 29.1868 54.3644 29.9399 55.6654ZM60.8249 61.4746C61.601 61.0817 62.3317 60.6528 63.0113 60.1922C63.4932 59.8656 63.9477 59.5247 64.3735 59.1708L59.4471 57.8757L57.3551 60.5625L60.8249 61.4746ZM53.4038 61.7016L51.7971 61.446L46.7726 60.6469L47.1457 60.2231L47.9831 59.2719L48.8219 58.3193L51.136 55.6909L56.9029 57.2069L54.8112 59.8937L54.053 60.8677L53.4038 61.7016ZM45.3706 51.6712L45.2707 51.8042L50.1991 53.0999L51.5058 53.4435L52.8122 53.787L58.418 55.2608L59.6908 55.5954L60.9624 55.9297L66.2431 57.3181L67.5223 57.6544L69.4843 58.1702L69.1055 54.9676L68.8639 52.9248L68.5097 52.8489L64.0968 51.9042L62.7837 51.6231L61.4691 51.3417L55.9965 50.1701L54.6429 49.8803L53.2889 49.5905L50.3742 48.9665L48.8503 48.6403L47.8142 48.4184L46.7188 49.8766L45.3706 51.6712ZM63.022 49.3469L57.7204 48.2121L61.1674 44.2969L64.6217 47.2922L63.022 49.3469ZM38.7126 50.7457C40.4369 50.5118 42.1528 50.1358 43.6667 49.6878L46.5683 45.825L49.5581 46.465C51.5138 44.6098 52.6273 42.5163 52.8986 39.6258C52.9533 39.0429 52.9103 38.53 52.7884 38.0812C52.6491 37.5687 52.407 37.1398 52.0901 36.7853C51.8737 36.5433 51.6224 36.336 51.3452 36.1605C50.2574 35.4723 48.6469 35.2071 46.9019 35.5477C46.1117 35.8179 45.4184 36.2781 44.7047 36.8506C44.529 36.9915 44.352 37.1392 44.1721 37.2926C44.0496 37.397 43.9237 37.5061 43.7946 37.6179C43.5188 37.8568 43.2282 38.1086 42.9231 38.3563C42.3618 38.8121 41.7518 39.254 41.0961 39.5766C40.1837 40.0253 39.2771 40.0618 38.4387 39.9387C38.2843 39.916 38.129 39.8873 37.9736 39.854C37.4039 39.732 36.8335 39.5489 36.3078 39.3802L36.193 39.3434L36.1014 39.3141C34.5953 38.8338 33.1189 38.4212 31.2976 38.8477C29.7357 39.2134 28.4317 39.9377 27.5362 40.8012C26.6334 41.6717 26.2081 42.615 26.208 43.4402C26.2082 44.3246 26.683 45.5555 27.5694 46.8563C27.7211 47.0789 27.8816 47.2987 28.0492 47.5141C28.34 47.8877 28.652 48.2479 28.9764 48.5858C29.5332 49.166 30.1264 49.6807 30.7106 50.0859C31.3379 50.521 32.4044 50.8333 33.8708 50.9496C35.3059 51.0634 36.9854 50.98 38.7126 50.7457Z" fill="black"/>
</svg>
