<svg width="96" height="157" viewBox="0 0 96 157" fill="none" xmlns="http://www.w3.org/2000/svg">
<path d="M48 2C73.4135 2 93.9998 22.5059 94 47.7822C94 58.9163 90.0916 71.6876 84.5068 84.5928C78.935 97.4679 71.7842 110.279 65.458 121.483C59.8161 131.475 55.0139 140.115 51.6211 146.256C50.1226 148.968 48.8992 151.193 48 152.833C47.1008 151.193 45.8774 148.968 44.3789 146.256C40.9861 140.115 36.1839 131.475 30.542 121.483C24.2158 110.279 17.065 97.4679 11.4932 84.5928C5.90838 71.6876 2 58.9163 2 47.7822C2.00021 22.5059 22.5865 2 48 2Z" fill="#0B0B0D" stroke="#484A55" stroke-width="4"/>
<path fill-rule="evenodd" clip-rule="evenodd" d="M44.0062 37.4831L44.0945 37.4047L44.1791 37.3298L44.2214 37.2926C44.3961 37.1392 44.5678 36.9915 44.7383 36.8506C45.4311 36.2781 46.104 35.8179 46.8709 35.5477C48.5646 35.2071 50.1278 35.4723 51.1835 36.1605C51.4526 36.336 51.6965 36.5433 51.9065 36.7853C52.2141 37.1398 52.4491 37.5687 52.5843 38.0812C52.7026 38.53 52.7444 39.0429 52.6913 39.6258C52.428 42.5163 51.3472 44.6098 49.449 46.465L46.5472 45.825L43.7309 49.6878C42.2615 50.1358 40.596 50.5118 38.9225 50.7457C37.2461 50.98 35.616 51.0634 34.2231 50.9496C32.7998 50.8333 31.7647 50.521 31.1559 50.0859C30.5888 49.6807 30.0131 49.166 29.4726 48.5858C29.1578 48.2479 28.8549 47.8877 28.5727 47.5141C28.4101 47.2987 28.2543 47.0789 28.107 46.8563C27.2467 45.5555 26.7859 44.3246 26.7857 43.4402C26.7857 42.615 27.1985 41.6717 28.0748 40.8012C28.944 39.9377 30.2096 39.2134 31.7256 38.8477C33.4933 38.4212 34.9263 38.8338 36.3881 39.3141L36.7818 39.444C37.2371 39.5937 37.7214 39.7472 38.2053 39.854C38.356 39.8873 38.5068 39.916 38.6566 39.9387C39.4704 40.0618 40.3503 40.0253 41.2359 39.5766C41.8724 39.254 42.4644 38.8121 43.0092 38.3563C43.2682 38.1396 43.5165 37.9197 43.7539 37.7081L44.0062 37.4831ZM36.2143 47.4C33.7683 47.4 31.7574 46.2146 31.5229 44.6973C31.5077 44.5995 31.5 44.5003 31.5 44.4C31.5 42.9722 33.0673 41.7774 35.1668 41.4743C35.5037 41.4257 35.8543 41.4 36.2143 41.4C38.8179 41.4 40.9286 42.7431 40.9286 44.4C40.9286 46.0569 38.8179 47.4 36.2143 47.4Z" fill="#F6F8FA"/>
<path fill-rule="evenodd" clip-rule="evenodd" d="M66.9555 46.6777L60.4935 40.9031L54.7431 47.6325L52.1359 47.0575C53.7513 45.1174 54.7679 42.8252 55.0392 39.8473C55.0802 39.3968 55.0819 38.9646 55.0473 38.5518C57.9047 39.2403 60.4471 40.37 62.5066 41.8078C64.5083 43.2054 66.0224 44.8667 66.9555 46.6777Z" fill="#F6F8FA"/>
<path fill-rule="evenodd" clip-rule="evenodd" d="M65.0676 49.9094L67.1725 47.1243C67.6762 48.2276 67.9671 49.3816 68.025 50.5616L65.0676 49.9094Z" fill="#F6F8FA"/>
<path fill-rule="evenodd" clip-rule="evenodd" d="M45.2608 51.7269L45.499 51.4011L47.6444 48.4574L48.1554 48.5711L68.2201 52.996L68.807 58.103L45.2608 51.7269Z" fill="#F6F8FA"/>
<path fill-rule="evenodd" clip-rule="evenodd" d="M45.2608 51.7269L45.499 51.4011L47.6444 48.4574L48.1554 48.5711L68.2201 52.996L68.807 58.103L45.2608 51.7269Z" fill="#F6F8FA"/>
<path fill-rule="evenodd" clip-rule="evenodd" d="M30.1343 53.2815L46.1981 57.6323L48.4441 55.0039L41.2715 53.0612L41.5158 52.7261C40.7629 52.8838 40 53.0177 39.2436 53.1234C37.4542 53.3735 35.645 53.4741 34.0344 53.3426C32.4546 53.2135 30.9207 52.8502 29.8024 52.0512C29.5871 51.8974 29.3727 51.7324 29.1603 51.5577C29.2491 52.9806 29.6769 54.3644 30.4078 55.6654L30.1343 53.2815Z" fill="#F6F8FA"/>
<path fill-rule="evenodd" clip-rule="evenodd" d="M42.1831 62.3309L44.5228 59.5929L32.8952 56.4431L33.4799 61.5513L54.0566 66.0899L55.9741 63.4614L56.4413 62.8181L55.5047 62.5631L54.1933 64.2984L42.1831 62.3309Z" fill="#F6F8FA"/>
<path fill-rule="evenodd" clip-rule="evenodd" d="M48.3648 58.7527L48.3729 58.7422L50.8152 55.7469L56.4917 57.2832L54.8481 59.4969L53.3772 61.4433L53.1816 61.7011L46.7455 60.6465L47.5419 59.716L48.3556 58.7633L48.3648 58.7527Z" fill="#F6F8FA"/>
<path fill-rule="evenodd" clip-rule="evenodd" d="M57.2653 48.3398L61.7782 49.3348L62.341 49.4578L64.0548 47.2781L60.7182 44.2969L57.2653 48.3398Z" fill="#F6F8FA"/>
<path fill-rule="evenodd" clip-rule="evenodd" d="M48 75C66.2254 75 81 64.2548 81 51C81 37.7452 66.2254 27 48 27C29.7746 27 15 37.7452 15 51C15 64.2548 29.7746 75 48 75ZM71.5678 61.2669L65.1962 59.5412C63.538 61.1101 61.4347 62.4357 59.0163 63.4269L55.1549 68.7233L31.3022 63.4629L30.6945 58.1648C28.9576 56.0547 27.9643 53.6084 27.9643 51C27.9643 50.8208 27.969 50.6425 27.9783 50.4649C27.3048 49.7704 26.6804 48.9964 26.1515 48.1969C25.2457 46.8273 24.5244 45.2365 24.4378 43.7379L24.4286 43.4391C24.4288 41.7959 25.2347 40.2697 26.4289 39.0832C27.6303 37.8898 29.2882 36.9691 31.1823 36.5121C33.6305 35.9215 35.6085 36.5361 37.112 37.0301L37.2732 37.0831C37.975 37.3142 38.5074 37.4894 39.003 37.5645C39.4939 37.6387 39.853 37.5966 40.1851 37.4285C40.8703 37.0813 41.484 36.5365 42.2604 35.8473C42.3954 35.7276 42.5355 35.6032 42.6815 35.475C43.6067 34.6625 44.731 33.7412 46.1861 33.2496L46.2506 33.2273L46.3173 33.2133C48.4927 32.7541 50.7483 33.0271 52.4542 34.1391C53.5742 34.8691 54.4064 35.931 54.8066 37.2658C63.0826 39.0903 69.1034 44.4604 69.2128 50.8236L70.3999 51.0854L71.5678 61.2669Z" fill="#F6F8FA"/>
<path fill-rule="evenodd" clip-rule="evenodd" d="M60.3844 61.4746C61.1377 61.0817 61.8469 60.6528 62.5066 60.1922C62.9743 59.8656 63.4154 59.5247 63.8287 59.1708L59.0472 57.8757L57.0167 60.5625L60.3844 61.4746Z" fill="#F6F8FA"/>
</svg>
