<svg width="96" height="157" viewBox="0 0 96 157" fill="none" xmlns="http://www.w3.org/2000/svg">
<path d="M48 2C73.4135 2 93.9998 22.5059 94 47.7822C94 58.9163 90.0916 71.6876 84.5068 84.5928C78.935 97.4679 71.7842 110.279 65.458 121.483C59.8161 131.475 55.0139 140.115 51.6211 146.256C50.1226 148.968 48.8992 151.193 48 152.833C47.1008 151.193 45.8774 148.968 44.3789 146.256C40.9861 140.115 36.1839 131.475 30.542 121.483C24.2158 110.279 17.065 97.4679 11.4932 84.5928C5.90838 71.6876 2 58.9163 2 47.7822C2.00021 22.5059 22.5865 2 48 2Z" fill="#F6F8FA" stroke="#E7E7E7" stroke-width="4"/>
<path fill-rule="evenodd" clip-rule="evenodd" d="M47.7785 34.4447L70.1342 27.9332V44.6758L80.0652 49.2222V67H25.4445V59.2222H22.1342V67H16.0652V43.1111H31.5135V27L47.7785 34.4447ZM18.2721 64.7778H19.9273V57H27.6514V64.7778H31.5135V49.2222H18.2721V64.7778ZM33.7204 64.7778H39.7893V58.1111H33.7204V64.7778ZM40.8928 64.7778H47.5135V58.1111H40.8928V64.7778ZM48.6169 64.7778H55.2376V58.1111H48.6169V64.7778ZM56.341 64.7778H62.9617V58.1111H56.341V64.7778ZM64.0652 64.7778H70.6859V58.1111H64.0652V64.7778ZM71.7893 64.7778H77.8583V58.1111H71.7893V64.7778ZM33.7204 57H39.7893V48.6667H33.7204V57ZM40.8928 57H47.5135V48.6667H40.8928V57ZM48.6169 57H55.2376V48.6667H48.6169V57ZM56.341 57H62.9617V48.6667H56.341V57ZM64.0652 57H70.6859V48.6667H64.0652V57ZM71.7893 57H77.8583V50.6523L73.5221 48.6667H71.7893V57ZM33.7204 47.5556H39.7893V39.7778H33.7204V47.5556ZM40.8928 47.5556H47.5135V39.7778H40.8928V47.5556ZM48.6169 47.5556H55.2376V40.2986L54.0997 39.7778H48.6169V47.5556ZM56.341 47.5556H62.9617V43.8349L56.341 40.8043V47.5556ZM64.0652 47.5556H70.6859V47.3678L70.1342 47.1161V47.1183L64.0652 44.3394V47.5556ZM17.1686 47H19.035L18.2279 45.3757L18.6094 44.2222H17.1686V47ZM19.4197 45.291L20.2678 47H21.7926L22.6007 45.3724L21.8389 44.2222H19.7732L19.4197 45.291ZM23.6967 45.0252L23.8745 45.2932L23.0264 47H25.5167L24.9854 46.1971L24.8497 45.9931L25.2893 44.2222H23.1654L23.6967 45.0252ZM26.0382 45.7847L26.8432 47H28.3238L28.7117 45.4364L27.9079 44.2222H26.4273L26.0382 45.7847ZM29.7656 45.0252L29.9014 45.2292L29.4617 47H31.5135V44.2222H29.2344L29.7656 45.0252ZM50.868 35.8585L52.6579 36.6777L66.2721 32.9397V42.9082L67.9273 43.6667V30.8889L50.868 35.8585ZM55.202 37.1302L65.1686 41.6918V34.3937L55.202 37.1302ZM33.7204 38.6667H39.7893V33.2272L33.7204 30.4494V38.6667ZM40.8928 38.6667H47.5135V36.7635L44.5199 35.3941L44.521 35.393L40.8928 33.7318V38.6667ZM48.6169 38.6667H51.6708L48.6169 37.2691V38.6667Z" fill="black"/>
</svg>
