<svg width="96" height="157" viewBox="0 0 96 157" fill="none" xmlns="http://www.w3.org/2000/svg">
<path d="M48 2C73.4135 2 93.9998 22.5059 94 47.7822C94 58.9163 90.0916 71.6876 84.5068 84.5928C78.935 97.4679 71.7842 110.279 65.458 121.483C59.8161 131.475 55.0139 140.115 51.6211 146.256C50.1226 148.968 48.8992 151.193 48 152.833C47.1008 151.193 45.8774 148.968 44.3789 146.256C40.9861 140.115 36.1839 131.475 30.542 121.483C24.2158 110.279 17.065 97.4679 11.4932 84.5928C5.90838 71.6876 2 58.9163 2 47.7822C2.00021 22.5059 22.5865 2 48 2Z" fill="#0B0B0D" stroke="#484A55" stroke-width="4"/>
<path d="M46.7139 34.3936L69.0693 27.9268V44.5547L79 49.0693V66.7246H24.3789V59H21.0693V66.7246H15V43H30.4482V27L46.7139 34.3936ZM31.5518 65.6211H77.8965V49.8018L77.249 49.5088L31.5518 28.7568V65.6211ZM17.207 49.0693V64.5176H18.8623V56.793H26.5859V64.5176H30.4482V49.0693H17.207ZM38.7246 57.8965V64.5176H32.6553V57.8965H38.7246ZM46.4482 57.8965V64.5176H39.8271V57.8965H46.4482ZM54.1729 57.8965V64.5176H47.5518V57.8965H54.1729ZM61.8965 57.8965V64.5176H55.2754V57.8965H61.8965ZM69.6211 57.8965V64.5176H63V57.8965H69.6211ZM76.793 57.8965V64.5176H70.7246V57.8965H76.793ZM38.7246 48.5176V56.793H32.6553V48.5176H38.7246ZM46.4482 48.5176V56.793H39.8271V48.5176H46.4482ZM54.1729 48.5176V56.793H47.5518V48.5176H54.1729ZM61.8965 48.5176V56.793H55.2754V48.5176H61.8965ZM69.6211 48.5176V56.793H63V48.5176H69.6211ZM72.3984 48.5176L76.793 50.5137V56.793H70.7246V48.5176H72.3984ZM38.7246 39.6895V47.4141H32.6553V39.6895H38.7246ZM46.4482 39.6895V47.4141H39.8271V39.6895H46.4482ZM52.958 39.6895L54.1729 40.2412V47.4141H47.5518V39.6895H52.958ZM61.8965 43.749V47.4141H55.2754V40.7422L61.8965 43.749ZM69.9678 47.4141H63V44.25L69.9678 47.4141ZM16.1035 44.1035V46.8623H17.9697L17.1631 45.249L17.5439 44.1035H16.1035ZM18.708 44.1035L18.3545 45.165L19.2031 46.8623H20.7275L21.5352 45.2461L20.7734 44.1035H18.708ZM22.1006 44.1035L22.6318 44.9014L22.8096 45.167L21.9619 46.8623H24.4521L23.9199 46.0645L23.7842 45.8623L24.2246 44.1035H22.1006ZM25.3623 44.1035L24.9727 45.6553L25.7783 46.8623H27.2588L27.6465 45.3096L26.8428 44.1035H25.3623ZM28.1689 44.1035L28.7002 44.9014L28.8359 45.1035L28.3965 46.8623H30.4482V44.1035H28.1689ZM49.8027 35.7979L51.5928 36.6113L65.207 32.8994V42.7998L66.8623 43.5518V30.8623L49.8027 35.7979ZM38.7246 33.2256V38.5869H32.6553V30.4697L38.7246 33.2256ZM46.4482 36.7334V38.5869H39.8271V33.7275L46.4482 36.7334ZM50.5283 38.5869H47.5518V37.2344L50.5283 38.5869Z" fill="#F6F8FA"/>
</svg>
