<svg width="96" height="157" viewBox="0 0 96 157" fill="none" xmlns="http://www.w3.org/2000/svg">
<path d="M48 2C73.4135 2 93.9998 22.5059 94 47.7822C94 58.9163 90.0916 71.6876 84.5068 84.5928C78.935 97.4679 71.7842 110.279 65.458 121.483C59.8161 131.475 55.0139 140.115 51.6211 146.256C50.1226 148.968 48.8992 151.193 48 152.833C47.1008 151.193 45.8774 148.968 44.3789 146.256C40.9861 140.115 36.1839 131.475 30.542 121.483C24.2158 110.279 17.065 97.4679 11.4932 84.5928C5.90838 71.6876 2 58.9163 2 47.7822C2.00021 22.5059 22.5865 2 48 2Z" fill="#F6F8FA" stroke="#E7E7E7" stroke-width="4"/>
<path fill-rule="evenodd" clip-rule="evenodd" d="M36.0611 40.0944C38.1624 41.8231 41.6034 45.4322 44.4561 50.506C44.801 49.5484 45.1749 48.621 45.5717 47.7253C42.7581 43.188 39.6051 39.9349 37.5715 38.2619C33.6275 35.0172 25.5852 27.9545 24.5504 26.3883C24.438 28.2616 21.0069 38.3964 19.2148 43.1772C17.3514 48.148 14.7603 60.959 20.5901 73.5293C25.254 83.5856 35.5984 83.642 39.6139 82.5668C42.0297 81.92 46.2241 79.774 48.9667 75.7631C48.355 75.2889 47.7501 74.7621 47.1681 74.181C46.7292 74.8541 46.2415 75.4674 45.7253 76.0248C43.8688 78.0294 41.6451 79.3008 40.0113 79.937L39.3015 78.5184C38.9585 77.4761 38.6104 76.4426 38.2568 75.3927C37.0002 71.6617 35.6729 67.7211 34.257 62.4405C33.506 59.6397 33.1218 57.3191 32.8404 55.2765C35.9354 54.1903 37.7174 50.8888 36.8544 47.6701C35.9489 44.293 32.4757 42.2892 29.0963 43.1941C25.7169 44.099 23.7117 47.5697 24.6172 50.9467C25.3539 53.6942 27.7901 55.5323 30.4928 55.6351C30.7817 57.7268 31.1814 60.1421 31.9624 63.0549C33.398 68.409 34.7615 72.4568 36.0259 76.2106L36.1189 76.4866C36.582 77.8616 37.0316 79.2003 37.4664 80.5529C35.7592 80.7484 33.4238 80.6905 31.048 79.9548C27.9337 78.9904 24.7595 76.873 22.7457 72.5309C17.2708 60.7259 19.7138 48.6136 21.4398 44.0094C22.3496 41.5823 23.6663 37.8204 24.7713 34.4269C25.1506 33.2619 25.5068 32.131 25.8155 31.1064C26.5956 31.8394 27.4699 32.6409 28.3813 33.4602C31.0362 35.8471 34.0587 38.4471 36.0611 40.0944Z" fill="black"/>
<path fill-rule="evenodd" clip-rule="evenodd" d="M69.6833 19.0229C69.7957 20.8963 73.9931 33.5115 75.7852 38.2923C77.6486 43.2631 80.2397 56.0741 74.4099 68.6444C69.746 78.7007 59.4016 78.7572 55.3861 77.682C51.3705 76.6068 42.4403 71.3893 43.4329 60.35C44.6736 46.5508 53.3276 36.7508 57.4285 33.377C61.5293 30.0032 68.6484 20.5892 69.6833 19.0229ZM53.1055 74.151C51.8491 73.4404 50.484 72.4457 49.2747 71.1399C47.0601 68.7486 45.3706 65.3289 45.7992 60.5624C46.9644 47.6034 55.1405 38.3344 58.9389 35.2095C61.1944 33.3538 64.1336 29.9832 66.5478 27.0215C67.2823 26.1205 67.9842 25.2337 68.6249 24.412C68.9877 25.6098 69.404 26.9359 69.8434 28.2964C71.1369 32.3009 72.6467 36.6874 73.5602 39.1245C75.2862 43.7287 77.7291 55.8411 72.2543 67.646C70.2405 71.9881 67.0663 74.1055 63.952 75.0699C60.7472 76.0623 57.6159 75.8214 56.0009 75.389C55.7762 75.3288 55.5279 75.2507 55.2608 75.1543C55.8403 73.7309 56.4357 72.326 57.0502 70.876C58.5959 67.2288 60.2626 63.2963 62.1005 58.0664C63.1003 55.2211 63.6821 52.843 64.129 50.7793C66.8317 50.8817 69.4004 49.2335 70.3435 46.5497C71.5027 43.251 69.7667 39.6384 66.4657 38.4799C63.1647 37.3215 59.5495 39.0563 58.3903 42.355C57.2854 45.4991 58.8117 48.9262 61.8153 50.2438C61.3798 52.2592 60.8205 54.544 59.8591 57.2798C58.0465 62.4379 56.4246 66.2651 54.8883 69.8901C54.2829 71.3188 53.6907 72.7161 53.1055 74.151Z" fill="black"/>
</svg>
