<svg width="96" height="157" viewBox="0 0 96 157" fill="none" xmlns="http://www.w3.org/2000/svg">
<path d="M48 2C73.4135 2 93.9998 22.5059 94 47.7822C94 58.9163 90.0916 71.6876 84.5068 84.5928C78.935 97.4679 71.7842 110.279 65.458 121.483C59.8161 131.475 55.0139 140.115 51.6211 146.256C50.1226 148.968 48.8992 151.193 48 152.833C47.1008 151.193 45.8774 148.968 44.3789 146.256C40.9861 140.115 36.1839 131.475 30.542 121.483C24.2158 110.279 17.065 97.4679 11.4932 84.5928C5.90838 71.6876 2 58.9163 2 47.7822C2.00021 22.5059 22.5865 2 48 2Z" fill="#0B0B0D" stroke="#484A55" stroke-width="4"/>
<path fill-rule="evenodd" clip-rule="evenodd" d="M48.0775 74.125C48.5151 73.2896 48.8839 72.3818 49.1599 71.3967C49.6325 69.7093 49.8324 67.7952 49.6379 65.6302C49.2676 61.5089 48.2572 57.7248 46.9055 54.3421C46.3924 53.058 45.8301 51.8318 45.2349 50.667C41.94 44.2184 37.6382 39.651 35.1013 37.5625C32.8861 35.7388 29.5423 32.8604 26.6051 30.218C25.5968 29.3109 24.6296 28.4236 23.7666 27.6121C23.425 28.7463 23.031 29.9984 22.6114 31.2881C21.3889 35.045 19.9322 39.2097 18.9257 41.8967C17.0162 46.9939 14.3136 60.4033 20.3705 73.4723C22.5983 78.2794 26.1099 80.6235 29.5554 81.6912C32.1837 82.5057 34.7674 82.5698 36.6561 82.3534C36.175 80.8559 35.6776 79.3738 35.1653 77.8516L35.0625 77.5461C33.6636 73.3903 32.1552 68.9091 30.5669 62.9817C29.7029 59.757 29.2608 57.0829 28.9412 54.7673C25.9511 54.6536 23.2559 52.6186 22.4409 49.5769C21.4391 45.8382 23.6575 41.9959 27.3962 40.9941C31.1348 39.9923 34.9772 42.2107 35.979 45.9494C36.9338 49.5128 34.9624 53.1678 31.5383 54.3703C31.8496 56.6316 32.2747 59.2007 33.1055 62.3015C34.6719 68.1475 36.1397 72.5085 37.53 76.6389C37.9273 77.8195 38.3183 78.9812 38.7035 80.1534L39.464 81.6745C41.2721 80.9711 43.7363 79.5627 45.793 77.3403C46.651 76.4132 47.4377 75.3465 48.0775 74.125Z" fill="#F6F8FA"/>
<path fill-rule="evenodd" clip-rule="evenodd" d="M51.2387 73.4858C52.106 71.1838 52.5345 68.497 52.2558 65.395C51.7515 59.7824 50.1402 54.7674 48.0784 50.4833C51.3565 41.3326 57.2621 34.8765 60.4246 32.2729C62.9198 30.2185 66.1716 26.4869 68.8424 23.2081C69.6549 22.2107 70.4314 21.2288 71.1403 20.3192C71.5416 21.6452 72.0022 23.1133 72.4883 24.6195C73.9193 29.0529 75.5896 33.909 76.6003 36.6071C78.5097 41.7043 81.2124 55.1137 75.1555 68.1827C72.9277 72.9897 69.416 75.3339 65.9706 76.4016C62.4251 77.5002 58.961 77.2335 57.1742 76.7548C56.9256 76.6882 56.6509 76.6018 56.3555 76.495C56.9965 74.9192 57.6552 73.3638 58.3351 71.7585C60.0452 67.7208 61.889 63.3672 63.9223 57.5773C65.0284 54.4274 65.6721 51.7946 66.1664 49.5099C69.1564 49.6232 71.9982 47.7985 73.0416 44.8274C74.324 41.1755 72.4035 37.176 68.7516 35.8935C65.0997 34.6111 61.1001 36.5316 59.8177 40.1835C58.5953 43.6643 60.2839 47.4583 63.6068 48.9171C63.1249 51.1482 62.5062 53.6777 61.4426 56.7065C59.4373 62.4169 57.6429 66.654 55.9434 70.6671C55.2736 72.2488 54.6185 73.7957 53.971 75.3843C53.0839 74.8821 52.1478 74.2519 51.2387 73.4858Z" fill="#F6F8FA"/>
</svg>
