<svg width="96" height="157" viewBox="0 0 96 157" fill="none" xmlns="http://www.w3.org/2000/svg">
<path d="M48 2C73.4135 2 93.9998 22.5059 94 47.7822C94 58.9163 90.0916 71.6876 84.5068 84.5928C78.935 97.4679 71.7842 110.279 65.458 121.483C59.8161 131.475 55.0139 140.115 51.6211 146.256C50.1226 148.968 48.8992 151.193 48 152.833C47.1008 151.193 45.8774 148.968 44.3789 146.256C40.9861 140.115 36.1839 131.475 30.542 121.483C24.2158 110.279 17.065 97.4679 11.4932 84.5928C5.90838 71.6876 2 58.9163 2 47.7822C2.00021 22.5059 22.5865 2 48 2Z" fill="#0B0B0D" stroke="#484A55" stroke-width="4"/>
<path d="M75.2001 83H57.0667V70.4333H75.2001V83ZM57.0667 19C67.0815 19 75.2001 28.058 75.2001 36.6V70.4333L57.0667 63.6667L50.2667 54H57.0667V36.6C57.0667 30.8752 53.4201 24.9188 48 21.6125C50.6672 19.9855 53.7638 19 57.0667 19ZM65.6001 39.2719C64.2128 39.1653 62.4152 39.7968 62.4001 39.8021V45.1313C62.4165 45.137 64.2134 45.768 65.6001 45.6615C66.9931 45.5544 68.8 44.2313 68.8001 42.4667C68.8001 40.702 66.9931 39.3789 65.6001 39.2719Z" fill="white"/>
<path d="M75.2001 70.4333V83H57.0667V70.4333H75.2001ZM59.2001 80.8667H73.0667V72.5667H59.2001V80.8667ZM73.0667 36.6C73.0667 32.9834 71.3288 29.0995 68.3688 26.0938C65.4239 23.1033 61.417 21.1333 57.0667 21.1333C55.3441 21.1333 53.6777 21.4426 52.1084 22.001C56.4089 25.7778 59.2001 31.1958 59.2001 36.6V56.1333H54.375L58.4303 61.8979L73.0667 67.3594V36.6ZM60.2667 38.2917L61.6907 37.7896C61.7409 37.7719 62.2744 37.5858 63.0021 37.4167C63.6929 37.2561 64.7425 37.0664 65.7636 37.1448C66.9961 37.2395 68.2283 37.8299 69.1521 38.6635C70.0931 39.5127 70.9334 40.822 70.9334 42.4667C70.9334 44.1115 70.0921 45.4207 69.1511 46.2698C68.2273 47.1032 66.9959 47.6938 65.7636 47.7885C64.7429 47.8669 63.6939 47.6772 63.0032 47.5167C62.278 47.3481 61.7458 47.1628 61.6917 47.1438L60.2667 46.6417V38.2917ZM62.4001 45.1313C62.4165 45.137 64.2134 45.768 65.6001 45.6615C66.9931 45.5544 68.8 44.2313 68.8001 42.4667C68.8001 40.702 66.9931 39.3789 65.6001 39.2719C64.2128 39.1653 62.4152 39.7968 62.4001 39.8021V45.1313ZM75.2001 70.4333L57.0667 63.6667L50.2667 54H57.0667V36.6C57.0667 30.8752 53.4201 24.9188 48 21.6125C50.6672 19.9855 53.7638 19 57.0667 19C67.0815 19 75.2001 28.058 75.2001 36.6V70.4333Z" fill="#0B0B0B"/>
<path d="M38.9334 19C48.9481 19 57.0667 28.058 57.0667 36.6V54H50.2667L57.0667 63.6667L48 67.05L40 70.2V70.4333H57.0667V83H20.8V36.6C20.8 28.058 28.9186 19 38.9334 19ZM46.4001 39.2719C45.007 39.3789 43.2001 40.702 43.2001 42.4667C43.2001 44.2313 45.007 45.5544 46.4001 45.6615C47.7867 45.768 49.5836 45.137 49.6 45.1313V39.8021C49.5849 39.7968 47.7873 39.1653 46.4001 39.2719Z" fill="white"/>
<path d="M54.9334 36.6C54.9334 32.9834 53.1955 29.0995 50.2355 26.0938C47.2906 23.1033 43.2836 21.1333 38.9334 21.1333C34.5831 21.1333 30.5762 23.1033 27.6313 26.0938C24.6713 29.0995 22.9334 32.9834 22.9334 36.6V80.8667H54.9334V72.5667H37.8667V68.7469L47.2188 65.0646L47.2365 65.0583L47.2542 65.051L53.7313 62.6333L46.1573 51.8667H54.9334V36.6ZM49.6 39.8021C49.5849 39.7968 47.7873 39.1653 46.4001 39.2719C45.007 39.3789 43.2001 40.702 43.2001 42.4667C43.2001 44.2313 45.007 45.5544 46.4001 45.6615C47.7867 45.768 49.5836 45.137 49.6 45.1313V39.8021ZM51.7334 46.6417L50.3084 47.1438C50.2543 47.1628 49.7221 47.3481 48.9969 47.5167C48.3062 47.6772 47.2572 47.8669 46.2365 47.7885C45.0042 47.6938 43.7728 47.1032 42.849 46.2698C41.908 45.4207 41.0667 44.1115 41.0667 42.4667C41.0667 40.822 41.907 39.5127 42.848 38.6635C43.7718 37.8299 45.004 37.2395 46.2365 37.1448C47.2576 37.0664 48.3072 37.2561 48.998 37.4167C49.7257 37.5858 50.2592 37.7719 50.3094 37.7896L51.7334 38.2917V46.6417ZM57.0667 54H50.2667L57.0667 63.6667L48 67.05L40 70.2V70.4333H57.0667V83H20.8V36.6C20.8 28.058 28.9186 19 38.9334 19C48.9481 19 57.0667 28.058 57.0667 36.6V54Z" fill="#0B0B0B"/>
</svg>
