<svg width="96" height="157" viewBox="0 0 96 157" fill="none" xmlns="http://www.w3.org/2000/svg">
<path d="M48 2C73.4135 2 93.9998 22.5059 94 47.7822C94 58.9163 90.0916 71.6876 84.5068 84.5928C78.935 97.4679 71.7842 110.279 65.458 121.483C59.8161 131.475 55.0139 140.115 51.6211 146.256C50.1226 148.968 48.8992 151.193 48 152.833C47.1008 151.193 45.8774 148.968 44.3789 146.256C40.9861 140.115 36.1839 131.475 30.542 121.483C24.2158 110.279 17.065 97.4679 11.4932 84.5928C5.90838 71.6876 2 58.9163 2 47.7822C2.00021 22.5059 22.5865 2 48 2Z" fill="#F6F8FA" stroke="#E7E7E7" stroke-width="4"/>
<path fill-rule="evenodd" clip-rule="evenodd" d="M68.2724 62.0281L68.0578 62.0988C68.1291 62.0753 68.2006 62.0517 68.2724 62.0281C68.2996 62.0191 68.3269 62.0102 68.3541 62.0012L68.2724 62.0281Z" fill="black"/>
<path fill-rule="evenodd" clip-rule="evenodd" d="M28.1144 51.4487L17.506 71.1751L16.0823 70.525L15.0652 72.7215L37.5757 83L38.5928 80.8035L37.1166 80.1295L45.0448 59.0483C45.7253 57.2385 45.7996 55.3438 45.3628 53.591C46.3596 54.4847 47.3881 55.5635 48.2272 56.7841C48.69 57.4571 48.7194 57.9434 48.6016 58.4539C48.481 58.9759 48.2225 59.4896 47.8567 60.2167C47.7633 60.4024 47.6628 60.602 47.5559 60.8192C47.0649 61.8167 46.528 63.0378 46.3213 64.5627C46.1131 66.0989 46.2475 67.8715 46.9855 69.9889C48.499 74.3307 53.0353 78.1805 57.6027 80.0513C59.9081 80.9956 62.3476 81.49 64.5481 81.2263C66.7899 80.9576 68.8014 79.8895 70.0319 77.7474C71.4909 75.2076 73.291 73.4708 74.924 71.8953C75.4351 71.4021 75.9299 70.9248 76.3927 70.4435C77.3163 69.4831 78.1897 68.4196 78.5315 67.1583C78.8987 65.8034 78.6047 64.437 77.676 63.0027C76.5945 61.3326 74.9857 60.8158 73.3388 60.8594C71.7873 60.9005 70.0773 61.4362 68.5264 61.9446L68.3541 62.0012L68.2724 62.0281L68.0578 62.0988C66.6089 62.5763 65.2659 63.0189 64.024 63.2035C62.6663 63.4052 61.6758 63.257 60.9405 62.6969C58.7475 61.0261 56.4464 58.8569 55.3461 56.8762C54.797 55.8876 54.6391 55.1088 54.7532 54.5345C54.854 54.0281 55.2184 53.4265 56.3526 52.8683C57.285 52.4095 58.6192 52.4756 60.4081 53.0147C61.8038 53.4353 63.2661 54.073 64.7693 54.7285C65.1662 54.9016 65.5659 55.0759 65.968 55.2478C67.7952 56.0289 69.7609 56.8022 71.4424 56.8538C72.3215 56.8807 73.2276 56.7162 74.0126 56.1689C74.8027 55.6178 75.3244 54.7804 75.6274 53.7398C75.9375 52.6747 75.9244 51.674 75.6179 50.7509C75.3164 49.843 74.7579 49.0891 74.1041 48.4576C72.8319 47.229 71.0059 46.2912 69.4021 45.4806L69.2099 45.3835C67.589 44.5647 66.2105 43.8684 65.318 43.0751C64.8741 42.6805 64.6372 42.3329 64.535 42.0241C64.4422 41.7439 64.4251 41.3931 64.6229 40.8952C64.8383 40.3531 65.1172 40.0179 65.4179 39.7934C65.7266 39.5629 66.1225 39.4013 66.6358 39.3092C67.7173 39.1153 69.0594 39.259 70.6557 39.4462L70.7886 39.4618C72.2523 39.6339 73.9352 39.8317 75.4219 39.5891C77.0589 39.322 78.5629 38.504 79.4085 36.6286C80.9552 33.198 79.5577 28.9961 77.417 25.9568C76.3201 24.3996 74.9551 23.0332 73.4957 22.1048C72.0541 21.1877 70.3881 20.6178 68.7569 20.9132C67.3977 21.1594 66.3677 21.5942 65.5557 22.1567C64.7452 22.7183 64.2122 23.3658 63.8054 23.9422C63.6677 24.1373 63.5331 24.3417 63.4148 24.5211C63.3675 24.5929 63.3225 24.6612 63.2814 24.7228C63.125 24.9567 62.9956 25.1378 62.8667 25.2885C62.6331 25.5613 62.4228 25.7094 62.1097 25.7844C61.0409 26.0403 59.678 26.0494 58.5176 25.9769C58.2012 25.9572 57.9076 25.932 57.6489 25.906C57.1305 23.4228 55.5242 21.1979 53.1082 19.9634L52.7049 19.7694C48.3211 17.8017 43.1617 19.7384 41.1817 24.0949L41.0081 24.5055C39.3809 28.6311 41.1645 33.3258 45.1298 35.3521L45.5347 35.5456C49.7814 37.4515 54.7553 35.6943 56.8621 31.622L57.0563 31.2206C57.4811 30.286 57.725 29.316 57.803 28.3493C57.981 28.3643 58.1693 28.3784 58.3655 28.3907C59.597 28.4676 61.2507 28.4774 62.6789 28.1356C63.6141 27.9117 64.244 27.4119 64.7204 26.8555C64.9463 26.5915 65.1405 26.3121 65.3085 26.0608C65.3659 25.975 65.4191 25.8943 65.4704 25.8164C65.5803 25.6498 65.6822 25.4952 65.7981 25.331C66.1179 24.8779 66.4593 24.4786 66.9472 24.1406C67.4336 23.8036 68.1267 23.4859 69.193 23.2927C69.9872 23.1489 71.0208 23.4008 72.1838 24.1406C73.3291 24.8692 74.4741 25.9961 75.423 27.3432C77.3739 30.1129 78.2129 33.3663 77.1876 35.6402C76.7471 36.6168 76.0458 37.0363 75.0274 37.2025C73.9038 37.3858 72.5372 37.2327 70.9409 37.0455L70.8636 37.0364C69.387 36.8631 67.6874 36.6636 66.2033 36.9297C65.4213 37.07 64.6431 37.3465 63.9563 37.8591C63.2613 38.378 62.7228 39.0921 62.3593 40.0071C61.9782 40.9664 61.9317 41.9009 62.2226 42.7799C62.5043 43.6304 63.0642 44.3177 63.6949 44.8783C64.8345 45.8914 66.4829 46.722 67.9779 47.4753L68.2982 47.6369C69.9737 48.4838 71.4482 49.2649 72.4084 50.1924C72.8708 50.639 73.162 51.0733 73.3067 51.5091C73.4464 51.9297 73.4758 52.4298 73.2901 53.0678C73.0974 53.7295 72.837 54.035 72.6152 54.1897C72.3878 54.3483 72.0507 54.4528 71.5172 54.4365C70.3737 54.4014 68.8298 53.8389 66.9293 53.0265C66.6111 52.8905 66.283 52.7476 65.9496 52.6021L65.8154 52.5435C64.2996 51.8816 62.662 51.1666 61.114 50.7001C59.2028 50.1242 57.083 49.8101 55.2737 50.7001C53.6667 51.4908 52.6514 52.6245 52.3648 54.0669C52.0918 55.4413 52.5392 56.8263 53.2156 58.0441C54.5667 60.4767 57.2 62.8953 59.4599 64.617C60.9511 65.7531 62.7349 65.841 64.3841 65.596C65.8466 65.3786 67.3972 64.8662 68.8052 64.401L69.0331 64.3257L69.2892 64.2415C70.8981 63.714 72.2685 63.308 73.403 63.2779C74.4422 63.2503 75.1263 63.5336 75.6298 64.3111C76.2857 65.3241 76.3279 65.9912 76.1823 66.5289C76.0113 67.1602 75.5223 67.8489 74.634 68.7726C74.3031 69.1167 73.9233 69.4849 73.512 69.8811L73.3683 70.0194C71.7078 71.6176 69.567 73.6781 67.918 76.5488C67.1341 77.9132 65.8742 78.6316 64.2569 78.8255C62.5983 79.0244 60.5907 78.6584 58.5307 77.8147C54.367 76.1093 50.497 72.6748 49.2848 69.1977C48.6602 67.4057 48.5805 66.0148 48.7335 64.8862C48.8879 63.7465 49.2884 62.8005 49.7411 61.8809C49.8151 61.7305 49.8942 61.5747 49.9755 61.4144C50.3538 60.6689 50.7811 59.827 50.9733 58.9948C51.2403 57.8386 51.0892 56.6591 50.2366 55.419C48.8243 53.365 46.9966 51.7156 45.5501 50.5915C45.5023 50.5543 45.4548 50.5177 45.4077 50.4816C50.0969 50.2025 54.4764 47.4121 56.5443 42.8622L60.1296 34.9736C60.6242 33.8847 60.1372 32.6034 59.0417 32.1114C56.5668 37.5569 50.1182 39.9773 44.6386 37.518C39.1589 35.0584 36.7221 28.6494 39.1972 23.2037C38.1015 22.7122 36.8122 23.1961 36.3172 24.2848L32.7318 32.1734C30.4493 37.1955 31.6474 42.9004 35.309 46.6123C32.3508 46.9372 29.6118 48.6645 28.1144 51.4487ZM54.8385 30.2251C56.2652 27.0859 54.8617 23.3915 51.7031 21.9735C48.5443 20.5556 44.8263 21.9512 43.3995 25.0905C41.973 28.2297 43.3777 31.9236 46.5365 33.3415C49.6951 34.7591 53.4116 33.364 54.8385 30.2251ZM55.5042 39.2751C51.9644 41.1931 47.5945 41.4984 43.6369 39.7221C39.6791 37.9456 37.0198 34.485 36.1275 30.5774L34.9497 33.1689C32.5329 38.4865 34.9116 44.7451 40.2624 47.1469C45.613 49.5483 51.9097 47.184 54.3264 41.8666L55.5042 39.2751ZM27.1211 58.4258L28.2805 56.2699L41.2675 62.1854L40.3921 64.5129L27.1211 58.4258ZM42.7654 58.2026L42.1219 59.9135L29.4299 54.1324L30.2598 52.5892C31.966 49.4164 35.8558 48.1014 39.1549 49.5822C42.4539 51.0631 44.0327 54.8328 42.7654 58.2026ZM25.9719 60.5628L39.5376 66.7851L35.2654 78.1443L20.1629 71.3652L25.9719 60.5628Z" fill="black"/>
</svg>
