<svg width="96" height="157" viewBox="0 0 96 157" fill="none" xmlns="http://www.w3.org/2000/svg">
<path d="M48 2C73.4135 2 93.9998 22.5059 94 47.7822C94 58.9163 90.0916 71.6876 84.5068 84.5928C78.935 97.4679 71.7842 110.279 65.458 121.483C59.8161 131.475 55.0139 140.115 51.6211 146.256C50.1226 148.968 48.8992 151.193 48 152.833C47.1008 151.193 45.8774 148.968 44.3789 146.256C40.9861 140.115 36.1839 131.475 30.542 121.483C24.2158 110.279 17.065 97.4679 11.4932 84.5928C5.90838 71.6876 2 58.9163 2 47.7822C2.00021 22.5059 22.5865 2 48 2Z" fill="#0B0B0D" stroke="#484A55" stroke-width="4"/>
<path fill-rule="evenodd" clip-rule="evenodd" d="M68.9134 64.4007C69.0092 64.3686 69.1042 64.3367 69.1986 64.3051C69.1054 64.3363 69.008 64.369 68.9134 64.4007Z" fill="white"/>
<path fill-rule="evenodd" clip-rule="evenodd" d="M68.5086 61.9878C68.3975 62.0248 68.2863 62.0621 68.1775 62.0985C68.2855 62.0624 68.3994 62.0242 68.5086 61.9878Z" fill="white"/>
<path fill-rule="evenodd" clip-rule="evenodd" d="M68.9134 64.4007L69.1986 64.3051L69.3899 64.2413C70.974 63.7138 72.3233 63.3078 73.4404 63.2776C74.4635 63.2501 75.1372 63.5335 75.6329 64.3109C76.2787 65.3238 76.3202 65.991 76.177 66.5287C76.0085 67.16 75.527 67.8488 74.6525 68.7724C74.2887 69.1566 73.8662 69.5696 73.4062 70.0192C71.7713 71.6175 69.6634 73.678 68.0397 76.5487C67.2679 77.9132 66.0274 78.6316 64.435 78.8255C62.8019 79.0243 60.8252 78.6584 58.7968 77.8146C54.6973 76.1092 50.8867 72.6747 49.6932 69.1975C49.0782 67.4056 48.9998 66.0146 49.1503 64.886C49.3024 63.7464 49.6968 62.8002 50.1425 61.8806C50.2152 61.7306 50.2933 61.5743 50.3732 61.4144C50.7457 60.6688 51.1665 59.8267 51.3557 58.9945C51.6186 57.8384 51.4698 56.6587 50.6304 55.4187C49.2398 53.3647 47.4401 51.7152 46.0159 50.5911C45.9882 50.5693 45.9603 50.548 45.9326 50.5269L45.9009 50.5027L45.8685 50.4778C50.4881 50.201 54.8035 47.4142 56.8406 42.8621L60.3716 34.9736C60.8586 33.8847 60.3786 32.6031 59.2999 32.1111C56.863 37.5566 50.5138 39.9766 45.1186 37.5173C39.7232 35.0576 37.3243 28.6492 39.7612 23.2035C38.6825 22.712 37.4127 23.1956 36.9252 24.284L33.3953 32.1725C31.1473 37.196 32.3302 42.9008 35.9377 46.6126C33.0231 46.9361 30.324 48.6628 28.8488 51.4485L18.4031 71.1744L17.0015 70.5249L16 72.7214L38.1642 83L39.1657 80.8035L37.7126 80.1292L45.5187 59.0476C46.1883 57.2386 46.2595 55.3451 45.8299 53.593C46.8114 54.4866 47.8257 55.5634 48.6519 56.7838C49.1074 57.4567 49.1365 57.9432 49.0205 58.4536C48.9017 58.9756 48.6472 59.4894 48.287 60.2166C48.195 60.4022 48.0961 60.6018 47.9909 60.819C47.5075 61.8164 46.9788 63.0377 46.7753 64.5625C46.5703 66.0987 46.7026 67.8714 47.4293 69.9887C48.9195 74.3306 53.386 78.1804 57.8831 80.0513C60.153 80.9956 62.555 81.49 64.7216 81.2263C66.929 80.9575 68.9095 79.8894 70.1211 77.7473C71.5577 75.2075 73.3301 73.4707 74.938 71.8951C75.4413 71.402 75.9284 70.9246 76.384 70.4434C77.2934 69.483 78.1535 68.4194 78.49 67.1581C78.8514 65.8033 78.562 64.4367 77.6476 63.0025C76.5828 61.3325 74.9986 60.8156 73.3772 60.8591C71.8495 60.9002 70.1659 61.4359 68.6387 61.9444L68.5086 61.9878L68.1775 62.0985C66.7508 62.5761 65.4284 63.0187 64.2057 63.2032C62.8688 63.405 61.8936 63.2568 61.1696 62.6966C59.0104 61.0259 56.7446 58.8566 55.6613 56.8759C55.1207 55.8873 54.9651 55.1085 55.0775 54.5342C55.1768 54.0278 55.5357 53.426 56.6523 52.8679C57.5704 52.4092 58.8841 52.4753 60.6454 53.0144C62.0195 53.4349 63.4595 54.0727 64.9396 54.7282C65.3301 54.9012 65.7241 55.0757 66.1198 55.2475C67.9189 56.0286 69.8543 56.8019 71.5099 56.8535C72.3755 56.8804 73.2677 56.7159 74.0406 56.1686C74.8185 55.6175 75.3322 54.7801 75.6306 53.7394C75.9358 52.6744 75.923 51.6735 75.6212 50.7506C75.3243 49.8427 74.7743 49.0887 74.1307 48.4572C72.878 47.2286 71.0801 46.2908 69.501 45.4802L69.3118 45.3831C67.7159 44.5643 66.3585 43.8679 65.4798 43.0746C65.0428 42.6801 64.8094 42.3324 64.7088 42.0236C64.6175 41.7434 64.6006 41.3925 64.7954 40.8947C65.0074 40.3528 65.2821 40.0173 65.5781 39.7929C65.882 39.5624 66.2719 39.4008 66.7773 39.3087C67.8421 39.1148 69.1636 39.2585 70.7354 39.4457L70.8662 39.4613C72.3074 39.6334 73.9643 39.8312 75.4282 39.5886C77.04 39.3214 78.5209 38.5034 79.3535 36.6281C80.8763 33.1975 79.5003 28.9955 77.3926 25.9562C76.3126 24.399 74.9685 23.0325 73.5316 22.1041C72.1123 21.187 70.4718 20.6171 68.8657 20.9125C67.5275 21.1587 66.5133 21.5935 65.7138 22.156C64.9158 22.7175 64.391 23.3651 63.9904 23.9416C63.8549 24.1366 63.7217 24.3419 63.6053 24.5214C63.559 24.5927 63.5148 24.6609 63.4744 24.7221C63.3206 24.956 63.193 25.1372 63.0661 25.2878C62.8361 25.5607 62.6291 25.7087 62.3208 25.7838C61.2685 26.0396 59.9265 26.0488 58.784 25.9763C58.4715 25.9564 58.1817 25.9303 57.9264 25.9042C57.4156 23.4218 55.8362 21.1973 53.4582 19.9631L53.0604 19.7694C48.7441 17.8016 43.6646 19.7385 41.7151 24.0951L41.5443 24.5049C39.9421 28.6304 41.6977 33.325 45.6018 35.3515L46.0007 35.5452C50.1819 37.4511 55.0796 35.6942 57.1542 31.6222L57.3449 31.2207C57.7638 30.2845 58.0033 29.3123 58.0796 28.344C58.1278 28.3481 58.1767 28.3525 58.2264 28.357C58.3576 28.3688 58.4937 28.3811 58.6342 28.39C59.8467 28.467 61.475 28.4768 62.8813 28.135C63.8021 27.9111 64.4223 27.4113 64.8913 26.8549C65.1137 26.5909 65.305 26.3114 65.4704 26.0601C65.5268 25.9744 65.5793 25.8937 65.6298 25.8157C65.7381 25.6489 65.8383 25.4947 65.9525 25.3303C66.2673 24.8772 66.6035 24.4779 67.0838 24.14C67.5628 23.8029 68.2453 23.4852 69.2951 23.2921C70.0771 23.1482 71.0949 23.4002 72.24 24.14C73.3675 24.8685 74.495 25.9955 75.4293 27.3426C77.3502 30.1123 78.1762 33.3658 77.1668 35.6396C76.7331 36.6163 76.0425 37.0358 75.0397 37.202C73.9334 37.3853 72.5879 37.2321 71.0162 37.0449L70.9402 37.0359C69.4863 36.8626 67.8127 36.6631 66.3514 36.9292C65.5814 37.0695 64.8152 37.346 64.139 37.8586C63.4548 38.3774 62.9245 39.0917 62.5665 40.0066C62.1914 40.9658 62.1456 41.9005 62.432 42.7794C62.7093 43.6299 63.2607 44.3173 63.8816 44.8779C65.0037 45.891 66.6268 46.7216 68.0989 47.475L68.4141 47.6365C70.0638 48.4834 71.5156 49.2646 72.4611 50.192C72.9163 50.6386 73.2031 51.073 73.3456 51.5087C73.4831 51.9293 73.512 52.4296 73.3292 53.0675C73.1395 53.7291 72.883 54.0346 72.6647 54.1894C72.4408 54.3479 72.1089 54.4525 71.5836 54.4362C70.4576 54.401 68.9375 53.8386 67.0663 53.0262C66.7729 52.8988 66.4717 52.7657 66.1653 52.6299L65.9707 52.5436C64.4781 51.8818 62.8646 51.1663 61.3404 50.6998C59.4586 50.1239 57.3714 49.8098 55.5899 50.6998C54.0077 51.4904 53.0081 52.6242 52.7258 54.0665C52.457 55.4409 52.8976 56.826 53.5635 58.0438C54.8938 60.4764 57.4867 62.8951 59.7118 64.6168C61.1801 65.7529 62.9364 65.8408 64.5602 65.5958C66.0003 65.3784 67.527 64.866 68.9134 64.4007ZM27.8695 58.4241L40.937 64.5117L41.7993 62.1853L29.0114 56.2689L27.8695 58.4241Z" fill="white"/>
</svg>
