<svg width="96" height="157" viewBox="0 0 96 157" fill="none" xmlns="http://www.w3.org/2000/svg">
<path d="M48 2C73.4135 2 93.9998 22.5059 94 47.7822C94 58.9163 90.0916 71.6876 84.5068 84.5928C78.935 97.4679 71.7842 110.279 65.458 121.483C59.8161 131.475 55.0139 140.115 51.6211 146.256C50.1226 148.968 48.8992 151.193 48 152.833C47.1008 151.193 45.8774 148.968 44.3789 146.256C40.9861 140.115 36.1839 131.475 30.542 121.483C24.2158 110.279 17.065 97.4679 11.4932 84.5928C5.90838 71.6876 2 58.9163 2 47.7822C2.00021 22.5059 22.5865 2 48 2Z" fill="#0B0B0D" stroke="#484A55" stroke-width="4"/>
<path fill-rule="evenodd" clip-rule="evenodd" d="M26.8047 59.8685C27.5763 60.1925 28.4174 60.391 29.302 60.4369L29.6989 60.4476C32.2343 60.4475 34.4775 59.1877 35.7964 57.2647C37.046 59.0832 39.1246 60.3169 41.5116 60.4381L41.9 60.4476C44.4412 60.4475 46.6809 59.186 48 57.2686C49.3191 59.186 51.5588 60.4475 54.1 60.4476C56.6488 60.4476 58.8863 59.1809 60.2032 57.2649C61.5225 59.1877 63.7659 60.4475 66.3011 60.4476C67.3312 60.4476 68.309 60.2409 69.1952 59.8687V79.3429C69.1952 81.3626 67.5206 83 65.4549 83H54.2339V66.5429H41.7661V83H30.5451C28.4794 83 26.8047 81.3626 26.8047 79.3429V59.8685ZM42.437 19H40.4718C40.5694 19.1595 40.6627 19.3176 40.7507 19.4714C41.0129 19.9302 41.2486 20.3896 41.4228 20.7881L41.4544 20.8614L41.4861 20.7881C41.6602 20.3896 41.896 19.9302 42.1582 19.4714C42.2461 19.3176 42.3394 19.1595 42.437 19ZM38.5737 20.6619C38.2139 20.0324 37.8102 19.4262 37.4641 19H32.9769C32.6308 19.4262 32.2271 20.0324 31.8674 20.6619C31.6363 21.0663 31.4432 21.4455 31.3121 21.7452C31.2469 21.8945 31.2043 22.0096 31.1794 22.0881L31.1825 22.1029C31.1867 22.1234 31.192 22.1494 31.2014 22.181C31.2338 22.2906 31.2872 22.433 31.3657 22.6083C31.5239 22.9612 31.7506 23.3785 32.0159 23.831C32.1959 24.138 32.4059 24.4799 32.6157 24.8214C32.8018 25.1245 32.9877 25.4273 33.1522 25.7048H37.2889C37.4533 25.4273 37.6392 25.1245 37.8254 24.8214C38.0351 24.4799 38.2451 24.138 38.4251 23.831C38.6904 23.3785 38.9172 22.9612 39.0753 22.6083C39.1539 22.433 39.2072 22.2906 39.2397 22.181C39.249 22.1494 39.2543 22.1234 39.2585 22.1029L39.2616 22.0881C39.2367 22.0096 39.1941 21.8945 39.1289 21.7452C38.9978 21.4455 38.8048 21.0663 38.5737 20.6619ZM66.7017 19C66.9194 19 67.1328 19.0182 67.3403 19.0531C67.2544 19.1946 67.1719 19.3347 67.0937 19.4714C66.8316 19.9302 66.5958 20.3896 66.4217 20.7881L66.39 20.8614L66.3583 20.7881C66.1842 20.3896 65.9484 19.9302 65.6862 19.4714C65.5983 19.3176 65.505 19.1595 65.4074 19H66.7017ZM66.295 23.5869C66.3265 23.5166 66.3585 23.4429 66.39 23.3664C66.4215 23.4429 66.4535 23.5166 66.485 23.5869C66.6969 24.0599 66.9768 24.5663 67.2569 25.044C67.3925 25.2754 67.5251 25.4957 67.6525 25.7048H65.1275C65.2549 25.4957 65.3875 25.2754 65.5231 25.044C65.8032 24.5663 66.0831 24.0599 66.295 23.5869ZM56.8029 20.6619C57.1627 20.0324 57.5664 19.4262 57.9125 19H62.3997C62.7458 19.4262 63.1495 20.0324 63.5093 20.6619C63.7404 21.0663 63.9334 21.4455 64.0645 21.7452C64.1297 21.8945 64.1723 22.0096 64.1972 22.0881L64.1941 22.1029C64.1899 22.1234 64.1846 22.1494 64.1753 22.181C64.1428 22.2906 64.0894 22.433 64.0109 22.6083C63.8528 22.9612 63.626 23.3785 63.3607 23.831C63.1807 24.1379 62.9704 24.4804 62.7607 24.8219L62.6971 24.9254C62.5326 25.1935 62.3701 25.459 62.2244 25.7048H58.0877C57.9234 25.4274 57.7373 25.1244 57.5512 24.8214C57.3415 24.4799 57.1315 24.1379 56.9515 23.831C56.6862 23.3785 56.4594 22.9612 56.3013 22.6083C56.2228 22.433 56.1694 22.2906 56.1369 22.181C56.1276 22.1494 56.1223 22.1234 56.1181 22.1029L56.115 22.0881C56.1399 22.0096 56.1825 21.8945 56.2477 21.7452C56.3788 21.4455 56.5718 21.0663 56.8029 20.6619ZM54.7891 25.044C54.9247 25.2754 55.0573 25.4957 55.1847 25.7048H52.6597C52.7871 25.4957 52.9197 25.2754 53.0553 25.044C53.3354 24.5663 53.6153 24.0599 53.8272 23.5869C53.8587 23.5166 53.8907 23.4429 53.9222 23.3664C53.9537 23.4429 53.9857 23.5166 54.0172 23.5869C54.2291 24.0599 54.509 24.5663 54.7891 25.044ZM53.2184 19.4714C53.1305 19.3176 53.0372 19.1595 52.9396 19H54.9048C54.8072 19.1595 54.7139 19.3176 54.6259 19.4714C54.3638 19.9302 54.128 20.3896 53.9539 20.7881L53.9222 20.8614L53.8905 20.7881C53.7164 20.3896 53.4806 19.9302 53.2184 19.4714ZM44.3351 20.6619C44.6949 20.0324 45.0986 19.4262 45.4447 19H49.9319C50.278 19.4262 50.6817 20.0324 51.0415 20.6619C51.2726 21.0663 51.4656 21.4455 51.5967 21.7452C51.6619 21.8945 51.7045 22.0096 51.7294 22.0881L51.7263 22.1029C51.7221 22.1234 51.7168 22.1494 51.7075 22.181C51.675 22.2906 51.6217 22.433 51.5431 22.6083C51.385 22.9612 51.1582 23.3785 50.8929 23.831C50.7129 24.138 50.5029 24.4799 50.2932 24.8214C50.107 25.1245 49.9211 25.4273 49.7566 25.7048H45.62C45.4555 25.4273 45.2696 25.1245 45.0834 24.8214C44.8737 24.4799 44.6637 24.138 44.4837 23.831C44.2184 23.3785 43.9916 22.9612 43.8335 22.6083C43.755 22.433 43.7016 22.2906 43.6691 22.181C43.6598 22.1494 43.6545 22.1234 43.6503 22.1029L43.6472 22.0881C43.6721 22.0096 43.7147 21.8945 43.7799 21.7452C43.911 21.4455 44.104 21.0663 44.3351 20.6619ZM69.2707 20.6619C69.3506 20.5222 69.4326 20.3836 69.5157 20.2479C70.0924 20.8913 70.442 21.7343 70.442 22.6571V25.5147C70.3079 25.2917 70.1631 25.056 70.0188 24.821L69.9999 24.7903L69.9796 24.7573C69.7833 24.4375 69.5878 24.1184 69.4193 23.831C69.154 23.3785 68.9272 22.9612 68.7691 22.6083C68.6905 22.433 68.6372 22.2906 68.6047 22.181C68.5954 22.1494 68.5901 22.1234 68.5859 22.1029L68.5828 22.0881C68.6077 22.0096 68.6503 21.8945 68.7155 21.7452C68.8466 21.4455 69.0396 21.0663 69.2707 20.6619ZM24.9346 22.6571C24.9346 21.7343 25.2842 20.8913 25.8609 20.2479C25.944 20.3836 26.026 20.5222 26.1059 20.6619C26.337 21.0663 26.5301 21.4455 26.6611 21.7452C26.7263 21.8945 26.7689 22.0096 26.7938 22.0881L26.7907 22.1029C26.7865 22.1234 26.7812 22.1494 26.7719 22.181C26.7394 22.2906 26.6861 22.433 26.6075 22.6083C26.4494 22.9612 26.2226 23.3785 25.9573 23.831C25.7774 24.1379 25.5674 24.4798 25.3577 24.8212C25.2133 25.0564 25.0688 25.2916 24.9346 25.5147V22.6571ZM28.0363 19.0531C28.1223 19.1946 28.2047 19.3347 28.2829 19.4714C28.5451 19.9302 28.7808 20.3896 28.955 20.7881L28.9866 20.8614L29.0183 20.7881C29.1924 20.3896 29.4282 19.9302 29.6904 19.4714C29.7783 19.3176 29.8716 19.1595 29.9692 19H28.6749C28.4572 19 28.2439 19.0182 28.0363 19.0531ZM77.8618 58.0095C75.6921 58.0095 73.8913 56.3697 73.7367 54.2536L71.8739 28.7524H72.9137C74.0269 28.7524 75.0063 29.4737 75.3123 30.5202L81.8384 52.8548C82.5932 55.4379 80.6094 58.0093 77.8618 58.0095ZM54.1 58.0095C56.8484 58.0095 59.0488 55.7797 58.9507 53.094L58.0619 28.7524H49.2468V53.2643C49.247 55.8849 51.4197 58.0093 54.1 58.0095ZM46.7532 53.2643V28.7524H37.9381L37.0493 53.094C36.9512 55.7797 39.1516 58.0095 41.9 58.0095C44.5803 58.0093 46.753 55.8849 46.7532 53.2643ZM42.7169 25.7048C42.5895 25.4957 42.4569 25.2754 42.3213 25.044C42.0412 24.5663 41.7613 24.0599 41.5494 23.5869C41.5179 23.5166 41.4859 23.4429 41.4544 23.3664C41.4229 23.4429 41.3909 23.5166 41.3594 23.5869C41.1475 24.0599 40.8676 24.5663 40.5875 25.044C40.4519 25.2754 40.3193 25.4957 40.1919 25.7048H42.7169ZM29.6989 58.0095C32.3069 58.0093 34.4468 55.9901 34.5399 53.4417L35.4409 28.7524H26.6331L24.8664 52.9357C24.6663 55.6775 26.8876 58.0095 29.6989 58.0095ZM30.2491 25.7048H27.7241C27.8515 25.4957 27.9841 25.2754 28.1197 25.044C28.3998 24.5663 28.6797 24.0599 28.8916 23.5869C28.9231 23.5166 28.9551 23.4429 28.9866 23.3664C29.0181 23.4429 29.0501 23.5166 29.0816 23.5869C29.2935 24.0599 29.5734 24.5663 29.8535 25.044C29.9892 25.2754 30.1217 25.4957 30.2491 25.7048ZM14.1616 52.8548C13.4068 55.4379 15.3906 58.0093 18.1382 58.0095C20.3079 58.0095 22.1087 56.3697 22.2633 54.2536L24.1261 28.7524H23.0863C21.9731 28.7524 20.9937 29.4737 20.6877 30.5202L14.1616 52.8548ZM66.3011 58.0095C69.1124 58.0095 71.3337 55.6775 71.1336 52.9357L69.3669 28.7524H60.5591L61.4601 53.4417C61.5532 55.9901 63.6931 58.0093 66.3011 58.0095Z" fill="#F6F8FA"/>
</svg>
