<svg width="96" height="157" viewBox="0 0 96 157" fill="none" xmlns="http://www.w3.org/2000/svg">
<path d="M48 2C73.4135 2 93.9998 22.5059 94 47.7822C94 58.9163 90.0916 71.6876 84.5068 84.5928C78.935 97.4679 71.7842 110.279 65.458 121.483C59.8161 131.475 55.0139 140.115 51.6211 146.256C50.1226 148.968 48.8992 151.193 48 152.833C47.1008 151.193 45.8774 148.968 44.3789 146.256C40.9861 140.115 36.1839 131.475 30.542 121.483C24.2158 110.279 17.065 97.4679 11.4932 84.5928C5.90838 71.6876 2 58.9163 2 47.7822C2.00021 22.5059 22.5865 2 48 2Z" fill="#F6F8FA" stroke="#E7E7E7" stroke-width="4"/>
<path fill-rule="evenodd" clip-rule="evenodd" d="M64.7322 19C65.4436 19 66.1245 19.1291 66.7529 19.3639C66.7634 19.3533 66.7737 19.3423 66.7842 19.3319L66.858 19.4049C68.9654 20.2402 70.4545 22.2794 70.4545 24.6637V28.0619L70.8144 28.0774C72.6981 28.2318 74.3104 29.5248 74.8368 31.3485L80.8274 52.1007C81.938 55.948 79.0191 59.7784 74.9765 59.7788C72.8282 59.7788 70.9273 58.6716 69.8432 56.9878C69.6788 57.215 69.5014 57.4323 69.3101 57.6372V77.3363C69.3101 80.4642 66.748 82.9999 63.5877 83H50.9986V67.708H44.1318V83H31.5427C28.3823 83 25.8203 80.4643 25.8203 77.3363V57.6372C25.6288 57.4322 25.4506 57.2152 25.2861 56.9878C24.202 58.6714 22.302 59.7787 20.1539 59.7788C16.1111 59.7786 13.1924 55.9481 14.303 52.1007L20.2936 31.3485C20.8002 29.5937 22.312 28.3334 24.1036 28.1029V24.6637C24.1036 22.2797 25.592 20.2404 27.6991 19.4049L27.774 19.3319C27.7843 19.3421 27.7938 19.3534 27.8042 19.3639C28.4328 19.1289 29.1142 19 29.826 19H64.7322ZM58.7662 56.8175C57.5576 58.5992 55.5052 59.7787 53.1646 59.7788C50.8306 59.7786 48.7747 58.6042 47.5641 56.8208C46.3535 58.6037 44.2993 59.7785 41.9658 59.7788L41.6093 59.7699C39.4172 59.6572 37.5088 58.5095 36.3619 56.8186C35.1514 58.6062 33.0938 59.7786 30.7659 59.7788L30.4016 59.7688C29.5894 59.7261 28.8177 59.5401 28.1093 59.2389V77.3363C28.1093 79.2131 29.6465 80.7345 31.5427 80.7345H41.8429V65.4425H53.2875V80.7345H63.5877C65.4838 80.7344 67.0211 79.213 67.0211 77.3363V59.2389C66.2075 59.585 65.3103 59.7787 64.3645 59.7788C62.036 59.7786 59.977 58.6058 58.7662 56.8175ZM24.696 30.3274C23.6741 30.3274 22.7751 30.9977 22.4942 31.9701L16.5037 52.7234C15.8108 55.1237 17.6318 57.5131 20.1539 57.5133C22.1455 57.5132 23.7986 55.9895 23.9405 54.0232L25.6505 30.3274H24.696ZM26.33 52.7987C26.1463 55.3463 28.1853 57.5133 30.7659 57.5133C33.1598 57.513 35.1242 55.6367 35.2097 53.2688L36.0367 30.3274H27.9517L26.33 52.7987ZM37.5131 52.9458C37.4231 55.4413 39.4429 57.5133 41.9658 57.5133C44.426 57.5129 46.4205 55.539 46.4207 53.104V30.3274H38.329L37.5131 52.9458ZM48.7097 53.104C48.7099 55.5391 50.7043 57.5131 53.1646 57.5133C55.6874 57.5131 57.7073 55.4412 57.6173 52.9458L56.8014 30.3274H48.7097V53.104ZM59.9207 53.2688C60.0062 55.6368 61.9705 57.5131 64.3645 57.5133C66.945 57.5131 68.9841 55.3462 68.8004 52.7987L67.1787 30.3274H59.0937L59.9207 53.2688ZM71.1899 54.0232C71.3319 55.9895 72.9848 57.5133 74.9765 57.5133C77.4984 57.5129 79.3195 55.1236 78.6267 52.7234L72.6362 31.9701C72.3554 30.9978 71.4562 30.3276 70.4344 30.3274H69.48L71.1899 54.0232ZM30.0249 25.5277C29.8304 25.9672 29.5734 26.4377 29.3163 26.8816C29.1913 27.0975 29.0649 27.3006 28.9475 27.4956H31.2767C31.1593 27.3006 31.0329 27.0975 30.9079 26.8816C30.6507 26.4377 30.3938 25.9672 30.1993 25.5277C30.1697 25.4609 30.1405 25.3903 30.111 25.3175C30.0815 25.3901 30.0544 25.4611 30.0249 25.5277ZM33.7746 21.2655C33.4569 21.6615 33.0867 22.2249 32.7564 22.8097C32.5443 23.1854 32.3671 23.5378 32.2468 23.8164C32.1869 23.9551 32.1478 24.062 32.125 24.135C32.1294 24.1556 32.1343 24.1844 32.1451 24.2212C32.1749 24.3232 32.2239 24.4555 32.296 24.6184C32.4411 24.9463 32.6493 25.334 32.8928 25.7544C33.2045 26.2927 33.6135 26.9473 33.9344 27.4956H37.7344C38.0554 26.9473 38.4643 26.2927 38.7761 25.7544C39.0195 25.334 39.2277 24.9463 39.3729 24.6184C39.445 24.4555 39.494 24.3231 39.5238 24.2212C39.5345 24.1844 39.5395 24.1556 39.5439 24.135C39.521 24.062 39.4819 23.9551 39.4221 23.8164C39.3018 23.5378 39.1245 23.1854 38.9124 22.8097C38.5822 22.2249 38.2119 21.6615 37.8942 21.2655H33.7746ZM41.4696 25.5277C41.275 25.9672 41.0181 26.4377 40.761 26.8816C40.636 27.0975 40.5095 27.3006 40.3922 27.4956H42.7213C42.604 27.3006 42.4776 27.0975 42.3525 26.8816C42.0954 26.4377 41.8385 25.9672 41.6439 25.5277C41.6144 25.4609 41.5852 25.3903 41.5556 25.3175C41.5262 25.3901 41.499 25.4611 41.4696 25.5277ZM45.2193 21.2655C44.9016 21.6615 44.5313 22.2249 44.2011 22.8097C43.989 23.1854 43.8117 23.5378 43.6915 23.8164C43.6316 23.9551 43.5925 24.062 43.5696 24.135C43.574 24.1556 43.579 24.1844 43.5897 24.2212C43.6195 24.3232 43.6685 24.4555 43.7406 24.6184C43.8858 24.9463 44.094 25.334 44.3375 25.7544C44.6492 26.2927 45.0581 26.9473 45.3791 27.4956H49.1791C49.5 26.9473 49.909 26.2927 50.2207 25.7544C50.4642 25.334 50.6724 24.9463 50.8175 24.6184C50.8896 24.4555 50.9386 24.3231 50.9684 24.2212C50.9792 24.1844 50.9842 24.1556 50.9885 24.135C50.9657 24.062 50.9266 23.9551 50.8667 23.8164C50.7465 23.5378 50.5692 23.1854 50.3571 22.8097C50.0269 22.2249 49.6566 21.6615 49.3389 21.2655H45.2193ZM52.9142 25.5277C52.7197 25.9672 52.4628 26.4377 52.2057 26.8816C52.0806 27.0975 51.9542 27.3006 51.8368 27.4956H54.166C54.0486 27.3006 53.9222 27.0975 53.7972 26.8816C53.5401 26.4377 53.2832 25.9672 53.0886 25.5277C53.059 25.4609 53.0299 25.3903 53.0003 25.3175C52.9708 25.3901 52.9437 25.4611 52.9142 25.5277ZM56.6639 21.2655C56.3463 21.6615 55.976 22.2249 55.6458 22.8097C55.4336 23.1854 55.2564 23.5378 55.1361 23.8164C55.0763 23.9551 55.0372 24.062 55.0143 24.135C55.0187 24.1556 55.0236 24.1844 55.0344 24.2212C55.0642 24.3232 55.1132 24.4555 55.1853 24.6184C55.3305 24.9463 55.5387 25.334 55.7821 25.7544C56.0939 26.2927 56.5028 26.9473 56.8238 27.4956H60.6237C60.9447 26.9473 61.3537 26.2927 61.6654 25.7544C61.9089 25.334 62.1171 24.9463 62.2622 24.6184C62.3343 24.4555 62.3833 24.3231 62.4131 24.2212C62.4239 24.1844 62.4288 24.1556 62.4332 24.135C62.4104 24.062 62.3713 23.9551 62.3114 23.8164C62.1911 23.5378 62.0139 23.1854 61.8017 22.8097C61.4716 22.2249 61.1012 21.6615 60.7836 21.2655H56.6639ZM64.3589 25.5277C64.1644 25.9672 63.9074 26.4377 63.6503 26.8816C63.5253 27.0975 63.3989 27.3006 63.2815 27.4956H65.6107C65.4933 27.3006 65.3669 27.0975 65.2418 26.8816C64.9847 26.4377 64.7278 25.9672 64.5333 25.5277C64.5037 25.4609 64.4745 25.3903 64.445 25.3175C64.4155 25.3901 64.3884 25.4611 64.3589 25.5277ZM27.242 22.4303C26.7143 23.0278 26.3926 23.8078 26.3926 24.6637V27.3219C26.695 26.813 27.052 26.2368 27.3314 25.7544C27.5749 25.334 27.7831 24.9463 27.9282 24.6184C28.0003 24.4555 28.0493 24.3231 28.0791 24.2212C28.0899 24.1844 28.0948 24.1556 28.0992 24.135C28.0764 24.062 28.0373 23.9551 27.9774 23.8164C27.8571 23.5378 27.6799 23.1854 27.4677 22.8097C27.3951 22.6811 27.3175 22.5553 27.242 22.4303ZM67.0904 22.8097C66.8783 23.1854 66.7011 23.5378 66.5808 23.8164C66.5209 23.9551 66.4818 24.062 66.459 24.135C66.4634 24.1556 66.4683 24.1844 66.4791 24.2212C66.5089 24.3232 66.5579 24.4555 66.63 24.6184C66.7751 24.9463 66.9833 25.334 67.2268 25.7544C67.5062 26.2369 67.8632 26.813 68.1656 27.3219V24.6637C68.1656 23.8077 67.8429 23.0278 67.3151 22.4303C67.2396 22.5551 67.163 22.6813 67.0904 22.8097ZM29.826 21.2655C29.6245 21.2655 29.4267 21.2823 29.2347 21.3153C29.314 21.4473 29.394 21.5759 29.4661 21.7035C29.7067 22.1298 29.9232 22.5568 30.083 22.927C30.0931 22.9503 30.1012 22.9745 30.111 22.9978C30.1209 22.9742 30.131 22.9506 30.1411 22.927C30.301 22.5567 30.5174 22.1298 30.7581 21.7035C30.839 21.5602 30.9275 21.4142 31.0174 21.2655H29.826ZM40.9108 21.7035C41.1514 22.1298 41.3679 22.5568 41.5277 22.927C41.5378 22.9503 41.5458 22.9745 41.5556 22.9978C41.5655 22.9742 41.5756 22.9506 41.5858 22.927C41.7457 22.5567 41.9621 22.1298 42.2028 21.7035C42.2837 21.5602 42.3721 21.4142 42.462 21.2655H40.6503C40.7404 21.4143 40.8297 21.56 40.9108 21.7035ZM52.3554 21.7035C52.5961 22.1298 52.8125 22.5568 52.9724 22.927C52.9824 22.9503 52.9905 22.9745 53.0003 22.9978C53.0102 22.9742 53.0203 22.9506 53.0305 22.927C53.1903 22.5567 53.4068 22.1298 53.6474 21.7035C53.7284 21.5602 53.8168 21.4142 53.9067 21.2655H52.095C52.185 21.4143 52.2744 21.56 52.3554 21.7035ZM63.8001 21.7035C64.0407 22.1298 64.2572 22.5568 64.417 22.927C64.4271 22.9503 64.4352 22.9745 64.445 22.9978C64.4549 22.9742 64.465 22.9506 64.4751 22.927C64.635 22.5567 64.8514 22.1298 65.0921 21.7035C65.164 21.5762 65.2421 21.4471 65.3212 21.3153C65.1298 21.2825 64.933 21.2655 64.7322 21.2655H63.5397C63.6297 21.4143 63.7191 21.56 63.8001 21.7035Z" fill="black"/>
</svg>
