<svg width="96" height="157" viewBox="0 0 96 157" fill="none" xmlns="http://www.w3.org/2000/svg">
<path d="M48 2C73.4135 2 93.9998 22.5059 94 47.7822C94 58.9163 90.0916 71.6876 84.5068 84.5928C78.935 97.4679 71.7842 110.279 65.458 121.483C59.8161 131.475 55.0139 140.115 51.6211 146.256C50.1226 148.968 48.8992 151.193 48 152.833C47.1008 151.193 45.8774 148.968 44.3789 146.256C40.9861 140.115 36.1839 131.475 30.542 121.483C24.2158 110.279 17.065 97.4679 11.4932 84.5928C5.90838 71.6876 2 58.9163 2 47.7822C2.00021 22.5059 22.5865 2 48 2Z" fill="#F6F8FA" stroke="#E7E7E7" stroke-width="4"/>
<path fill-rule="evenodd" clip-rule="evenodd" d="M48.0875 21C60.043 21 69.7348 30.7378 69.7348 42.75C69.7348 54.7622 60.043 64.5 48.0875 64.5C36.132 64.5 26.4402 54.7622 26.4402 42.75C26.4402 30.7378 36.132 21 48.0875 21ZM44.5549 52.9733L44.6871 61.4152C45.7902 61.6168 46.9265 61.7234 48.0875 61.7234C49.2482 61.7234 50.3841 61.6167 51.487 61.4152L51.6183 52.9733L48.0866 49.5396L44.5549 52.9733ZM38.3496 59.0083C40.0055 60.0117 41.8269 60.7669 43.7633 61.2227L43.6481 53.8555L38.3496 59.0083ZM52.4108 61.2227C54.3473 60.7669 56.1685 60.0116 57.8245 59.0083L52.526 53.8555L52.4108 61.2227ZM32.4134 53.3358C33.7778 55.3713 35.525 57.1265 37.5508 58.4976L43.6283 52.5883L43.5456 47.3126L38.2957 47.2294L32.4134 53.3358ZM52.6285 47.3126L52.5458 52.5883L58.6233 58.4976C60.6493 57.1265 62.3962 55.3714 63.7607 53.3358L57.8802 47.2294L52.6285 47.3126ZM29.7011 47.0939C30.1547 49.0394 30.9066 50.8694 31.9051 52.5332L37.0327 47.2095L29.7011 47.0939ZM59.1423 47.2095L64.2699 52.5323C65.2682 50.8687 66.0195 49.0391 66.473 47.0939L59.1423 47.2095ZM44.5351 51.7062L47.4245 48.8961L45.9582 47.4699C45.873 47.431 45.789 47.3902 45.7063 47.3469L44.4667 47.327L44.5351 51.7062ZM50.4678 47.3469C50.3857 47.3899 50.3023 47.4303 50.2177 47.4689L48.7487 48.8961L51.6381 51.7052L51.7065 47.327L50.4678 47.3469ZM48.4302 47.92C48.3169 47.9274 48.2027 47.9326 48.0875 47.9326C47.972 47.9326 47.8575 47.9275 47.7439 47.92L48.0866 48.2526L48.4302 47.92ZM52.7851 44.8885C52.7464 44.9741 52.7058 45.0585 52.6627 45.1416L52.6429 46.3871L57.0023 46.3184L54.2055 43.4143L52.7851 44.8885ZM39.1736 46.3175L43.5312 46.3861L43.5114 45.1416C43.4686 45.0591 43.4283 44.9753 43.3899 44.8903L41.9695 43.4152L39.1736 46.3175ZM54.846 42.7491L58.2644 46.2985L66.6646 46.1656C66.8651 45.0575 66.9713 43.9162 66.9713 42.75C66.9713 41.5835 66.8652 40.4418 66.6646 39.3335L58.2644 39.2006L54.846 42.7491ZM29.5095 39.3335C29.309 40.4418 29.2037 41.5836 29.2037 42.75C29.2037 43.9161 29.3091 45.0576 29.5095 46.1656L37.9106 46.2976L41.3281 42.7491L37.9106 39.2006L29.5095 39.3335ZM48.0875 39.5106C46.3069 39.5106 44.8634 40.961 44.8634 42.75C44.8634 44.5391 46.3069 45.9894 48.0875 45.9894C49.8681 45.9894 51.3116 44.5391 51.3116 42.75C51.3116 40.961 49.8681 39.5106 48.0875 39.5106ZM42.61 42.75L42.941 43.0944C42.9336 42.9805 42.9294 42.8657 42.9294 42.75C42.9294 42.6343 42.9336 42.5195 42.941 42.4056L42.61 42.75ZM53.2331 42.4047C53.2405 42.5189 53.2456 42.634 53.2456 42.75C53.2456 42.8651 53.2404 42.9793 53.2331 43.0926L53.5641 42.7491L53.2331 42.4047ZM39.1718 39.1807L41.9686 42.0848L43.3899 40.6088C43.4284 40.5238 43.4686 40.44 43.5114 40.3575L43.5303 39.112L39.1718 39.1807ZM52.6627 40.3575C52.7055 40.44 52.7457 40.5238 52.7842 40.6088L54.2046 42.0839L57.0014 39.1807L52.6429 39.112C52.6493 39.5186 52.6561 39.9333 52.6627 40.3575ZM31.9051 32.9659C30.9065 34.6296 30.1548 36.4598 29.7011 38.4052L37.0327 38.2896L31.9051 32.9659ZM59.1414 38.2886L66.473 38.4052C66.0193 36.4597 65.2677 34.6297 64.269 32.9659L59.1414 38.2886ZM37.5508 27.0015C35.525 28.3725 33.7779 30.1279 32.4134 32.1633L38.2939 38.2697L43.5447 38.1865L43.6274 32.9099L37.5508 27.0015ZM52.5467 32.9108C52.5731 34.6002 52.5992 36.3121 52.6285 38.1865L57.8793 38.2688L63.7598 32.1633C62.3953 30.128 60.6491 28.3724 58.6233 27.0015L52.5467 32.9108ZM44.4667 38.1721L45.7063 38.1522C45.7884 38.1092 45.8719 38.0688 45.9564 38.0301L47.4245 36.6021L44.5351 33.7929L44.4667 38.1721ZM48.7496 36.6021L50.2177 38.0301C50.3023 38.0687 50.3857 38.1092 50.4678 38.1522L51.7065 38.1721L51.6381 33.7939L48.7496 36.6021ZM47.7439 37.5791C47.8575 37.5716 47.972 37.5674 48.0875 37.5674C48.2027 37.5674 48.3169 37.5717 48.4302 37.5791L48.0875 37.2456L47.7439 37.5791ZM48.0875 23.7766C46.9266 23.7766 45.7902 23.8824 44.6871 24.0839L44.5549 32.524L48.0866 35.9585L51.6183 32.5249L51.487 24.0839C50.3842 23.8825 49.2481 23.7766 48.0875 23.7766ZM43.7633 24.2764C41.827 24.7322 40.0055 25.4875 38.3496 26.4908L43.6472 31.6418L43.7633 24.2764ZM52.526 31.6409L57.8236 26.4899C56.1679 25.487 54.3468 24.732 52.4108 24.2764C52.4536 26.9952 52.4897 29.33 52.526 31.6409Z" fill="black"/>
<path d="M78.6465 65.9408L78.6441 65.9432C78.6419 65.9448 78.6377 65.9476 78.6324 65.9514C78.6216 65.9592 78.6046 65.9717 78.5819 65.988C78.5365 66.0206 78.4675 66.0691 78.3775 66.132C78.197 66.258 77.9313 66.4402 77.5965 66.6594C76.9258 67.0987 75.9833 67.6841 74.8976 68.2678C72.6716 69.4646 70.0468 70.5416 67.9508 70.5417H28.2242C25.8189 70.5416 23.1865 69.4549 21.0671 68.276C20.0261 67.697 19.1459 67.1168 18.5268 66.6818C18.2178 66.4647 17.9749 66.2844 17.8116 66.1603C17.7301 66.0984 17.6686 66.0503 17.6284 66.0187C17.6082 66.0029 17.5929 65.9918 17.5837 65.9845C17.5792 65.9808 17.5743 65.9762 17.5743 65.9762L17.5732 65.975L16.0652 67.8583L16.0722 67.8642C16.0762 67.8674 16.0818 67.8717 16.0887 67.8772C16.1024 67.8882 16.1225 67.9036 16.1474 67.9232C16.1973 67.9624 16.2691 68.0184 16.3611 68.0884C16.5457 68.2286 16.8123 68.426 17.148 68.6619C17.8186 69.1331 18.7711 69.7615 19.9021 70.3906C22.1273 71.6284 25.1979 72.9583 28.2242 72.9583H67.9508C70.6851 72.9583 73.7633 71.6187 76.0322 70.3989C77.1936 69.7744 78.1967 69.1512 78.9095 68.6843C79.2665 68.4505 79.5525 68.255 79.7504 68.1167C79.8494 68.0476 79.9262 67.9921 79.9795 67.9539C80.006 67.9348 80.0272 67.9207 80.0417 67.9102C80.0488 67.9051 80.0541 67.9002 80.0581 67.8973L80.0628 67.8937L80.0652 67.8925L78.6465 65.9408Z" fill="#0B0B0D"/>
<path d="M34.8586 76.5833C34.8586 77.918 33.7817 79 32.4533 79C31.125 79 30.0481 77.918 30.0481 76.5833C30.0481 75.2486 31.125 74.1667 32.4533 74.1667C33.7817 74.1667 34.8586 75.2486 34.8586 76.5833Z" fill="#0B0B0D"/>
<path d="M66.1269 76.5833C66.1269 77.918 65.05 79 63.7217 79C62.3933 79 61.3164 77.918 61.3164 76.5833C61.3164 75.2486 62.3933 74.1667 63.7217 74.1667C65.05 74.1667 66.1269 75.2486 66.1269 76.5833Z" fill="#0B0B0D"/>
</svg>
