<svg width="96" height="157" viewBox="0 0 96 157" fill="none" xmlns="http://www.w3.org/2000/svg">
<path d="M48 2C73.4135 2 93.9998 22.5059 94 47.7822C94 58.9163 90.0916 71.6876 84.5068 84.5928C78.935 97.4679 71.7842 110.279 65.458 121.483C59.8161 131.475 55.0139 140.115 51.6211 146.256C50.1226 148.968 48.8992 151.193 48 152.833C47.1008 151.193 45.8774 148.968 44.3789 146.256C40.9861 140.115 36.1839 131.475 30.542 121.483C24.2158 110.279 17.065 97.4679 11.4932 84.5928C5.90838 71.6876 2 58.9163 2 47.7822C2.00021 22.5059 22.5865 2 48 2Z" fill="#0B0B0D" stroke="#484A55" stroke-width="4"/>
<path fill-rule="evenodd" clip-rule="evenodd" d="M51.6432 36.2726C51.6308 35.4845 51.6188 34.7173 51.6066 33.9551L57.2029 28.6118C59.0685 29.8514 60.6767 31.4389 61.9334 33.2792L56.5177 38.7998L51.682 38.7255C51.6685 37.8762 51.6557 37.0639 51.6432 36.2726Z" fill="#F6F8FA"/>
<path fill-rule="evenodd" clip-rule="evenodd" d="M44.3684 25.9737C45.3842 25.7914 46.4308 25.6958 47.4999 25.6958C48.5688 25.6958 49.6151 25.7915 50.6307 25.9737L50.7516 33.6061L47.4991 36.7109L44.2466 33.6053L44.3684 25.9737Z" fill="#F6F8FA"/>
<path fill-rule="evenodd" clip-rule="evenodd" d="M33.0648 33.2792C34.3215 31.4387 35.9305 29.8515 37.7962 28.6118L43.3924 33.9543L43.3162 38.7255L38.4805 38.8006L33.0648 33.2792Z" fill="#F6F8FA"/>
<path fill-rule="evenodd" clip-rule="evenodd" d="M30.1089 42.8518C30.1089 41.7971 30.2058 40.7647 30.3906 39.7626L38.1276 39.6424L41.2749 42.851L38.1276 46.0596L30.3906 45.9403C30.2059 44.9384 30.1089 43.9063 30.1089 42.8518Z" fill="#F6F8FA"/>
<path fill-rule="evenodd" clip-rule="evenodd" d="M37.7962 57.091C35.9305 55.8513 34.3215 54.2642 33.0648 52.4236L38.4821 46.9022L43.317 46.9774L43.3933 51.7478L37.7962 57.091Z" fill="#F6F8FA"/>
<path fill-rule="evenodd" clip-rule="evenodd" d="M44.3684 59.7292L44.2466 52.0959L47.4991 48.9911L50.7516 52.0959L50.6307 59.7292C49.615 59.9113 48.5689 60.0079 47.4999 60.0079C46.4307 60.0079 45.3843 59.9114 44.3684 59.7292Z" fill="#F6F8FA"/>
<path fill-rule="evenodd" clip-rule="evenodd" d="M51.6058 51.7478L51.682 46.9774L56.5186 46.9022L61.9342 52.4236C60.6775 54.2642 59.0687 55.8513 57.2029 57.091L51.6058 51.7478Z" fill="#F6F8FA"/>
<path fill-rule="evenodd" clip-rule="evenodd" d="M56.8723 46.0604L53.7242 42.851L56.8723 39.6424L64.6085 39.7626C64.7932 40.7647 64.891 41.7971 64.891 42.8518C64.891 43.9063 64.7931 44.9383 64.6085 45.9403L56.8723 46.0604Z" fill="#F6F8FA"/>
<path fill-rule="evenodd" clip-rule="evenodd" d="M44.5307 42.8518C44.5307 41.2341 45.8601 39.9227 47.4999 39.9227C49.1398 39.9227 50.4691 41.2341 50.4691 42.8518C50.4691 44.4695 49.1398 45.7809 47.4999 45.7809C45.8601 45.7809 44.5307 44.4695 44.5307 42.8518Z" fill="#F6F8FA"/>
<path d="M67.436 42.8518C67.436 31.9902 58.5103 23.1852 47.5 23.1852C36.4896 23.1852 27.5639 31.9902 27.5639 42.8518C27.5639 53.7134 36.4896 62.5185 47.5 62.5185C58.5103 62.5185 67.436 53.7134 67.436 42.8518ZM43.5175 59.5555C41.7343 59.1434 40.0573 58.4599 38.5324 57.5528L43.4115 52.8932L43.5175 59.5555ZM56.4675 57.5528C54.9424 58.46 53.2647 59.1434 51.4813 59.5555L51.5873 52.8932L56.4675 57.5528ZM37.3188 46.884L32.5966 51.6982C31.677 50.1938 30.9852 48.5386 30.5675 46.7794L37.3188 46.884ZM64.4324 46.7794C64.0148 48.5383 63.3227 50.193 62.4033 51.6972L57.6811 46.884L64.4324 46.7794ZM45.3076 47.0088C45.3835 47.0479 45.4607 47.0847 45.539 47.1198L46.8889 48.4098L44.2281 50.9503L44.1654 46.9907L45.3076 47.0088ZM50.7696 50.9492L48.1089 48.4098L49.462 47.1187C49.5398 47.0838 49.6169 47.0476 49.6924 47.0088L50.8324 46.9907L50.7696 50.9492ZM55.7104 46.0784L51.6955 46.1403L51.7139 45.0146C51.7536 44.9395 51.7908 44.8626 51.8264 44.7852L53.134 43.4526L55.7104 46.0784ZM43.1736 44.7874C43.2089 44.8642 43.2467 44.9401 43.286 45.0146L43.3033 46.1392L39.2906 46.0773L41.8659 43.4536L43.1736 44.7874ZM43.286 40.6891C43.2467 40.7634 43.2089 40.8386 43.1736 40.9153L41.8648 42.2501L39.2895 39.6242L43.3033 39.5623L43.286 40.6891ZM55.7093 39.6242L53.134 42.249L51.8253 40.9153C51.79 40.8388 51.7531 40.7633 51.7139 40.6891L51.6955 39.5623L55.7093 39.6242ZM37.3188 38.8186L30.5675 38.9232C30.9852 37.1643 31.6771 35.5097 32.5966 34.0055L37.3188 38.8186ZM62.4023 34.0055C63.3219 35.5098 64.0146 37.1641 64.4324 38.9232L57.68 38.8176L62.4023 34.0055ZM46.8889 37.2929L45.5369 38.5839C45.4592 38.6187 45.3829 38.6561 45.3076 38.6949L44.1654 38.7119L44.2281 34.7524L46.8889 37.2929ZM50.8324 38.7119L49.6924 38.6949C49.6168 38.656 49.5398 38.6188 49.462 38.5839L48.11 37.2929L50.7696 34.7534L50.8324 38.7119ZM43.4104 32.8073L38.5324 28.1499C40.0572 27.2428 41.7345 26.5603 43.5175 26.1482L43.4104 32.8073ZM51.4813 26.1482C53.2642 26.5602 54.9417 27.242 56.4664 28.1488L51.5873 32.8073L51.5441 30.0747C51.5244 28.8386 51.5038 27.5496 51.4813 26.1482ZM69.6512 42.8518C69.6512 54.9203 59.7337 64.7037 47.5 64.7037C35.2662 64.7037 25.3488 54.9203 25.3488 42.8518C25.3488 30.7834 35.2662 21 47.5 21C59.7337 21 69.6512 30.7834 69.6512 42.8518Z" fill="#F6F8FA"/>
<path fill-rule="evenodd" clip-rule="evenodd" d="M74.3599 64.2108L74.3437 64.2214L74.3264 64.2342L74.3599 64.2108Z" fill="#F6F8FA"/>
<path d="M78.7166 66.4824L80 68.2292L78.0709 69.6502L77.9022 69.7687C77.7031 69.9052 77.4209 70.0942 77.0726 70.3182C76.3776 70.7651 75.3977 71.3631 74.2583 71.9645C72.2176 73.0417 69.1469 74.4118 66.1625 74.5253C66.2556 74.8781 66.3063 75.248 66.3063 75.6296C66.3063 78.0433 64.3229 80 61.8761 80C59.4293 80 57.4459 78.0433 57.4459 75.6296C57.4459 75.2524 57.4943 74.8862 57.5854 74.537H37.3703C37.4614 74.8862 37.5098 75.2524 37.5098 75.6296C37.5098 78.0433 35.5263 80 33.0795 80C30.6328 80 28.6493 78.0433 28.6493 75.6296C28.6493 75.2486 28.6981 74.8787 28.791 74.5264C25.575 74.4218 22.5109 73.069 20.4475 71.9421C19.3229 71.3279 18.379 70.7159 17.7143 70.2574C17.5387 70.1362 17.3814 70.0246 17.2438 69.9255L15 68.1181L19.235 63.0648L20.8401 64.3921L20.8659 64.412C20.8853 64.4269 20.9069 64.4435 20.931 64.4615C21.0623 64.5594 21.2643 64.7072 21.5237 64.8862C22.0463 65.2466 22.7905 65.7277 23.6664 66.206C25.5211 67.2189 27.5416 67.9814 29.1847 67.9815H65.7709L66.0305 67.9729C67.3632 67.8881 69.2379 67.1791 71.1238 66.1836L71.7965 65.8166C72.4445 65.4528 73.0105 65.1047 73.4449 64.8253C73.7322 64.6406 73.9585 64.4879 74.109 64.3847C74.1912 64.3283 74.2451 64.2912 74.2745 64.2705L74.2932 64.2571L76.1046 62.9539L78.7166 66.4824ZM74.3437 64.2214L74.3264 64.2342L74.3599 64.2108L74.3437 64.2214ZM35.2947 75.6296C35.2947 74.4228 34.3029 73.4444 33.0795 73.4444C31.8562 73.4444 30.8644 74.4228 30.8644 75.6296C30.8644 76.8365 31.8562 77.8148 33.0795 77.8148C34.3029 77.8148 35.2947 76.8365 35.2947 75.6296ZM64.0912 75.6296C64.0912 74.4228 63.0995 73.4444 61.8761 73.4444C60.6527 73.4444 59.661 74.4228 59.661 75.6296C59.661 76.8365 60.6527 77.8148 61.8761 77.8148C63.0995 77.8148 64.0912 76.8365 64.0912 75.6296ZM75.6189 66.0086L75.6081 66.0161L75.5616 66.0492C75.5198 66.0786 75.4563 66.1225 75.3734 66.1793C75.2072 66.2933 74.9624 66.458 74.6541 66.6563C74.4998 66.7556 74.3296 66.8627 74.1458 66.9764C73.9617 67.0903 73.764 67.2107 73.5541 67.3349C73.1351 67.5827 72.6683 67.8468 72.1686 68.1106C71.3999 68.5164 70.5793 68.9066 69.7523 69.2363C69.6143 69.2913 69.4762 69.3449 69.3381 69.3963C68.6484 69.653 67.9595 69.8628 67.2971 69.9981C66.8995 70.0792 66.5114 70.1327 66.1387 70.1549C66.0143 70.1623 65.8917 70.1667 65.7709 70.1667H29.1847C27.9387 70.1666 26.6267 69.8557 25.3699 69.3942C24.9505 69.2401 24.5373 69.069 24.1347 68.8874C23.8667 68.7664 23.6034 68.6406 23.3462 68.5118C23.0888 68.3829 22.8374 68.2513 22.5934 68.1181C22.3537 67.9872 22.1231 67.8565 21.9034 67.7275C21.4642 67.4697 21.0677 67.2199 20.7255 66.9945C20.5542 66.8817 20.3966 66.775 20.2539 66.6766C19.9693 66.4802 19.7456 66.3172 19.5952 66.205C19.5233 66.1513 19.467 66.1082 19.4265 66.0769C19.4162 66.069 19.4073 66.0624 19.3999 66.0569L19.3854 66.046C19.3812 66.0427 19.3767 66.0385 19.3767 66.0385L17.9869 67.7403L18.0085 67.7574L18.0363 67.7788L18.0626 67.799C18.1085 67.8344 18.1746 67.8851 18.2594 67.9484C18.4294 68.0752 18.675 68.2537 18.9841 68.467C19.293 68.68 19.667 68.9282 20.0938 69.1946C20.3072 69.3278 20.5337 69.4656 20.772 69.6054C21.0103 69.7453 21.2601 69.8879 21.5205 70.0301C21.7767 70.1701 22.0451 70.3115 22.3241 70.4516C22.4635 70.5215 22.6058 70.5906 22.7502 70.6596C23.1837 70.8668 23.639 71.0685 24.1109 71.2561C24.2685 71.3187 24.4278 71.3803 24.589 71.4396C25.5541 71.7943 26.5785 72.0813 27.6185 72.2334C27.9652 72.2841 28.3137 72.3198 28.6623 72.338C28.8364 72.347 29.0106 72.3519 29.1847 72.3519H65.7709C68.289 72.3518 71.1239 71.1405 73.2134 70.0376C73.7483 69.7552 74.2464 69.4727 74.6931 69.2085C74.9163 69.0765 75.127 68.9496 75.3226 68.8287C75.5183 68.7076 75.6991 68.5928 75.8634 68.4872C76.1921 68.2758 76.4555 68.099 76.6378 67.974C76.7161 67.9203 76.7795 67.8756 76.8268 67.8422L76.8487 67.8268C76.8614 67.8178 76.8787 67.806 76.8886 67.7993C76.8972 67.7935 76.8999 67.7917 76.906 67.7873C76.9098 67.7846 76.913 67.782 76.9157 67.7798L75.6189 66.0086Z" fill="#F6F8FA"/>
</svg>
