<svg width="67" height="87" viewBox="0 0 67 87" fill="none" xmlns="http://www.w3.org/2000/svg">
<path d="M33.25 0.625C51.2683 0.625 65.875 15.2317 65.875 33.25C65.875 48.4698 57.763 61.6126 49.7227 70.9092C45.6964 75.5645 41.6716 79.2746 38.6533 81.8213C37.1437 83.095 35.884 84.0789 35.001 84.7451C34.5598 85.0779 34.2126 85.3319 33.9746 85.5029C33.8556 85.5885 33.7635 85.6535 33.7012 85.6973C33.67 85.7191 33.6461 85.7358 33.6299 85.7471C33.6219 85.7526 33.6156 85.7568 33.6113 85.7598C33.6093 85.7612 33.6076 85.7629 33.6064 85.7637L33.6045 85.7646L33.25 86.0088L32.8955 85.7646L32.8936 85.7637C32.8924 85.7629 32.8907 85.7612 32.8887 85.7598C32.8844 85.7568 32.8781 85.7526 32.8701 85.7471C32.8539 85.7358 32.83 85.7191 32.7988 85.6973C32.7365 85.6535 32.6444 85.5885 32.5254 85.5029C32.2874 85.3319 31.9402 85.0779 31.499 84.7451C30.616 84.0789 29.3563 83.095 27.8467 81.8213C24.8284 79.2746 20.8036 75.5645 16.7773 70.9092C8.73704 61.6126 0.625 48.4698 0.625 33.25C0.625 15.2317 15.2317 0.625 33.25 0.625Z" fill="#E7E7E7" stroke="#484A55" stroke-width="1.25"/>
<path d="M29.5834 51.5833V24.0833C29.5834 23.5971 29.3902 23.1307 29.0464 22.7869C28.7026 22.4431 28.2363 22.25 27.75 22.25H18.5834C17.6109 22.25 16.6783 22.6363 15.9906 23.3239C15.303 24.0115 14.9167 24.9442 14.9167 25.9166V47.9166C14.9167 48.8891 15.303 49.8217 15.9906 50.5093C16.6783 51.197 17.6109 51.5833 18.5834 51.5833H40.5834C41.5558 51.5833 42.4884 51.197 43.1761 50.5093C43.8637 49.8217 44.25 48.8891 44.25 47.9166V38.75C44.25 38.2637 44.0569 37.7974 43.713 37.4536C43.3692 37.1098 42.9029 36.9166 42.4167 36.9166H14.9167M38.75 14.9166H49.75C50.7625 14.9166 51.5834 15.7374 51.5834 16.75V27.75C51.5834 28.7625 50.7625 29.5833 49.75 29.5833H38.75C37.7375 29.5833 36.9167 28.7625 36.9167 27.75V16.75C36.9167 15.7374 37.7375 14.9166 38.75 14.9166Z" stroke="#0B0B0D" stroke-width="2" stroke-linecap="round" stroke-linejoin="round"/>
</svg>
