<svg width="67" height="87" viewBox="0 0 67 87" fill="none" xmlns="http://www.w3.org/2000/svg">
<path d="M33.25 0.625C51.2683 0.625 65.875 15.2317 65.875 33.25C65.875 48.4698 57.763 61.6126 49.7227 70.9092C45.6964 75.5645 41.6716 79.2746 38.6533 81.8213C37.1437 83.095 35.884 84.0789 35.001 84.7451C34.5598 85.0779 34.2126 85.3319 33.9746 85.5029C33.8556 85.5885 33.7635 85.6535 33.7012 85.6973C33.67 85.7191 33.6461 85.7358 33.6299 85.7471C33.6219 85.7526 33.6156 85.7568 33.6113 85.7598C33.6093 85.7612 33.6076 85.7629 33.6064 85.7637L33.6045 85.7646L33.25 86.0088L32.8955 85.7646L32.8936 85.7637C32.8924 85.7629 32.8907 85.7612 32.8887 85.7598C32.8844 85.7568 32.8781 85.7526 32.8701 85.7471C32.8539 85.7358 32.83 85.7191 32.7988 85.6973C32.7365 85.6535 32.6444 85.5885 32.5254 85.5029C32.2874 85.3319 31.9402 85.0779 31.499 84.7451C30.616 84.0789 29.3563 83.095 27.8467 81.8213C24.8284 79.2746 20.8036 75.5645 16.7773 70.9092C8.73704 61.6126 0.625 48.4698 0.625 33.25C0.625 15.2317 15.2317 0.625 33.25 0.625Z" fill="#E7E7E7" stroke="#484A55" stroke-width="1.25"/>
<path d="M21.25 25.25L24.75 49.81C24.8858 50.7711 25.3665 51.65 26.1025 52.2829C26.8384 52.9158 27.7794 53.2596 28.75 53.25H37.83C38.8006 53.2596 39.7416 52.9158 40.4775 52.2829C41.2135 51.65 41.6942 50.7711 41.83 49.81L45.25 25.25M19.25 25.25H47.25M23.25 39.25C24.8335 38.5866 26.5332 38.245 28.25 38.245C29.9668 38.245 31.6665 38.5866 33.25 39.25C34.8335 39.9134 36.5332 40.255 38.25 40.255C39.9668 40.255 41.6665 39.9134 43.25 39.25M33.25 25.25L35.25 13.25H39.25" stroke="#0B0B0D" stroke-width="2" stroke-linecap="round" stroke-linejoin="round"/>
</svg>
