<svg width="67" height="87" viewBox="0 0 67 87" fill="none" xmlns="http://www.w3.org/2000/svg">
<path d="M33.25 0.625C51.2683 0.625 65.875 15.2317 65.875 33.25C65.875 48.4698 57.763 61.6126 49.7227 70.9092C45.6964 75.5645 41.6716 79.2746 38.6533 81.8213C37.1437 83.095 35.884 84.0789 35.001 84.7451C34.5598 85.0779 34.2126 85.3319 33.9746 85.5029C33.8556 85.5885 33.7635 85.6535 33.7012 85.6973C33.67 85.7191 33.6461 85.7358 33.6299 85.7471C33.6219 85.7526 33.6156 85.7568 33.6113 85.7598C33.6093 85.7612 33.6076 85.7629 33.6064 85.7637L33.6045 85.7646L33.25 86.0088L32.8955 85.7646L32.8936 85.7637C32.8924 85.7629 32.8907 85.7612 32.8887 85.7598C32.8844 85.7568 32.8781 85.7526 32.8701 85.7471C32.8539 85.7358 32.83 85.7191 32.7988 85.6973C32.7365 85.6535 32.6444 85.5885 32.5254 85.5029C32.2874 85.3319 31.9402 85.0779 31.499 84.7451C30.616 84.0789 29.3563 83.095 27.8467 81.8213C24.8284 79.2746 20.8036 75.5645 16.7773 70.9092C8.73704 61.6126 0.625 48.4698 0.625 33.25C0.625 15.2317 15.2317 0.625 33.25 0.625Z" fill="#E7E7E7" stroke="#484A55" stroke-width="1.25"/>
<path d="M21.25 47.25V19.25M21.25 19.25C19.1283 19.25 17.0934 20.0929 15.5931 21.5931C14.0929 23.0934 13.25 25.1283 13.25 27.25V47.25M21.25 19.25C25.25 19.25 29.25 21.91 33.25 27.25C37.25 32.59 41.25 35.25 45.25 35.25M29.25 47.25V22.85M37.25 47.25V31.65M45.25 19.25V27.25M45.25 47.25V35.25M45.25 35.25C46.586 35.2487 47.9005 34.9129 49.0733 34.2732C50.2462 33.6334 51.2402 32.7101 51.9646 31.5875C52.6889 30.4649 53.1206 29.1787 53.2202 27.8464C53.3198 26.5141 53.0842 25.1781 52.5348 23.9602C51.9854 22.7424 51.1397 21.6816 50.075 20.8745C49.0103 20.0675 47.7604 19.5399 46.4394 19.3401C45.1184 19.1402 43.7684 19.2743 42.5126 19.7302C41.2568 20.1861 40.1351 20.9492 39.25 21.95M53.25 47.25V27.25" stroke="#0B0B0D" stroke-width="2" stroke-linecap="round" stroke-linejoin="round"/>
</svg>
