<svg xmlns="http://www.w3.org/2000/svg" width="256" height="256" viewBox="0 0 256 256" fill="none">
  <rect width="256" height="256" rx="24" fill="#0B0B0B"/>
  <mask id="path-2-outside-1_424_1057" maskUnits="userSpaceOnUse" x="35.7294" y="31.8763" width="193" height="190" fill="black">
    <rect fill="white" x="35.7294" y="31.8763" width="193" height="190"/>
    <path d="M121.183 128.268L121.184 128.273C121.184 128.277 121.185 128.283 121.186 128.291C121.188 128.307 121.191 128.332 121.195 128.364C121.202 128.428 121.214 128.524 121.229 128.648C121.259 128.897 121.303 129.26 121.359 129.713C121.471 130.619 121.631 131.886 121.82 133.327C122.2 136.224 122.692 139.765 123.156 142.487C123.605 145.121 124.402 148.538 125.11 151.369C125.46 152.769 125.782 153.997 126.015 154.875C126.131 155.313 126.226 155.663 126.291 155.902C126.323 156.022 126.348 156.114 126.365 156.175C126.373 156.205 126.379 156.228 126.383 156.243C126.386 156.251 126.388 156.26 126.388 156.26L126.389 156.263C126.389 156.263 126.302 156.288 122.066 157.457C117.852 158.621 117.744 158.651 117.744 158.651L117.743 158.649L117.741 158.643C117.74 158.638 117.738 158.631 117.736 158.622C117.731 158.604 117.724 158.578 117.714 158.544C117.696 158.477 117.669 158.378 117.634 158.252C117.566 157.999 117.467 157.633 117.346 157.178C117.104 156.269 116.772 154.997 116.409 153.545C115.691 150.673 114.823 146.981 114.314 143.993C114.14 142.969 114.014 142.097 113.842 140.946L94.4885 167.924C95.5016 168.3 96.621 168.724 97.8224 169.196C103.114 171.271 110.093 174.282 116.664 177.979C123.124 181.612 129.679 186.174 133.657 191.513C135.683 194.232 137.216 197.386 137.517 200.901C137.825 204.509 136.792 208.043 134.46 211.334C131.026 216.176 125.607 218.635 120.209 219.853C114.768 221.081 108.767 221.187 103.343 220.85C97.882 220.511 92.7873 219.707 89.0753 218.995C87.2132 218.637 85.6842 218.3 84.6133 218.05C84.0775 217.925 83.6553 217.822 83.3625 217.749C83.2161 217.712 83.102 217.683 83.022 217.662C82.982 217.652 82.9504 217.644 82.9277 217.638C82.9164 217.635 82.9072 217.632 82.9003 217.631L82.8914 217.628L82.8886 217.628C82.8886 217.628 82.8927 217.603 84.0379 213.293C85.174 209.017 85.1882 208.958 85.1882 208.958C85.1882 208.958 85.1952 208.96 85.2012 208.962C85.2138 208.965 85.2353 208.97 85.2649 208.978C85.3241 208.993 85.4168 209.017 85.5411 209.048C85.7899 209.111 86.165 209.203 86.6507 209.316C87.6227 209.543 89.0349 209.855 90.7653 210.187C94.2387 210.853 98.9357 211.59 103.899 211.898C108.9 212.209 113.957 212.07 118.234 211.104C122.554 210.129 125.511 208.447 127.142 206.146C128.391 204.385 128.688 202.927 128.58 201.664C128.464 200.308 127.837 198.714 126.465 196.872C123.645 193.087 118.451 189.274 112.267 185.795C106.194 182.379 99.6334 179.541 94.5465 177.545C92.0134 176.551 89.8683 175.775 88.3621 175.25C87.6095 174.987 87.0176 174.788 86.6179 174.655C86.4182 174.588 86.2666 174.539 86.167 174.506C86.1172 174.49 86.0803 174.478 86.057 174.471C86.0455 174.467 86.0373 174.465 86.0326 174.463L86.0284 174.462L80.1777 172.603L105.76 136.516C104.928 136.698 104.114 136.86 103.341 136.991C100.353 137.5 96.5822 137.903 93.6342 138.176C92.1442 138.314 90.834 138.422 89.8955 138.495C89.4259 138.532 89.0484 138.56 88.7871 138.579C88.6564 138.588 88.5544 138.595 88.4846 138.6C88.4497 138.602 88.4228 138.604 88.4042 138.606C88.395 138.606 88.3878 138.607 88.3827 138.607L88.3766 138.608C88.3766 138.608 88.3664 138.496 88.0695 134.133C87.7712 129.75 87.765 129.659 87.765 129.659L87.769 129.659C87.769 129.659 87.7784 129.658 87.7861 129.658C87.8016 129.657 87.8253 129.655 87.8568 129.653C87.9201 129.649 88.015 129.641 88.1385 129.633C88.3856 129.615 88.7472 129.588 89.1995 129.553C90.1048 129.482 91.3702 129.379 92.807 129.246C95.7129 128.977 99.2013 128.598 101.835 128.15C104.38 127.716 107.712 126.834 110.515 126.019C111.893 125.618 113.102 125.246 113.965 124.974C114.396 124.839 114.74 124.728 114.973 124.653C115.09 124.615 115.18 124.586 115.239 124.567C115.269 124.557 115.291 124.549 115.305 124.545C115.312 124.543 115.32 124.54 115.32 124.54L115.323 124.539L120.536 122.816L121.183 128.268Z"/>
    <path d="M115.845 112.384L115.841 112.382C115.837 112.38 115.832 112.378 115.824 112.375C115.81 112.368 115.787 112.358 115.758 112.344C115.699 112.317 115.611 112.276 115.498 112.224C115.271 112.119 114.939 111.966 114.524 111.776C113.693 111.395 112.531 110.866 111.206 110.271C108.54 109.073 105.268 107.633 102.708 106.598C100.231 105.597 96.9039 104.482 94.1227 103.598C92.7475 103.161 91.5335 102.79 90.6641 102.527C90.2298 102.396 89.8822 102.293 89.6446 102.223C89.5259 102.188 89.4347 102.16 89.3739 102.142C89.3435 102.134 89.3207 102.127 89.3059 102.123C89.2984 102.12 89.2893 102.118 89.2893 102.118L89.2859 102.117C89.2859 102.117 89.3109 102.029 90.539 97.8109C91.7611 93.613 91.7929 93.5053 91.7929 93.5053L91.7951 93.5057L91.8009 93.5076C91.8058 93.509 91.8127 93.511 91.8216 93.5136C91.8395 93.5188 91.8654 93.5265 91.8989 93.5363C91.966 93.556 92.0642 93.5846 92.1898 93.6218C92.4411 93.6962 92.8039 93.8042 93.2548 93.9402C94.156 94.2121 95.413 94.5973 96.8391 95.0505C99.6606 95.9471 103.258 97.1466 106.068 98.2822C107.032 98.6715 107.84 99.0226 108.91 99.4804L96.1101 68.8445C95.2585 69.5095 94.3095 70.2393 93.2777 71.0144C88.7328 74.4279 82.5061 78.7871 75.9102 82.4391C69.4259 86.0292 62.1017 89.2129 55.4699 89.7954C52.0923 90.092 48.6023 89.7414 45.4534 88.1514C42.2211 86.5194 39.7548 83.7849 38.1791 80.0722C35.8601 74.6078 36.613 68.704 38.4102 63.4703C40.2215 58.1956 43.2826 53.0322 46.417 48.5931C49.5729 44.1234 52.9317 40.2093 55.4868 37.4241C56.7685 36.0268 57.8582 34.9025 58.6331 34.1222C59.0207 33.7318 59.3301 33.4265 59.5463 33.2158C59.6543 33.1105 59.7394 33.029 59.7989 32.9717C59.8287 32.9431 59.8522 32.9204 59.8692 32.9042C59.8776 32.8962 59.8846 32.8896 59.8898 32.8847L59.8962 32.8783L59.8984 32.8763C59.8984 32.8763 59.9002 32.8747 62.9843 36.1304C66.0307 39.3463 66.0695 39.3851 66.0695 39.3851C66.0695 39.3851 66.0641 39.39 66.0596 39.3943C66.0502 39.4033 66.0344 39.4188 66.0124 39.44C65.9682 39.4824 65.8993 39.5488 65.8076 39.6383C65.6239 39.8173 65.3486 40.0881 64.9971 40.442C64.2939 41.1502 63.2871 42.1884 62.096 43.4868C59.7051 46.0931 56.6122 49.7039 53.7437 53.7664C50.8536 57.8595 48.3172 62.2362 46.893 66.3835C45.4549 70.5716 45.3339 73.9719 46.4357 76.5682C47.279 78.5553 48.3647 79.5736 49.4961 80.1449C50.7109 80.7582 52.3964 81.0617 54.6852 80.8607C59.3862 80.4477 65.3586 78.0293 71.5659 74.5925C77.6617 71.2175 83.5221 67.1242 87.8913 63.8425C90.067 62.2084 91.8538 60.7902 93.0919 59.7842C93.7105 59.2816 94.1912 58.8826 94.514 58.6121C94.6754 58.477 94.7973 58.3741 94.8771 58.3063C94.917 58.2724 94.9464 58.2472 94.965 58.2313C94.9742 58.2235 94.9807 58.2179 94.9845 58.2146L94.988 58.2118L99.6416 54.2083L116.923 94.9278C117.205 94.1243 117.495 93.3459 117.789 92.6192C118.924 89.809 120.561 86.3881 121.877 83.7358C122.541 82.3952 123.138 81.2235 123.568 80.3864C123.784 79.9676 123.958 79.6316 124.079 79.3992C124.14 79.283 124.187 79.1926 124.22 79.1306C124.236 79.0997 124.248 79.0758 124.257 79.0593C124.261 79.0511 124.265 79.0447 124.267 79.0402L124.27 79.0347C124.27 79.0347 124.371 79.0848 128.239 81.1223C132.126 83.1699 132.207 83.2123 132.207 83.2123L132.205 83.2157C132.205 83.2157 132.201 83.2241 132.197 83.2309C132.19 83.2446 132.179 83.2657 132.164 83.2937C132.135 83.3499 132.091 83.4343 132.034 83.5441C131.919 83.7639 131.752 84.0857 131.544 84.4891C131.129 85.2966 130.553 86.4279 129.912 87.7206C128.615 90.335 127.106 93.5027 126.105 95.9797C125.137 98.3735 124.139 101.672 123.361 104.486C122.978 105.869 122.66 107.094 122.438 107.971C122.328 108.409 122.241 108.759 122.183 108.998C122.153 109.117 122.131 109.208 122.116 109.269C122.109 109.299 122.104 109.322 122.101 109.336C122.099 109.343 122.097 109.352 122.097 109.352L122.096 109.355L120.825 114.696L115.845 112.384Z"/>
    <path d="M131.801 116.501L131.805 116.498C131.808 116.496 131.813 116.492 131.819 116.487C131.832 116.477 131.851 116.461 131.876 116.441C131.927 116.401 132.003 116.341 132.1 116.263C132.296 116.107 132.582 115.879 132.938 115.593C133.651 115.022 134.645 114.22 135.772 113.303C138.038 111.458 140.793 109.181 142.867 107.357C144.873 105.592 147.362 103.119 149.4 101.03C150.407 99.9974 151.284 99.0791 151.909 98.4199C152.221 98.0905 152.469 97.8263 152.638 97.6455C152.723 97.5552 152.788 97.4859 152.832 97.4395C152.853 97.4164 152.869 97.399 152.88 97.3877C152.885 97.382 152.892 97.375 152.892 97.375L152.894 97.3724C152.894 97.3724 152.961 97.434 156.18 100.424C159.383 103.4 159.465 103.477 159.465 103.477L159.464 103.479L159.459 103.483C159.456 103.487 159.451 103.492 159.445 103.499C159.432 103.512 159.414 103.532 159.39 103.558C159.342 103.609 159.272 103.684 159.183 103.779C159.004 103.97 158.744 104.246 158.42 104.588C157.773 105.272 156.865 106.222 155.82 107.293C153.753 109.413 151.066 112.089 148.791 114.091C148.011 114.777 147.334 115.342 146.445 116.093L179.567 118.4C179.355 117.341 179.128 116.165 178.899 114.895C177.887 109.302 176.786 101.781 176.481 94.2481C176.182 86.8423 176.623 78.8683 179.079 72.6801C180.329 69.5285 182.208 66.5669 185.042 64.4661C187.951 62.3098 191.501 61.3327 195.526 61.5904C201.45 61.9698 206.389 65.2916 210.26 69.2461C214.161 73.2316 217.402 78.284 219.962 83.077C222.541 87.9029 224.532 92.6608 225.874 96.194C226.548 97.9664 227.064 99.4447 227.414 100.487C227.589 101.009 227.722 101.422 227.814 101.71C227.859 101.854 227.894 101.967 227.919 102.045C227.931 102.085 227.941 102.116 227.947 102.139C227.951 102.15 227.954 102.159 227.956 102.166L227.958 102.174L227.959 102.177C227.959 102.177 227.96 102.179 223.666 103.475C219.426 104.754 219.374 104.772 219.374 104.772C219.374 104.772 219.371 104.765 219.37 104.759C219.366 104.746 219.359 104.725 219.35 104.696C219.332 104.638 219.304 104.546 219.265 104.424C219.187 104.18 219.069 103.812 218.91 103.339C218.593 102.393 218.117 101.027 217.491 99.3802C216.234 96.0741 214.395 91.6899 212.052 87.3036C209.69 82.8842 206.917 78.6536 203.85 75.52C200.752 72.3555 197.768 70.7217 194.953 70.5414C192.799 70.4035 191.402 70.9168 190.383 71.6716C189.29 72.482 188.263 73.8522 187.415 75.9878C185.675 80.3743 185.157 86.7969 185.443 93.8864C185.724 100.848 186.753 107.922 187.725 113.3C188.209 115.977 188.675 118.21 189.018 119.768C189.19 120.547 189.331 121.155 189.428 121.565C189.476 121.77 189.513 121.925 189.538 122.027C189.55 122.078 189.56 122.115 189.566 122.139C189.569 122.151 189.571 122.159 189.572 122.164L189.573 122.168L191.063 128.124L146.918 125.297C147.509 125.91 148.075 126.518 148.593 127.107C150.595 129.382 152.917 132.38 154.698 134.746C155.597 135.941 156.377 137 156.932 137.76C157.209 138.141 157.431 138.447 157.585 138.66C157.661 138.766 157.721 138.849 157.762 138.906C157.782 138.934 157.798 138.956 157.809 138.971C157.814 138.979 157.818 138.985 157.821 138.989L157.825 138.994C157.825 138.994 157.735 139.061 154.178 141.604C150.604 144.16 150.53 144.213 150.53 144.213L150.528 144.209C150.528 144.209 150.523 144.202 150.518 144.195C150.509 144.183 150.495 144.163 150.477 144.138C150.44 144.086 150.384 144.009 150.311 143.909C150.166 143.708 149.954 143.414 149.686 143.048C149.151 142.314 148.399 141.292 147.531 140.139C145.776 137.807 143.623 135.036 141.858 133.03C140.153 131.092 137.653 128.72 135.487 126.762C134.423 125.799 133.471 124.966 132.787 124.374C132.446 124.078 132.171 123.844 131.984 123.684C131.891 123.605 131.819 123.544 131.771 123.504C131.748 123.483 131.73 123.469 131.718 123.459C131.713 123.454 131.706 123.449 131.706 123.449L131.704 123.447L127.501 119.915L131.801 116.501Z"/>
  </mask>
  <path d="M121.183 128.268L121.184 128.273C121.184 128.277 121.185 128.283 121.186 128.291C121.188 128.307 121.191 128.332 121.195 128.364C121.202 128.428 121.214 128.524 121.229 128.648C121.259 128.897 121.303 129.26 121.359 129.713C121.471 130.619 121.631 131.886 121.82 133.327C122.2 136.224 122.692 139.765 123.156 142.487C123.605 145.121 124.402 148.538 125.11 151.369C125.46 152.769 125.782 153.997 126.015 154.875C126.131 155.313 126.226 155.663 126.291 155.902C126.323 156.022 126.348 156.114 126.365 156.175C126.373 156.205 126.379 156.228 126.383 156.243C126.386 156.251 126.388 156.26 126.388 156.26L126.389 156.263C126.389 156.263 126.302 156.288 122.066 157.457C117.852 158.621 117.744 158.651 117.744 158.651L117.743 158.649L117.741 158.643C117.74 158.638 117.738 158.631 117.736 158.622C117.731 158.604 117.724 158.578 117.714 158.544C117.696 158.477 117.669 158.378 117.634 158.252C117.566 157.999 117.467 157.633 117.346 157.178C117.104 156.269 116.772 154.997 116.409 153.545C115.691 150.673 114.823 146.981 114.314 143.993C114.14 142.969 114.014 142.097 113.842 140.946L94.4885 167.924C95.5016 168.3 96.621 168.724 97.8224 169.196C103.114 171.271 110.093 174.282 116.664 177.979C123.124 181.612 129.679 186.174 133.657 191.513C135.683 194.232 137.216 197.386 137.517 200.901C137.825 204.509 136.792 208.043 134.46 211.334C131.026 216.176 125.607 218.635 120.209 219.853C114.768 221.081 108.767 221.187 103.343 220.85C97.882 220.511 92.7873 219.707 89.0753 218.995C87.2132 218.637 85.6842 218.3 84.6133 218.05C84.0775 217.925 83.6553 217.822 83.3625 217.749C83.2161 217.712 83.102 217.683 83.022 217.662C82.982 217.652 82.9504 217.644 82.9277 217.638C82.9164 217.635 82.9072 217.632 82.9003 217.631L82.8914 217.628L82.8886 217.628C82.8886 217.628 82.8927 217.603 84.0379 213.293C85.174 209.017 85.1882 208.958 85.1882 208.958C85.1882 208.958 85.1952 208.96 85.2012 208.962C85.2138 208.965 85.2353 208.97 85.2649 208.978C85.3241 208.993 85.4168 209.017 85.5411 209.048C85.7899 209.111 86.165 209.203 86.6507 209.316C87.6227 209.543 89.0349 209.855 90.7653 210.187C94.2387 210.853 98.9357 211.59 103.899 211.898C108.9 212.209 113.957 212.07 118.234 211.104C122.554 210.129 125.511 208.447 127.142 206.146C128.391 204.385 128.688 202.927 128.58 201.664C128.464 200.308 127.837 198.714 126.465 196.872C123.645 193.087 118.451 189.274 112.267 185.795C106.194 182.379 99.6334 179.541 94.5465 177.545C92.0134 176.551 89.8683 175.775 88.3621 175.25C87.6095 174.987 87.0176 174.788 86.6179 174.655C86.4182 174.588 86.2666 174.539 86.167 174.506C86.1172 174.49 86.0803 174.478 86.057 174.471C86.0455 174.467 86.0373 174.465 86.0326 174.463L86.0284 174.462L80.1777 172.603L105.76 136.516C104.928 136.698 104.114 136.86 103.341 136.991C100.353 137.5 96.5822 137.903 93.6342 138.176C92.1442 138.314 90.834 138.422 89.8955 138.495C89.4259 138.532 89.0484 138.56 88.7871 138.579C88.6564 138.588 88.5544 138.595 88.4846 138.6C88.4497 138.602 88.4228 138.604 88.4042 138.606C88.395 138.606 88.3878 138.607 88.3827 138.607L88.3766 138.608C88.3766 138.608 88.3664 138.496 88.0695 134.133C87.7712 129.75 87.765 129.659 87.765 129.659L87.769 129.659C87.769 129.659 87.7784 129.658 87.7861 129.658C87.8016 129.657 87.8253 129.655 87.8568 129.653C87.9201 129.649 88.015 129.641 88.1385 129.633C88.3856 129.615 88.7472 129.588 89.1995 129.553C90.1048 129.482 91.3702 129.379 92.807 129.246C95.7129 128.977 99.2013 128.598 101.835 128.15C104.38 127.716 107.712 126.834 110.515 126.019C111.893 125.618 113.102 125.246 113.965 124.974C114.396 124.839 114.74 124.728 114.973 124.653C115.09 124.615 115.18 124.586 115.239 124.567C115.269 124.557 115.291 124.549 115.305 124.545C115.312 124.543 115.32 124.54 115.32 124.54L115.323 124.539L120.536 122.816L121.183 128.268Z" fill="#F6F8FA"/>
  <path d="M115.845 112.384L115.841 112.382C115.837 112.38 115.832 112.378 115.824 112.375C115.81 112.368 115.787 112.358 115.758 112.344C115.699 112.317 115.611 112.276 115.498 112.224C115.271 112.119 114.939 111.966 114.524 111.776C113.693 111.395 112.531 110.866 111.206 110.271C108.54 109.073 105.268 107.633 102.708 106.598C100.231 105.597 96.9039 104.482 94.1227 103.598C92.7475 103.161 91.5335 102.79 90.6641 102.527C90.2298 102.396 89.8822 102.293 89.6446 102.223C89.5259 102.188 89.4347 102.16 89.3739 102.142C89.3435 102.134 89.3207 102.127 89.3059 102.123C89.2984 102.12 89.2893 102.118 89.2893 102.118L89.2859 102.117C89.2859 102.117 89.3109 102.029 90.539 97.8109C91.7611 93.613 91.7929 93.5053 91.7929 93.5053L91.7951 93.5057L91.8009 93.5076C91.8058 93.509 91.8127 93.511 91.8216 93.5136C91.8395 93.5188 91.8654 93.5265 91.8989 93.5363C91.966 93.556 92.0642 93.5846 92.1898 93.6218C92.4411 93.6962 92.8039 93.8042 93.2548 93.9402C94.156 94.2121 95.413 94.5973 96.8391 95.0505C99.6606 95.9471 103.258 97.1466 106.068 98.2822C107.032 98.6715 107.84 99.0226 108.91 99.4804L96.1101 68.8445C95.2585 69.5095 94.3095 70.2393 93.2777 71.0144C88.7328 74.4279 82.5061 78.7871 75.9102 82.4391C69.4259 86.0292 62.1017 89.2129 55.4699 89.7954C52.0923 90.092 48.6023 89.7414 45.4534 88.1514C42.2211 86.5194 39.7548 83.7849 38.1791 80.0722C35.8601 74.6078 36.613 68.704 38.4102 63.4703C40.2215 58.1956 43.2826 53.0322 46.417 48.5931C49.5729 44.1234 52.9317 40.2093 55.4868 37.4241C56.7685 36.0268 57.8582 34.9025 58.6331 34.1222C59.0207 33.7318 59.3301 33.4265 59.5463 33.2158C59.6543 33.1105 59.7394 33.029 59.7989 32.9717C59.8287 32.9431 59.8522 32.9204 59.8692 32.9042C59.8776 32.8962 59.8846 32.8896 59.8898 32.8847L59.8962 32.8783L59.8984 32.8763C59.8984 32.8763 59.9002 32.8747 62.9843 36.1304C66.0307 39.3463 66.0695 39.3851 66.0695 39.3851C66.0695 39.3851 66.0641 39.39 66.0596 39.3943C66.0502 39.4033 66.0344 39.4188 66.0124 39.44C65.9682 39.4824 65.8993 39.5488 65.8076 39.6383C65.6239 39.8173 65.3486 40.0881 64.9971 40.442C64.2939 41.1502 63.2871 42.1884 62.096 43.4868C59.7051 46.0931 56.6122 49.7039 53.7437 53.7664C50.8536 57.8595 48.3172 62.2362 46.893 66.3835C45.4549 70.5716 45.3339 73.9719 46.4357 76.5682C47.279 78.5553 48.3647 79.5736 49.4961 80.1449C50.7109 80.7582 52.3964 81.0617 54.6852 80.8607C59.3862 80.4477 65.3586 78.0293 71.5659 74.5925C77.6617 71.2175 83.5221 67.1242 87.8913 63.8425C90.067 62.2084 91.8538 60.7902 93.0919 59.7842C93.7105 59.2816 94.1912 58.8826 94.514 58.6121C94.6754 58.477 94.7973 58.3741 94.8771 58.3063C94.917 58.2724 94.9464 58.2472 94.965 58.2313C94.9742 58.2235 94.9807 58.2179 94.9845 58.2146L94.988 58.2118L99.6416 54.2083L116.923 94.9278C117.205 94.1243 117.495 93.3459 117.789 92.6192C118.924 89.809 120.561 86.3881 121.877 83.7358C122.541 82.3952 123.138 81.2235 123.568 80.3864C123.784 79.9676 123.958 79.6316 124.079 79.3992C124.14 79.283 124.187 79.1926 124.22 79.1306C124.236 79.0997 124.248 79.0758 124.257 79.0593C124.261 79.0511 124.265 79.0447 124.267 79.0402L124.27 79.0347C124.27 79.0347 124.371 79.0848 128.239 81.1223C132.126 83.1699 132.207 83.2123 132.207 83.2123L132.205 83.2157C132.205 83.2157 132.201 83.2241 132.197 83.2309C132.19 83.2446 132.179 83.2657 132.164 83.2937C132.135 83.3499 132.091 83.4343 132.034 83.5441C131.919 83.7639 131.752 84.0857 131.544 84.4891C131.129 85.2966 130.553 86.4279 129.912 87.7206C128.615 90.335 127.106 93.5027 126.105 95.9797C125.137 98.3735 124.139 101.672 123.361 104.486C122.978 105.869 122.66 107.094 122.438 107.971C122.328 108.409 122.241 108.759 122.183 108.998C122.153 109.117 122.131 109.208 122.116 109.269C122.109 109.299 122.104 109.322 122.101 109.336C122.099 109.343 122.097 109.352 122.097 109.352L122.096 109.355L120.825 114.696L115.845 112.384Z" fill="#F6F8FA"/>
  <path d="M131.801 116.501L131.805 116.498C131.808 116.496 131.813 116.492 131.819 116.487C131.832 116.477 131.851 116.461 131.876 116.441C131.927 116.401 132.003 116.341 132.1 116.263C132.296 116.107 132.582 115.879 132.938 115.593C133.651 115.022 134.645 114.22 135.772 113.303C138.038 111.458 140.793 109.181 142.867 107.357C144.873 105.592 147.362 103.119 149.4 101.03C150.407 99.9974 151.284 99.0791 151.909 98.4199C152.221 98.0905 152.469 97.8263 152.638 97.6455C152.723 97.5552 152.788 97.4859 152.832 97.4395C152.853 97.4164 152.869 97.399 152.88 97.3877C152.885 97.382 152.892 97.375 152.892 97.375L152.894 97.3724C152.894 97.3724 152.961 97.434 156.18 100.424C159.383 103.4 159.465 103.477 159.465 103.477L159.464 103.479L159.459 103.483C159.456 103.487 159.451 103.492 159.445 103.499C159.432 103.512 159.414 103.532 159.39 103.558C159.342 103.609 159.272 103.684 159.183 103.779C159.004 103.97 158.744 104.246 158.42 104.588C157.773 105.272 156.865 106.222 155.82 107.293C153.753 109.413 151.066 112.089 148.791 114.091C148.011 114.777 147.334 115.342 146.445 116.093L179.567 118.4C179.355 117.341 179.128 116.165 178.899 114.895C177.887 109.302 176.786 101.781 176.481 94.2481C176.182 86.8423 176.623 78.8683 179.079 72.6801C180.329 69.5285 182.208 66.5669 185.042 64.4661C187.951 62.3098 191.501 61.3327 195.526 61.5904C201.45 61.9698 206.389 65.2916 210.26 69.2461C214.161 73.2316 217.402 78.284 219.962 83.077C222.541 87.9029 224.532 92.6608 225.874 96.194C226.548 97.9664 227.064 99.4447 227.414 100.487C227.589 101.009 227.722 101.422 227.814 101.71C227.859 101.854 227.894 101.967 227.919 102.045C227.931 102.085 227.941 102.116 227.947 102.139C227.951 102.15 227.954 102.159 227.956 102.166L227.958 102.174L227.959 102.177C227.959 102.177 227.96 102.179 223.666 103.475C219.426 104.754 219.374 104.772 219.374 104.772C219.374 104.772 219.371 104.765 219.37 104.759C219.366 104.746 219.359 104.725 219.35 104.696C219.332 104.638 219.304 104.546 219.265 104.424C219.187 104.18 219.069 103.812 218.91 103.339C218.593 102.393 218.117 101.027 217.491 99.3802C216.234 96.0741 214.395 91.6899 212.052 87.3036C209.69 82.8842 206.917 78.6536 203.85 75.52C200.752 72.3555 197.768 70.7217 194.953 70.5414C192.799 70.4035 191.402 70.9168 190.383 71.6716C189.29 72.482 188.263 73.8522 187.415 75.9878C185.675 80.3743 185.157 86.7969 185.443 93.8864C185.724 100.848 186.753 107.922 187.725 113.3C188.209 115.977 188.675 118.21 189.018 119.768C189.19 120.547 189.331 121.155 189.428 121.565C189.476 121.77 189.513 121.925 189.538 122.027C189.55 122.078 189.56 122.115 189.566 122.139C189.569 122.151 189.571 122.159 189.572 122.164L189.573 122.168L191.063 128.124L146.918 125.297C147.509 125.91 148.075 126.518 148.593 127.107C150.595 129.382 152.917 132.38 154.698 134.746C155.597 135.941 156.377 137 156.932 137.76C157.209 138.141 157.431 138.447 157.585 138.66C157.661 138.766 157.721 138.849 157.762 138.906C157.782 138.934 157.798 138.956 157.809 138.971C157.814 138.979 157.818 138.985 157.821 138.989L157.825 138.994C157.825 138.994 157.735 139.061 154.178 141.604C150.604 144.16 150.53 144.213 150.53 144.213L150.528 144.209C150.528 144.209 150.523 144.202 150.518 144.195C150.509 144.183 150.495 144.163 150.477 144.138C150.44 144.086 150.384 144.009 150.311 143.909C150.166 143.708 149.954 143.414 149.686 143.048C149.151 142.314 148.399 141.292 147.531 140.139C145.776 137.807 143.623 135.036 141.858 133.03C140.153 131.092 137.653 128.72 135.487 126.762C134.423 125.799 133.471 124.966 132.787 124.374C132.446 124.078 132.171 123.844 131.984 123.684C131.891 123.605 131.819 123.544 131.771 123.504C131.748 123.483 131.73 123.469 131.718 123.459C131.713 123.454 131.706 123.449 131.706 123.449L131.704 123.447L127.501 119.915L131.801 116.501Z" fill="#F6F8FA"/>
  <path d="M121.183 128.268L121.184 128.273C121.184 128.277 121.185 128.283 121.186 128.291C121.188 128.307 121.191 128.332 121.195 128.364C121.202 128.428 121.214 128.524 121.229 128.648C121.259 128.897 121.303 129.26 121.359 129.713C121.471 130.619 121.631 131.886 121.82 133.327C122.2 136.224 122.692 139.765 123.156 142.487C123.605 145.121 124.402 148.538 125.11 151.369C125.46 152.769 125.782 153.997 126.015 154.875C126.131 155.313 126.226 155.663 126.291 155.902C126.323 156.022 126.348 156.114 126.365 156.175C126.373 156.205 126.379 156.228 126.383 156.243C126.386 156.251 126.388 156.26 126.388 156.26L126.389 156.263C126.389 156.263 126.302 156.288 122.066 157.457C117.852 158.621 117.744 158.651 117.744 158.651L117.743 158.649L117.741 158.643C117.74 158.638 117.738 158.631 117.736 158.622C117.731 158.604 117.724 158.578 117.714 158.544C117.696 158.477 117.669 158.378 117.634 158.252C117.566 157.999 117.467 157.633 117.346 157.178C117.104 156.269 116.772 154.997 116.409 153.545C115.691 150.673 114.823 146.981 114.314 143.993C114.14 142.969 114.014 142.097 113.842 140.946L94.4885 167.924C95.5016 168.3 96.621 168.724 97.8224 169.196C103.114 171.271 110.093 174.282 116.664 177.979C123.124 181.612 129.679 186.174 133.657 191.513C135.683 194.232 137.216 197.386 137.517 200.901C137.825 204.509 136.792 208.043 134.46 211.334C131.026 216.176 125.607 218.635 120.209 219.853C114.768 221.081 108.767 221.187 103.343 220.85C97.882 220.511 92.7873 219.707 89.0753 218.995C87.2132 218.637 85.6842 218.3 84.6133 218.05C84.0775 217.925 83.6553 217.822 83.3625 217.749C83.2161 217.712 83.102 217.683 83.022 217.662C82.982 217.652 82.9504 217.644 82.9277 217.638C82.9164 217.635 82.9072 217.632 82.9003 217.631L82.8914 217.628L82.8886 217.628C82.8886 217.628 82.8927 217.603 84.0379 213.293C85.174 209.017 85.1882 208.958 85.1882 208.958C85.1882 208.958 85.1952 208.96 85.2012 208.962C85.2138 208.965 85.2353 208.97 85.2649 208.978C85.3241 208.993 85.4168 209.017 85.5411 209.048C85.7899 209.111 86.165 209.203 86.6507 209.316C87.6227 209.543 89.0349 209.855 90.7653 210.187C94.2387 210.853 98.9357 211.59 103.899 211.898C108.9 212.209 113.957 212.07 118.234 211.104C122.554 210.129 125.511 208.447 127.142 206.146C128.391 204.385 128.688 202.927 128.58 201.664C128.464 200.308 127.837 198.714 126.465 196.872C123.645 193.087 118.451 189.274 112.267 185.795C106.194 182.379 99.6334 179.541 94.5465 177.545C92.0134 176.551 89.8683 175.775 88.3621 175.25C87.6095 174.987 87.0176 174.788 86.6179 174.655C86.4182 174.588 86.2666 174.539 86.167 174.506C86.1172 174.49 86.0803 174.478 86.057 174.471C86.0455 174.467 86.0373 174.465 86.0326 174.463L86.0284 174.462L80.1777 172.603L105.76 136.516C104.928 136.698 104.114 136.86 103.341 136.991C100.353 137.5 96.5822 137.903 93.6342 138.176C92.1442 138.314 90.834 138.422 89.8955 138.495C89.4259 138.532 89.0484 138.56 88.7871 138.579C88.6564 138.588 88.5544 138.595 88.4846 138.6C88.4497 138.602 88.4228 138.604 88.4042 138.606C88.395 138.606 88.3878 138.607 88.3827 138.607L88.3766 138.608C88.3766 138.608 88.3664 138.496 88.0695 134.133C87.7712 129.75 87.765 129.659 87.765 129.659L87.769 129.659C87.769 129.659 87.7784 129.658 87.7861 129.658C87.8016 129.657 87.8253 129.655 87.8568 129.653C87.9201 129.649 88.015 129.641 88.1385 129.633C88.3856 129.615 88.7472 129.588 89.1995 129.553C90.1048 129.482 91.3702 129.379 92.807 129.246C95.7129 128.977 99.2013 128.598 101.835 128.15C104.38 127.716 107.712 126.834 110.515 126.019C111.893 125.618 113.102 125.246 113.965 124.974C114.396 124.839 114.74 124.728 114.973 124.653C115.09 124.615 115.18 124.586 115.239 124.567C115.269 124.557 115.291 124.549 115.305 124.545C115.312 124.543 115.32 124.54 115.32 124.54L115.323 124.539L120.536 122.816L121.183 128.268Z" stroke="#F6F8FA" stroke-width="0.3" mask="url(#path-2-outside-1_424_1057)"/>
  <path d="M115.845 112.384L115.841 112.382C115.837 112.38 115.832 112.378 115.824 112.375C115.81 112.368 115.787 112.358 115.758 112.344C115.699 112.317 115.611 112.276 115.498 112.224C115.271 112.119 114.939 111.966 114.524 111.776C113.693 111.395 112.531 110.866 111.206 110.271C108.54 109.073 105.268 107.633 102.708 106.598C100.231 105.597 96.9039 104.482 94.1227 103.598C92.7475 103.161 91.5335 102.79 90.6641 102.527C90.2298 102.396 89.8822 102.293 89.6446 102.223C89.5259 102.188 89.4347 102.16 89.3739 102.142C89.3435 102.134 89.3207 102.127 89.3059 102.123C89.2984 102.12 89.2893 102.118 89.2893 102.118L89.2859 102.117C89.2859 102.117 89.3109 102.029 90.539 97.8109C91.7611 93.613 91.7929 93.5053 91.7929 93.5053L91.7951 93.5057L91.8009 93.5076C91.8058 93.509 91.8127 93.511 91.8216 93.5136C91.8395 93.5188 91.8654 93.5265 91.8989 93.5363C91.966 93.556 92.0642 93.5846 92.1898 93.6218C92.4411 93.6962 92.8039 93.8042 93.2548 93.9402C94.156 94.2121 95.413 94.5973 96.8391 95.0505C99.6606 95.9471 103.258 97.1466 106.068 98.2822C107.032 98.6715 107.84 99.0226 108.91 99.4804L96.1101 68.8445C95.2585 69.5095 94.3095 70.2393 93.2777 71.0144C88.7328 74.4279 82.5061 78.7871 75.9102 82.4391C69.4259 86.0292 62.1017 89.2129 55.4699 89.7954C52.0923 90.092 48.6023 89.7414 45.4534 88.1514C42.2211 86.5194 39.7548 83.7849 38.1791 80.0722C35.8601 74.6078 36.613 68.704 38.4102 63.4703C40.2215 58.1956 43.2826 53.0322 46.417 48.5931C49.5729 44.1234 52.9317 40.2093 55.4868 37.4241C56.7685 36.0268 57.8582 34.9025 58.6331 34.1222C59.0207 33.7318 59.3301 33.4265 59.5463 33.2158C59.6543 33.1105 59.7394 33.029 59.7989 32.9717C59.8287 32.9431 59.8522 32.9204 59.8692 32.9042C59.8776 32.8962 59.8846 32.8896 59.8898 32.8847L59.8962 32.8783L59.8984 32.8763C59.8984 32.8763 59.9002 32.8747 62.9843 36.1304C66.0307 39.3463 66.0695 39.3851 66.0695 39.3851C66.0695 39.3851 66.0641 39.39 66.0596 39.3943C66.0502 39.4033 66.0344 39.4188 66.0124 39.44C65.9682 39.4824 65.8993 39.5488 65.8076 39.6383C65.6239 39.8173 65.3486 40.0881 64.9971 40.442C64.2939 41.1502 63.2871 42.1884 62.096 43.4868C59.7051 46.0931 56.6122 49.7039 53.7437 53.7664C50.8536 57.8595 48.3172 62.2362 46.893 66.3835C45.4549 70.5716 45.3339 73.9719 46.4357 76.5682C47.279 78.5553 48.3647 79.5736 49.4961 80.1449C50.7109 80.7582 52.3964 81.0617 54.6852 80.8607C59.3862 80.4477 65.3586 78.0293 71.5659 74.5925C77.6617 71.2175 83.5221 67.1242 87.8913 63.8425C90.067 62.2084 91.8538 60.7902 93.0919 59.7842C93.7105 59.2816 94.1912 58.8826 94.514 58.6121C94.6754 58.477 94.7973 58.3741 94.8771 58.3063C94.917 58.2724 94.9464 58.2472 94.965 58.2313C94.9742 58.2235 94.9807 58.2179 94.9845 58.2146L94.988 58.2118L99.6416 54.2083L116.923 94.9278C117.205 94.1243 117.495 93.3459 117.789 92.6192C118.924 89.809 120.561 86.3881 121.877 83.7358C122.541 82.3952 123.138 81.2235 123.568 80.3864C123.784 79.9676 123.958 79.6316 124.079 79.3992C124.14 79.283 124.187 79.1926 124.22 79.1306C124.236 79.0997 124.248 79.0758 124.257 79.0593C124.261 79.0511 124.265 79.0447 124.267 79.0402L124.27 79.0347C124.27 79.0347 124.371 79.0848 128.239 81.1223C132.126 83.1699 132.207 83.2123 132.207 83.2123L132.205 83.2157C132.205 83.2157 132.201 83.2241 132.197 83.2309C132.19 83.2446 132.179 83.2657 132.164 83.2937C132.135 83.3499 132.091 83.4343 132.034 83.5441C131.919 83.7639 131.752 84.0857 131.544 84.4891C131.129 85.2966 130.553 86.4279 129.912 87.7206C128.615 90.335 127.106 93.5027 126.105 95.9797C125.137 98.3735 124.139 101.672 123.361 104.486C122.978 105.869 122.66 107.094 122.438 107.971C122.328 108.409 122.241 108.759 122.183 108.998C122.153 109.117 122.131 109.208 122.116 109.269C122.109 109.299 122.104 109.322 122.101 109.336C122.099 109.343 122.097 109.352 122.097 109.352L122.096 109.355L120.825 114.696L115.845 112.384Z" stroke="#F6F8FA" stroke-width="0.3" mask="url(#path-2-outside-1_424_1057)"/>
  <path d="M131.801 116.501L131.805 116.498C131.808 116.496 131.813 116.492 131.819 116.487C131.832 116.477 131.851 116.461 131.876 116.441C131.927 116.401 132.003 116.341 132.1 116.263C132.296 116.107 132.582 115.879 132.938 115.593C133.651 115.022 134.645 114.22 135.772 113.303C138.038 111.458 140.793 109.181 142.867 107.357C144.873 105.592 147.362 103.119 149.4 101.03C150.407 99.9974 151.284 99.0791 151.909 98.4199C152.221 98.0905 152.469 97.8263 152.638 97.6455C152.723 97.5552 152.788 97.4859 152.832 97.4395C152.853 97.4164 152.869 97.399 152.88 97.3877C152.885 97.382 152.892 97.375 152.892 97.375L152.894 97.3724C152.894 97.3724 152.961 97.434 156.18 100.424C159.383 103.4 159.465 103.477 159.465 103.477L159.464 103.479L159.459 103.483C159.456 103.487 159.451 103.492 159.445 103.499C159.432 103.512 159.414 103.532 159.39 103.558C159.342 103.609 159.272 103.684 159.183 103.779C159.004 103.97 158.744 104.246 158.42 104.588C157.773 105.272 156.865 106.222 155.82 107.293C153.753 109.413 151.066 112.089 148.791 114.091C148.011 114.777 147.334 115.342 146.445 116.093L179.567 118.4C179.355 117.341 179.128 116.165 178.899 114.895C177.887 109.302 176.786 101.781 176.481 94.2481C176.182 86.8423 176.623 78.8683 179.079 72.6801C180.329 69.5285 182.208 66.5669 185.042 64.4661C187.951 62.3098 191.501 61.3327 195.526 61.5904C201.45 61.9698 206.389 65.2916 210.26 69.2461C214.161 73.2316 217.402 78.284 219.962 83.077C222.541 87.9029 224.532 92.6608 225.874 96.194C226.548 97.9664 227.064 99.4447 227.414 100.487C227.589 101.009 227.722 101.422 227.814 101.71C227.859 101.854 227.894 101.967 227.919 102.045C227.931 102.085 227.941 102.116 227.947 102.139C227.951 102.15 227.954 102.159 227.956 102.166L227.958 102.174L227.959 102.177C227.959 102.177 227.96 102.179 223.666 103.475C219.426 104.754 219.374 104.772 219.374 104.772C219.374 104.772 219.371 104.765 219.37 104.759C219.366 104.746 219.359 104.725 219.35 104.696C219.332 104.638 219.304 104.546 219.265 104.424C219.187 104.18 219.069 103.812 218.91 103.339C218.593 102.393 218.117 101.027 217.491 99.3802C216.234 96.0741 214.395 91.6899 212.052 87.3036C209.69 82.8842 206.917 78.6536 203.85 75.52C200.752 72.3555 197.768 70.7217 194.953 70.5414C192.799 70.4035 191.402 70.9168 190.383 71.6716C189.29 72.482 188.263 73.8522 187.415 75.9878C185.675 80.3743 185.157 86.7969 185.443 93.8864C185.724 100.848 186.753 107.922 187.725 113.3C188.209 115.977 188.675 118.21 189.018 119.768C189.19 120.547 189.331 121.155 189.428 121.565C189.476 121.77 189.513 121.925 189.538 122.027C189.55 122.078 189.56 122.115 189.566 122.139C189.569 122.151 189.571 122.159 189.572 122.164L189.573 122.168L191.063 128.124L146.918 125.297C147.509 125.91 148.075 126.518 148.593 127.107C150.595 129.382 152.917 132.38 154.698 134.746C155.597 135.941 156.377 137 156.932 137.76C157.209 138.141 157.431 138.447 157.585 138.66C157.661 138.766 157.721 138.849 157.762 138.906C157.782 138.934 157.798 138.956 157.809 138.971C157.814 138.979 157.818 138.985 157.821 138.989L157.825 138.994C157.825 138.994 157.735 139.061 154.178 141.604C150.604 144.16 150.53 144.213 150.53 144.213L150.528 144.209C150.528 144.209 150.523 144.202 150.518 144.195C150.509 144.183 150.495 144.163 150.477 144.138C150.44 144.086 150.384 144.009 150.311 143.909C150.166 143.708 149.954 143.414 149.686 143.048C149.151 142.314 148.399 141.292 147.531 140.139C145.776 137.807 143.623 135.036 141.858 133.03C140.153 131.092 137.653 128.72 135.487 126.762C134.423 125.799 133.471 124.966 132.787 124.374C132.446 124.078 132.171 123.844 131.984 123.684C131.891 123.605 131.819 123.544 131.771 123.504C131.748 123.483 131.73 123.469 131.718 123.459C131.713 123.454 131.706 123.449 131.706 123.449L131.704 123.447L127.501 119.915L131.801 116.501Z" stroke="#F6F8FA" stroke-width="0.3" mask="url(#path-2-outside-1_424_1057)"/>
</svg>