<svg xmlns="http://www.w3.org/2000/svg" width="257" height="256" viewBox="0 0 257 256" fill="none">
  <rect width="256" height="256" rx="24" fill="white"/>
  <path d="M121.632 128.268L121.632 128.273C121.633 128.277 121.633 128.283 121.634 128.291C121.636 128.307 121.639 128.332 121.643 128.364C121.651 128.428 121.662 128.524 121.677 128.648C121.707 128.897 121.752 129.26 121.808 129.713C121.92 130.619 122.079 131.886 122.269 133.327C122.649 136.224 123.141 139.765 123.604 142.487C124.053 145.121 124.851 148.538 125.559 151.369C125.909 152.769 126.23 153.997 126.463 154.875C126.58 155.313 126.674 155.663 126.739 155.902C126.772 156.022 126.796 156.114 126.813 156.175C126.821 156.205 126.828 156.228 126.832 156.243C126.834 156.251 126.837 156.26 126.837 156.26L126.838 156.263C126.838 156.263 126.75 156.288 122.515 157.457C118.3 158.621 118.192 158.651 118.192 158.651L118.191 158.649L118.19 158.643C118.189 158.638 118.187 158.631 118.184 158.622C118.179 158.604 118.172 158.578 118.163 158.544C118.144 158.477 118.117 158.378 118.083 158.252C118.014 157.999 117.916 157.633 117.795 157.178C117.553 156.269 117.221 154.997 116.858 153.545C116.139 150.673 115.272 146.981 114.763 143.993C114.588 142.969 114.463 142.097 114.29 140.946L94.9369 167.924C95.95 168.3 97.0694 168.724 98.2708 169.196C103.562 171.271 110.541 174.282 117.113 177.978C123.573 181.612 130.128 186.174 134.105 191.513C136.131 194.232 137.665 197.386 137.965 200.901C138.273 204.509 137.241 208.043 134.908 211.333C131.475 216.176 126.055 218.635 120.657 219.853C115.217 221.081 109.215 221.187 103.791 220.85C98.3304 220.51 93.2358 219.707 89.5238 218.995C87.6617 218.637 86.1327 218.3 85.0617 218.05C84.5259 217.925 84.1037 217.822 83.8109 217.749C83.6645 217.712 83.5505 217.683 83.4705 217.662C83.4305 217.652 83.3988 217.644 83.3762 217.638C83.3649 217.635 83.3556 217.632 83.3487 217.631L83.3398 217.628L83.337 217.628C83.337 217.628 83.3411 217.603 84.4863 213.293C85.6225 209.017 85.6366 208.958 85.6366 208.958C85.6366 208.958 85.6436 208.96 85.6497 208.962C85.6623 208.965 85.6837 208.97 85.7133 208.978C85.7725 208.993 85.8652 209.017 85.9895 209.048C86.2383 209.11 86.6134 209.203 87.0991 209.316C88.0711 209.543 89.4833 209.854 91.2137 210.186C94.6871 210.853 99.3841 211.59 104.348 211.898C109.349 212.209 114.405 212.069 118.683 211.104C123.002 210.129 125.96 208.447 127.591 206.146C128.839 204.385 129.136 202.926 129.028 201.664C128.912 200.308 128.286 198.714 126.913 196.871C124.093 193.087 118.899 189.274 112.715 185.795C106.643 182.379 100.082 179.541 94.995 177.545C92.4619 176.551 90.3167 175.775 88.8106 175.25C88.058 174.987 87.466 174.787 87.0663 174.655C86.8666 174.588 86.715 174.539 86.6154 174.506C86.5657 174.49 86.5287 174.478 86.5055 174.471C86.494 174.467 86.4858 174.465 86.481 174.463L86.4768 174.462L80.6261 172.603L106.209 136.516C105.377 136.698 104.562 136.86 103.789 136.991C100.801 137.5 97.0306 137.903 94.0827 138.176C92.5927 138.314 91.2824 138.422 90.3439 138.495C89.8744 138.532 89.4969 138.56 89.2355 138.579C89.1048 138.588 89.0028 138.595 88.933 138.6C88.8982 138.602 88.8712 138.604 88.8527 138.606C88.8434 138.606 88.8362 138.607 88.8312 138.607L88.8251 138.608C88.8251 138.608 88.8148 138.496 88.518 134.133C88.2196 129.75 88.2135 129.659 88.2135 129.659L88.2174 129.659C88.2174 129.659 88.2268 129.658 88.2346 129.658C88.25 129.657 88.2737 129.655 88.3053 129.653C88.3685 129.648 88.4634 129.641 88.5869 129.632C88.8341 129.615 89.1957 129.588 89.648 129.553C90.5533 129.482 91.8186 129.379 93.2555 129.246C96.1613 128.976 99.6498 128.598 102.283 128.149C104.829 127.716 108.16 126.834 110.964 126.018C112.342 125.618 113.551 125.246 114.414 124.974C114.845 124.839 115.188 124.728 115.422 124.653C115.539 124.615 115.628 124.586 115.688 124.567C115.717 124.557 115.739 124.549 115.753 124.545C115.76 124.542 115.768 124.54 115.768 124.54L115.771 124.539L120.984 122.816L121.632 128.268Z" fill="black"/>
  <path d="M116.294 112.384L116.289 112.382C116.285 112.38 116.28 112.378 116.273 112.374C116.258 112.368 116.236 112.357 116.206 112.344C116.147 112.317 116.06 112.276 115.946 112.224C115.719 112.119 115.387 111.966 114.972 111.776C114.142 111.395 112.979 110.866 111.654 110.27C108.988 109.073 105.717 107.633 103.156 106.598C100.679 105.597 97.3524 104.482 94.5711 103.598C93.1959 103.161 91.9819 102.79 91.1126 102.527C90.6782 102.396 90.3307 102.293 90.0931 102.223C89.9744 102.187 89.8832 102.16 89.8223 102.142C89.792 102.134 89.7691 102.127 89.7543 102.123C89.7469 102.12 89.7378 102.118 89.7378 102.118L89.7344 102.117C89.7344 102.117 89.7594 102.029 90.9875 97.8109C92.2096 93.6129 92.2413 93.5052 92.2413 93.5052L92.2435 93.5057L92.2494 93.5076C92.2542 93.509 92.2611 93.5109 92.27 93.5135C92.2879 93.5188 92.3138 93.5264 92.3473 93.5363C92.4145 93.556 92.5126 93.5846 92.6383 93.6218C92.8895 93.6961 93.2524 93.8041 93.7032 93.9402C94.6045 94.212 95.8614 94.5972 97.2875 95.0504C100.109 95.947 103.707 97.1466 106.517 98.2822C107.48 98.6714 108.288 99.0225 109.359 99.4803L96.5585 68.8445C95.707 69.5095 94.758 70.2393 93.7261 71.0143C89.1813 74.4279 82.9545 78.787 76.3586 82.439C69.8743 86.0292 62.5502 89.2128 55.9183 89.7953C52.5407 90.092 49.0507 89.7413 45.9018 88.1514C42.6695 86.5193 40.2032 83.7849 38.6276 80.0722C36.3085 74.6077 37.0614 68.7039 38.8587 63.4702C40.67 58.1955 43.7311 53.0321 46.8654 48.593C50.0214 44.1233 53.3802 40.2093 55.9352 37.424C57.217 36.0268 58.3066 34.9024 59.0815 34.1221C59.4692 33.7317 59.7786 33.4265 59.9947 33.2158C60.1028 33.1105 60.1878 33.0289 60.2474 32.9717C60.2772 32.9431 60.3006 32.9204 60.3176 32.9042C60.3261 32.8961 60.333 32.8895 60.3382 32.8846L60.3446 32.8782L60.3468 32.8763C60.3468 32.8763 60.3486 32.8747 63.4327 36.1304C66.4791 39.3463 66.5179 39.385 66.5179 39.385C66.5179 39.385 66.5125 39.39 66.508 39.3943C66.4986 39.4033 66.4829 39.4187 66.4608 39.4399C66.4167 39.4823 66.3478 39.5488 66.256 39.6382C66.0724 39.8172 65.797 40.0881 65.4456 40.4419C64.7423 41.1502 63.7355 42.1884 62.5444 43.4868C60.1536 46.093 57.0606 49.7038 54.1922 53.7663C51.3021 57.8594 48.7657 62.2361 47.3415 66.3834C45.9033 70.5715 45.7823 73.9719 46.8842 76.5681C47.7275 78.5552 48.8131 79.5736 49.9446 80.1449C51.1593 80.7582 52.8449 81.0616 55.1336 80.8606C59.8346 80.4477 65.8071 78.0293 72.0144 74.5925C78.1101 71.2174 83.9706 67.1241 88.3398 63.8425C90.5155 62.2083 92.3023 60.7901 93.5403 59.7842C94.159 59.2815 94.6397 58.8825 94.9625 58.6121C95.1238 58.4769 95.2457 58.374 95.3255 58.3062C95.3654 58.2724 95.3949 58.2471 95.4134 58.2313C95.4226 58.2234 95.4292 58.2178 95.4329 58.2146L95.4365 58.2118L100.09 54.2082L117.372 94.9278C117.654 94.1242 117.944 93.3459 118.237 92.6191C119.373 89.809 121.01 86.388 122.325 83.7357C122.99 82.3951 123.586 81.2235 124.017 80.3864C124.232 79.9676 124.406 79.6316 124.528 79.3992C124.588 79.283 124.636 79.1925 124.668 79.1305C124.684 79.0996 124.697 79.0757 124.706 79.0592C124.71 79.051 124.713 79.0446 124.716 79.0401L124.718 79.0346C124.718 79.0346 124.819 79.0847 128.687 81.1223C132.575 83.1698 132.655 83.2122 132.655 83.2122L132.653 83.2157C132.653 83.2157 132.649 83.224 132.645 83.2309C132.638 83.2446 132.627 83.2656 132.612 83.2936C132.583 83.3498 132.539 83.4343 132.482 83.5441C132.367 83.7638 132.2 84.0857 131.993 84.4891C131.578 85.2965 131.001 86.4278 130.36 87.7206C129.064 90.335 127.554 93.5026 126.553 95.9796C125.586 98.3735 124.587 101.672 123.809 104.486C123.427 105.869 123.109 107.094 122.887 107.971C122.776 108.408 122.689 108.759 122.631 108.997C122.602 109.117 122.58 109.208 122.565 109.269C122.558 109.299 122.553 109.322 122.549 109.336C122.547 109.343 122.545 109.351 122.545 109.351L122.544 109.354L121.274 114.696L116.294 112.384Z" fill="black"/>
  <path d="M132.249 116.501L132.254 116.498C132.257 116.496 132.261 116.492 132.268 116.487C132.28 116.477 132.3 116.461 132.325 116.441C132.376 116.401 132.451 116.341 132.549 116.263C132.745 116.107 133.03 115.879 133.386 115.593C134.099 115.022 135.093 114.22 136.22 113.303C138.487 111.458 141.242 109.181 143.315 107.357C145.321 105.592 147.811 103.119 149.848 101.03C150.856 99.9973 151.733 99.0791 152.357 98.4198C152.669 98.0905 152.917 97.8263 153.087 97.6455C153.172 97.5552 153.237 97.4858 153.28 97.4395C153.302 97.4163 153.318 97.399 153.328 97.3876C153.334 97.382 153.34 97.375 153.34 97.375L153.342 97.3724C153.342 97.3724 153.409 97.434 156.628 100.424C159.832 103.4 159.914 103.477 159.914 103.477L159.912 103.479L159.908 103.483C159.904 103.487 159.9 103.492 159.893 103.499C159.881 103.512 159.862 103.532 159.838 103.558C159.791 103.609 159.721 103.684 159.631 103.779C159.452 103.97 159.193 104.246 158.869 104.588C158.222 105.272 157.313 106.222 156.268 107.293C154.201 109.412 151.515 112.089 149.239 114.091C148.459 114.777 147.783 115.342 146.893 116.093L180.015 118.4C179.803 117.341 179.577 116.165 179.347 114.895C178.336 109.302 177.234 101.781 176.93 94.248C176.631 86.8422 177.072 78.8682 179.527 72.6801C180.777 69.5285 182.657 66.5668 185.491 64.4661C188.399 62.3097 191.95 61.3326 195.975 61.5903C201.899 61.9697 206.837 65.2916 210.708 69.2461C214.609 73.2316 217.85 78.284 220.411 83.0769C222.989 87.9029 224.98 92.6608 226.323 96.194C226.996 97.9664 227.512 99.4446 227.862 100.487C228.037 101.009 228.171 101.422 228.262 101.71C228.308 101.854 228.343 101.966 228.367 102.045C228.379 102.085 228.389 102.116 228.396 102.138C228.399 102.15 228.402 102.159 228.404 102.166L228.407 102.174L228.408 102.177C228.408 102.177 228.408 102.179 224.115 103.475C219.874 104.754 219.822 104.772 219.822 104.772C219.822 104.772 219.82 104.765 219.818 104.759C219.814 104.746 219.808 104.725 219.799 104.696C219.78 104.638 219.752 104.546 219.713 104.424C219.636 104.18 219.517 103.812 219.359 103.339C219.041 102.393 218.565 101.027 217.939 99.3801C216.683 96.0741 214.844 91.6898 212.5 87.3035C210.139 82.8841 207.366 78.6535 204.298 75.5199C201.201 72.3555 198.216 70.7216 195.402 70.5414C193.247 70.4034 191.85 70.9167 190.832 71.6715C189.739 72.4819 188.711 73.8522 187.864 75.9878C186.124 80.3743 185.605 86.7969 185.891 93.8863C186.172 100.848 187.201 107.922 188.173 113.3C188.658 115.977 189.123 118.21 189.467 119.768C189.638 120.547 189.779 121.155 189.876 121.565C189.924 121.77 189.962 121.925 189.987 122.027C189.999 122.078 190.008 122.115 190.014 122.139C190.017 122.151 190.019 122.159 190.02 122.164L190.021 122.168L191.511 128.123L147.366 125.297C147.958 125.91 148.523 126.518 149.041 127.107C151.043 129.382 153.366 132.38 155.146 134.746C156.046 135.941 156.825 137 157.38 137.76C157.658 138.141 157.88 138.447 158.033 138.66C158.11 138.766 158.169 138.849 158.21 138.906C158.231 138.934 158.246 138.956 158.257 138.971C158.263 138.979 158.267 138.985 158.27 138.989L158.273 138.994C158.273 138.994 158.183 139.061 154.627 141.604C151.053 144.16 150.979 144.213 150.979 144.213L150.976 144.209C150.976 144.209 150.971 144.202 150.967 144.195C150.957 144.183 150.944 144.163 150.925 144.138C150.888 144.086 150.832 144.009 150.76 143.909C150.615 143.708 150.402 143.414 150.135 143.048C149.6 142.314 148.847 141.292 147.98 140.139C146.225 137.807 144.071 135.036 142.307 133.03C140.601 131.092 138.101 128.72 135.936 126.762C134.871 125.799 133.92 124.966 133.236 124.374C132.894 124.078 132.62 123.844 132.433 123.684C132.339 123.605 132.267 123.544 132.22 123.503C132.196 123.483 132.178 123.469 132.167 123.459C132.161 123.454 132.155 123.449 132.155 123.449L132.152 123.447L127.949 119.915L132.249 116.501Z" fill="black"/>
</svg>