<svg width="64" height="64" viewBox="0 0 64 64" fill="none" xmlns="http://www.w3.org/2000/svg">
<rect x="1" y="1" width="62" height="62" rx="7" fill="#0B0B0D" stroke="#E7E7E7" stroke-width="2"/>
<path d="M33.5847 15.3352C34.5357 16.205 35.0682 17.4508 35.2461 19.0115C35.4247 20.5797 35.2356 22.3996 34.8021 24.2999C33.9391 28.0829 32.1556 31.9778 30.7665 34.4144C30.7537 34.4329 30.7356 34.4605 30.7107 34.4957C30.657 34.5716 30.5757 34.6848 30.4691 34.8279C30.2555 35.1145 29.9408 35.5208 29.5423 35.9905C28.7412 36.9345 27.62 38.113 26.3148 39.0986C25.0001 40.0913 23.57 40.8337 22.1458 41.0108C20.7733 41.1815 19.3213 40.8401 17.8534 39.4966C15.9087 37.7166 15.7601 34.9783 16.6494 31.7776C17.5294 28.6105 19.3398 25.3403 20.7764 22.9205C22.171 20.5714 24.4903 17.6599 26.978 15.8784C28.2211 14.9883 29.4349 14.4326 30.5423 14.3078C31.6046 14.188 32.6228 14.4556 33.5847 15.3352Z" fill="#F6F8FA" stroke="black" stroke-width="2"/>
<path d="M39.095 33.7821H50.8091" stroke="#F6F8FA" stroke-width="2"/>
<path d="M32.9098 16.0732C32.1669 15.394 31.4367 15.2134 30.6537 15.3017C29.7805 15.4003 28.7292 15.8561 27.5605 16.693C25.2205 18.3688 22.9869 21.1586 21.637 23.4323C20.2029 25.8481 18.453 29.0177 17.6118 32.045C16.7528 35.1366 17.0132 37.3719 18.5282 38.7587C19.7842 39.9082 20.9462 40.1521 22.0226 40.0183C23.2022 39.8715 24.4673 39.2404 25.7124 38.3003C26.9379 37.3748 28.0047 36.2544 28.7785 35.3424C29.1616 34.891 29.4639 34.5029 29.6662 34.2314C29.765 34.0988 29.8403 33.9928 29.8928 33.9185C29.8968 33.9128 29.9011 33.9063 29.9077 33.8964L29.9128 33.8879C31.2672 31.506 32.9966 27.7216 33.8279 24.0774C34.2472 22.2394 34.4123 20.5404 34.2509 19.1245C34.0913 17.7243 33.631 16.733 32.9098 16.0732ZM44.7704 49.6967L44.0317 49.0212L31.8665 37.8857C31.8539 37.9006 31.8425 37.9166 31.8298 37.9316C30.9467 38.9724 29.6657 40.3281 28.1229 41.4932C26.5987 42.644 24.6735 43.7195 22.5172 43.988C20.2574 44.269 17.933 43.6359 15.8288 41.7106C12.5897 38.746 12.782 34.4886 13.7587 30.9736C14.7549 27.3891 16.7523 23.8217 18.1968 21.3886C19.7253 18.8142 22.3009 15.5389 25.2309 13.4405C26.6975 12.3903 28.3978 11.5303 30.2066 11.3264C32.1053 11.1124 33.9907 11.6415 35.6092 13.1214L35.6099 13.1221L35.9068 13.4095C37.3406 14.8739 38.0087 16.7603 38.2267 18.6725C38.4574 20.6984 38.2018 22.8826 37.7261 24.9677C36.9309 28.4534 35.4465 31.9498 34.1147 34.5214L46.7318 46.07L47.4698 46.7449L44.7704 49.6967Z" fill="#F6F8FA" stroke="black" stroke-width="2"/>
</svg>
