<svg width="96" height="96" viewBox="0 0 96 96" fill="none" xmlns="http://www.w3.org/2000/svg">
<rect x="1" y="1" width="94" height="94" rx="29" fill="#0B0B0D" stroke="#E7E7E7" stroke-width="2"/>
<path d="M49.5847 31.3352C50.5357 32.205 51.0682 33.4508 51.2461 35.0115C51.4247 36.5797 51.2356 38.3996 50.8021 40.2999C49.9391 44.0829 48.1556 47.9778 46.7665 50.4144C46.7537 50.4329 46.7356 50.4605 46.7107 50.4957C46.657 50.5716 46.5757 50.6848 46.4691 50.8279C46.2555 51.1145 45.9408 51.5208 45.5423 51.9905C44.7412 52.9345 43.62 54.113 42.3148 55.0986C41.0001 56.0913 39.57 56.8337 38.1458 57.0108C36.7733 57.1815 35.3213 56.8401 33.8534 55.4966C31.9087 53.7166 31.7601 50.9783 32.6494 47.7776C33.5294 44.6105 35.3398 41.3403 36.7764 38.9205C38.171 36.5714 40.4903 33.6599 42.978 31.8784C44.2211 30.9883 45.4349 30.4326 46.5423 30.3078C47.6046 30.188 48.6228 30.4556 49.5847 31.3352Z" fill="#F6F8FA" stroke="black" stroke-width="2"/>
<path d="M55.095 49.7821H66.8091" stroke="#F6F8FA" stroke-width="2"/>
<path d="M48.9098 32.0732C48.1669 31.394 47.4367 31.2134 46.6537 31.3017C45.7805 31.4003 44.7292 31.8561 43.5605 32.693C41.2205 34.3688 38.9869 37.1586 37.637 39.4323C36.2029 41.8481 34.453 45.0177 33.6118 48.045C32.7528 51.1366 33.0132 53.3719 34.5282 54.7587C35.7842 55.9082 36.9462 56.1521 38.0226 56.0183C39.2022 55.8715 40.4673 55.2404 41.7124 54.3003C42.9379 53.3748 44.0047 52.2544 44.7785 51.3424C45.1616 50.891 45.4639 50.5029 45.6662 50.2314C45.765 50.0988 45.8403 49.9928 45.8928 49.9185C45.8968 49.9128 45.9011 49.9063 45.9077 49.8964L45.9128 49.8879C47.2672 47.506 48.9966 43.7216 49.8279 40.0774C50.2472 38.2394 50.4123 36.5404 50.2509 35.1245C50.0913 33.7243 49.631 32.733 48.9098 32.0732ZM60.7704 65.6967L60.0317 65.0212L47.8665 53.8857C47.8539 53.9006 47.8425 53.9166 47.8298 53.9316C46.9467 54.9724 45.6657 56.3281 44.1229 57.4932C42.5987 58.644 40.6735 59.7195 38.5172 59.988C36.2574 60.269 33.933 59.6359 31.8288 57.7106C28.5897 54.746 28.782 50.4886 29.7587 46.9736C30.7549 43.3891 32.7523 39.8217 34.1968 37.3886C35.7253 34.8142 38.3009 31.5389 41.2309 29.4405C42.6975 28.3903 44.3978 27.5303 46.2066 27.3264C48.1053 27.1124 49.9907 27.6415 51.6092 29.1214L51.6099 29.1221L51.9068 29.4095C53.3406 30.8739 54.0087 32.7603 54.2267 34.6725C54.4574 36.6984 54.2018 38.8826 53.7261 40.9677C52.9309 44.4534 51.4465 47.9498 50.1147 50.5214L62.7318 62.07L63.4698 62.7449L60.7704 65.6967Z" fill="#F6F8FA" stroke="black" stroke-width="2"/>
</svg>
