<svg width="96" height="96" viewBox="0 0 96 96" fill="none" xmlns="http://www.w3.org/2000/svg">
<rect x="1" y="1" width="94" height="94" rx="7" fill="#0B0B0D" stroke="#E7E7E7" stroke-width="2"/>
<path d="M35.9831 30.1853C41.8069 31.2348 44.826 34.3863 46.3297 37.9857C47.0544 39.7203 47.4269 41.5602 47.6053 43.3193C47.9595 42.1197 48.4158 40.9165 48.9979 39.7656C50.9724 35.8618 54.4363 32.4357 60.2648 31.8823L61.0405 33.726C55.9951 34.2049 52.8567 37.1802 50.996 40.859C49.1367 44.5352 48.6162 48.8009 48.71 51.5846C48.8062 54.4388 49.4316 57.7048 51.285 60.0209C52.1764 61.1347 53.3574 62.0357 54.9723 62.5931C56.6185 63.1612 58.8057 63.4019 61.6917 63.0272L62.1151 63.9446L62.5365 64.8619C59.4339 65.2647 56.8416 65.0415 54.6818 64.2961C52.4909 63.5399 50.8388 62.2782 49.6338 60.7724C47.8253 58.5124 47.0446 55.727 46.7374 53.2384C46.113 55.0342 45.1669 56.8538 43.8268 58.4258C42.5007 59.9813 40.7759 61.3109 38.6046 62.1041C36.436 62.8963 33.9172 63.1183 31.0383 62.6003L31.8091 60.7555C34.3803 61.2182 36.4584 60.9914 38.126 60.3823C39.7908 59.7742 41.1422 58.7493 42.2271 57.4768C44.4299 54.8928 45.467 51.3516 45.5875 48.664C45.7127 45.8693 45.6847 42.1531 44.3292 38.9084C42.9891 35.7005 40.3578 32.9583 35.2122 32.0311L35.9831 30.1853Z" fill="#F6F8FA"/>
</svg>
