<svg width="64" height="64" viewBox="0 0 64 64" fill="none" xmlns="http://www.w3.org/2000/svg">
<rect x="1" y="1" width="62" height="62" rx="29" fill="#0B0B0D" stroke="#E7E7E7" stroke-width="2"/>
<path d="M19.9831 14.1853C25.8069 15.2348 28.826 18.3863 30.3297 21.9857C31.0544 23.7203 31.4269 25.5602 31.6053 27.3193C31.9595 26.1197 32.4158 24.9165 32.9979 23.7656C34.9724 19.8618 38.4363 16.4357 44.2648 15.8823L45.0405 17.726C39.9951 18.2049 36.8567 21.1802 34.996 24.859C33.1367 28.5352 32.6162 32.8009 32.71 35.5846C32.8062 38.4388 33.4316 41.7048 35.285 44.0209C36.1764 45.1347 37.3574 46.0357 38.9723 46.5931C40.6185 47.1612 42.8057 47.4019 45.6917 47.0272L46.1151 47.9446L46.5365 48.8619C43.4339 49.2647 40.8416 49.0415 38.6818 48.2961C36.4909 47.5399 34.8388 46.2782 33.6338 44.7724C31.8253 42.5124 31.0446 39.727 30.7374 37.2384C30.113 39.0342 29.1669 40.8538 27.8268 42.4258C26.5007 43.9813 24.7759 45.3109 22.6046 46.1041C20.436 46.8963 17.9172 47.1183 15.0383 46.6003L15.8091 44.7555C18.3803 45.2182 20.4584 44.9914 22.126 44.3823C23.7908 43.7742 25.1422 42.7493 26.2271 41.4768C28.4299 38.8928 29.467 35.3516 29.5875 32.664C29.7127 29.8693 29.6847 26.1531 28.3292 22.9084C26.9891 19.7005 24.3578 16.9583 19.2122 16.0311L19.9831 14.1853Z" fill="#F6F8FA"/>
</svg>
