<svg width="96" height="96" viewBox="0 0 96 96" fill="none" xmlns="http://www.w3.org/2000/svg">
<rect x="1" y="1" width="94" height="94" rx="29" fill="#484A55" stroke="#E7E7E7" stroke-width="2"/>
<path d="M35.2042 29.9063C41.0279 30.9558 44.0471 34.1063 45.5508 37.7057C46.2755 39.4402 46.647 41.2803 46.8255 43.0393C47.1796 41.8399 47.6359 40.6373 48.2179 39.4865C50.1925 35.5825 53.657 32.1557 59.4859 31.6023L60.2607 33.4459C55.2153 33.9249 52.0769 36.9003 50.2161 40.579C48.3567 44.2554 47.8362 48.5218 47.9301 51.3056C48.0263 54.1596 48.6519 57.4248 50.5051 59.7408C51.3966 60.8548 52.5774 61.7566 54.1924 62.314C55.8386 62.8821 58.0257 63.1229 60.9118 62.7481L61.3352 63.6655L61.7576 64.5829C58.6551 64.9857 56.0626 64.7624 53.9029 64.0171C51.7118 63.2609 50.0589 61.9993 48.8539 60.4934C47.0454 58.2334 46.2647 55.4479 45.9575 52.9594C45.3331 54.755 44.3869 56.5739 43.047 58.1458C41.7208 59.7014 39.9962 61.0309 37.8248 61.8241C35.656 62.6163 33.1374 62.8393 30.2584 62.3212L31.0293 60.4755C33.6003 60.9381 35.6786 60.7122 37.3461 60.1033C39.0109 59.4952 40.3632 58.4704 41.4481 57.1978C43.651 54.6137 44.6882 51.0717 44.8087 48.3841C44.9339 45.5893 44.9049 41.8731 43.5494 38.6283C42.2092 35.4206 39.5786 32.6784 34.4333 31.7511L35.2042 29.9063Z" fill="#8C94A6"/>
</svg>
