<svg width="96" height="96" viewBox="0 0 96 96" fill="none" xmlns="http://www.w3.org/2000/svg">
<rect x="0.5" y="0.5" width="95" height="95" rx="7.5" fill="#484A55" stroke="#E7E7E7"/>
<path d="M35.2042 29.9062C41.0279 30.9557 44.0471 34.1062 45.5508 37.7056C46.2755 39.4401 46.647 41.2802 46.8255 43.0391C47.1796 41.8398 47.6359 40.6371 48.2179 39.4864C50.1925 35.5823 53.657 32.1555 59.4859 31.6022L60.2607 33.4458C55.2153 33.9248 52.0769 36.9001 50.2161 40.5789C48.3567 44.2553 47.8362 48.5217 47.9301 51.3054C48.0263 54.1595 48.6519 57.4246 50.5051 59.7407C51.3966 60.8547 52.5774 61.7565 54.1924 62.3139C55.8386 62.882 58.0257 63.1228 60.9118 62.748L61.3352 63.6654L61.7576 64.5828C58.6551 64.9856 56.0626 64.7622 53.9029 64.017C51.7118 63.2608 50.0589 61.9991 48.8539 60.4933C47.0454 58.2333 46.2647 55.4478 45.9575 52.9592C45.3331 54.7548 44.3869 56.5738 43.047 58.1457C41.7208 59.7012 39.9962 61.0307 37.8248 61.8239C35.656 62.6161 33.1374 62.8392 30.2584 62.3211L31.0293 60.4754C33.6003 60.938 35.6786 60.7121 37.3461 60.1031C39.0109 59.495 40.3632 58.4702 41.4481 57.1977C43.651 54.6136 44.6882 51.0715 44.8087 48.3839C44.9339 45.5892 44.9049 41.873 43.5494 38.6282C42.2092 35.4205 39.5786 32.6783 34.4333 31.751L35.2042 29.9062Z" fill="#8C94A6"/>
</svg>
