<svg width="64" height="64" viewBox="0 0 64 64" fill="none" xmlns="http://www.w3.org/2000/svg">
<rect x="1" y="1" width="62" height="62" rx="29" fill="#484A55" stroke="#E7E7E7" stroke-width="2"/>
<path d="M19.2042 13.9063C25.0279 14.9558 28.0471 18.1063 29.5508 21.7057C30.2755 23.4402 30.647 25.2803 30.8255 27.0393C31.1796 25.8399 31.6359 24.6373 32.2179 23.4865C34.1925 19.5825 37.657 16.1557 43.4859 15.6023L44.2607 17.4459C39.2153 17.9249 36.0769 20.9003 34.2161 24.579C32.3567 28.2554 31.8362 32.5218 31.9301 35.3056C32.0263 38.1596 32.6519 41.4248 34.5051 43.7408C35.3966 44.8548 36.5774 45.7566 38.1924 46.314C39.8386 46.8821 42.0257 47.1229 44.9118 46.7481L45.3352 47.6655L45.7576 48.5829C42.6551 48.9857 40.0626 48.7624 37.9029 48.0171C35.7118 47.2609 34.0589 45.9993 32.8539 44.4934C31.0454 42.2334 30.2647 39.4479 29.9575 36.9594C29.3331 38.755 28.3869 40.5739 27.047 42.1458C25.7208 43.7014 23.9962 45.0309 21.8248 45.8241C19.656 46.6163 17.1374 46.8393 14.2584 46.3212L15.0293 44.4755C17.6003 44.9381 19.6786 44.7122 21.3461 44.1033C23.0109 43.4952 24.3632 42.4704 25.4481 41.1978C27.651 38.6137 28.6882 35.0717 28.8087 32.3841C28.9339 29.5893 28.9049 25.8731 27.5494 22.6283C26.2092 19.4206 23.5786 16.6784 18.4333 15.7511L19.2042 13.9063Z" fill="#8C94A6"/>
</svg>
