<svg width="64" height="64" viewBox="0 0 64 64" fill="none" xmlns="http://www.w3.org/2000/svg">
<rect x="1" y="1" width="62" height="62" rx="7" fill="#484A55" stroke="#E7E7E7" stroke-width="2"/>
<path d="M19.2042 13.9062C25.0279 14.9557 28.0471 18.1062 29.5508 21.7056C30.2755 23.4401 30.647 25.2802 30.8255 27.0391C31.1796 25.8398 31.6359 24.6371 32.2179 23.4864C34.1925 19.5823 37.657 16.1555 43.4859 15.6022L44.2607 17.4458C39.2153 17.9248 36.0769 20.9001 34.2161 24.5789C32.3567 28.2553 31.8362 32.5217 31.9301 35.3054C32.0263 38.1595 32.6519 41.4246 34.5051 43.7407C35.3966 44.8547 36.5774 45.7565 38.1924 46.3139C39.8386 46.882 42.0257 47.1228 44.9118 46.748L45.3352 47.6654L45.7576 48.5828C42.6551 48.9856 40.0626 48.7622 37.9029 48.017C35.7118 47.2608 34.0589 45.9991 32.8539 44.4933C31.0454 42.2333 30.2647 39.4478 29.9575 36.9592C29.3331 38.7548 28.3869 40.5738 27.047 42.1457C25.7208 43.7012 23.9962 45.0307 21.8248 45.8239C19.656 46.6161 17.1374 46.8392 14.2584 46.3211L15.0293 44.4754C17.6003 44.938 19.6786 44.7121 21.3461 44.1031C23.0109 43.495 24.3632 42.4702 25.4481 41.1977C27.651 38.6136 28.6882 35.0715 28.8087 32.3839C28.9339 29.5892 28.9049 25.873 27.5494 22.6282C26.2092 19.4205 23.5786 16.6783 18.4333 15.751L19.2042 13.9062Z" fill="#8C94A6"/>
</svg>
