<svg width="64" height="64" viewBox="0 0 64 64" fill="none" xmlns="http://www.w3.org/2000/svg">
<rect x="1" y="1" width="62" height="62" rx="7" fill="#EFF2F5" stroke="#484A55" stroke-width="2"/>
<path d="M19.6333 13.8352C25.457 14.8847 28.4761 18.0362 29.9799 21.6356C30.7045 23.3702 31.0771 25.2101 31.2555 26.9692C31.6096 25.7697 32.0659 24.5664 32.648 23.4155C34.6226 19.5117 38.0865 16.0856 43.9149 15.5322L44.6907 17.3759C39.6452 17.8548 36.5069 20.8301 34.6461 24.5089C32.7868 28.1851 32.2663 32.4508 32.3601 35.2345C32.4564 38.0887 33.0817 41.3547 34.9351 43.6708C35.8266 44.7847 37.0076 45.6856 38.6224 46.243C40.2687 46.8111 42.4558 47.0519 45.3418 46.6771L45.7652 47.5945L46.1867 48.5118C43.0841 48.9146 40.4917 48.6914 38.332 47.946C36.1411 47.1898 34.4889 45.9281 33.2839 44.4223C31.4755 42.1623 30.6948 39.3769 30.3875 36.8883C29.7631 38.6841 28.817 40.5037 27.477 42.0757C26.1509 43.6312 24.426 44.9608 22.2548 45.754C20.0861 46.5462 17.5673 46.7682 14.6884 46.2502L15.4592 44.4054C18.0304 44.8681 20.1086 44.6413 21.7762 44.0322C23.441 43.4241 24.7924 42.3992 25.8772 41.1267C28.08 38.5427 29.1172 35.0015 29.2377 32.3139C29.3629 29.5192 29.3348 25.803 27.9794 22.5583C26.6392 19.3504 24.0079 16.6082 18.8624 15.681L19.6333 13.8352Z" fill="#0B0B0D"/>
</svg>
