<svg width="96" height="96" viewBox="0 0 96 96" fill="none" xmlns="http://www.w3.org/2000/svg">
<rect x="1" y="1" width="94" height="94" rx="29" fill="#EFF2F5" stroke="#484A55" stroke-width="2"/>
<path d="M35.6333 29.8352C41.457 30.8847 44.4761 34.0362 45.9799 37.6356C46.7045 39.3702 47.0771 41.2101 47.2555 42.9692C47.6096 41.7697 48.0659 40.5664 48.648 39.4155C50.6226 35.5117 54.0865 32.0856 59.9149 31.5322L60.6907 33.3759C55.6452 33.8548 52.5069 36.8301 50.6461 40.5089C48.7868 44.1851 48.2663 48.4508 48.3601 51.2345C48.4564 54.0887 49.0817 57.3547 50.9351 59.6708C51.8266 60.7847 53.0076 61.6856 54.6224 62.243C56.2687 62.8111 58.4558 63.0519 61.3418 62.6771L61.7652 63.5945L62.1867 64.5118C59.0841 64.9146 56.4917 64.6914 54.332 63.946C52.1411 63.1898 50.4889 61.9281 49.2839 60.4223C47.4755 58.1623 46.6948 55.3769 46.3875 52.8883C45.7631 54.6841 44.817 56.5037 43.477 58.0757C42.1509 59.6312 40.426 60.9608 38.2548 61.754C36.0861 62.5462 33.5673 62.7682 30.6884 62.2502L31.4592 60.4054C34.0304 60.8681 36.1086 60.6413 37.7762 60.0322C39.441 59.4241 40.7924 58.3992 41.8772 57.1267C44.08 54.5427 45.1172 51.0015 45.2377 48.3139C45.3629 45.5192 45.3348 41.803 43.9794 38.5583C42.6392 35.3504 40.0079 32.6082 34.8624 31.681L35.6333 29.8352Z" fill="#0B0B0D"/>
</svg>
