<svg width="64" height="64" viewBox="0 0 64 64" fill="none" xmlns="http://www.w3.org/2000/svg">
<rect x="1" y="1" width="62" height="62" rx="7" fill="#0B0B0D" stroke="#E7E7E7" stroke-width="2"/>
<path d="M33.5847 15.3352C34.5357 16.205 35.0682 17.4508 35.2461 19.0115C35.4247 20.5797 35.2356 22.3996 34.8021 24.2999C33.9391 28.0829 32.1556 31.9778 30.7665 34.4144C30.7537 34.4329 30.7356 34.4605 30.7107 34.4957C30.657 34.5716 30.5757 34.6848 30.4691 34.8279C30.2555 35.1145 29.9408 35.5208 29.5423 35.9905C28.7412 36.9345 27.62 38.113 26.3148 39.0986C25.0001 40.0913 23.57 40.8337 22.1458 41.0108C20.7733 41.1815 19.3213 40.8401 17.8534 39.4966C15.9087 37.7166 15.7601 34.9783 16.6494 31.7776C17.5294 28.6105 19.3398 25.3403 20.7764 22.9205C22.171 20.5714 24.4903 17.6599 26.978 15.8784C28.2211 14.9883 29.4349 14.4326 30.5423 14.3078C31.6046 14.188 32.6228 14.4556 33.5847 15.3352Z" fill="#F6F8FA" stroke="black" stroke-width="2"/>
<path d="M39.095 33.782H50.8091" stroke="#F6F8FA" stroke-width="2"/>
<path d="M45.0956 27.7814V39.7826" stroke="#F6F8FA" stroke-width="2"/>
<path d="M32.9099 16.0732C32.167 15.394 31.4368 15.2134 30.6539 15.3017C29.7807 15.4003 28.7294 15.8561 27.5606 16.693C25.2206 18.3688 22.9871 21.1586 21.6372 23.4323C20.203 25.8481 18.4532 29.0177 17.6119 32.045C16.7529 35.1366 17.0134 37.3719 18.5284 38.7587C19.7843 39.9082 20.9463 40.1521 22.0228 40.0183C23.2023 39.8715 24.4674 39.2404 25.7125 38.3003C26.938 37.3748 28.0048 36.2544 28.7787 35.3424C29.1617 34.891 29.464 34.5029 29.6663 34.2314C29.7651 34.0988 29.8404 33.9928 29.8929 33.9185C29.8969 33.9128 29.9012 33.9063 29.9078 33.8964L29.913 33.8879C31.2673 31.506 32.9967 27.7216 33.828 24.0774C34.2473 22.2394 34.4124 20.5404 34.251 19.1245C34.0914 17.7243 33.6311 16.733 32.9099 16.0732ZM44.7705 49.6967L44.0318 49.0212L31.8666 37.8857C31.854 37.9006 31.8427 37.9166 31.8299 37.9316C30.9468 38.9724 29.6659 40.3281 28.123 41.4932C26.5989 42.644 24.6737 43.7195 22.5174 43.988C20.2575 44.269 17.9331 43.6359 15.829 41.7106C12.5898 38.746 12.7821 34.4886 13.7589 30.9736C14.755 27.3891 16.7524 23.8217 18.1969 21.3886C19.7254 18.8142 22.301 15.5389 25.231 13.4405C26.6976 12.3903 28.3979 11.5303 30.2067 11.3264C32.1055 11.1124 33.9908 11.6415 35.6093 13.1214L35.61 13.1221L35.907 13.4095C37.3408 14.8739 38.0088 16.7603 38.2268 18.6725C38.4576 20.6984 38.2019 22.8826 37.7262 24.9677C36.931 28.4534 35.4466 31.9498 34.1149 34.5214L46.732 46.07L47.4699 46.7449L44.7705 49.6967Z" fill="#F6F8FA" stroke="black" stroke-width="2"/>
</svg>
