<svg width="64" height="64" viewBox="0 0 64 64" fill="none" xmlns="http://www.w3.org/2000/svg">
<rect x="1" y="1" width="62" height="62" rx="29" fill="#0B0B0D" stroke="#E7E7E7" stroke-width="2"/>
<path d="M32.6247 15.1194C33.5757 15.9892 34.1082 17.235 34.2861 18.7957C34.4648 20.3639 34.2756 22.1838 33.8422 24.084C32.9791 27.8671 31.1956 31.762 29.8066 34.1986C29.7938 34.217 29.7756 34.2447 29.7507 34.2799C29.6971 34.3558 29.6158 34.469 29.5091 34.6121C29.2955 34.8987 28.9808 35.305 28.5823 35.7746C27.7813 36.7186 26.66 37.8972 25.3549 38.8828C24.0401 39.8755 22.61 40.6179 21.1858 40.795C19.8133 40.9656 18.3614 40.6243 16.8934 39.2808C14.9487 37.5008 14.8001 34.7624 15.6894 31.5618C16.5695 28.3946 18.3798 25.1245 19.8165 22.7046C21.2111 20.3556 23.5303 17.4441 26.0181 15.6626C27.2612 14.7725 28.4749 14.2168 29.5823 14.0919C30.6447 13.9722 31.6628 14.2398 32.6247 15.1194Z" fill="#F6F8FA" stroke="black" stroke-width="2"/>
<path d="M38.135 33.5662H49.8491" stroke="#F6F8FA" stroke-width="2"/>
<path d="M44.1356 27.5656V39.5668" stroke="#F6F8FA" stroke-width="2"/>
<path d="M31.95 15.8574C31.2071 15.1782 30.4769 14.9976 29.6939 15.0859C28.8207 15.1845 27.7694 15.6403 26.6006 16.4772C24.2606 18.153 22.0271 20.9428 20.6772 23.2165C19.243 25.6323 17.4932 28.8019 16.6519 31.8292C15.793 34.9208 16.0534 37.1561 17.5684 38.5429C18.8244 39.6924 19.9864 39.9363 21.0628 39.8024C22.2424 39.6556 23.5075 39.0246 24.7525 38.0844C25.978 37.159 27.0448 36.0386 27.8187 35.1266C28.2017 34.6752 28.504 34.2871 28.7064 34.0156C28.8052 33.883 28.8804 33.777 28.9329 33.7027C28.9369 33.697 28.9412 33.6905 28.9478 33.6806L28.953 33.6721C30.3073 31.2901 32.0367 27.5058 32.8681 23.8615C33.2873 22.0236 33.4524 20.3245 33.2911 18.9087C33.1314 17.5084 32.6711 16.5172 31.95 15.8574ZM43.8106 49.4809L43.0719 48.8054L30.9066 37.6699C30.8941 37.6848 30.8827 37.7008 30.87 37.7158C29.9869 38.7565 28.7059 40.1123 27.1631 41.2774C25.6389 42.4282 23.7137 43.5036 21.5574 43.7722C19.2976 44.0532 16.9732 43.4201 14.869 41.4947C11.6298 38.5302 11.8222 34.2728 12.7989 30.7578C13.795 27.1733 15.7925 23.6059 17.2369 21.1728C18.7654 18.5984 21.3411 15.3231 24.2711 13.2247C25.7377 12.1745 27.4379 11.3145 29.2468 11.1106C31.1455 10.8966 33.0309 11.4256 34.6494 12.9056L34.6501 12.9062L34.947 13.1937C36.3808 14.6581 37.0489 16.5445 37.2668 18.4567C37.4976 20.4826 37.2419 22.6668 36.7663 24.7519C35.971 28.2376 34.4866 31.734 33.1549 34.3055L45.772 45.8542L46.51 46.5291L43.8106 49.4809Z" fill="#F6F8FA" stroke="black" stroke-width="2"/>
</svg>
