<svg width="96" height="96" viewBox="0 0 96 96" fill="none" xmlns="http://www.w3.org/2000/svg">
<rect x="1" y="1" width="94" height="94" rx="29" fill="#0B0B0D" stroke="#E7E7E7" stroke-width="2"/>
<path d="M49.5847 31.3352C50.5357 32.205 51.0682 33.4508 51.2461 35.0115C51.4248 36.5797 51.2357 38.3996 50.8022 40.2999C49.9392 44.0829 48.1557 47.9778 46.7666 50.4144C46.7538 50.4329 46.7356 50.4605 46.7108 50.4957C46.6571 50.5716 46.5758 50.6848 46.4692 50.8279C46.2556 51.1145 45.9408 51.5208 45.5423 51.9905C44.7413 52.9345 43.62 54.113 42.3149 55.0986C41.0002 56.0913 39.5701 56.8337 38.1458 57.0108C36.7734 57.1815 35.3214 56.8401 33.8535 55.4966C31.9087 53.7166 31.7601 50.9783 32.6495 47.7776C33.5295 44.6105 35.3399 41.3403 36.7765 38.9205C38.1711 36.5714 40.4904 33.6599 42.9781 31.8784C44.2212 30.9883 45.435 30.4326 46.5424 30.3078C47.6047 30.188 48.6229 30.4556 49.5847 31.3352Z" fill="#F6F8FA" stroke="black" stroke-width="2"/>
<path d="M55.095 49.782H66.8091" stroke="#F6F8FA" stroke-width="2"/>
<path d="M61.0956 43.7814V55.7826" stroke="#F6F8FA" stroke-width="2"/>
<path d="M48.91 32.0732C48.1671 31.394 47.4369 31.2134 46.6539 31.3017C45.7807 31.4003 44.7294 31.8561 43.5607 32.693C41.2207 34.3688 38.9871 37.1586 37.6372 39.4323C36.203 41.8481 34.4532 45.0177 33.612 48.045C32.753 51.1366 33.0134 53.3719 34.5284 54.7587C35.7844 55.9082 36.9464 56.1521 38.0228 56.0183C39.2024 55.8715 40.4675 55.2404 41.7126 54.3003C42.9381 53.3748 44.0049 52.2544 44.7787 51.3424C45.1618 50.891 45.4641 50.5029 45.6664 50.2314C45.7652 50.0988 45.8404 49.9928 45.893 49.9185C45.897 49.9128 45.9012 49.9063 45.9079 49.8964L45.913 49.8879C47.2674 47.506 48.9967 43.7216 49.8281 40.0774C50.2474 38.2394 50.4124 36.5404 50.2511 35.1245C50.0914 33.7243 49.6312 32.733 48.91 32.0732ZM60.7706 65.6967L60.0319 65.0212L47.8667 53.8857C47.8541 53.9006 47.8427 53.9166 47.83 53.9316C46.9469 54.9724 45.6659 56.3281 44.1231 57.4932C42.5989 58.644 40.6737 59.7195 38.5174 59.988C36.2576 60.269 33.9332 59.6359 31.829 57.7106C28.5898 54.746 28.7822 50.4886 29.7589 46.9736C30.755 43.3891 32.7525 39.8217 34.197 37.3886C35.7254 34.8142 38.3011 31.5389 41.2311 29.4405C42.6977 28.3903 44.3979 27.5303 46.2068 27.3264C48.1055 27.1124 49.9909 27.6415 51.6094 29.1214L51.6101 29.1221L51.907 29.4095C53.3408 30.8739 54.0089 32.7603 54.2269 34.6725C54.4576 36.6984 54.202 38.8826 53.7263 40.9677C52.931 44.4534 51.4467 47.9498 50.1149 50.5214L62.732 62.07L63.47 62.7449L60.7706 65.6967Z" fill="#F6F8FA" stroke="black" stroke-width="2"/>
</svg>
