<svg width="96" height="96" viewBox="0 0 96 96" fill="none" xmlns="http://www.w3.org/2000/svg">
<rect x="1" y="1" width="94" height="94" rx="29" fill="#0B0B0D" stroke="#E7E7E7" stroke-width="2"/>
<path d="M50.184 31.835C51.1351 32.7047 51.6675 33.9507 51.8454 35.5114C52.0241 37.0794 51.835 38.8996 51.4015 40.7997C50.5386 44.582 48.7554 48.4759 47.3665 50.9121C47.3537 50.9306 47.3355 50.9582 47.3107 50.9934C47.257 51.0693 47.1757 51.1826 47.0691 51.3256C46.8555 51.6122 46.5407 52.0186 46.1422 52.4882C45.3412 53.4322 44.2199 54.6108 42.9148 55.5963C41.6002 56.5889 40.1704 57.3307 38.7464 57.5078C37.3742 57.6784 35.9224 57.3375 34.4547 55.9943C32.5101 54.2145 32.3622 51.4763 33.2515 48.2759C34.1314 45.1093 35.9407 41.8398 37.3772 39.4202C38.7717 37.0714 41.0912 34.1595 43.5788 32.3782C44.8217 31.4882 46.0352 30.9331 47.1424 30.8082C48.2046 30.6885 49.2223 30.9556 50.184 31.835Z" fill="#F6F8FA" stroke="black" stroke-width="2"/>
<path d="M49.3712 32.4522C48.6759 31.8726 47.988 31.7182 47.2539 31.8009C46.3808 31.8995 45.3299 32.3561 44.1613 33.1929C41.8215 34.8686 39.587 37.658 38.2372 39.9315C36.8032 42.347 35.0551 45.5166 34.214 48.5435C33.3551 51.6348 33.6148 53.8699 35.1297 55.2565C36.3855 56.4059 37.5478 56.6499 38.6241 56.516C39.8034 56.3692 41.0683 55.7373 42.3131 54.7974C43.5384 53.8721 44.6049 52.7521 45.3786 51.8403C45.7617 51.3888 46.064 51.0007 46.2663 50.7292C46.3651 50.5966 46.4404 50.4906 46.4929 50.4163C46.4969 50.4107 46.5011 50.4042 46.5078 50.3943L46.5129 50.3857C47.8671 48.0041 49.5954 44.2204 50.4267 40.5766C50.846 38.7387 51.0124 37.0395 50.8511 35.6237C50.6914 34.224 50.2309 33.2335 49.51 32.5738L49.3712 32.4522ZM61.3691 66.1933L60.6304 65.5178L48.4666 54.3836C48.454 54.3985 48.4426 54.4145 48.4299 54.4295L48.0802 54.8335C47.2223 55.8061 46.0729 56.9717 44.723 57.991C43.1991 59.1416 41.2745 60.2158 39.1187 60.4844L39.118 60.4851C36.8583 60.7661 34.5336 60.133 32.4296 58.2077C29.1911 55.2436 29.3838 50.9873 30.3603 47.4728L30.3609 47.4721C31.357 43.8879 33.354 40.3206 34.7983 37.8878C36.3267 35.3136 38.902 32.0385 41.8318 29.9404C43.2981 28.8904 44.9976 28.0304 46.8061 27.8263L46.8068 27.8256C48.7054 27.6117 50.591 28.142 52.2094 29.622L52.5063 29.9094C53.9401 31.3738 54.6075 33.2597 54.8254 35.1718C55.0562 37.1975 54.8011 39.3814 54.3255 41.4663C53.5304 44.9515 52.0464 48.4479 50.7148 51.0192L63.3305 62.5666L64.0684 63.2414L61.3691 66.1933Z" fill="#F6F8FA" stroke="black" stroke-width="2"/>
</svg>
