<svg width="64" height="64" viewBox="0 0 64 64" fill="none" xmlns="http://www.w3.org/2000/svg">
<rect x="1" y="1" width="62" height="62" rx="29" fill="#0B0B0D" stroke="#E7E7E7" stroke-width="2"/>
<path d="M34.184 15.835C35.1351 16.7047 35.6675 17.9507 35.8454 19.5114C36.0241 21.0794 35.835 22.8996 35.4015 24.7997C34.5386 28.582 32.7554 32.4759 31.3665 34.9121C31.3537 34.9306 31.3355 34.9582 31.3107 34.9934C31.257 35.0693 31.1757 35.1826 31.0691 35.3256C30.8555 35.6122 30.5407 36.0186 30.1422 36.4882C29.3412 37.4322 28.2199 38.6108 26.9148 39.5963C25.6002 40.5889 24.1704 41.3307 22.7464 41.5078C21.3742 41.6784 19.9224 41.3375 18.4547 39.9943C16.5101 38.2145 16.3622 35.4763 17.2515 32.2759C18.1314 29.1093 19.9407 25.8398 21.3772 23.4202C22.7717 21.0714 25.0912 18.1595 27.5788 16.3782C28.8217 15.4882 30.0352 14.9331 31.1424 14.8082C32.2046 14.6885 33.2223 14.9556 34.184 15.835Z" fill="#F6F8FA" stroke="black" stroke-width="2"/>
<path d="M33.3712 16.4522C32.6759 15.8726 31.988 15.7182 31.2539 15.8009C30.3808 15.8995 29.3299 16.3561 28.1613 17.1929C25.8215 18.8686 23.587 21.658 22.2372 23.9315C20.8032 26.347 19.0551 29.5166 18.214 32.5435C17.3551 35.6348 17.6148 37.8699 19.1297 39.2565C20.3855 40.4059 21.5478 40.6499 22.6241 40.516C23.8034 40.3692 25.0683 39.7373 26.3131 38.7974C27.5384 37.8721 28.6049 36.7521 29.3786 35.8403C29.7617 35.3888 30.064 35.0007 30.2663 34.7292C30.3651 34.5966 30.4404 34.4906 30.4929 34.4163C30.4969 34.4107 30.5011 34.4042 30.5078 34.3943L30.5129 34.3857C31.8671 32.0041 33.5954 28.2204 34.4267 24.5766C34.846 22.7387 35.0124 21.0395 34.8511 19.6237C34.6914 18.224 34.2309 17.2335 33.51 16.5738L33.3712 16.4522ZM45.3691 50.1933L44.6304 49.5178L32.4666 38.3836C32.454 38.3985 32.4426 38.4145 32.4299 38.4295L32.0802 38.8335C31.2223 39.8061 30.0729 40.9717 28.723 41.991C27.1991 43.1416 25.2745 44.2158 23.1187 44.4844L23.118 44.4851C20.8583 44.7661 18.5336 44.133 16.4296 42.2077C13.1911 39.2436 13.3838 34.9873 14.3603 31.4728L14.3609 31.4721C15.357 27.8879 17.354 24.3206 18.7983 21.8878C20.3267 19.3136 22.902 16.0385 25.8318 13.9404C27.2981 12.8904 28.9976 12.0304 30.8061 11.8263L30.8068 11.8256C32.7054 11.6117 34.591 12.142 36.2094 13.622L36.5063 13.9094C37.9401 15.3738 38.6075 17.2597 38.8254 19.1718C39.0562 21.1975 38.8011 23.3814 38.3255 25.4663C37.5304 28.9515 36.0464 32.4479 34.7148 35.0192L47.3305 46.5666L48.0684 47.2414L45.3691 50.1933Z" fill="#F6F8FA" stroke="black" stroke-width="2"/>
</svg>
