<svg width="96" height="96" viewBox="0 0 96 96" fill="none" xmlns="http://www.w3.org/2000/svg">
<rect x="1" y="1" width="94" height="94" rx="29" fill="#0B0B0D" stroke="#E7E7E7" stroke-width="2"/>
<path d="M65.1372 21.0469L31.6372 79.0706" stroke="#F6F8FA" stroke-width="2"/>
<path d="M56.1362 28.6362C49.964 25.3844 44.9968 23.6529 44.4104 24.6685C43.7201 25.8642 49.3641 30.4153 57.0168 34.8336C64.6695 39.2518 71.4329 41.8642 72.1232 40.6685C72.7018 39.6664 68.8316 36.3079 63.0588 32.6459" stroke="#F6F8FA" stroke-width="2"/>
<path d="M48.645 41.6118C40.5444 37.2465 33.9257 34.8289 33.1964 36.0922C32.368 37.5271 39.451 43.1674 49.0169 48.6903C58.5828 54.2131 67.009 57.5271 67.8374 56.0922C68.5594 54.8416 63.272 50.3967 55.5689 45.6191" stroke="#F6F8FA" stroke-width="2"/>
<path d="M40.6482 55.4625C29.637 49.4779 20.3791 46.2918 19.25 48.2475C18.0073 50.3998 27.081 57.9649 39.5166 65.1446C51.9523 72.3243 63.0407 76.3998 64.2833 74.2475C65.404 72.3063 58.1332 65.9622 47.5727 59.469" stroke="#F6F8FA" stroke-width="2"/>
<circle cx="66.6279" cy="18.4641" r="3" transform="rotate(30 66.6279 18.4641)" fill="#F6F8FA" stroke="#F6F8FA" stroke-width="2"/>
</svg>
