<svg width="96" height="96" viewBox="0 0 96 96" fill="none" xmlns="http://www.w3.org/2000/svg">
<rect x="1" y="1" width="94" height="94" rx="29" fill="#0B0B0D" stroke="#E7E7E7" stroke-width="2"/>
<path d="M45.9863 57.6944C45.9863 57.6944 44.5956 57.8131 43.7184 57.9781C42.8411 58.1431 41.5153 58.6068 41.5153 58.6068C41.5153 58.6068 41.3276 57.229 41.1626 56.3518C40.9976 55.4746 40.6029 54.1358 40.6029 54.1358M56.2653 33.1193C56.2653 33.1193 57.656 33.0005 58.5332 32.8355C59.4104 32.6705 60.7363 32.2069 60.7363 32.2069C60.7363 32.2069 60.924 33.5846 61.089 34.4618C61.254 35.339 61.6487 36.6779 61.6487 36.6779M41.6605 58.423L46.7421 49.6973C46.7421 49.6973 39.0782 39.3297 44.8734 36.5914C50.6686 33.8531 54.4933 40.9462 54.4933 40.9462L60.4743 32.753" stroke="#F6F8FA" stroke-width="2"/>
<path d="M32.4366 46.5992C32.4366 46.5992 32.3665 45.2051 32.2322 44.3227C32.0979 43.4403 31.6808 42.099 31.6808 42.099C31.6808 42.099 33.0643 41.9595 33.9467 41.8252C34.8292 41.6909 36.181 41.3432 36.181 41.3432M56.6381 57.7295C56.6381 57.7295 56.7082 59.1236 56.8425 60.006C56.9768 60.8884 57.3939 62.2297 57.3939 62.2297C57.3939 62.2297 56.0104 62.3692 55.128 62.5035C54.2455 62.6378 52.8938 62.9855 52.8938 62.9855M31.8594 42.2506L40.4025 47.6336C40.4025 47.6336 51.0312 40.3362 53.5656 46.2234C56.1 52.1107 48.8778 55.6854 48.8778 55.6854L56.8572 61.9488" stroke="#F6F8FA" stroke-width="2"/>
</svg>
