<svg width="64" height="64" viewBox="0 0 64 64" fill="none" xmlns="http://www.w3.org/2000/svg">
<rect x="1" y="1" width="62" height="62" rx="29" fill="#0B0B0D" stroke="#E7E7E7" stroke-width="2"/>
<path d="M29.9863 41.6944C29.9863 41.6944 28.5956 41.8131 27.7184 41.9781C26.8411 42.1431 25.5153 42.6068 25.5153 42.6068C25.5153 42.6068 25.3276 41.229 25.1626 40.3518C24.9976 39.4746 24.6029 38.1358 24.6029 38.1358M40.2653 17.1193C40.2653 17.1193 41.656 17.0005 42.5332 16.8355C43.4104 16.6705 44.7363 16.2069 44.7363 16.2069C44.7363 16.2069 44.924 17.5846 45.089 18.4618C45.254 19.339 45.6487 20.6779 45.6487 20.6779M25.6605 42.423L30.7421 33.6973C30.7421 33.6973 23.0782 23.3297 28.8734 20.5914C34.6686 17.8531 38.4933 24.9462 38.4933 24.9462L44.4743 16.753" stroke="#F6F8FA" stroke-width="2"/>
<path d="M16.4366 30.5992C16.4366 30.5992 16.3665 29.2051 16.2322 28.3227C16.0979 27.4403 15.6808 26.099 15.6808 26.099C15.6808 26.099 17.0643 25.9595 17.9467 25.8252C18.8292 25.6909 20.181 25.3432 20.181 25.3432M40.6381 41.7295C40.6381 41.7295 40.7082 43.1236 40.8425 44.006C40.9768 44.8884 41.3939 46.2297 41.3939 46.2297C41.3939 46.2297 40.0104 46.3692 39.128 46.5035C38.2455 46.6378 36.8938 46.9855 36.8938 46.9855M15.8594 26.2506L24.4025 31.6336C24.4025 31.6336 35.0312 24.3362 37.5656 30.2234C40.1 36.1107 32.8778 39.6854 32.8778 39.6854L40.8572 45.9488" stroke="#F6F8FA" stroke-width="2"/>
</svg>
