<svg width="64" height="64" viewBox="0 0 64 64" fill="none" xmlns="http://www.w3.org/2000/svg">
<rect x="1" y="1" width="62" height="62" rx="7" fill="#484A55" stroke="#E7E7E7" stroke-width="2"/>
<path d="M29.2069 41.4153C29.2069 41.4153 27.8161 41.5341 26.9389 41.6991C26.0617 41.8641 24.7359 42.3277 24.7359 42.3277C24.7359 42.3277 24.5481 40.95 24.3831 40.0728C24.2182 39.1956 23.8235 37.8567 23.8235 37.8567M39.4859 16.8402C39.4859 16.8402 40.8766 16.7215 41.7538 16.5565C42.631 16.3915 43.9569 15.9278 43.9569 15.9278C43.9569 15.9278 44.1446 17.3056 44.3096 18.1828C44.4746 19.06 44.8693 20.3988 44.8693 20.3988M24.8811 42.144L29.9626 33.4182C29.9626 33.4182 22.2988 23.0507 28.094 20.3124C33.8892 17.5741 37.7138 24.6671 37.7138 24.6671L43.6949 16.474" stroke="#8C94A6" stroke-width="2"/>
<path d="M15.6572 30.3201C15.6572 30.3201 15.5871 28.9261 15.4528 28.0436C15.3185 27.1612 14.9014 25.82 14.9014 25.82C14.9014 25.82 16.2849 25.6805 17.1673 25.5462C18.0497 25.4119 19.4015 25.0642 19.4015 25.0642M39.8586 41.4505C39.8586 41.4505 39.9288 42.8445 40.0631 43.727C40.1973 44.6094 40.6144 45.9506 40.6144 45.9506C40.6144 45.9506 39.231 46.0901 38.3485 46.2244C37.4661 46.3587 36.1143 46.7064 36.1143 46.7064M15.08 25.9715L23.6231 31.3545C23.6231 31.3545 34.2518 24.0572 36.7862 29.9444C39.3206 35.8316 32.0984 39.4064 32.0984 39.4064L40.0778 45.6697" stroke="#8C94A6" stroke-width="2"/>
</svg>
