<svg width="96" height="96" viewBox="0 0 96 96" fill="none" xmlns="http://www.w3.org/2000/svg">
<rect x="0.5" y="0.5" width="95" height="95" rx="7.5" fill="#484A55" stroke="#E7E7E7"/>
<path d="M45.2069 57.4153C45.2069 57.4153 43.8161 57.5341 42.9389 57.6991C42.0617 57.8641 40.7359 58.3277 40.7359 58.3277C40.7359 58.3277 40.5481 56.95 40.3831 56.0728C40.2182 55.1956 39.8235 53.8567 39.8235 53.8567M55.4859 32.8402C55.4859 32.8402 56.8766 32.7215 57.7538 32.5565C58.631 32.3915 59.9569 31.9278 59.9569 31.9278C59.9569 31.9278 60.1446 33.3056 60.3096 34.1828C60.4746 35.06 60.8693 36.3988 60.8693 36.3988M40.8811 58.144L45.9626 49.4182C45.9626 49.4182 38.2988 39.0507 44.094 36.3124C49.8892 33.5741 53.7138 40.6671 53.7138 40.6671L59.6949 32.474" stroke="#8C94A6" stroke-width="2"/>
<path d="M31.6572 46.3201C31.6572 46.3201 31.5871 44.9261 31.4528 44.0436C31.3185 43.1612 30.9014 41.82 30.9014 41.82C30.9014 41.82 32.2849 41.6805 33.1673 41.5462C34.0497 41.4119 35.4015 41.0642 35.4015 41.0642M55.8586 57.4505C55.8586 57.4505 55.9288 58.8445 56.0631 59.727C56.1973 60.6094 56.6144 61.9506 56.6144 61.9506C56.6144 61.9506 55.231 62.0901 54.3485 62.2244C53.4661 62.3587 52.1143 62.7064 52.1143 62.7064M31.08 41.9715L39.6231 47.3545C39.6231 47.3545 50.2518 40.0572 52.7862 45.9444C55.3206 51.8316 48.0984 55.4064 48.0984 55.4064L56.0778 61.6697" stroke="#8C94A6" stroke-width="2"/>
</svg>
