<svg width="96" height="96" viewBox="0 0 96 96" fill="none" xmlns="http://www.w3.org/2000/svg">
<rect x="1" y="1" width="94" height="94" rx="29" fill="#EFF2F5" stroke="#484A55" stroke-width="2"/>
<path d="M45.6364 57.3443C45.6364 57.3443 44.2457 57.463 43.3685 57.628C42.4913 57.793 41.1654 58.2567 41.1654 58.2567C41.1654 58.2567 40.9777 56.8789 40.8127 56.0017C40.6477 55.1245 40.253 53.7857 40.253 53.7857M55.9154 32.7692C55.9154 32.7692 57.3062 32.6504 58.1834 32.4854C59.0606 32.3204 60.3864 31.8568 60.3864 31.8568C60.3864 31.8568 60.5742 33.2345 60.7392 34.1117C60.9042 34.9889 61.2988 36.3278 61.2988 36.3278M41.3106 58.0729L46.3922 49.3472C46.3922 49.3472 38.7284 38.9796 44.5236 36.2413C50.3187 33.503 54.1434 40.5961 54.1434 40.5961L60.1244 32.4029" stroke="#0B0B0D" stroke-width="2"/>
<path d="M32.0868 46.2491C32.0868 46.2491 32.0167 44.855 31.8824 43.9726C31.7481 43.0902 31.331 41.7489 31.331 41.7489C31.331 41.7489 32.7144 41.6094 33.5969 41.4751C34.4793 41.3408 35.8311 40.9931 35.8311 40.9931M56.2882 57.3795C56.2882 57.3795 56.3583 58.7735 56.4926 59.6559C56.6269 60.5383 57.044 61.8796 57.044 61.8796C57.044 61.8796 55.6605 62.0191 54.7781 62.1534C53.8957 62.2877 52.5439 62.6354 52.5439 62.6354M31.5095 41.9005L40.0526 47.2835C40.0526 47.2835 50.6814 39.9861 53.2157 45.8733C55.7501 51.7606 48.5279 55.3353 48.5279 55.3353L56.5073 61.5987" stroke="#0B0B0D" stroke-width="2"/>
</svg>
