<svg width="64" height="64" viewBox="0 0 64 64" fill="none" xmlns="http://www.w3.org/2000/svg">
<rect x="1" y="1" width="62" height="62" rx="7" fill="#EFF2F5" stroke="#484A55" stroke-width="2"/>
<path d="M29.6364 41.3443C29.6364 41.3443 28.2457 41.463 27.3685 41.628C26.4913 41.793 25.1654 42.2567 25.1654 42.2567C25.1654 42.2567 24.9777 40.8789 24.8127 40.0017C24.6477 39.1245 24.253 37.7857 24.253 37.7857M39.9154 16.7692C39.9154 16.7692 41.3062 16.6504 42.1834 16.4854C43.0606 16.3204 44.3864 15.8568 44.3864 15.8568C44.3864 15.8568 44.5742 17.2345 44.7392 18.1117C44.9042 18.9889 45.2988 20.3278 45.2988 20.3278M25.3106 42.0729L30.3922 33.3472C30.3922 33.3472 22.7284 22.9796 28.5236 20.2413C34.3187 17.503 38.1434 24.5961 38.1434 24.5961L44.1244 16.4029" stroke="#0B0B0D" stroke-width="2"/>
<path d="M16.0868 30.2491C16.0868 30.2491 16.0167 28.855 15.8824 27.9726C15.7481 27.0902 15.331 25.7489 15.331 25.7489C15.331 25.7489 16.7144 25.6094 17.5969 25.4751C18.4793 25.3408 19.8311 24.9931 19.8311 24.9931M40.2882 41.3795C40.2882 41.3795 40.3583 42.7735 40.4926 43.6559C40.6269 44.5383 41.044 45.8796 41.044 45.8796C41.044 45.8796 39.6605 46.0191 38.7781 46.1534C37.8957 46.2877 36.5439 46.6354 36.5439 46.6354M15.5095 25.9005L24.0526 31.2835C24.0526 31.2835 34.6814 23.9861 37.2157 29.8733C39.7501 35.7606 32.5279 39.3353 32.5279 39.3353L40.5073 45.5987" stroke="#0B0B0D" stroke-width="2"/>
</svg>
