<svg width="96" height="96" viewBox="0 0 96 96" fill="none" xmlns="http://www.w3.org/2000/svg">
<rect x="1" y="1" width="94" height="94" rx="7" fill="#0B0B0D" stroke="#E7E7E7" stroke-width="2"/>
<path d="M45.6523 33.9652C45.1082 34.0563 44.5918 33.6891 44.5 33.1449L43.8301 29.1664C43.7388 28.6225 44.1048 28.1064 44.6484 28.014C45.1924 27.9223 45.7081 28.2888 45.8008 28.8324L46.4727 32.8129C46.5642 33.3573 46.1968 33.8734 45.6523 33.9652Z" fill="#F6F8FA"/>
<path d="M50.5977 34.0082C50.0557 33.9052 49.6985 33.3825 49.8008 32.8402L50.5488 28.8754C50.6514 28.3332 51.1745 27.9766 51.7168 28.0785C52.2593 28.1808 52.6157 28.704 52.5137 29.2465L51.7656 33.2113C51.6632 33.754 51.1404 34.1105 50.5977 34.0082Z" fill="#F6F8FA"/>
<path d="M40.9883 35.6156C40.51 35.8914 39.8971 35.7286 39.6211 35.2504L37.6016 31.7445C37.3267 31.2663 37.4908 30.6549 37.9688 30.3793C38.4468 30.1041 39.058 30.2688 39.334 30.7465L41.3555 34.2504C41.6309 34.7285 41.4661 35.3396 40.9883 35.6156Z" fill="#F6F8FA"/>
<path d="M56.4961 35.3363C56.213 35.8102 55.5991 35.9648 55.125 35.682C54.6514 35.3988 54.4965 34.7849 54.7793 34.3109L56.8516 30.8363C57.1346 30.3628 57.7487 30.2083 58.2227 30.4906C58.6966 30.7736 58.851 31.3875 58.5684 31.8617L56.4961 35.3363Z" fill="#F6F8FA"/>
<path d="M37.2441 38.6957C36.8883 39.1177 36.2581 39.1722 35.8359 38.8168L32.7324 36.1996C32.3114 35.8435 32.258 35.2132 32.6133 34.7914C32.969 34.3698 33.5994 34.3156 34.0215 34.6703L37.125 37.2875C37.5469 37.6435 37.5999 38.2736 37.2441 38.6957Z" fill="#F6F8FA"/>
<path d="M60.3164 39.0258C59.8878 39.3741 59.2565 39.3079 58.9082 38.8793C58.5613 38.4507 58.6266 37.8209 59.0547 37.473L62.2051 34.9144C62.6335 34.5664 63.2629 34.631 63.6113 35.059C63.9595 35.4875 63.8933 36.1169 63.4648 36.4652L60.3164 39.0258Z" fill="#F6F8FA"/>
<path fill-rule="evenodd" clip-rule="evenodd" d="M48.1406 67.0004C38.7211 67.0002 31.0757 59.4021 31 50.0004L29 50.0004C28.4477 50.0004 28 49.5526 28 49.0004C28 48.4481 28.4477 48.0004 29 48.0004L35.1406 48.0004C35.1406 40.8208 40.9611 35.0006 48.1406 35.0004C55.3203 35.0004 61.1406 40.8207 61.1406 48.0004L67 48.0004C67.5523 48.0004 68 48.4481 68 49.0004C68 49.5527 67.5523 50.0004 67 50.0004L65.2813 50.0004C65.2056 59.4021 57.5603 67.0004 48.1406 67.0004ZM54 56.0004C55.1046 56.0004 56 55.1049 56 54.0004C56 52.8958 55.1046 52.0004 54 52.0004C52.8954 52.0004 52 52.8958 52 54.0004C52 55.1049 52.8954 56.0004 54 56.0004ZM42 60.0004C44.2091 60.0004 46 58.2095 46 56.0004C46 53.7912 44.2091 52.0004 42 52.0004C39.7909 52.0004 38 53.7912 38 56.0004C38 58.2095 39.7909 60.0004 42 60.0004ZM50 62.0004C51.1046 62.0004 52 61.1049 52 60.0004C52 58.8958 51.1046 58.0004 50 58.0004C48.8954 58.0004 48 58.8958 48 60.0004C48 61.1049 48.8954 62.0004 50 62.0004Z" fill="#F6F8FA"/>
<path d="M34.7598 42.889C34.5693 43.4075 33.993 43.6752 33.4746 43.4847L29.6543 42.0804C29.1367 41.8897 28.8705 41.3152 29.0605 40.7972C29.251 40.2795 29.8258 40.0138 30.3438 40.2035L34.1641 41.6058C34.6819 41.7961 34.949 42.371 34.7598 42.889Z" fill="#F6F8FA"/>
<path d="M62.5742 43.6722C62.0533 43.8543 61.4833 43.5798 61.3008 43.059C61.1191 42.5382 61.3935 41.9681 61.9141 41.7855L65.7559 40.4379C66.2763 40.256 66.8462 40.5312 67.0293 41.0511C67.212 41.5723 66.9372 42.1439 66.416 42.3265L62.5742 43.6722Z" fill="#F6F8FA"/>
</svg>
