<svg width="64" height="64" viewBox="0 0 64 64" fill="none" xmlns="http://www.w3.org/2000/svg">
<rect x="1" y="1" width="62" height="62" rx="7" fill="#0B0B0D" stroke="#E7E7E7" stroke-width="2"/>
<path d="M29.6523 17.9652C29.1082 18.0563 28.5918 17.6891 28.5 17.1449L27.8301 13.1664C27.7388 12.6225 28.1048 12.1064 28.6484 12.014C29.1924 11.9223 29.7081 12.2888 29.8008 12.8324L30.4727 16.8129C30.5642 17.3573 30.1968 17.8734 29.6523 17.9652Z" fill="#F6F8FA"/>
<path d="M34.5977 18.0082C34.0557 17.9052 33.6985 17.3825 33.8008 16.8402L34.5488 12.8754C34.6514 12.3332 35.1745 11.9766 35.7168 12.0785C36.2593 12.1808 36.6157 12.704 36.5137 13.2465L35.7656 17.2113C35.6632 17.754 35.1404 18.1105 34.5977 18.0082Z" fill="#F6F8FA"/>
<path d="M24.9883 19.6156C24.51 19.8914 23.8971 19.7286 23.6211 19.2504L21.6016 15.7445C21.3267 15.2663 21.4908 14.6549 21.9688 14.3793C22.4468 14.1041 23.058 14.2688 23.334 14.7465L25.3555 18.2504C25.6309 18.7285 25.4661 19.3396 24.9883 19.6156Z" fill="#F6F8FA"/>
<path d="M40.4961 19.3363C40.213 19.8102 39.5991 19.9648 39.125 19.682C38.6514 19.3988 38.4965 18.7849 38.7793 18.3109L40.8516 14.8363C41.1346 14.3628 41.7487 14.2083 42.2227 14.4906C42.6966 14.7736 42.851 15.3875 42.5684 15.8617L40.4961 19.3363Z" fill="#F6F8FA"/>
<path d="M21.2441 22.6957C20.8883 23.1177 20.2581 23.1722 19.8359 22.8168L16.7324 20.1996C16.3114 19.8435 16.258 19.2132 16.6133 18.7914C16.969 18.3698 17.5994 18.3156 18.0215 18.6703L21.125 21.2875C21.5469 21.6435 21.5999 22.2736 21.2441 22.6957Z" fill="#F6F8FA"/>
<path d="M44.3164 23.0258C43.8878 23.3741 43.2565 23.3079 42.9082 22.8793C42.5613 22.4507 42.6266 21.8209 43.0547 21.473L46.2051 18.9144C46.6335 18.5664 47.2629 18.631 47.6113 19.059C47.9595 19.4875 47.8933 20.1169 47.4648 20.4652L44.3164 23.0258Z" fill="#F6F8FA"/>
<path fill-rule="evenodd" clip-rule="evenodd" d="M32.1406 51.0004C22.7211 51.0002 15.0757 43.4021 15 34.0004L13 34.0004C12.4477 34.0004 12 33.5526 12 33.0004C12 32.4481 12.4477 32.0004 13 32.0004L19.1406 32.0004C19.1406 24.8208 24.9611 19.0006 32.1406 19.0004C39.3203 19.0004 45.1406 24.8207 45.1406 32.0004L51 32.0004C51.5523 32.0004 52 32.4481 52 33.0004C52 33.5527 51.5523 34.0004 51 34.0004L49.2813 34.0004C49.2056 43.4021 41.5603 51.0004 32.1406 51.0004ZM38 40.0004C39.1046 40.0004 40 39.1049 40 38.0004C40 36.8958 39.1046 36.0004 38 36.0004C36.8954 36.0004 36 36.8958 36 38.0004C36 39.1049 36.8954 40.0004 38 40.0004ZM26 44.0004C28.2091 44.0004 30 42.2095 30 40.0004C30 37.7912 28.2091 36.0004 26 36.0004C23.7909 36.0004 22 37.7912 22 40.0004C22 42.2095 23.7909 44.0004 26 44.0004ZM34 46.0004C35.1046 46.0004 36 45.1049 36 44.0004C36 42.8958 35.1046 42.0004 34 42.0004C32.8954 42.0004 32 42.8958 32 44.0004C32 45.1049 32.8954 46.0004 34 46.0004Z" fill="#F6F8FA"/>
<path d="M18.7598 26.889C18.5693 27.4075 17.993 27.6752 17.4746 27.4847L13.6543 26.0804C13.1367 25.8897 12.8705 25.3152 13.0605 24.7972C13.251 24.2795 13.8258 24.0138 14.3438 24.2035L18.1641 25.6058C18.6819 25.7961 18.949 26.371 18.7598 26.889Z" fill="#F6F8FA"/>
<path d="M46.5742 27.6722C46.0533 27.8543 45.4833 27.5798 45.3008 27.059C45.1191 26.5382 45.3935 25.9681 45.9141 25.7855L49.7559 24.4379C50.2763 24.256 50.8462 24.5312 51.0293 25.0511C51.212 25.5723 50.9372 26.1439 50.416 26.3265L46.5742 27.6722Z" fill="#F6F8FA"/>
</svg>
