<svg width="64" height="64" viewBox="0 0 64 64" fill="none" xmlns="http://www.w3.org/2000/svg">
<rect x="1" y="1" width="62" height="62" rx="7" fill="#484A55" stroke="#E7E7E7" stroke-width="2"/>
<path d="M36 34.5001C36 33.3959 36.8959 32.5006 38 32.5001C39.1046 32.5001 40 33.3956 40 34.5001C40 35.6047 39.1046 36.5001 38 36.5001C36.8959 36.4996 36 35.6044 36 34.5001Z" fill="#8C94A6"/>
<path d="M32 40.5001C32 39.3959 32.8959 38.5006 34 38.5001C35.1046 38.5001 36 39.3956 36 40.5001C36 41.6047 35.1046 42.5001 34 42.5001C32.8959 42.4996 32 41.6044 32 40.5001Z" fill="#8C94A6"/>
<path d="M22 36.5001C22 34.2913 23.7913 32.5006 26 32.5001C28.2091 32.5001 30 34.291 30 36.5001C30 38.7093 28.2091 40.5001 26 40.5001C23.7913 40.4996 22 38.7089 22 36.5001Z" fill="#8C94A6"/>
<path fill-rule="evenodd" clip-rule="evenodd" d="M12 29.5001C12 28.9482 12.4482 28.5006 13 28.5001H19.1426C19.1429 21.3207 24.9631 15.5001 32.1426 15.5001C39.3218 15.5005 45.1423 21.3209 45.1426 28.5001H51C51.5523 28.5001 52 28.9478 52 29.5001C52 30.0524 51.5523 30.5001 51 30.5001H49.2773C49.2017 39.9019 41.5602 47.5001 32.1406 47.5001C22.7215 47.4995 15.0776 39.9015 15.002 30.5001H13C12.4482 30.4996 12 30.0521 12 29.5001ZM17.002 30.5001C17.0776 38.7969 23.8261 45.4995 32.1406 45.5001C40.4557 45.5001 47.2017 38.7973 47.2773 30.5001L17.002 30.5001ZM43.1426 28.5001C43.1423 22.4255 38.2172 17.5005 32.1426 17.5001C26.0676 17.5001 21.1429 22.4253 21.1426 28.5001H43.1426Z" fill="#8C94A6"/>
<path d="M36 34.5001C36 33.3959 36.8959 32.5006 38 32.5001C39.1046 32.5001 40 33.3956 40 34.5001C40 35.6047 39.1046 36.5001 38 36.5001C36.8959 36.4996 36 35.6044 36 34.5001Z" stroke="#8C94A6"/>
<path d="M32 40.5001C32 39.3959 32.8959 38.5006 34 38.5001C35.1046 38.5001 36 39.3956 36 40.5001C36 41.6047 35.1046 42.5001 34 42.5001C32.8959 42.4996 32 41.6044 32 40.5001Z" stroke="#8C94A6"/>
<path d="M22 36.5001C22 34.2913 23.7913 32.5006 26 32.5001C28.2091 32.5001 30 34.291 30 36.5001C30 38.7093 28.2091 40.5001 26 40.5001C23.7913 40.4996 22 38.7089 22 36.5001Z" stroke="#8C94A6"/>
<path fill-rule="evenodd" clip-rule="evenodd" d="M12 29.5001C12 28.9482 12.4482 28.5006 13 28.5001H19.1426C19.1429 21.3207 24.9631 15.5001 32.1426 15.5001C39.3218 15.5005 45.1423 21.3209 45.1426 28.5001H51C51.5523 28.5001 52 28.9478 52 29.5001C52 30.0524 51.5523 30.5001 51 30.5001H49.2773C49.2017 39.9019 41.5602 47.5001 32.1406 47.5001C22.7215 47.4995 15.0776 39.9015 15.002 30.5001H13C12.4482 30.4996 12 30.0521 12 29.5001ZM17.002 30.5001C17.0776 38.7969 23.8261 45.4995 32.1406 45.5001C40.4557 45.5001 47.2017 38.7973 47.2773 30.5001L17.002 30.5001ZM43.1426 28.5001C43.1423 22.4255 38.2172 17.5005 32.1426 17.5001C26.0676 17.5001 21.1429 22.4253 21.1426 28.5001H43.1426Z" stroke="#8C94A6"/>
</svg>
