<svg width="96" height="96" viewBox="0 0 96 96" fill="none" xmlns="http://www.w3.org/2000/svg">
<rect x="1" y="1" width="94" height="94" rx="29" fill="#484A55" stroke="#E7E7E7" stroke-width="2"/>
<path d="M52 50.5001C52 49.3959 52.8959 48.5006 54 48.5001C55.1046 48.5001 56 49.3956 56 50.5001C56 51.6047 55.1046 52.5001 54 52.5001C52.8959 52.4996 52 51.6044 52 50.5001Z" fill="#8C94A6"/>
<path d="M48 56.5001C48 55.3959 48.8959 54.5006 50 54.5001C51.1046 54.5001 52 55.3956 52 56.5001C52 57.6047 51.1046 58.5001 50 58.5001C48.8959 58.4996 48 57.6044 48 56.5001Z" fill="#8C94A6"/>
<path d="M38 52.5001C38 50.2913 39.7913 48.5006 42 48.5001C44.2091 48.5001 46 50.291 46 52.5001C46 54.7093 44.2091 56.5001 42 56.5001C39.7913 56.4996 38 54.7089 38 52.5001Z" fill="#8C94A6"/>
<path fill-rule="evenodd" clip-rule="evenodd" d="M28 45.5001C28 44.9482 28.4482 44.5006 29 44.5001H35.1426C35.1429 37.3207 40.9631 31.5001 48.1426 31.5001C55.3218 31.5005 61.1423 37.3209 61.1426 44.5001H67C67.5523 44.5001 68 44.9478 68 45.5001C68 46.0524 67.5523 46.5001 67 46.5001H65.2773C65.2017 55.9019 57.5602 63.5001 48.1406 63.5001C38.7215 63.4995 31.0776 55.9015 31.002 46.5001H29C28.4482 46.4996 28 46.0521 28 45.5001ZM33.002 46.5001C33.0776 54.7969 39.8261 61.4995 48.1406 61.5001C56.4557 61.5001 63.2017 54.7973 63.2773 46.5001L33.002 46.5001ZM59.1426 44.5001C59.1423 38.4255 54.2172 33.5005 48.1426 33.5001C42.0676 33.5001 37.1429 38.4253 37.1426 44.5001H59.1426Z" fill="#8C94A6"/>
<path d="M52 50.5001C52 49.3959 52.8959 48.5006 54 48.5001C55.1046 48.5001 56 49.3956 56 50.5001C56 51.6047 55.1046 52.5001 54 52.5001C52.8959 52.4996 52 51.6044 52 50.5001Z" stroke="#8C94A6"/>
<path d="M48 56.5001C48 55.3959 48.8959 54.5006 50 54.5001C51.1046 54.5001 52 55.3956 52 56.5001C52 57.6047 51.1046 58.5001 50 58.5001C48.8959 58.4996 48 57.6044 48 56.5001Z" stroke="#8C94A6"/>
<path d="M38 52.5001C38 50.2913 39.7913 48.5006 42 48.5001C44.2091 48.5001 46 50.291 46 52.5001C46 54.7093 44.2091 56.5001 42 56.5001C39.7913 56.4996 38 54.7089 38 52.5001Z" stroke="#8C94A6"/>
<path fill-rule="evenodd" clip-rule="evenodd" d="M28 45.5001C28 44.9482 28.4482 44.5006 29 44.5001H35.1426C35.1429 37.3207 40.9631 31.5001 48.1426 31.5001C55.3218 31.5005 61.1423 37.3209 61.1426 44.5001H67C67.5523 44.5001 68 44.9478 68 45.5001C68 46.0524 67.5523 46.5001 67 46.5001H65.2773C65.2017 55.9019 57.5602 63.5001 48.1406 63.5001C38.7215 63.4995 31.0776 55.9015 31.002 46.5001H29C28.4482 46.4996 28 46.0521 28 45.5001ZM33.002 46.5001C33.0776 54.7969 39.8261 61.4995 48.1406 61.5001C56.4557 61.5001 63.2017 54.7973 63.2773 46.5001L33.002 46.5001ZM59.1426 44.5001C59.1423 38.4255 54.2172 33.5005 48.1426 33.5001C42.0676 33.5001 37.1429 38.4253 37.1426 44.5001H59.1426Z" stroke="#8C94A6"/>
</svg>
