<svg width="64" height="64" viewBox="0 0 64 64" fill="none" xmlns="http://www.w3.org/2000/svg">
<rect x="1" y="1" width="62" height="62" rx="7" fill="#EFF2F5" stroke="#484A55" stroke-width="2"/>
<path d="M35.9993 37.9998C35.9993 36.8955 36.8951 36.0003 37.9993 35.9998C39.1038 35.9998 39.9993 36.8952 39.9993 37.9998C39.9993 39.1043 39.1038 39.9998 37.9993 39.9998C36.8951 39.9992 35.9993 39.104 35.9993 37.9998Z" fill="#0B0B0D"/>
<path d="M31.9993 43.9998C31.9993 42.8955 32.8951 42.0003 33.9993 41.9998C35.1038 41.9998 35.9993 42.8952 35.9993 43.9998C35.9993 45.1043 35.1038 45.9998 33.9993 45.9998C32.8951 45.9992 31.9993 45.104 31.9993 43.9998Z" fill="#0B0B0D"/>
<path d="M21.9993 39.9998C21.9993 37.791 23.7906 36.0003 25.9993 35.9998C28.2084 35.9998 29.9993 37.7906 29.9993 39.9998C29.9993 42.2089 28.2084 43.9998 25.9993 43.9998C23.7906 43.9992 21.9993 42.2086 21.9993 39.9998Z" fill="#0B0B0D"/>
<path fill-rule="evenodd" clip-rule="evenodd" d="M11.9993 32.9998C11.9993 32.4478 12.4474 32.0003 12.9993 31.9998H19.1418C19.1422 24.8203 24.9623 18.9998 32.1418 18.9998C39.321 19.0001 45.1415 24.8206 45.1418 31.9998H50.9993C51.5516 31.9998 51.9993 32.4475 51.9993 32.9998C51.9993 33.5521 51.5516 33.9998 50.9993 33.9998H49.2766C49.2009 43.4015 41.5595 50.9998 32.1399 50.9998C22.7208 50.9991 15.0769 43.4012 15.0012 33.9998H12.9993C12.4474 33.9992 11.9993 33.5517 11.9993 32.9998ZM17.0012 33.9998C17.0768 42.2966 23.8254 48.9991 32.1399 48.9998C40.4549 48.9998 47.201 42.297 47.2766 33.9998L17.0012 33.9998ZM43.1418 31.9998C43.1415 25.9251 38.2165 21.0001 32.1418 20.9998C26.0669 20.9998 21.1422 25.9249 21.1418 31.9998H43.1418Z" fill="#0B0B0D"/>
<path d="M46.0247 28.3416C45.8364 27.823 46.1038 27.2493 46.6223 27.0603L50.6575 25.5896C51.1761 25.401 51.7515 25.6688 51.9407 26.1873C52.1287 26.7056 51.861 27.2794 51.343 27.4685L47.3079 28.9392C46.7892 29.1283 46.214 28.8601 46.0247 28.3416Z" fill="#0B0B0D"/>
<path d="M43.511 23.7517C43.1548 23.33 43.2085 22.698 43.6301 22.3416L46.9407 19.5447C47.3624 19.1894 47.9927 19.2426 48.3489 19.6638C48.7046 20.0855 48.6508 20.7157 48.2297 21.072L44.9211 23.8689C44.4995 24.2251 43.8675 24.1731 43.511 23.7517Z" fill="#0B0B0D"/>
<path d="M39.5266 20.2302C39.0477 19.9555 38.8811 19.344 39.1555 18.865L41.3333 15.0681C41.6084 14.5901 42.2199 14.4245 42.6985 14.699C43.177 14.9738 43.3419 15.5854 43.0676 16.0642L40.8899 19.8611C40.6149 20.3386 40.005 20.5038 39.5266 20.2302Z" fill="#0B0B0D"/>
<path d="M33.9407 17.2224L34.7258 12.8884C34.8247 12.3455 35.3449 11.9835 35.8879 12.0818C36.4308 12.1806 36.7927 12.7029 36.6946 13.2459L35.9075 17.5779C35.8087 18.1207 35.2883 18.4825 34.7454 18.3845C34.2023 18.286 33.8427 17.7655 33.9407 17.2224Z" fill="#0B0B0D"/>
<path d="M27.6672 13.1599C27.5791 12.615 27.9485 12.1019 28.4934 12.0134C29.0381 11.9254 29.5512 12.295 29.6399 12.8396L30.3469 17.1873C30.4349 17.732 30.0634 18.247 29.5188 18.3357C28.974 18.4239 28.461 18.0523 28.3723 17.5076L27.6672 13.1599Z" fill="#0B0B0D"/>
<path d="M21.1086 15.9392C20.8412 15.4564 21.0166 14.8477 21.4993 14.5799C21.982 14.3126 22.5907 14.4862 22.8586 14.9685L24.9817 18.7966C25.2488 19.279 25.0746 19.8878 24.593 20.156C24.1102 20.4237 23.4997 20.2499 23.2317 19.7674L21.1086 15.9392Z" fill="#0B0B0D"/>
<path d="M15.9778 20.783C15.5627 20.4189 15.5201 19.7861 15.884 19.3709C16.2483 18.9563 16.8811 18.9152 17.2961 19.2791L20.5559 22.1384C20.9699 22.5026 21.011 23.1337 20.6477 23.5486C20.2837 23.9635 19.6527 24.004 19.2375 23.6404L15.9778 20.783Z" fill="#0B0B0D"/>
<path d="M12.7297 27.199C12.2145 27.0017 11.9569 26.4235 12.1536 25.908C12.3512 25.3931 12.9292 25.1349 13.4446 25.3318L17.4583 26.865C17.9734 27.0623 18.2328 27.6406 18.0364 28.156C17.8393 28.6713 17.2609 28.9284 16.7454 28.7322L12.7297 27.199Z" fill="#0B0B0D"/>
</svg>
