<svg width="96" height="96" viewBox="0 0 96 96" fill="none" xmlns="http://www.w3.org/2000/svg">
<rect x="1" y="1" width="94" height="94" rx="7" fill="#EFF2F5" stroke="#484A55" stroke-width="2"/>
<path d="M51.9993 53.9998C51.9993 52.8955 52.8951 52.0003 53.9993 51.9998C55.1038 51.9998 55.9993 52.8952 55.9993 53.9998C55.9993 55.1043 55.1038 55.9998 53.9993 55.9998C52.8951 55.9992 51.9993 55.104 51.9993 53.9998Z" fill="#0B0B0D"/>
<path d="M47.9993 59.9998C47.9993 58.8955 48.8951 58.0003 49.9993 57.9998C51.1038 57.9998 51.9993 58.8952 51.9993 59.9998C51.9993 61.1043 51.1038 61.9998 49.9993 61.9998C48.8951 61.9992 47.9993 61.104 47.9993 59.9998Z" fill="#0B0B0D"/>
<path d="M37.9993 55.9998C37.9993 53.791 39.7906 52.0003 41.9993 51.9998C44.2084 51.9998 45.9993 53.7906 45.9993 55.9998C45.9993 58.2089 44.2084 59.9998 41.9993 59.9998C39.7906 59.9992 37.9993 58.2086 37.9993 55.9998Z" fill="#0B0B0D"/>
<path fill-rule="evenodd" clip-rule="evenodd" d="M27.9993 48.9998C27.9993 48.4478 28.4474 48.0003 28.9993 47.9998H35.1418C35.1422 40.8203 40.9623 34.9998 48.1418 34.9998C55.321 35.0001 61.1415 40.8206 61.1418 47.9998H66.9993C67.5516 47.9998 67.9993 48.4475 67.9993 48.9998C67.9993 49.5521 67.5516 49.9998 66.9993 49.9998H65.2766C65.2009 59.4015 57.5595 66.9998 48.1399 66.9998C38.7208 66.9991 31.0769 59.4012 31.0012 49.9998H28.9993C28.4474 49.9992 27.9993 49.5517 27.9993 48.9998ZM33.0012 49.9998C33.0768 58.2966 39.8254 64.9991 48.1399 64.9998C56.4549 64.9998 63.201 58.297 63.2766 49.9998L33.0012 49.9998ZM59.1418 47.9998C59.1415 41.9251 54.2165 37.0001 48.1418 36.9998C42.0669 36.9998 37.1422 41.9249 37.1418 47.9998H59.1418Z" fill="#0B0B0D"/>
<path d="M62.0247 44.3416C61.8364 43.823 62.1038 43.2493 62.6223 43.0603L66.6575 41.5896C67.1761 41.401 67.7515 41.6688 67.9407 42.1873C68.1287 42.7056 67.861 43.2794 67.343 43.4685L63.3079 44.9392C62.7892 45.1283 62.214 44.8601 62.0247 44.3416Z" fill="#0B0B0D"/>
<path d="M59.511 39.7517C59.1548 39.33 59.2085 38.698 59.6301 38.3416L62.9407 35.5447C63.3624 35.1894 63.9927 35.2426 64.3489 35.6638C64.7046 36.0855 64.6508 36.7157 64.2297 37.072L60.9211 39.8689C60.4995 40.2251 59.8675 40.1731 59.511 39.7517Z" fill="#0B0B0D"/>
<path d="M55.5266 36.2302C55.0477 35.9555 54.8811 35.344 55.1555 34.865L57.3333 31.0681C57.6084 30.5901 58.2199 30.4245 58.6985 30.699C59.177 30.9738 59.3419 31.5854 59.0676 32.0642L56.8899 35.8611C56.6149 36.3386 56.005 36.5038 55.5266 36.2302Z" fill="#0B0B0D"/>
<path d="M49.9407 33.2224L50.7258 28.8884C50.8247 28.3455 51.3449 27.9835 51.8879 28.0818C52.4308 28.1806 52.7927 28.7029 52.6946 29.2459L51.9075 33.5779C51.8087 34.1207 51.2883 34.4825 50.7454 34.3845C50.2023 34.286 49.8427 33.7655 49.9407 33.2224Z" fill="#0B0B0D"/>
<path d="M43.6672 29.1599C43.5791 28.615 43.9485 28.1019 44.4934 28.0134C45.0381 27.9254 45.5512 28.295 45.6399 28.8396L46.3469 33.1873C46.4349 33.732 46.0634 34.247 45.5188 34.3357C44.974 34.4239 44.461 34.0523 44.3723 33.5076L43.6672 29.1599Z" fill="#0B0B0D"/>
<path d="M37.1086 31.9392C36.8412 31.4564 37.0166 30.8477 37.4993 30.5799C37.982 30.3126 38.5907 30.4862 38.8586 30.9685L40.9817 34.7966C41.2488 35.279 41.0746 35.8878 40.593 36.156C40.1102 36.4237 39.4997 36.2499 39.2317 35.7674L37.1086 31.9392Z" fill="#0B0B0D"/>
<path d="M31.9778 36.783C31.5627 36.4189 31.5201 35.7861 31.884 35.3709C32.2483 34.9563 32.8811 34.9152 33.2961 35.2791L36.5559 38.1384C36.9699 38.5026 37.011 39.1337 36.6477 39.5486C36.2837 39.9635 35.6527 40.004 35.2375 39.6404L31.9778 36.783Z" fill="#0B0B0D"/>
<path d="M28.7297 43.199C28.2145 43.0017 27.9569 42.4235 28.1536 41.908C28.3512 41.3931 28.9292 41.1349 29.4446 41.3318L33.4583 42.865C33.9734 43.0623 34.2328 43.6406 34.0364 44.156C33.8393 44.6713 33.2609 44.9284 32.7454 44.7322L28.7297 43.199Z" fill="#0B0B0D"/>
</svg>
