<svg width="67" height="87" viewBox="0 0 67 87" fill="none" xmlns="http://www.w3.org/2000/svg">
<path d="M33.25 0.625C51.2683 0.625 65.875 15.2317 65.875 33.25C65.875 48.4698 57.763 61.6126 49.7227 70.9092C45.6964 75.5645 41.6716 79.2746 38.6533 81.8213C37.1437 83.095 35.884 84.0789 35.001 84.7451C34.5598 85.0779 34.2126 85.3319 33.9746 85.5029C33.8556 85.5885 33.7635 85.6535 33.7012 85.6973C33.67 85.7191 33.6461 85.7358 33.6299 85.7471C33.6219 85.7526 33.6156 85.7568 33.6113 85.7598C33.6093 85.7612 33.6076 85.7629 33.6064 85.7637L33.6045 85.7646L33.25 86.0088L32.8955 85.7646L32.8936 85.7637C32.8924 85.7629 32.8907 85.7612 32.8887 85.7598C32.8844 85.7568 32.8781 85.7526 32.8701 85.7471C32.8539 85.7358 32.83 85.7191 32.7988 85.6973C32.7365 85.6535 32.6444 85.5885 32.5254 85.5029C32.2874 85.3319 31.9402 85.0779 31.499 84.7451C30.616 84.0789 29.3563 83.095 27.8467 81.8213C24.8284 79.2746 20.8036 75.5645 16.7773 70.9092C8.73704 61.6126 0.625 48.4698 0.625 33.25C0.625 15.2317 15.2317 0.625 33.25 0.625Z" fill="#0B0B0D" stroke="#484A55" stroke-width="1.25"/>
<path d="M23.25 39.25V51.25M35.25 45.25V51.25M33.25 45.25H49.85C50.2415 45.2445 50.6227 45.1242 50.9464 44.9041C51.2702 44.684 51.5222 44.3737 51.6713 44.0117C51.8203 43.6497 51.8599 43.2519 51.785 42.8676C51.7101 42.4834 51.5241 42.1295 51.25 41.85L45.25 35.25H45.85C46.2415 35.2445 46.6227 35.1242 46.9464 34.9041C47.2702 34.684 47.5222 34.3737 47.6713 34.0117C47.8203 33.6497 47.8599 33.2519 47.785 32.8676C47.7101 32.4834 47.5241 32.1295 47.25 31.85L41.25 25.25H41.65C42.0585 25.2869 42.4685 25.1972 42.8243 24.9932C43.1802 24.7893 43.4647 24.4808 43.6393 24.1097C43.814 23.7386 43.8703 23.3227 43.8007 22.9185C43.731 22.5143 43.5388 22.1413 43.25 21.85L35.25 13.25L32.45 16.25M29.25 27.25V27.65C30.5617 28.1544 31.6546 29.1032 32.3384 30.331C33.0221 31.5587 33.2532 32.9875 32.9913 34.3682C32.7295 35.7489 31.9913 36.9938 30.9055 37.886C29.8197 38.7781 28.4553 39.2609 27.05 39.25H19.25C17.8615 39.2155 16.5281 38.7003 15.477 37.7924C14.426 36.8844 13.7225 35.64 13.4865 34.2713C13.2505 32.9026 13.4967 31.4944 14.183 30.287C14.8693 29.0795 15.9533 28.1475 17.25 27.65V27.25C17.25 25.6587 17.8821 24.1326 19.0074 23.0074C20.1326 21.8821 21.6587 21.25 23.25 21.25C24.8413 21.25 26.3674 21.8821 27.4926 23.0074C28.6179 24.1326 29.25 25.6587 29.25 27.25Z" stroke="#F6F8FA" stroke-width="2" stroke-linecap="round" stroke-linejoin="round"/>
</svg>
