<svg width="67" height="87" viewBox="0 0 67 87" fill="none" xmlns="http://www.w3.org/2000/svg">
<path d="M33.25 0.625C51.2683 0.625 65.875 15.2317 65.875 33.25C65.875 48.4698 57.763 61.6126 49.7227 70.9092C45.6964 75.5645 41.6716 79.2746 38.6533 81.8213C37.1437 83.095 35.884 84.0789 35.001 84.7451C34.5598 85.0779 34.2126 85.3319 33.9746 85.5029C33.8556 85.5885 33.7635 85.6535 33.7012 85.6973C33.67 85.7191 33.6461 85.7358 33.6299 85.7471C33.6219 85.7526 33.6156 85.7568 33.6113 85.7598C33.6093 85.7612 33.6076 85.7629 33.6064 85.7637L33.6045 85.7646L33.25 86.0088L32.8955 85.7646L32.8936 85.7637C32.8924 85.7629 32.8907 85.7612 32.8887 85.7598C32.8844 85.7568 32.8781 85.7526 32.8701 85.7471C32.8539 85.7358 32.83 85.7191 32.7988 85.6973C32.7365 85.6535 32.6444 85.5885 32.5254 85.5029C32.2874 85.3319 31.9402 85.0779 31.499 84.7451C30.616 84.0789 29.3563 83.095 27.8467 81.8213C24.8284 79.2746 20.8036 75.5645 16.7773 70.9092C8.73704 61.6126 0.625 48.4698 0.625 33.25C0.625 15.2317 15.2317 0.625 33.25 0.625Z" fill="#0B0B0D" stroke="#484A55" stroke-width="1.25"/>
<path d="M39.25 51.25V41.25C39.25 40.7196 39.0393 40.2109 38.6642 39.8358C38.2891 39.4607 37.7804 39.25 37.25 39.25H29.25C28.7196 39.25 28.2109 39.4607 27.8358 39.8358C27.4607 40.2109 27.25 40.7196 27.25 41.25V51.25M44.798 29.87C44.3811 29.4709 43.8262 29.2481 43.249 29.2481C42.6718 29.2481 42.1169 29.4709 41.7 29.87C40.77 30.757 39.5342 31.2519 38.249 31.2519C36.9638 31.2519 35.728 30.757 34.798 29.87C34.3812 29.4715 33.8267 29.249 33.25 29.249C32.6733 29.249 32.1188 29.4715 31.702 29.87C30.7719 30.7576 29.5357 31.2529 28.25 31.2529C26.9643 31.2529 25.7281 30.7576 24.798 29.87C24.3811 29.4709 23.8262 29.2481 23.249 29.2481C22.6718 29.2481 22.1169 29.4709 21.7 29.87C20.8017 30.7272 19.6165 31.2195 18.3753 31.2511C17.134 31.2827 15.9253 30.8512 14.9846 30.0408C14.0439 29.2303 13.4384 28.0988 13.286 26.8665C13.1335 25.6342 13.4451 24.3892 14.16 23.374L19.938 15.006C20.3046 14.465 20.7982 14.0221 21.3756 13.716C21.9529 13.4099 22.5965 13.2499 23.25 13.25H43.25C43.9016 13.2498 44.5434 13.4087 45.1195 13.713C45.6957 14.0173 46.1888 14.4577 46.556 14.996L52.346 23.38C53.0611 24.3961 53.3722 25.6419 53.2188 26.8749C53.0655 28.1078 52.4585 29.2395 51.5163 30.0494C50.5741 30.8593 49.3641 31.2894 48.1222 31.2558C46.8802 31.2223 45.6951 30.7275 44.798 29.868M17.25 31.15V47.25C17.25 48.3109 17.6714 49.3283 18.4216 50.0784C19.1717 50.8286 20.1891 51.25 21.25 51.25H45.25C46.3109 51.25 47.3283 50.8286 48.0784 50.0784C48.8286 49.3283 49.25 48.3109 49.25 47.25V31.15" stroke="#F6F8FA" stroke-width="2" stroke-linecap="round" stroke-linejoin="round"/>
</svg>
