<svg width="67" height="67" viewBox="0 0 67 67" fill="none" xmlns="http://www.w3.org/2000/svg">
<circle cx="33.25" cy="33.25" r="32.625" fill="#0B0B0D" stroke="#484A55" stroke-width="1.25"/>
<path d="M29.5834 51.5833V24.0833C29.5834 23.5971 29.3902 23.1307 29.0464 22.7869C28.7026 22.4431 28.2363 22.25 27.75 22.25H18.5834C17.6109 22.25 16.6783 22.6363 15.9906 23.3239C15.303 24.0115 14.9167 24.9442 14.9167 25.9166V47.9166C14.9167 48.8891 15.303 49.8217 15.9906 50.5093C16.6783 51.197 17.6109 51.5833 18.5834 51.5833H40.5834C41.5558 51.5833 42.4884 51.197 43.1761 50.5093C43.8637 49.8217 44.25 48.8891 44.25 47.9166V38.75C44.25 38.2637 44.0569 37.7974 43.713 37.4536C43.3692 37.1098 42.9029 36.9166 42.4167 36.9166H14.9167M38.75 14.9166H49.75C50.7625 14.9166 51.5834 15.7374 51.5834 16.75V27.75C51.5834 28.7625 50.7625 29.5833 49.75 29.5833H38.75C37.7375 29.5833 36.9167 28.7625 36.9167 27.75V16.75C36.9167 15.7374 37.7375 14.9166 38.75 14.9166Z" stroke="#F6F8FA" stroke-width="2" stroke-linecap="round" stroke-linejoin="round"/>
</svg>
