<svg width="67" height="67" viewBox="0 0 67 67" fill="none" xmlns="http://www.w3.org/2000/svg">
<circle cx="33.25" cy="33.25" r="32.625" fill="#0B0B0D" stroke="#484A55" stroke-width="1.25"/>
<path d="M33.25 53.25C27.9457 53.25 22.8586 51.1429 19.1079 47.3921C15.3571 43.6414 13.25 38.5543 13.25 33.25C13.25 27.9457 15.3571 22.8586 19.1079 19.1079C22.8586 15.3571 27.9457 13.25 33.25 13.25C38.5543 13.25 43.6414 15.1464 47.3921 18.5221C51.1429 21.8977 53.25 26.4761 53.25 31.25C53.25 33.9022 52.1964 36.4457 50.3211 38.3211C48.4457 40.1964 45.9022 41.25 43.25 41.25H38.75C38.1 41.25 37.4629 41.431 36.9099 41.7727C36.357 42.1144 35.9102 42.6034 35.6195 43.1848C35.3288 43.7661 35.2058 44.417 35.2641 45.0643C35.3225 45.7117 35.56 46.33 35.95 46.85L36.55 47.65C36.94 48.17 37.1775 48.7883 37.2359 49.4357C37.2942 50.083 37.1712 50.7339 36.8805 51.3152C36.5898 51.8966 36.143 52.3856 35.5901 52.7273C35.0371 53.069 34.4 53.25 33.75 53.25H33.25Z" stroke="#F6F8FA" stroke-width="2" stroke-linecap="round" stroke-linejoin="round"/>
<path d="M36.25 23.25C36.8023 23.25 37.25 22.8023 37.25 22.25C37.25 21.6977 36.8023 21.25 36.25 21.25C35.6977 21.25 35.25 21.6977 35.25 22.25C35.25 22.8023 35.6977 23.25 36.25 23.25Z" stroke="#F6F8FA" stroke-width="2" stroke-linecap="round" stroke-linejoin="round"/>
<path d="M44.25 31.25C44.8023 31.25 45.25 30.8023 45.25 30.25C45.25 29.6977 44.8023 29.25 44.25 29.25C43.6977 29.25 43.25 29.6977 43.25 30.25C43.25 30.8023 43.6977 31.25 44.25 31.25Z" stroke="#F6F8FA" stroke-width="2" stroke-linecap="round" stroke-linejoin="round"/>
<path d="M22.25 35.25C22.8023 35.25 23.25 34.8023 23.25 34.25C23.25 33.6977 22.8023 33.25 22.25 33.25C21.6977 33.25 21.25 33.6977 21.25 34.25C21.25 34.8023 21.6977 35.25 22.25 35.25Z" stroke="#F6F8FA" stroke-width="2" stroke-linecap="round" stroke-linejoin="round"/>
<path d="M26.25 25.25C26.8023 25.25 27.25 24.8023 27.25 24.25C27.25 23.6977 26.8023 23.25 26.25 23.25C25.6977 23.25 25.25 23.6977 25.25 24.25C25.25 24.8023 25.6977 25.25 26.25 25.25Z" stroke="#F6F8FA" stroke-width="2" stroke-linecap="round" stroke-linejoin="round"/>
</svg>
