<svg width="128" height="128" viewBox="0 0 128 128" fill="none" xmlns="http://www.w3.org/2000/svg">
<g clip-path="url(#clip0_562_1227)">
<circle cx="64" cy="64" r="62" fill="#0B0B0D" stroke="#F6F8FA" stroke-width="4"/>
<path fill-rule="evenodd" clip-rule="evenodd" d="M68.8187 41.6671L65.3395 32H64.2852L60.5581 41.6671H39.2478L37.5977 71.8667L48.8283 72.1344L39.9204 95.1903L42.016 96L51.2146 72.1915L69.195 72.6194L70.5621 83.4934L72.7915 83.2125L72.7718 83.0534L71.4661 72.6742L77.3557 72.8146L85.9784 95.9868L88.0849 95.2035L79.775 72.8717L90.4022 73.1251V41.6671H68.8187ZM70.0102 46.055L69.6635 46.0275C68.9523 45.9889 68.26 46.0617 67.6052 46.2305C68.3225 46.7988 68.9374 47.488 69.4199 48.2658C69.4601 48.2669 69.5013 48.2691 69.5417 48.2713C72.0313 48.407 73.9394 50.5355 73.8042 53.0253C73.6685 55.5148 71.5408 57.4227 69.0513 57.2878C69.0109 57.2856 68.9706 57.2833 68.9306 57.2801C68.3665 58.0012 67.6811 58.6206 66.9063 59.108C67.435 59.3074 67.9965 59.4424 68.5817 59.5041L68.9295 59.5315C72.5418 59.7274 75.6456 57.0513 76.0205 53.4938L76.0479 53.1471C76.2441 49.5345 73.5679 46.4299 70.0102 46.055ZM63.0761 45.6688L63.4228 45.6973C64.4857 45.8093 65.4701 46.1644 66.3226 46.7045C67.0349 47.1558 67.6554 47.7364 68.1527 48.4106C69.0522 49.6302 69.5491 51.1581 69.4605 52.7894L69.4331 53.1361C69.2759 54.6276 68.6392 55.9642 67.6864 56.9992C67.1189 57.6156 66.439 58.1254 65.6819 58.4969C64.6781 58.9893 63.5378 59.2387 62.3421 59.1738L61.9943 59.1464C58.5514 58.7836 55.9333 55.8651 55.9456 52.4032L55.9555 52.0554C56.1581 48.3261 59.3468 45.4662 63.0761 45.6688ZM53.1423 66.0234C55.5413 65.8628 57.033 63.2667 55.8907 61.0928L50.4016 50.6466L42.3166 66.0311H52.9064L53.1423 66.0234ZM84.7923 57.2318L79.8704 65.2686L82.4093 66.9791C82.9235 67.3259 83.0598 68.0248 82.7132 68.5392C82.3664 69.0534 81.6685 69.1886 81.1541 68.8421L76.8313 65.9302L80.4004 60.0987L71.1787 65.8292C70.6517 66.1562 69.9601 65.9939 69.6328 65.4672C69.3056 64.9401 69.4668 64.2475 69.9937 63.9202L83.242 55.6914L84.7923 57.2318Z" fill="white"/>
<path fill-rule="evenodd" clip-rule="evenodd" d="M58.1992 52.1772C58.3345 49.6871 60.4642 47.7772 62.9543 47.9125C63.4342 47.9386 63.893 48.0396 64.3192 48.2021C65.0467 48.4797 65.6805 48.9392 66.169 49.522C66.8788 50.369 67.2815 51.4772 67.2168 52.6676C67.1519 53.8574 66.6325 54.9146 65.8355 55.6793C65.2865 56.206 64.6055 56.5937 63.8518 56.7908C63.4105 56.9061 62.9437 56.9561 62.4639 56.9301C59.9741 56.7947 58.0642 54.667 58.1992 52.1772Z" fill="white"/>
<path fill-rule="evenodd" clip-rule="evenodd" d="M52.9064 63.7841H46.036L50.4005 55.4764L53.9016 62.1384C54.2942 62.8863 53.7513 63.7839 52.9064 63.7841Z" fill="white"/>
</g>
<defs>
<clipPath id="clip0_562_1227">
<rect width="128" height="128" fill="white"/>
</clipPath>
</defs>
</svg>
