<svg width="128" height="128" viewBox="0 0 128 128" fill="none" xmlns="http://www.w3.org/2000/svg">
<g clip-path="url(#clip0_562_1219)">
<circle cx="64" cy="64" r="62" fill="#0B0B0D" stroke="#F6F8FA" stroke-width="4"/>
<path fill-rule="evenodd" clip-rule="evenodd" d="M42.8047 72.8685C43.5763 73.1925 44.4174 73.391 45.302 73.4369L45.6989 73.4476C48.2343 73.4475 50.4775 72.1877 51.7964 70.2647C53.046 72.0832 55.1246 73.3169 57.5116 73.4381L57.9 73.4476C60.4412 73.4475 62.6809 72.186 64 70.2686C65.3191 72.186 67.5588 73.4475 70.1 73.4476C72.6488 73.4476 74.8863 72.1809 76.2032 70.2649C77.5225 72.1877 79.7659 73.4475 82.3011 73.4476C83.3312 73.4476 84.309 73.2409 85.1952 72.8687V92.3429C85.1952 94.3626 83.5206 96 81.4549 96H70.2339V79.5429H57.7661V96H46.5451C44.4794 96 42.8047 94.3626 42.8047 92.3429V72.8685ZM58.437 32H56.4718C56.5694 32.1595 56.6627 32.3176 56.7507 32.4714C57.0129 32.9302 57.2486 33.3896 57.4227 33.7881L57.4544 33.8614L57.4861 33.7881C57.6602 33.3896 57.896 32.9302 58.1582 32.4714C58.2461 32.3176 58.3394 32.1595 58.437 32ZM54.5737 33.6619C54.2139 33.0324 53.8102 32.4262 53.4641 32H48.9769C48.6308 32.4262 48.2271 33.0324 47.8674 33.6619C47.6363 34.0663 47.4432 34.4455 47.3121 34.7452C47.2469 34.8945 47.2043 35.0096 47.1794 35.0881L47.1825 35.1029C47.1867 35.1234 47.192 35.1494 47.2014 35.181C47.2338 35.2906 47.2872 35.433 47.3657 35.6083C47.5239 35.9612 47.7506 36.3785 48.0159 36.831C48.1959 37.138 48.4059 37.4799 48.6156 37.8214C48.8018 38.1245 48.9877 38.4273 49.1522 38.7048H53.2889C53.4533 38.4273 53.6392 38.1245 53.8254 37.8214C54.0351 37.4799 54.2451 37.138 54.4251 36.831C54.6904 36.3785 54.9172 35.9612 55.0753 35.6083C55.1539 35.433 55.2072 35.2906 55.2397 35.181C55.249 35.1494 55.2543 35.1234 55.2585 35.1029L55.2616 35.0881C55.2367 35.0096 55.1941 34.8945 55.1289 34.7452C54.9978 34.4455 54.8048 34.0663 54.5737 33.6619ZM82.7017 32C82.9194 32 83.1328 32.0182 83.3403 32.0531C83.2544 32.1946 83.1719 32.3347 83.0937 32.4714C82.8315 32.9302 82.5958 33.3896 82.4217 33.7881L82.39 33.8614L82.3583 33.7881C82.1842 33.3896 81.9484 32.9302 81.6862 32.4714C81.5983 32.3176 81.505 32.1595 81.4074 32H82.7017ZM82.295 36.5869C82.3265 36.5166 82.3585 36.4429 82.39 36.3664C82.4215 36.4429 82.4535 36.5166 82.485 36.5869C82.6969 37.0599 82.9768 37.5663 83.2569 38.044C83.3925 38.2754 83.5251 38.4957 83.6525 38.7048H81.1275C81.2549 38.4957 81.3874 38.2754 81.5231 38.044C81.8032 37.5663 82.0831 37.0599 82.295 36.5869ZM72.8029 33.6619C73.1627 33.0324 73.5664 32.4262 73.9125 32H78.3997C78.7458 32.4262 79.1495 33.0324 79.5093 33.6619C79.7404 34.0663 79.9334 34.4455 80.0645 34.7452C80.1297 34.8945 80.1723 35.0096 80.1972 35.0881L80.1941 35.1029C80.1899 35.1234 80.1846 35.1494 80.1753 35.181C80.1428 35.2906 80.0894 35.433 80.0109 35.6083C79.8528 35.9612 79.626 36.3785 79.3607 36.831C79.1807 37.1379 78.9704 37.4804 78.7607 37.8219L78.6971 37.9254C78.5326 38.1935 78.3701 38.459 78.2245 38.7048H74.0877C73.9234 38.4274 73.7373 38.1244 73.5512 37.8214C73.3415 37.4799 73.1315 37.1379 72.9515 36.831C72.6862 36.3785 72.4594 35.9612 72.3013 35.6083C72.2228 35.433 72.1694 35.2906 72.1369 35.181C72.1276 35.1494 72.1223 35.1234 72.1181 35.1029L72.115 35.0881C72.1399 35.0096 72.1825 34.8945 72.2477 34.7452C72.3788 34.4455 72.5718 34.0663 72.8029 33.6619ZM70.7891 38.044C70.9247 38.2754 71.0573 38.4957 71.1847 38.7048H68.6597C68.7871 38.4957 68.9197 38.2754 69.0553 38.044C69.3354 37.5663 69.6153 37.0599 69.8272 36.5869C69.8587 36.5166 69.8907 36.4429 69.9222 36.3664C69.9537 36.4429 69.9857 36.5166 70.0172 36.5869C70.2291 37.0599 70.509 37.5663 70.7891 38.044ZM69.2184 32.4714C69.1305 32.3176 69.0372 32.1595 68.9396 32H70.9048C70.8072 32.1595 70.7139 32.3176 70.626 32.4714C70.3638 32.9302 70.128 33.3896 69.9539 33.7881L69.9222 33.8614L69.8905 33.7881C69.7164 33.3896 69.4806 32.9302 69.2184 32.4714ZM60.3351 33.6619C60.6949 33.0324 61.0986 32.4262 61.4447 32H65.9319C66.278 32.4262 66.6817 33.0324 67.0415 33.6619C67.2726 34.0663 67.4656 34.4455 67.5967 34.7452C67.6619 34.8945 67.7045 35.0096 67.7294 35.0881L67.7263 35.1029C67.7221 35.1234 67.7168 35.1494 67.7075 35.181C67.675 35.2906 67.6216 35.433 67.5431 35.6083C67.385 35.9612 67.1582 36.3785 66.8929 36.831C66.7129 37.138 66.5029 37.4799 66.2932 37.8214C66.107 38.1245 65.9211 38.4273 65.7566 38.7048H61.62C61.4555 38.4273 61.2696 38.1245 61.0834 37.8214C60.8737 37.4799 60.6637 37.138 60.4837 36.831C60.2184 36.3785 59.9917 35.9612 59.8335 35.6083C59.755 35.433 59.7016 35.2906 59.6691 35.181C59.6598 35.1494 59.6545 35.1234 59.6503 35.1029L59.6472 35.0881C59.6721 35.0096 59.7147 34.8945 59.7799 34.7452C59.911 34.4455 60.104 34.0663 60.3351 33.6619ZM85.2707 33.6619C85.3506 33.5222 85.4326 33.3836 85.5157 33.2479C86.0925 33.8913 86.442 34.7343 86.442 35.6571V38.5147C86.3079 38.2917 86.1631 38.056 86.0188 37.821L85.9999 37.7903L85.9796 37.7573C85.7833 37.4375 85.5878 37.1184 85.4193 36.831C85.154 36.3785 84.9272 35.9612 84.7691 35.6083C84.6905 35.433 84.6372 35.2906 84.6047 35.181C84.5954 35.1494 84.5901 35.1234 84.5859 35.1029L84.5828 35.0881C84.6077 35.0096 84.6503 34.8945 84.7155 34.7452C84.8466 34.4455 85.0396 34.0663 85.2707 33.6619ZM40.9346 35.6571C40.9346 34.7343 41.2842 33.8913 41.8609 33.2479C41.944 33.3836 42.026 33.5222 42.1059 33.6619C42.337 34.0663 42.5301 34.4455 42.6611 34.7452C42.7263 34.8945 42.7689 35.0096 42.7938 35.0881L42.7907 35.1029C42.7865 35.1234 42.7812 35.1494 42.7719 35.181C42.7394 35.2906 42.6861 35.433 42.6075 35.6083C42.4494 35.9612 42.2226 36.3785 41.9573 36.831C41.7774 37.1379 41.5674 37.4798 41.3577 37.8212C41.2133 38.0564 41.0688 38.2916 40.9346 38.5147V35.6571ZM44.0363 32.0531C44.1223 32.1946 44.2047 32.3347 44.2829 32.4714C44.5451 32.9302 44.7808 33.3896 44.955 33.7881L44.9866 33.8614L45.0183 33.7881C45.1924 33.3896 45.4282 32.9302 45.6904 32.4714C45.7783 32.3176 45.8716 32.1595 45.9693 32H44.6749C44.4572 32 44.2439 32.0182 44.0363 32.0531ZM93.8618 71.0095C91.6921 71.0095 89.8913 69.3697 89.7367 67.2536L87.8739 41.7524H88.9137C90.0269 41.7524 91.0063 42.4737 91.3123 43.5202L97.8384 65.8548C98.5932 68.4379 96.6094 71.0093 93.8618 71.0095ZM70.1 71.0095C72.8484 71.0095 75.0488 68.7797 74.9507 66.094L74.0619 41.7524H65.2468V66.2643C65.247 68.8849 67.4197 71.0093 70.1 71.0095ZM62.7532 66.2643V41.7524H53.9381L53.0493 66.094C52.9512 68.7797 55.1516 71.0095 57.9 71.0095C60.5803 71.0093 62.753 68.8849 62.7532 66.2643ZM58.7169 38.7048C58.5895 38.4957 58.4569 38.2754 58.3213 38.044C58.0412 37.5663 57.7613 37.0599 57.5494 36.5869C57.5179 36.5166 57.4859 36.4429 57.4544 36.3664C57.4229 36.4429 57.3909 36.5166 57.3594 36.5869C57.1475 37.0599 56.8676 37.5663 56.5875 38.044C56.4519 38.2754 56.3193 38.4957 56.1919 38.7048H58.7169ZM45.6989 71.0095C48.3069 71.0093 50.4468 68.9901 50.5399 66.4417L51.4409 41.7524H42.6331L40.8664 65.9357C40.6663 68.6775 42.8876 71.0095 45.6989 71.0095ZM46.2491 38.7048H43.7241C43.8515 38.4957 43.9841 38.2754 44.1197 38.044C44.3998 37.5663 44.6797 37.0599 44.8916 36.5869C44.9231 36.5166 44.9551 36.4429 44.9866 36.3664C45.0181 36.4429 45.0501 36.5166 45.0816 36.5869C45.2935 37.0599 45.5734 37.5663 45.8535 38.044C45.9892 38.2754 46.1217 38.4957 46.2491 38.7048ZM30.1616 65.8548C29.4068 68.4379 31.3906 71.0093 34.1382 71.0095C36.3079 71.0095 38.1087 69.3697 38.2633 67.2536L40.1261 41.7524H39.0863C37.9731 41.7524 36.9937 42.4737 36.6877 43.5202L30.1616 65.8548ZM82.3011 71.0095C85.1124 71.0095 87.3337 68.6775 87.1336 65.9357L85.3669 41.7524H76.5591L77.4601 66.4417C77.5532 68.9901 79.6931 71.0093 82.3011 71.0095Z" fill="#F6F8FA"/>
</g>
<defs>
<clipPath id="clip0_562_1219">
<rect width="128" height="128" fill="white"/>
</clipPath>
</defs>
</svg>
