<svg width="128" height="128" viewBox="0 0 128 128" fill="none" xmlns="http://www.w3.org/2000/svg">
<g clip-path="url(#clip0_562_1221)">
<circle cx="64" cy="64" r="62" fill="#0B0B0D" stroke="#F6F8FA" stroke-width="4"/>
<path fill-rule="evenodd" clip-rule="evenodd" d="M64.1427 87.6251C64.5803 86.7897 64.9491 85.8819 65.225 84.8969C65.6977 83.2094 65.8976 81.2954 65.7031 79.1303C65.3328 75.009 64.3224 71.2249 62.9707 67.8422C62.4576 66.5582 61.8953 65.3319 61.3001 64.1671C58.0052 57.7185 53.7034 53.1511 51.1665 51.0626C48.9513 49.2389 45.6075 46.3605 42.6703 43.7181C41.662 42.811 40.6948 41.9237 39.8318 41.1122C39.4902 42.2465 39.0962 43.4985 38.6766 44.7882C37.4541 48.5452 35.9974 52.7099 34.9909 55.3969C33.0814 60.494 30.3787 73.9034 36.4357 86.9725C38.6635 91.7795 42.1751 94.1236 45.6205 95.1913C48.2489 96.0058 50.8326 96.0699 52.7213 95.8535C52.2402 94.356 51.7428 92.874 51.2305 91.3517L51.1276 91.0462C49.7288 86.8905 48.2204 82.4092 46.6321 76.4818C45.7681 73.2571 45.3259 70.5831 45.0063 68.2675C42.0163 68.1537 39.3211 66.1187 38.5061 63.077C37.5043 59.3383 39.7227 55.496 43.4614 54.4942C47.2 53.4925 51.0424 55.7108 52.0441 59.4495C52.999 63.0129 51.0275 66.668 47.6035 67.8705C47.9148 70.1318 48.3399 72.7009 49.1707 75.8016C50.7371 81.6477 52.2049 86.0086 53.5951 90.1391C53.9925 91.3196 54.3835 92.4813 54.7687 93.6535L55.5292 95.1746C57.3373 94.4712 59.8015 93.0628 61.8582 90.8405C62.7162 89.9133 63.5029 88.8466 64.1427 87.6251Z" fill="#F6F8FA"/>
<path fill-rule="evenodd" clip-rule="evenodd" d="M67.3039 86.9859C68.1712 84.6839 68.5997 81.9972 68.321 78.8951C67.8167 73.2825 66.2054 68.2675 64.1436 63.9834C67.4217 54.8328 73.3273 48.3766 76.4898 45.773C78.985 43.7186 82.2368 39.987 84.9076 36.7082C85.7201 35.7108 86.4966 34.7289 87.2055 33.8193C87.6068 35.1454 88.0673 36.6134 88.5535 38.1196C89.9845 42.553 91.6548 47.4091 92.6655 50.1072C94.5749 55.2044 97.2776 68.6138 91.2207 81.6829C88.9928 86.4899 85.4812 88.834 82.0358 89.9017C78.4903 91.0004 75.0262 90.7337 73.2394 90.2549C72.9908 90.1883 72.7161 90.1019 72.4206 89.9951C73.0617 88.4193 73.7204 86.864 74.4003 85.2587C76.1103 81.221 77.9542 76.8673 79.9874 71.0774C81.0936 67.9275 81.7373 65.2947 82.2316 63.01C85.2216 63.1234 88.0634 61.2987 89.1068 58.3275C90.3892 54.6756 88.4687 50.6761 84.8167 49.3936C81.1648 48.1112 77.1653 50.0318 75.8828 53.6837C74.6605 57.1644 76.349 60.9584 79.672 62.4172C79.1901 64.6483 78.5714 67.1778 77.5078 70.2066C75.5025 75.917 73.7081 80.1541 72.0086 84.1672C71.3388 85.7489 70.6837 87.2958 70.0362 88.8844C69.1491 88.3823 68.2129 87.752 67.3039 86.9859Z" fill="#F6F8FA"/>
</g>
<defs>
<clipPath id="clip0_562_1221">
<rect width="128" height="128" fill="white"/>
</clipPath>
</defs>
</svg>
