<svg width="128" height="128" viewBox="0 0 128 128" fill="none" xmlns="http://www.w3.org/2000/svg">
<g clip-path="url(#clip0_562_1216)">
<circle cx="64" cy="64" r="62" fill="#0B0B0D" stroke="#F6F8FA" stroke-width="4"/>
<path d="M63.7139 51.5312L86.0693 45.0645V61.6924L96 66.207V83.8623H41.3789V76.1377H38.0693V83.8623H32V60.1377H47.4482V44.1377L63.7139 51.5312ZM48.5518 82.7588H94.8965V66.9395L94.249 66.6465L48.5518 45.8945V82.7588ZM34.207 66.207V81.6553H35.8623V73.9307H43.5859V81.6553H47.4482V66.207H34.207ZM55.7246 75.0342V81.6553H49.6553V75.0342H55.7246ZM63.4482 75.0342V81.6553H56.8271V75.0342H63.4482ZM71.1729 75.0342V81.6553H64.5518V75.0342H71.1729ZM78.8965 75.0342V81.6553H72.2754V75.0342H78.8965ZM86.6211 75.0342V81.6553H80V75.0342H86.6211ZM93.793 75.0342V81.6553H87.7246V75.0342H93.793ZM55.7246 65.6553V73.9307H49.6553V65.6553H55.7246ZM63.4482 65.6553V73.9307H56.8271V65.6553H63.4482ZM71.1729 65.6553V73.9307H64.5518V65.6553H71.1729ZM78.8965 65.6553V73.9307H72.2754V65.6553H78.8965ZM86.6211 65.6553V73.9307H80V65.6553H86.6211ZM89.3984 65.6553L93.793 67.6514V73.9307H87.7246V65.6553H89.3984ZM55.7246 56.8271V64.5518H49.6553V56.8271H55.7246ZM63.4482 56.8271V64.5518H56.8271V56.8271H63.4482ZM69.958 56.8271L71.1729 57.3789V64.5518H64.5518V56.8271H69.958ZM78.8965 60.8867V64.5518H72.2754V57.8799L78.8965 60.8867ZM86.9678 64.5518H80V61.3877L86.9678 64.5518ZM33.1035 61.2412V64H34.9697L34.1631 62.3867L34.5439 61.2412H33.1035ZM35.708 61.2412L35.3545 62.3027L36.2031 64H37.7275L38.5352 62.3838L37.7734 61.2412H35.708ZM39.1006 61.2412L39.6318 62.0391L39.8096 62.3047L38.9619 64H41.4521L40.9199 63.2021L40.7842 63L41.2246 61.2412H39.1006ZM42.3623 61.2412L41.9727 62.793L42.7783 64H44.2588L44.6465 62.4473L43.8428 61.2412H42.3623ZM45.1689 61.2412L45.7002 62.0391L45.8359 62.2412L45.3965 64H47.4482V61.2412H45.1689ZM66.8027 52.9355L68.5928 53.749L82.207 50.0371V59.9375L83.8623 60.6895V48L66.8027 52.9355ZM55.7246 50.3633V55.7246H49.6553V47.6074L55.7246 50.3633ZM63.4482 53.8711V55.7246H56.8271V50.8652L63.4482 53.8711ZM67.5283 55.7246H64.5518V54.3721L67.5283 55.7246Z" fill="#F6F8FA"/>
</g>
<defs>
<clipPath id="clip0_562_1216">
<rect width="128" height="128" fill="white"/>
</clipPath>
</defs>
</svg>
