<svg width="128" height="128" viewBox="0 0 128 128" fill="none" xmlns="http://www.w3.org/2000/svg">
<g clip-path="url(#clip0_562_1217)">
<circle cx="64" cy="64" r="62" fill="#0B0B0D" stroke="#F6F8FA" stroke-width="4"/>
<path fill-rule="evenodd" clip-rule="evenodd" d="M60.0062 50.4831L60.0945 50.4047L60.1791 50.3298L60.2214 50.2926C60.3961 50.1392 60.5678 49.9915 60.7383 49.8506C61.4311 49.2781 62.104 48.8179 62.8709 48.5477C64.5646 48.2071 66.1278 48.4723 67.1835 49.1605C67.4526 49.336 67.6965 49.5433 67.9065 49.7853C68.2141 50.1398 68.4491 50.5687 68.5843 51.0812C68.7026 51.53 68.7444 52.0429 68.6913 52.6258C68.428 55.5163 67.3472 57.6098 65.449 59.465L62.5472 58.825L59.7309 62.6878C58.2615 63.1358 56.596 63.5118 54.9225 63.7457C53.2461 63.98 51.616 64.0634 50.2231 63.9496C48.7998 63.8333 47.7647 63.521 47.1559 63.0859C46.5888 62.6807 46.0131 62.166 45.4726 61.5858C45.1578 61.2479 44.8549 60.8877 44.5727 60.5141C44.4101 60.2987 44.2543 60.0789 44.107 59.8563C43.2467 58.5555 42.7859 57.3246 42.7857 56.4402C42.7857 55.615 43.1985 54.6717 44.0748 53.8012C44.944 52.9377 46.2096 52.2134 47.7256 51.8477C49.4933 51.4212 50.9263 51.8338 52.3881 52.3141L52.7818 52.444C53.2371 52.5937 53.7214 52.7472 54.2053 52.854C54.356 52.8873 54.5068 52.916 54.6566 52.9387C55.4704 53.0618 56.3503 53.0253 57.2359 52.5766C57.8724 52.254 58.4644 51.8121 59.0092 51.3563C59.2682 51.1396 59.5165 50.9197 59.7539 50.7081L60.0062 50.4831ZM52.2143 60.4C49.7683 60.4 47.7574 59.2146 47.5229 57.6973C47.5077 57.5995 47.5 57.5003 47.5 57.4C47.5 55.9722 49.0673 54.7774 51.1668 54.4743C51.5037 54.4257 51.8543 54.4 52.2143 54.4C54.8179 54.4 56.9286 55.7431 56.9286 57.4C56.9286 59.0569 54.8179 60.4 52.2143 60.4Z" fill="#F6F8FA"/>
<path fill-rule="evenodd" clip-rule="evenodd" d="M82.9555 59.6777L76.4935 53.9031L70.7431 60.6325L68.1359 60.0575C69.7513 58.1174 70.7679 55.8252 71.0392 52.8473C71.0802 52.3968 71.0819 51.9646 71.0473 51.5518C73.9047 52.2403 76.4471 53.37 78.5066 54.8078C80.5083 56.2054 82.0224 57.8667 82.9555 59.6777Z" fill="#F6F8FA"/>
<path fill-rule="evenodd" clip-rule="evenodd" d="M81.0676 62.9094L83.1725 60.1243C83.6762 61.2276 83.9671 62.3816 84.025 63.5616L81.0676 62.9094Z" fill="#F6F8FA"/>
<path fill-rule="evenodd" clip-rule="evenodd" d="M61.2608 64.7269L61.499 64.4011L63.6444 61.4574L64.1554 61.5711L84.2201 65.996L84.807 71.103L61.2608 64.7269Z" fill="#F6F8FA"/>
<path fill-rule="evenodd" clip-rule="evenodd" d="M61.2608 64.7269L61.499 64.4011L63.6444 61.4574L64.1554 61.5711L84.2201 65.996L84.807 71.103L61.2608 64.7269Z" fill="#F6F8FA"/>
<path fill-rule="evenodd" clip-rule="evenodd" d="M46.1343 66.2814L62.1981 70.6323L64.4441 68.0039L57.2715 66.0612L57.5158 65.7261C56.7629 65.8838 56 66.0177 55.2436 66.1234C53.4542 66.3735 51.645 66.4741 50.0344 66.3426C48.4546 66.2135 46.9207 65.8502 45.8024 65.0512C45.5871 64.8974 45.3727 64.7324 45.1603 64.5577C45.2491 65.9806 45.6769 67.3644 46.4078 68.6654L46.1343 66.2814Z" fill="#F6F8FA"/>
<path fill-rule="evenodd" clip-rule="evenodd" d="M58.1831 75.3309L60.5228 72.5929L48.8952 69.4431L49.4799 74.5513L70.0566 79.0899L71.9741 76.4614L72.4413 75.8181L71.5047 75.5631L70.1933 77.2984L58.1831 75.3309Z" fill="#F6F8FA"/>
<path fill-rule="evenodd" clip-rule="evenodd" d="M64.3648 71.7527L64.3729 71.7422L66.8152 68.7469L72.4917 70.2832L70.8481 72.4969L69.3772 74.4433L69.1816 74.7011L62.7455 73.6465L63.5419 72.716L64.3556 71.7633L64.3648 71.7527Z" fill="#F6F8FA"/>
<path fill-rule="evenodd" clip-rule="evenodd" d="M73.2653 61.3398L77.7782 62.3348L78.341 62.4578L80.0548 60.2781L76.7182 57.2969L73.2653 61.3398Z" fill="#F6F8FA"/>
<path fill-rule="evenodd" clip-rule="evenodd" d="M64 88C82.2254 88 97 77.2548 97 64C97 50.7452 82.2254 40 64 40C45.7746 40 31 50.7452 31 64C31 77.2548 45.7746 88 64 88ZM87.5678 74.2669L81.1962 72.5412C79.538 74.1101 77.4347 75.4357 75.0163 76.4269L71.1549 81.7233L47.3022 76.4629L46.6945 71.1648C44.9576 69.0547 43.9643 66.6084 43.9643 64C43.9643 63.8208 43.969 63.6425 43.9783 63.4649C43.3048 62.7704 42.6804 61.9964 42.1515 61.1969C41.2457 59.8273 40.5244 58.2365 40.4378 56.7379L40.4286 56.4391C40.4288 54.7959 41.2347 53.2697 42.4289 52.0832C43.6303 50.8898 45.2882 49.9691 47.1823 49.5121C49.6305 48.9215 51.6085 49.5361 53.112 50.0301L53.2732 50.0831C53.975 50.3142 54.5074 50.4894 55.003 50.5645C55.4939 50.6387 55.853 50.5966 56.1851 50.4285C56.8703 50.0813 57.484 49.5365 58.2604 48.8473C58.3954 48.7276 58.5355 48.6032 58.6815 48.475C59.6067 47.6625 60.731 46.7412 62.1861 46.2496L62.2506 46.2273L62.3173 46.2133C64.4927 45.7541 66.7483 46.0271 68.4542 47.1391C69.5742 47.8691 70.4064 48.931 70.8066 50.2658C79.0826 52.0903 85.1034 57.4604 85.2128 63.8236L86.3999 64.0854L87.5678 74.2669Z" fill="#F6F8FA"/>
<path fill-rule="evenodd" clip-rule="evenodd" d="M76.3844 74.4746C77.1377 74.0817 77.8469 73.6528 78.5066 73.1922C78.9743 72.8656 79.4154 72.5247 79.8287 72.1708L75.0472 70.8757L73.0167 73.5625L76.3844 74.4746Z" fill="#F6F8FA"/>
</g>
<defs>
<clipPath id="clip0_562_1217">
<rect width="128" height="128" fill="white"/>
</clipPath>
</defs>
</svg>
