<svg width="128" height="128" viewBox="0 0 128 128" fill="none" xmlns="http://www.w3.org/2000/svg">
<g clip-path="url(#clip0_562_1218)">
<circle cx="64" cy="64" r="62" fill="#0B0B0D" stroke="#F6F8FA" stroke-width="4"/>
<path fill-rule="evenodd" clip-rule="evenodd" d="M84.9134 77.4007C85.0092 77.3686 85.1042 77.3367 85.1986 77.3051C85.1054 77.3363 85.008 77.369 84.9134 77.4007Z" fill="white"/>
<path fill-rule="evenodd" clip-rule="evenodd" d="M84.5086 74.9878C84.3975 75.0249 84.2863 75.0621 84.1775 75.0985C84.2855 75.0624 84.3994 75.0242 84.5086 74.9878Z" fill="white"/>
<path fill-rule="evenodd" clip-rule="evenodd" d="M84.9134 77.4007L85.1986 77.3051L85.3899 77.2413C86.974 76.7138 88.3233 76.3078 89.4404 76.2776C90.4635 76.2501 91.1372 76.5335 91.6329 77.3109C92.2787 78.3238 92.3202 78.991 92.177 79.5287C92.0085 80.16 91.527 80.8488 90.6525 81.7724C90.2887 82.1566 89.8662 82.5696 89.4062 83.0192C87.7713 84.6175 85.6634 86.678 84.0397 89.5487C83.2679 90.9132 82.0274 91.6316 80.435 91.8255C78.8019 92.0243 76.8252 91.6584 74.7968 90.8146C70.6973 89.1092 66.8867 85.6747 65.6932 82.1975C65.0782 80.4056 64.9998 79.0146 65.1503 77.886C65.3024 76.7464 65.6968 75.8002 66.1425 74.8806C66.2152 74.7306 66.2933 74.5743 66.3732 74.4144C66.7457 73.6688 67.1665 72.8267 67.3557 71.9945C67.6186 70.8384 67.4698 69.6587 66.6304 68.4187C65.2398 66.3647 63.4401 64.7152 62.0159 63.5911C61.9882 63.5693 61.9603 63.548 61.9326 63.5269L61.9009 63.5027L61.8685 63.4778C66.4881 63.201 70.8035 60.4142 72.8406 55.8621L76.3716 47.9736C76.8586 46.8847 76.3786 45.6031 75.2999 45.1111C72.863 50.5566 66.5138 52.9766 61.1186 50.5173C55.7232 48.0576 53.3243 41.6492 55.7612 36.2035C54.6825 35.712 53.4127 36.1956 52.9252 37.284L49.3953 45.1725C47.1473 50.196 48.3302 55.9008 51.9377 59.6127C49.0231 59.9361 46.324 61.6628 44.8488 64.4485L34.4031 84.1744L33.0015 83.5249L32 85.7214L54.1642 96L55.1657 93.8035L53.7126 93.1292L61.5187 72.0476C62.1883 70.2386 62.2595 68.3451 61.8299 66.593C62.8114 67.4866 63.8257 68.5634 64.6519 69.7838C65.1074 70.4567 65.1365 70.9432 65.0205 71.4536C64.9017 71.9756 64.6472 72.4894 64.287 73.2166C64.195 73.4022 64.0961 73.6018 63.9909 73.819C63.5075 74.8164 62.9788 76.0377 62.7753 77.5625C62.5703 79.0987 62.7026 80.8714 63.4293 82.9887C64.9195 87.3306 69.386 91.1804 73.8831 93.0513C76.153 93.9956 78.555 94.49 80.7216 94.2263C82.929 93.9575 84.9096 92.8894 86.1211 90.7473C87.5577 88.2075 89.3301 86.4707 90.938 84.8951C91.4413 84.402 91.9284 83.9246 92.384 83.4434C93.2934 82.483 94.1535 81.4194 94.49 80.1581C94.8514 78.8033 94.562 77.4367 93.6476 76.0025C92.5828 74.3325 90.9986 73.8156 89.3772 73.8591C87.8495 73.9002 86.1659 74.4359 84.6387 74.9444L84.5086 74.9878L84.1775 75.0985C82.7508 75.5761 81.4284 76.0187 80.2057 76.2032C78.8688 76.405 77.8936 76.2568 77.1696 75.6966C75.0104 74.0259 72.7446 71.8566 71.6613 69.8759C71.1207 68.8873 70.9651 68.1085 71.0775 67.5342C71.1768 67.0278 71.5357 66.426 72.6523 65.8679C73.5704 65.4092 74.8841 65.4753 76.6454 66.0144C78.0195 66.4349 79.4595 67.0727 80.9396 67.7282C81.3301 67.9012 81.7241 68.0757 82.1198 68.2475C83.9189 69.0286 85.8543 69.8019 87.5099 69.8535C88.3755 69.8804 89.2677 69.7159 90.0406 69.1686C90.8185 68.6175 91.3322 67.7801 91.6306 66.7394C91.9358 65.6744 91.923 64.6735 91.6212 63.7506C91.3243 62.8427 90.7743 62.0887 90.1307 61.4572C88.878 60.2286 87.0801 59.2908 85.501 58.4802L85.3118 58.3831C83.7159 57.5643 82.3585 56.8679 81.4798 56.0746C81.0428 55.6801 80.8094 55.3324 80.7088 55.0236C80.6175 54.7434 80.6006 54.3925 80.7954 53.8947C81.0074 53.3528 81.2821 53.0174 81.5781 52.7929C81.882 52.5624 82.2719 52.4008 82.7773 52.3087C83.8421 52.1148 85.1636 52.2585 86.7354 52.4457L86.8662 52.4613C88.3074 52.6334 89.9643 52.8312 91.4282 52.5886C93.04 52.3214 94.5209 51.5034 95.3535 49.6281C96.8763 46.1975 95.5003 41.9955 93.3926 38.9562C92.3126 37.399 90.9685 36.0325 89.5316 35.1041C88.1123 34.187 86.4718 33.6171 84.8657 33.9125C83.5275 34.1587 82.5133 34.5935 81.7138 35.156C80.9158 35.7175 80.391 36.3651 79.9904 36.9416C79.8549 37.1366 79.7217 37.3419 79.6053 37.5214C79.559 37.5927 79.5148 37.6609 79.4744 37.7221C79.3206 37.956 79.193 38.1372 79.0661 38.2878C78.8361 38.5607 78.6291 38.7087 78.3208 38.7838C77.2685 39.0396 75.9265 39.0488 74.784 38.9763C74.4715 38.9564 74.1817 38.9303 73.9264 38.9042C73.4156 36.4218 71.8362 34.1973 69.4582 32.9631L69.0604 32.7694C64.7441 30.8016 59.6646 32.7385 57.7151 37.0951L57.5443 37.5049C55.9421 41.6304 57.6977 46.325 61.6018 48.3515L62.0007 48.5452C66.1819 50.4511 71.0796 48.6942 73.1542 44.6222L73.3449 44.2207C73.7638 43.2845 74.0033 42.3123 74.0796 41.344C74.1278 41.3481 74.1767 41.3525 74.2264 41.357C74.3576 41.3688 74.4937 41.3811 74.6342 41.39C75.8467 41.467 77.475 41.4768 78.8813 41.135C79.8021 40.9111 80.4223 40.4113 80.8913 39.8549C81.1137 39.5909 81.305 39.3114 81.4704 39.0601C81.5268 38.9744 81.5793 38.8937 81.6298 38.8157C81.7381 38.6489 81.8383 38.4947 81.9525 38.3303C82.2673 37.8772 82.6035 37.4779 83.0838 37.14C83.5628 36.8029 84.2453 36.4852 85.2951 36.2921C86.0771 36.1482 87.0949 36.4002 88.24 37.14C89.3676 37.8685 90.495 38.9955 91.4293 40.3426C93.3502 43.1123 94.1762 46.3658 93.1668 48.6396C92.7331 49.6163 92.0425 50.0358 91.0397 50.202C89.9334 50.3853 88.5879 50.2321 87.0162 50.0449L86.9402 50.0359C85.4863 49.8626 83.8127 49.6631 82.3514 49.9292C81.5814 50.0695 80.8152 50.346 80.139 50.8586C79.4548 51.3774 78.9245 52.0917 78.5665 53.0066C78.1914 53.9658 78.1456 54.9005 78.432 55.7794C78.7093 56.6299 79.2607 57.3173 79.8816 57.8779C81.0038 58.891 82.6268 59.7216 84.0989 60.475L84.4141 60.6365C86.0637 61.4834 87.5156 62.2646 88.4611 63.192C88.9163 63.6386 89.2031 64.073 89.3456 64.5087C89.4831 64.9293 89.512 65.4296 89.3292 66.0675C89.1395 66.7291 88.883 67.0346 88.6647 67.1894C88.4408 67.3479 88.1089 67.4525 87.5836 67.4362C86.4576 67.401 84.9375 66.8386 83.0663 66.0262C82.7729 65.8988 82.4717 65.7657 82.1653 65.6299L81.9707 65.5436C80.4781 64.8818 78.8646 64.1663 77.3404 63.6998C75.4586 63.1239 73.3714 62.8098 71.5899 63.6998C70.0077 64.4904 69.0081 65.6242 68.7258 67.0665C68.457 68.4409 68.8976 69.826 69.5635 71.0438C70.8938 73.4764 73.4867 75.8951 75.7118 77.6168C77.1801 78.7529 78.9364 78.8408 80.5602 78.5958C82.0003 78.3784 83.527 77.866 84.9134 77.4007ZM43.8695 71.4241L56.937 77.5117L57.7993 75.1853L45.0114 69.2689L43.8695 71.4241Z" fill="white"/>
</g>
<defs>
<clipPath id="clip0_562_1218">
<rect width="128" height="128" fill="white"/>
</clipPath>
</defs>
</svg>
