<svg width="128" height="128" viewBox="0 0 128 128" fill="none" xmlns="http://www.w3.org/2000/svg">
<g clip-path="url(#clip0_562_1222)">
<circle cx="64" cy="64" r="62" fill="#0B0B0D" stroke="#F6F8FA" stroke-width="4"/>
<path d="M88.8604 32.4053L88.4404 35.7656C92.1335 36.7685 94.8496 40.1447 94.8496 44.1553C94.8496 48.6322 91.4651 52.3188 87.1152 52.7959L93.0088 75.1943L74.4268 74.2812L67.126 86.3193L67.3828 86.7637L51.3857 96L34 65.8877L64.1123 48.502L73.3486 64.499L61.2949 71.459L73.2402 72.0459L85.1797 52.7939C80.8388 52.3084 77.4639 48.6258 77.4639 44.1553C77.4639 39.6823 80.8423 35.9981 85.1865 35.5156L85.626 32L88.8604 32.4053ZM65.8857 84.1709L71.959 74.1592L59.7598 73.5596L65.8857 84.1709ZM75.709 72.167L90.1709 72.8779L85.7451 55.6211L75.709 72.167Z" fill="white"/>
</g>
<defs>
<clipPath id="clip0_562_1222">
<rect width="128" height="128" fill="white"/>
</clipPath>
</defs>
</svg>
