<svg width="128" height="128" viewBox="0 0 128 128" fill="none" xmlns="http://www.w3.org/2000/svg">
<g clip-path="url(#clip0_562_1232)">
<circle cx="64" cy="64" r="62" fill="#0B0B0D" stroke="#F6F8FA" stroke-width="4"/>
<path fill-rule="evenodd" clip-rule="evenodd" d="M68.1432 49.7726C68.1308 48.9845 68.1188 48.2173 68.1066 47.4551L73.7029 42.1118C75.5685 43.3514 77.1767 44.9389 78.4334 46.7792L73.0177 52.2998L68.182 52.2255C68.1685 51.3762 68.1557 50.5639 68.1432 49.7726Z" fill="#F6F8FA"/>
<path fill-rule="evenodd" clip-rule="evenodd" d="M60.8684 39.4737C61.8842 39.2914 62.9308 39.1958 63.9999 39.1958C65.0688 39.1958 66.1151 39.2915 67.1307 39.4737L67.2516 47.1061L63.9991 50.2109L60.7466 47.1053L60.8684 39.4737Z" fill="#F6F8FA"/>
<path fill-rule="evenodd" clip-rule="evenodd" d="M49.5648 46.7792C50.8215 44.9387 52.4305 43.3515 54.2962 42.1118L59.8924 47.4543L59.8162 52.2255L54.9805 52.3006L49.5648 46.7792Z" fill="#F6F8FA"/>
<path fill-rule="evenodd" clip-rule="evenodd" d="M46.6089 56.3518C46.6089 55.2971 46.7058 54.2647 46.8906 53.2626L54.6276 53.1424L57.7749 56.351L54.6276 59.5596L46.8906 59.4403C46.7059 58.4384 46.6089 57.4063 46.6089 56.3518Z" fill="#F6F8FA"/>
<path fill-rule="evenodd" clip-rule="evenodd" d="M54.2962 70.591C52.4305 69.3513 50.8215 67.7642 49.5648 65.9236L54.9821 60.4022L59.817 60.4774L59.8933 65.2478L54.2962 70.591Z" fill="#F6F8FA"/>
<path fill-rule="evenodd" clip-rule="evenodd" d="M60.8684 73.2292L60.7466 65.5959L63.9991 62.4911L67.2516 65.5959L67.1307 73.2292C66.115 73.4113 65.0689 73.5079 63.9999 73.5079C62.9307 73.5079 61.8843 73.4114 60.8684 73.2292Z" fill="#F6F8FA"/>
<path fill-rule="evenodd" clip-rule="evenodd" d="M68.1058 65.2478L68.182 60.4774L73.0186 60.4022L78.4342 65.9236C77.1775 67.7642 75.5687 69.3513 73.7029 70.591L68.1058 65.2478Z" fill="#F6F8FA"/>
<path fill-rule="evenodd" clip-rule="evenodd" d="M73.3723 59.5604L70.2242 56.351L73.3723 53.1424L81.1085 53.2626C81.2932 54.2647 81.391 55.2971 81.391 56.3518C81.391 57.4063 81.2931 58.4383 81.1085 59.4403L73.3723 59.5604Z" fill="#F6F8FA"/>
<path fill-rule="evenodd" clip-rule="evenodd" d="M61.0307 56.3518C61.0307 54.7341 62.3601 53.4227 63.9999 53.4227C65.6398 53.4227 66.9691 54.7341 66.9691 56.3518C66.9691 57.9695 65.6398 59.2809 63.9999 59.2809C62.3601 59.2809 61.0307 57.9695 61.0307 56.3518Z" fill="#F6F8FA"/>
<path d="M83.936 56.3518C83.936 45.4902 75.0103 36.6852 64 36.6852C52.9896 36.6852 44.0639 45.4902 44.0639 56.3518C44.0639 67.2134 52.9896 76.0185 64 76.0185C75.0103 76.0185 83.936 67.2134 83.936 56.3518ZM60.0175 73.0555C58.2343 72.6434 56.5573 71.9599 55.0324 71.0528L59.9115 66.3932L60.0175 73.0555ZM72.9675 71.0528C71.4424 71.96 69.7647 72.6434 67.9813 73.0555L68.0873 66.3932L72.9675 71.0528ZM53.8188 60.384L49.0966 65.1982C48.177 63.6938 47.4852 62.0386 47.0675 60.2794L53.8188 60.384ZM80.9324 60.2794C80.5148 62.0383 79.8227 63.693 78.9033 65.1972L74.1811 60.384L80.9324 60.2794ZM61.8076 60.5088C61.8835 60.5479 61.9607 60.5847 62.039 60.6198L63.3889 61.9098L60.7281 64.4503L60.6654 60.4907L61.8076 60.5088ZM67.2696 64.4492L64.6089 61.9098L65.962 60.6187C66.0398 60.5838 66.1169 60.5476 66.1924 60.5088L67.3324 60.4907L67.2696 64.4492ZM72.2104 59.5784L68.1955 59.6403L68.2139 58.5146C68.2536 58.4395 68.2908 58.3626 68.3264 58.2852L69.634 56.9526L72.2104 59.5784ZM59.6736 58.2874C59.7089 58.3642 59.7467 58.4401 59.786 58.5146L59.8033 59.6392L55.7906 59.5773L58.3659 56.9536L59.6736 58.2874ZM59.786 54.1891C59.7467 54.2634 59.7089 54.3386 59.6736 54.4153L58.3648 55.7501L55.7895 53.1242L59.8033 53.0623L59.786 54.1891ZM72.2093 53.1242L69.634 55.749L68.3253 54.4153C68.29 54.3388 68.2531 54.2633 68.2139 54.1891L68.1955 53.0623L72.2093 53.1242ZM53.8188 52.3186L47.0675 52.4232C47.4852 50.6643 48.1771 49.0097 49.0966 47.5055L53.8188 52.3186ZM78.9023 47.5055C79.8219 49.0098 80.5147 50.6641 80.9324 52.4232L74.18 52.3176L78.9023 47.5055ZM63.3889 50.7929L62.0369 52.0839C61.9592 52.1187 61.8829 52.1561 61.8076 52.1949L60.6654 52.2119L60.7281 48.2524L63.3889 50.7929ZM67.3324 52.2119L66.1924 52.1949C66.1168 52.156 66.0398 52.1188 65.962 52.0839L64.61 50.7929L67.2696 48.2534L67.3324 52.2119ZM59.9104 46.3073L55.0324 41.6499C56.5572 40.7428 58.2345 40.0603 60.0175 39.6482L59.9104 46.3073ZM67.9813 39.6482C69.7642 40.0602 71.4417 40.742 72.9664 41.6488L68.0873 46.3073L68.0441 43.5747C68.0244 42.3386 68.0038 41.0496 67.9813 39.6482ZM86.1512 56.3518C86.1512 68.4203 76.2337 78.2037 64 78.2037C51.7662 78.2037 41.8488 68.4203 41.8488 56.3518C41.8488 44.2834 51.7662 34.5 64 34.5C76.2337 34.5 86.1512 44.2834 86.1512 56.3518Z" fill="#F6F8FA"/>
<path fill-rule="evenodd" clip-rule="evenodd" d="M90.8599 77.7108L90.8437 77.7214L90.8264 77.7342L90.8599 77.7108Z" fill="#F6F8FA"/>
<path d="M95.2166 79.9824L96.5 81.7292L94.5709 83.1502L94.4022 83.2687C94.2031 83.4052 93.9209 83.5942 93.5726 83.8182C92.8776 84.2651 91.8977 84.8631 90.7583 85.4645C88.7176 86.5417 85.6469 87.9118 82.6625 88.0253C82.7556 88.3781 82.8063 88.748 82.8063 89.1296C82.8063 91.5433 80.8229 93.5 78.3761 93.5C75.9293 93.5 73.9459 91.5433 73.9459 89.1296C73.9459 88.7524 73.9943 88.3862 74.0854 88.037H53.8703C53.9614 88.3862 54.0098 88.7524 54.0098 89.1296C54.0098 91.5433 52.0263 93.5 49.5795 93.5C47.1328 93.5 45.1493 91.5433 45.1493 89.1296C45.1493 88.7486 45.1981 88.3787 45.291 88.0264C42.075 87.9218 39.0109 86.569 36.9475 85.4421C35.8229 84.8279 34.879 84.2159 34.2143 83.7574C34.0387 83.6362 33.8814 83.5246 33.7438 83.4255L31.5 81.6181L35.735 76.5648L37.3401 77.8921L37.3659 77.912C37.3853 77.9269 37.4069 77.9435 37.431 77.9615C37.5623 78.0594 37.7643 78.2072 38.0237 78.3862C38.5463 78.7466 39.2905 79.2277 40.1664 79.706C42.0211 80.7189 44.0416 81.4814 45.6847 81.4815H82.2709L82.5305 81.4729C83.8632 81.3881 85.7379 80.6791 87.6238 79.6836L88.2965 79.3166C88.9445 78.9528 89.5105 78.6047 89.9449 78.3253C90.2322 78.1406 90.4585 77.9879 90.609 77.8847C90.6912 77.8283 90.7451 77.7912 90.7745 77.7705L90.7932 77.7571L92.6046 76.4539L95.2166 79.9824ZM90.8437 77.7214L90.8264 77.7342L90.8599 77.7108L90.8437 77.7214ZM51.7947 89.1296C51.7947 87.9228 50.8029 86.9444 49.5795 86.9444C48.3562 86.9444 47.3644 87.9228 47.3644 89.1296C47.3644 90.3365 48.3562 91.3148 49.5795 91.3148C50.8029 91.3148 51.7947 90.3365 51.7947 89.1296ZM80.5912 89.1296C80.5912 87.9228 79.5995 86.9444 78.3761 86.9444C77.1527 86.9444 76.161 87.9228 76.161 89.1296C76.161 90.3365 77.1527 91.3148 78.3761 91.3148C79.5995 91.3148 80.5912 90.3365 80.5912 89.1296ZM92.1189 79.5086L92.1081 79.5161L92.0616 79.5492C92.0198 79.5786 91.9563 79.6225 91.8734 79.6793C91.7072 79.7933 91.4624 79.958 91.1541 80.1563C90.9998 80.2556 90.8296 80.3627 90.6458 80.4764C90.4617 80.5903 90.264 80.7107 90.0541 80.8349C89.6351 81.0827 89.1683 81.3468 88.6686 81.6106C87.8999 82.0164 87.0793 82.4066 86.2523 82.7363C86.1143 82.7913 85.9762 82.8449 85.8381 82.8963C85.1484 83.153 84.4595 83.3628 83.7971 83.4981C83.3995 83.5792 83.0114 83.6327 82.6387 83.6549C82.5143 83.6623 82.3917 83.6667 82.2709 83.6667H45.6847C44.4387 83.6666 43.1267 83.3557 41.8699 82.8942C41.4505 82.7401 41.0373 82.569 40.6347 82.3874C40.3667 82.2664 40.1034 82.1406 39.8462 82.0118C39.5888 81.8829 39.3374 81.7513 39.0934 81.6181C38.8537 81.4872 38.6231 81.3565 38.4034 81.2275C37.9642 80.9697 37.5677 80.7199 37.2255 80.4945C37.0542 80.3817 36.8966 80.275 36.7539 80.1766C36.4693 79.9802 36.2456 79.8172 36.0952 79.705C36.0233 79.6513 35.967 79.6082 35.9265 79.5769C35.9162 79.569 35.9073 79.5624 35.8999 79.5569L35.8854 79.546C35.8812 79.5427 35.8767 79.5385 35.8767 79.5385L34.4869 81.2403L34.5085 81.2574L34.5363 81.2788L34.5626 81.299C34.6085 81.3344 34.6746 81.3851 34.7594 81.4484C34.9294 81.5752 35.175 81.7537 35.4841 81.967C35.793 82.18 36.167 82.4282 36.5938 82.6946C36.8072 82.8278 37.0337 82.9656 37.272 83.1054C37.5103 83.2453 37.7601 83.3879 38.0205 83.5301C38.2767 83.6701 38.5451 83.8115 38.8241 83.9516C38.9635 84.0215 39.1058 84.0906 39.2502 84.1596C39.6837 84.3668 40.139 84.5685 40.6109 84.7561C40.7685 84.8187 40.9278 84.8803 41.089 84.9396C42.0541 85.2943 43.0785 85.5813 44.1185 85.7334C44.4652 85.7841 44.8137 85.8198 45.1623 85.838C45.3364 85.8471 45.5106 85.8519 45.6847 85.8519H82.2709C84.789 85.8518 87.6239 84.6405 89.7134 83.5376C90.2483 83.2552 90.7464 82.9727 91.1931 82.7085C91.4163 82.5765 91.627 82.4496 91.8226 82.3287C92.0183 82.2076 92.1991 82.0928 92.3634 81.9872C92.6921 81.7758 92.9555 81.599 93.1378 81.474C93.2161 81.4203 93.2795 81.3756 93.3268 81.3422L93.3487 81.3268C93.3614 81.3178 93.3787 81.306 93.3886 81.2993C93.3972 81.2935 93.3999 81.2917 93.406 81.2873C93.4098 81.2846 93.413 81.282 93.4157 81.2798L92.1189 79.5086Z" fill="#F6F8FA"/>
</g>
<defs>
<clipPath id="clip0_562_1232">
<rect width="128" height="128" fill="white"/>
</clipPath>
</defs>
</svg>
