<svg width="128" height="128" viewBox="0 0 128 128" fill="none" xmlns="http://www.w3.org/2000/svg">
<g clip-path="url(#clip0_562_1234)">
<circle cx="64" cy="64" r="62" fill="#0B0B0D" stroke="#F6F8FA" stroke-width="4"/>
<path d="M91 96H73V83.4333H91V96ZM73 32C82.9411 32 91 41.058 91 49.6V83.4333L73 76.6667L66.25 67H73V49.6C73 43.8752 69.3801 37.9188 64 34.6125C66.6476 32.9855 69.7214 32 73 32ZM81.4706 52.2719C80.0936 52.1653 78.3091 52.7968 78.2941 52.8021V58.1313C78.3104 58.137 80.0941 58.768 81.4706 58.6615C82.8534 58.5544 84.647 57.2313 84.6471 55.4667C84.6471 53.702 82.8534 52.3789 81.4706 52.2719Z" fill="white"/>
<path d="M91 83.4333V96H73V83.4333H91ZM75.1176 93.8667H88.8824V85.5667H75.1176V93.8667ZM88.8824 49.6C88.8824 45.9834 87.1572 42.0995 84.219 39.0938C81.2957 36.1033 77.3183 34.1333 73 34.1333C71.29 34.1333 69.6359 34.4426 68.0781 35.001C72.3471 38.7778 75.1176 44.1958 75.1176 49.6V69.1333H70.3281L74.3535 74.8979L88.8824 80.3594V49.6ZM76.1765 51.2917L77.59 50.7896C77.6398 50.7719 78.1694 50.5858 78.8918 50.4167C79.5775 50.2561 80.6194 50.0664 81.6329 50.1448C82.8563 50.2395 84.0795 50.8299 84.9966 51.6635C85.9306 52.5127 86.7647 53.822 86.7647 55.4667C86.7647 57.1115 85.9296 58.4207 84.9955 59.2698C84.0785 60.1032 82.8562 60.6938 81.6329 60.7885C80.6197 60.8669 79.5785 60.6772 78.8928 60.5167C78.1729 60.3481 77.6447 60.1628 77.591 60.1438L76.1765 59.6417V51.2917ZM78.2941 58.1313C78.3104 58.137 80.0941 58.768 81.4706 58.6615C82.8534 58.5544 84.647 57.2313 84.6471 55.4667C84.6471 53.702 82.8534 52.3789 81.4706 52.2719C80.0936 52.1653 78.3091 52.7968 78.2941 52.8021V58.1313ZM91 83.4333L73 76.6667L66.25 67H73V49.6C73 43.8752 69.3801 37.9188 64 34.6125C66.6476 32.9855 69.7214 32 73 32C82.9411 32 91 41.058 91 49.6V83.4333Z" fill="#0B0B0B"/>
<path d="M55 32C64.9411 32 73 41.058 73 49.6V67H66.25L73 76.6667L64 80.05L56.0588 83.2V83.4333H73V96H37V49.6C37 41.058 45.0589 32 55 32ZM62.4118 52.2719C61.0289 52.3789 59.2353 53.702 59.2353 55.4667C59.2353 57.2313 61.029 58.5544 62.4118 58.6615C63.7883 58.768 65.5719 58.137 65.5882 58.1313V52.8021C65.5732 52.7968 63.7888 52.1653 62.4118 52.2719Z" fill="white"/>
<path d="M70.8824 49.6C70.8824 45.9834 69.1572 42.0995 66.219 39.0938C63.2957 36.1033 59.3183 34.1333 55 34.1333C50.6817 34.1333 46.7043 36.1033 43.781 39.0938C40.8428 42.0995 39.1176 45.9834 39.1176 49.6V93.8667H70.8824V85.5667H53.9412V81.7469L63.2245 78.0646L63.2421 78.0583L63.2597 78.051L69.6891 75.6333L62.1708 64.8667H70.8824V49.6ZM65.5882 52.8021C65.5732 52.7968 63.7888 52.1653 62.4118 52.2719C61.0289 52.3789 59.2353 53.702 59.2353 55.4667C59.2353 57.2313 61.029 58.5544 62.4118 58.6615C63.7883 58.768 65.5719 58.137 65.5882 58.1313V52.8021ZM67.7059 59.6417L66.2914 60.1438C66.2377 60.1628 65.7094 60.3481 64.9895 60.5167C64.3039 60.6772 63.2626 60.8669 62.2494 60.7885C61.0262 60.6938 59.8039 60.1032 58.8868 59.2698C57.9527 58.4207 57.1177 57.1115 57.1176 55.4667C57.1176 53.822 57.9518 52.5127 58.8858 51.6635C59.8029 50.8299 61.026 50.2395 62.2494 50.1448C63.263 50.0664 64.3049 50.2561 64.9906 50.4167C65.713 50.5858 66.2426 50.7719 66.2924 50.7896L67.7059 51.2917V59.6417ZM73 67H66.25L73 76.6667L64 80.05L56.0588 83.2V83.4333H73V96H37V49.6C37 41.058 45.0589 32 55 32C64.9411 32 73 41.058 73 49.6V67Z" fill="#0B0B0B"/>
</g>
<defs>
<clipPath id="clip0_562_1234">
<rect width="128" height="128" fill="white"/>
</clipPath>
</defs>
</svg>
