<svg width="128" height="128" viewBox="0 0 128 128" fill="none" xmlns="http://www.w3.org/2000/svg">
<g clip-path="url(#clip0_562_1220)">
<circle cx="64" cy="64" r="62" fill="#0B0B0D" stroke="#F6F8FA" stroke-width="4"/>
<path fill-rule="evenodd" clip-rule="evenodd" d="M42.4913 56.4692H71.558V86.6986C71.558 91.8355 67.3936 95.9999 62.2566 95.9999H51.7926C46.6557 95.9999 42.4913 91.8355 42.4913 86.6986V84.0894C42.4404 84.0894 42.3496 84.1012 42.1212 84.1518L42.0313 84.172C41.8372 84.2157 41.5725 84.2753 41.2878 84.3165C40.5732 84.4196 39.7011 84.4134 38.6218 84.019C37.2216 83.5073 36.3675 82.2597 35.8185 81.1089C35.2653 79.9493 34.9056 78.6347 34.6332 77.639L34.6217 77.5971C34.467 77.0314 34.1215 75.4019 33.8213 73.8672C33.6693 73.0902 33.5248 72.3185 33.4182 71.6929C33.321 71.1228 33.2309 70.5425 33.2309 70.2441L33.2297 70.2112C33.2292 70.1977 33.2283 70.1819 33.2273 70.1635L33.2252 70.126L33.2116 69.8592C33.2007 69.6468 33.1891 69.3733 33.19 69.0633C33.1916 68.4511 33.24 67.6591 33.45 66.8651C33.6596 66.0727 34.0502 65.2032 34.7898 64.5296C35.5517 63.8356 36.5784 63.4453 37.8634 63.4452H42.4913V56.4692ZM42.4913 81.764V65.7706H37.8634C37.0765 65.7707 36.6328 65.9961 36.3555 66.2486C36.0558 66.5216 35.838 66.9305 35.6981 67.4589C35.4653 68.3391 35.5097 69.2117 35.5402 69.8113C35.5486 69.9758 35.5564 70.1296 35.5564 70.247C35.5577 70.2635 35.5644 70.3523 35.5914 70.5473C35.6188 70.745 35.6594 71.0016 35.7106 71.3023C35.8129 71.9024 35.9534 72.654 36.1035 73.421C36.4073 74.9741 36.7362 76.5148 36.8642 76.9828C37.1481 78.0203 37.4616 79.1509 37.9179 80.1075C38.3862 81.0893 38.8923 81.6416 39.42 81.8344C40.0875 82.0784 40.5651 82.0714 40.9562 82.015C41.1389 81.9886 41.2993 81.9525 41.492 81.9092L41.6182 81.881C41.8397 81.8319 42.1569 81.764 42.4913 81.764ZM59.9313 60.4852H66.9073V73.8559L59.9313 60.4852Z" fill="#F6F8FA"/>
<path fill-rule="evenodd" clip-rule="evenodd" d="M88.6824 56.2411C87.0491 58.6986 84.8692 60.6217 82.022 61.0367V84.8173L93.006 90.3093L92.486 92.512H72.3279C73.152 91.0873 73.6825 89.4715 73.8366 87.7473L79.6967 84.8173V61.0367C77.3158 60.6896 75.4015 59.2881 73.8833 57.4013C73.586 57.0318 73.3038 56.6436 73.0363 56.2411C72.6008 55.5858 72.1968 54.8825 71.8221 54.144C70.6088 51.7529 69.7017 48.9922 69.0204 46.2892C68.1243 42.7345 67.5977 39.1921 67.2945 36.5462C67.1427 35.2211 67.0464 34.1155 66.988 33.3398C66.9588 32.9519 66.9392 32.646 66.9266 32.436C66.9204 32.331 66.9159 32.2496 66.913 32.1942L66.9096 32.1306L66.9085 32.1135C66.9085 32.1135 66.9086 32.1066 68.07 32.0534L69.2315 32L69.2327 32.017L69.2333 32.0341L69.2339 32.0495L69.235 32.0731C69.2376 32.1232 69.2416 32.2002 69.2474 32.2975C69.2593 32.4962 69.2782 32.79 69.3065 33.1649C69.363 33.9151 69.4572 34.9899 69.6051 36.2805C69.6623 36.7797 69.7275 37.3105 69.8017 37.8667H91.917C91.9912 37.3105 92.0564 36.7797 92.1136 36.2805C92.2615 34.9899 92.3557 33.9151 92.4122 33.1649C92.4404 32.79 92.4594 32.4962 92.4712 32.2975C92.4771 32.1997 92.4811 32.1228 92.4837 32.0727C92.4845 32.0575 92.485 32.0446 92.4853 32.0341C92.4856 32.0275 92.4858 32.0217 92.486 32.017C92.4862 32.0135 92.4857 32.0196 92.486 32.017L92.4871 32.0034C92.4871 32.0034 92.4893 32.0002 93.6487 32.0534C94.8101 32.1066 94.8102 32.1079 94.8102 32.1079L94.8091 32.1306L94.8057 32.1942C94.8027 32.2496 94.7983 32.331 94.792 32.436C94.7795 32.646 94.7599 32.9519 94.7307 33.3398C94.6723 34.1155 94.576 35.2211 94.4242 36.5462C94.121 39.1921 93.5943 42.7345 92.6983 46.2892C91.8065 49.827 90.5281 53.4638 88.6824 56.2411ZM89.8142 40.192H85.6534L84.4827 54.6086C87.3334 51.7211 88.9307 45.5804 89.8142 40.192ZM82.022 87.4174L87.5606 90.1867H79.0671L81.4236 88.8775L82.022 88.546V87.4174Z" fill="#F6F8FA"/>
</g>
<defs>
<clipPath id="clip0_562_1220">
<rect width="128" height="128" fill="white"/>
</clipPath>
</defs>
</svg>
