<svg width="67" height="67" viewBox="0 0 67 67" fill="none" xmlns="http://www.w3.org/2000/svg">
<circle cx="33.25" cy="33.25" r="32.625" fill="#0B0B0D" stroke="#484A55" stroke-width="1.25"/>
<path d="M21.25 25.25L24.75 49.81C24.8858 50.7711 25.3665 51.65 26.1025 52.2829C26.8384 52.9158 27.7794 53.2596 28.75 53.25H37.83C38.8006 53.2596 39.7416 52.9158 40.4775 52.2829C41.2135 51.65 41.6942 50.7711 41.83 49.81L45.25 25.25M19.25 25.25H47.25M23.25 39.25C24.8335 38.5866 26.5332 38.245 28.25 38.245C29.9668 38.245 31.6665 38.5866 33.25 39.25C34.8335 39.9134 36.5332 40.255 38.25 40.255C39.9668 40.255 41.6665 39.9134 43.25 39.25M33.25 25.25L35.25 13.25H39.25" stroke="#F6F8FA" stroke-width="2" stroke-linecap="round" stroke-linejoin="round"/>
</svg>
