<svg width="67" height="67" viewBox="0 0 67 67" fill="none" xmlns="http://www.w3.org/2000/svg">
<circle cx="33.25" cy="33.25" r="32.625" fill="#0B0B0D" stroke="#484A55" stroke-width="1.25"/>
<path d="M21.25 47.25V19.25M21.25 19.25C19.1283 19.25 17.0934 20.0929 15.5931 21.5931C14.0929 23.0934 13.25 25.1283 13.25 27.25V47.25M21.25 19.25C25.25 19.25 29.25 21.91 33.25 27.25C37.25 32.59 41.25 35.25 45.25 35.25M29.25 47.25V22.85M37.25 47.25V31.65M45.25 19.25V27.25M45.25 47.25V35.25M45.25 35.25C46.586 35.2487 47.9005 34.9129 49.0733 34.2732C50.2462 33.6334 51.2402 32.7101 51.9646 31.5875C52.6889 30.4649 53.1206 29.1787 53.2202 27.8464C53.3198 26.5141 53.0842 25.1781 52.5348 23.9602C51.9854 22.7424 51.1397 21.6816 50.075 20.8745C49.0103 20.0675 47.7604 19.5399 46.4394 19.3401C45.1184 19.1402 43.7684 19.2743 42.5126 19.7302C41.2568 20.1861 40.1351 20.9492 39.25 21.95M53.25 47.25V27.25" stroke="#F6F8FA" stroke-width="2" stroke-linecap="round" stroke-linejoin="round"/>
</svg>
