<svg width="67" height="67" viewBox="0 0 67 67" fill="none" xmlns="http://www.w3.org/2000/svg">
<circle cx="33.25" cy="33.25" r="32.625" fill="#0B0B0D" stroke="#484A55" stroke-width="1.25"/>
<path d="M39.25 51.25V41.25C39.25 40.7196 39.0393 40.2109 38.6642 39.8358C38.2891 39.4607 37.7804 39.25 37.25 39.25H29.25C28.7196 39.25 28.2109 39.4607 27.8358 39.8358C27.4607 40.2109 27.25 40.7196 27.25 41.25V51.25M44.798 29.87C44.3811 29.4709 43.8262 29.2481 43.249 29.2481C42.6718 29.2481 42.1169 29.4709 41.7 29.87C40.77 30.757 39.5342 31.2519 38.249 31.2519C36.9638 31.2519 35.728 30.757 34.798 29.87C34.3812 29.4715 33.8267 29.249 33.25 29.249C32.6733 29.249 32.1188 29.4715 31.702 29.87C30.7719 30.7576 29.5357 31.2529 28.25 31.2529C26.9643 31.2529 25.7281 30.7576 24.798 29.87C24.3811 29.4709 23.8262 29.2481 23.249 29.2481C22.6718 29.2481 22.1169 29.4709 21.7 29.87C20.8017 30.7272 19.6165 31.2195 18.3753 31.2511C17.134 31.2827 15.9253 30.8512 14.9846 30.0408C14.0439 29.2303 13.4384 28.0988 13.286 26.8665C13.1335 25.6342 13.4451 24.3892 14.16 23.374L19.938 15.006C20.3046 14.465 20.7982 14.0221 21.3756 13.716C21.9529 13.4099 22.5965 13.2499 23.25 13.25H43.25C43.9016 13.2498 44.5434 13.4087 45.1195 13.713C45.6957 14.0173 46.1888 14.4577 46.556 14.996L52.346 23.38C53.0611 24.3961 53.3722 25.6419 53.2188 26.8749C53.0655 28.1078 52.4585 29.2395 51.5163 30.0494C50.5741 30.8593 49.3641 31.2894 48.1222 31.2558C46.8802 31.2223 45.6951 30.7275 44.798 29.868M17.25 31.15V47.25C17.25 48.3109 17.6714 49.3283 18.4216 50.0784C19.1717 50.8286 20.1891 51.25 21.25 51.25H45.25C46.3109 51.25 47.3283 50.8286 48.0784 50.0784C48.8286 49.3283 49.25 48.3109 49.25 47.25V31.15" stroke="#F6F8FA" stroke-width="2" stroke-linecap="round" stroke-linejoin="round"/>
</svg>
