<svg width="96" height="96" viewBox="0 0 96 96" fill="none" xmlns="http://www.w3.org/2000/svg">
<rect x="1" y="1" width="94" height="94" rx="29" fill="#484A55" stroke="#E7E7E7" stroke-width="2"/>
<path d="M56.5533 45.4637C56.5533 45.4637 57.7087 46.2466 58.4942 46.6703C59.2797 47.0941 60.6017 47.5681 60.6017 47.5681C60.6017 47.5681 59.8806 48.7568 59.4568 49.5423C59.0331 50.3278 58.4973 51.6165 58.4973 51.6165M55.6699 34.4151C55.6699 34.4151 54.6274 35.343 54.0238 36.0004C53.4202 36.6578 52.6361 37.823 52.6361 37.823C52.6361 37.823 51.6608 36.8322 51.0034 36.2286C50.346 35.6249 49.2282 34.7892 49.2282 34.7892M38.6204 63.6152C38.6204 63.6152 37.465 62.8323 36.6796 62.4086C35.8941 61.9848 34.5721 61.5108 34.5721 61.5108C34.5721 61.5108 35.2932 60.3221 35.7169 59.5366C36.1407 58.7511 36.6765 57.4625 36.6765 57.4625M62.0716 50.987C62.0716 50.987 63.227 51.7698 64.0125 52.1936C64.798 52.6173 66.12 53.0913 66.12 53.0913C66.12 53.0913 65.3989 54.2801 64.9752 55.0655C64.5514 55.851 64.0156 57.1397 64.0156 57.1397M33.0484 57.6616C33.0484 57.6616 31.893 56.8787 31.1075 56.455C30.322 56.0312 29 55.5572 29 55.5572C29 55.5572 29.7211 54.3685 30.1448 53.583C30.5686 52.7975 31.1044 51.5088 31.1044 51.5088M50.4597 46.4489C50.1011 44.2111 48.9505 41.6899 45.7121 40.9C39.4859 39.3812 38.9173 52.2598 38.9173 52.2598L29.478 55.3204M54.8331 49.2847L60.2509 47.734M34.8005 61.4594L44.2399 57.8765C44.2399 57.8765 44.8084 44.9979 51.0347 46.5167C57.2609 48.0355 55.7696 55.9539 55.7696 55.9539L65.5727 53.3509M52.733 37.4834C52.0867 33.7218 50.4267 31.0543 48.4121 31.0008C45.7569 30.9303 43.476 35.4267 43.2605 41.0951M52.9359 43.0082C52.4827 48.1334 50.3318 52.0403 47.8555 51.9745C47.0101 51.9521 46.2272 51.4694 45.5554 50.6387" stroke="#8C94A6" stroke-width="2"/>
</svg>
