<svg width="64" height="64" viewBox="0 0 64 64" fill="none" xmlns="http://www.w3.org/2000/svg">
<rect x="1" y="1" width="62" height="62" rx="7" fill="#EFF2F5" stroke="#484A55" stroke-width="2"/>
<path d="M40.5533 29.4637C40.5533 29.4637 41.7087 30.2466 42.4942 30.6703C43.2797 31.0941 44.6017 31.5681 44.6017 31.5681C44.6017 31.5681 43.8806 32.7568 43.4568 33.5423C43.0331 34.3278 42.4973 35.6165 42.4973 35.6165M39.6699 18.4151C39.6699 18.4151 38.6274 19.343 38.0238 20.0004C37.4202 20.6578 36.6361 21.823 36.6361 21.823C36.6361 21.823 35.6608 20.8322 35.0034 20.2286C34.346 19.6249 33.2282 18.7892 33.2282 18.7892M22.6204 47.6152C22.6204 47.6152 21.465 46.8323 20.6796 46.4086C19.8941 45.9848 18.5721 45.5108 18.5721 45.5108C18.5721 45.5108 19.2932 44.3221 19.7169 43.5366C20.1407 42.7511 20.6765 41.4625 20.6765 41.4625M46.0716 34.987C46.0716 34.987 47.227 35.7698 48.0125 36.1936C48.798 36.6173 50.12 37.0913 50.12 37.0913C50.12 37.0913 49.3989 38.2801 48.9752 39.0655C48.5514 39.851 48.0156 41.1397 48.0156 41.1397M17.0484 41.6616C17.0484 41.6616 15.893 40.8787 15.1075 40.455C14.322 40.0312 13 39.5572 13 39.5572C13 39.5572 13.7211 38.3685 14.1448 37.583C14.5686 36.7975 15.1044 35.5088 15.1044 35.5088M34.4597 30.4489C34.1011 28.2111 32.9505 25.6899 29.7121 24.9C23.4859 23.3812 22.9173 36.2598 22.9173 36.2598L13.478 39.3204M38.8331 33.2847L44.2509 31.734M18.8005 45.4594L28.2399 41.8765C28.2399 41.8765 28.8084 28.9979 35.0347 30.5167C41.2609 32.0355 39.7696 39.9539 39.7696 39.9539L49.5727 37.3509M36.733 21.4834C36.0867 17.7218 34.4267 15.0543 32.4121 15.0008C29.7569 14.9303 27.476 19.4267 27.2605 25.0951M36.9359 27.0082C36.4827 32.1334 34.3318 36.0403 31.8555 35.9745C31.0101 35.9521 30.2272 35.4694 29.5554 34.6387" stroke="#0B0B0D" stroke-width="2"/>
</svg>
