<svg width="67" height="67" viewBox="0 0 67 67" fill="none" xmlns="http://www.w3.org/2000/svg">
<g filter="url(#filter0_ii_331_2937)">
<circle cx="33.25" cy="33.25" r="32" fill="#E7E7E7"/>
</g>
<circle cx="33.25" cy="33.25" r="32.625" stroke="#484A55" stroke-width="1.25"/>
<path d="M16.75 14.9166V27.75C16.75 29.7666 18.4 31.4166 20.4167 31.4166H27.75C28.7225 31.4166 29.6551 31.0303 30.3427 30.3427C31.0304 29.655 31.4167 28.7224 31.4167 27.75V14.9166M24.0833 14.9166V51.5833M49.75 38.75V14.9166C47.3188 14.9166 44.9873 15.8824 43.2682 17.6015C41.5491 19.3206 40.5833 21.6521 40.5833 24.0833V35.0833C40.5833 37.1 42.2333 38.75 44.25 38.75H49.75ZM49.75 38.75V51.5833" stroke="#0B0B0D" stroke-width="2" stroke-linecap="round" stroke-linejoin="round"/>
<defs>
<filter id="filter0_ii_331_2937" x="0" y="-2" width="66.5" height="70.5" filterUnits="userSpaceOnUse" color-interpolation-filters="sRGB">
<feFlood flood-opacity="0" result="BackgroundImageFix"/>
<feBlend mode="normal" in="SourceGraphic" in2="BackgroundImageFix" result="shape"/>
<feColorMatrix in="SourceAlpha" type="matrix" values="0 0 0 0 0 0 0 0 0 0 0 0 0 0 0 0 0 0 127 0" result="hardAlpha"/>
<feOffset dy="2"/>
<feGaussianBlur stdDeviation="2"/>
<feComposite in2="hardAlpha" operator="arithmetic" k2="-1" k3="1"/>
<feColorMatrix type="matrix" values="0 0 0 0 0.94902 0 0 0 0 0.94902 0 0 0 0 0.94902 0 0 0 1 0"/>
<feBlend mode="normal" in2="shape" result="effect1_innerShadow_331_2937"/>
<feColorMatrix in="SourceAlpha" type="matrix" values="0 0 0 0 0 0 0 0 0 0 0 0 0 0 0 0 0 0 127 0" result="hardAlpha"/>
<feOffset dy="-2"/>
<feGaussianBlur stdDeviation="2"/>
<feComposite in2="hardAlpha" operator="arithmetic" k2="-1" k3="1"/>
<feColorMatrix type="matrix" values="0 0 0 0 0 0 0 0 0 0 0 0 0 0 0 0 0 0 0.25 0"/>
<feBlend mode="normal" in2="effect1_innerShadow_331_2937" result="effect2_innerShadow_331_2937"/>
</filter>
</defs>
</svg>
