<svg width="67" height="67" viewBox="0 0 67 67" fill="none" xmlns="http://www.w3.org/2000/svg">
<g filter="url(#filter0_ii_331_2929)">
<circle cx="33.25" cy="33.25" r="32" fill="#E7E7E7"/>
</g>
<circle cx="33.25" cy="33.25" r="32.625" stroke="#484A55" stroke-width="1.25"/>
<path d="M23.25 39.25V51.25M35.25 45.25V51.25M33.25 45.25H49.85C50.2415 45.2445 50.6227 45.1242 50.9464 44.9041C51.2702 44.684 51.5222 44.3737 51.6713 44.0117C51.8203 43.6497 51.8599 43.2519 51.785 42.8676C51.7101 42.4834 51.5241 42.1295 51.25 41.85L45.25 35.25H45.85C46.2415 35.2445 46.6227 35.1242 46.9464 34.9041C47.2702 34.684 47.5222 34.3737 47.6713 34.0117C47.8203 33.6497 47.8599 33.2519 47.785 32.8676C47.7101 32.4834 47.5241 32.1295 47.25 31.85L41.25 25.25H41.65C42.0585 25.2869 42.4685 25.1972 42.8243 24.9932C43.1802 24.7893 43.4647 24.4808 43.6393 24.1097C43.814 23.7386 43.8703 23.3227 43.8007 22.9185C43.731 22.5143 43.5388 22.1413 43.25 21.85L35.25 13.25L32.45 16.25M29.25 27.25V27.65C30.5617 28.1544 31.6546 29.1032 32.3384 30.331C33.0221 31.5587 33.2532 32.9875 32.9913 34.3682C32.7295 35.7489 31.9913 36.9938 30.9055 37.886C29.8197 38.7781 28.4553 39.2609 27.05 39.25H19.25C17.8615 39.2155 16.5281 38.7003 15.477 37.7924C14.426 36.8844 13.7225 35.64 13.4865 34.2713C13.2505 32.9026 13.4967 31.4944 14.183 30.287C14.8693 29.0795 15.9533 28.1475 17.25 27.65V27.25C17.25 25.6587 17.8821 24.1326 19.0074 23.0074C20.1326 21.8821 21.6587 21.25 23.25 21.25C24.8413 21.25 26.3674 21.8821 27.4926 23.0074C28.6179 24.1326 29.25 25.6587 29.25 27.25Z" stroke="#0B0B0D" stroke-width="2" stroke-linecap="round" stroke-linejoin="round"/>
<defs>
<filter id="filter0_ii_331_2929" x="0" y="-2" width="66.5" height="70.5" filterUnits="userSpaceOnUse" color-interpolation-filters="sRGB">
<feFlood flood-opacity="0" result="BackgroundImageFix"/>
<feBlend mode="normal" in="SourceGraphic" in2="BackgroundImageFix" result="shape"/>
<feColorMatrix in="SourceAlpha" type="matrix" values="0 0 0 0 0 0 0 0 0 0 0 0 0 0 0 0 0 0 127 0" result="hardAlpha"/>
<feOffset dy="2"/>
<feGaussianBlur stdDeviation="2"/>
<feComposite in2="hardAlpha" operator="arithmetic" k2="-1" k3="1"/>
<feColorMatrix type="matrix" values="0 0 0 0 0.94902 0 0 0 0 0.94902 0 0 0 0 0.94902 0 0 0 1 0"/>
<feBlend mode="normal" in2="shape" result="effect1_innerShadow_331_2929"/>
<feColorMatrix in="SourceAlpha" type="matrix" values="0 0 0 0 0 0 0 0 0 0 0 0 0 0 0 0 0 0 127 0" result="hardAlpha"/>
<feOffset dy="-2"/>
<feGaussianBlur stdDeviation="2"/>
<feComposite in2="hardAlpha" operator="arithmetic" k2="-1" k3="1"/>
<feColorMatrix type="matrix" values="0 0 0 0 0 0 0 0 0 0 0 0 0 0 0 0 0 0 0.25 0"/>
<feBlend mode="normal" in2="effect1_innerShadow_331_2929" result="effect2_innerShadow_331_2929"/>
</filter>
</defs>
</svg>
