<svg width="128" height="128" viewBox="0 0 128 128" fill="none" xmlns="http://www.w3.org/2000/svg">
<circle cx="64" cy="64" r="62" fill="#F6F8FA" stroke="#E7E7E7" stroke-width="4"/>
<path d="M72.5664 32C82.581 32 90.6999 41.0577 90.7002 49.5996V83.4336L72.5664 76.667L63.5 80.0498L55.5 83.2002V83.4336H90.7002V96H36.2998V49.5996C36.3001 41.0577 44.419 32 54.4336 32C57.7848 32 60.9228 33.0157 63.6162 34.6855C63.5773 34.6614 63.5391 34.6361 63.5 34.6123C66.1671 32.9854 69.2637 32.0001 72.5664 32ZM54.4336 34.1338C50.0833 34.1338 46.0758 36.1033 43.1309 39.0938C40.1711 42.0994 38.4337 45.9832 38.4336 49.5996V93.8662H70.4336V85.5664H53.3672V81.7471L62.7188 78.0645L62.7363 78.0586L62.7539 78.0508L69.2314 75.6338L61.6572 64.8662H70.4336V49.5996C70.4335 45.9832 68.6952 42.0994 65.7354 39.0938C62.7905 36.1034 58.7837 34.1339 54.4336 34.1338ZM74.7002 93.8662H88.5664V85.5664H74.7002V93.8662ZM72.5664 34.1338C70.8439 34.1338 69.1776 34.4426 67.6084 35.001C71.9089 38.7776 74.7001 44.1956 74.7002 49.5996V69.1338H69.875L73.9307 74.8975L88.5664 80.3594V49.5996C88.5663 45.9832 86.8289 42.0994 83.8691 39.0938C80.9242 36.1033 76.9167 34.1338 72.5664 34.1338ZM61.7363 50.1445C62.7574 50.0661 63.8072 50.2564 64.498 50.417C65.2257 50.5862 65.7594 50.7724 65.8096 50.79L67.2334 51.292V59.6416L65.8086 60.1436C65.7545 60.1626 65.2222 60.3481 64.4971 60.5166C63.8063 60.6771 62.757 60.8665 61.7363 60.7881C60.5041 60.6933 59.2724 60.1029 58.3486 59.2695C57.4078 58.4204 56.5665 57.1113 56.5664 55.4668C56.5664 53.8221 57.4067 52.5122 58.3477 51.6631C59.2715 50.8295 60.5039 50.2393 61.7363 50.1445ZM81.2637 50.1445C82.4961 50.2393 83.7285 50.8295 84.6523 51.6631C85.5933 52.5122 86.4336 53.8221 86.4336 55.4668C86.4335 57.1114 85.5922 58.4204 84.6514 59.2695C83.7276 60.1029 82.4959 60.6934 81.2637 60.7881C80.243 60.8665 79.1937 60.6771 78.5029 60.5166C77.7779 60.3481 77.2455 60.1626 77.1914 60.1436L75.7666 59.6416V51.292L77.1904 50.79C77.2406 50.7724 77.7743 50.5861 78.502 50.417C79.1928 50.2564 80.2426 50.0661 81.2637 50.1445ZM61.9004 52.2715C60.5073 52.3785 58.7002 53.7022 58.7002 55.4668C58.7003 57.2313 60.5074 58.5541 61.9004 58.6611C63.2817 58.7671 65.0696 58.1414 65.0996 58.1309V52.8018C65.0625 52.7887 63.2788 52.1657 61.9004 52.2715ZM81.0996 52.2715C79.72 52.1657 77.9346 52.7897 77.9004 52.8018V58.1309C77.9267 58.1401 79.7168 58.7672 81.0996 58.6611C82.4926 58.5541 84.2997 57.2313 84.2998 55.4668C84.2998 53.7022 82.4927 52.3785 81.0996 52.2715Z" fill="#0B0B0B"/>
</svg>
