<svg width="128" height="128" viewBox="0 0 128 128" fill="none" xmlns="http://www.w3.org/2000/svg">
<circle cx="64" cy="64" r="62" fill="#F6F8FA" stroke="#E7E7E7" stroke-width="4"/>
<path fill-rule="evenodd" clip-rule="evenodd" d="M52.0611 53.0714C54.1624 54.8002 57.6034 58.4092 60.4561 63.4831C60.801 62.5254 61.1749 61.5981 61.5717 60.7023C58.7581 56.165 55.6051 52.912 53.5715 51.239C49.6275 47.9942 41.5852 40.9315 40.5504 39.3653C40.438 41.2387 37.0069 51.3735 35.2148 56.1542C33.3514 61.1251 30.7603 73.936 36.5901 86.5064C41.254 96.5627 51.5984 96.6191 55.6139 95.5439C58.0297 94.897 62.2241 92.751 64.9667 88.7402C64.355 88.2659 63.7501 87.7392 63.1681 87.158C62.7292 87.8312 62.2415 88.4444 61.7253 89.0018C59.8688 91.0064 57.6451 92.2778 56.0113 92.9141L55.3015 91.4954C54.9585 90.4532 54.6104 89.4197 54.2568 88.3697C53.0002 84.6387 51.6729 80.6982 50.257 75.4176C49.506 72.6168 49.1218 70.2961 48.8404 68.2536C51.9354 67.1674 53.7174 63.8659 52.8544 60.6471C51.9489 57.2701 48.4757 55.2663 45.0963 56.1711C41.7169 57.076 39.7117 60.5467 40.6172 63.9238C41.3539 66.6712 43.7901 68.5094 46.4928 68.6122C46.7817 70.7038 47.1814 73.1192 47.9624 76.032C49.398 81.3861 50.7615 85.4339 52.0259 89.1877L52.1189 89.4636C52.582 90.8386 53.0316 92.1773 53.4664 93.53C51.7592 93.7254 49.4238 93.6675 47.048 92.9319C43.9337 91.9674 40.7595 89.8501 38.7457 85.508C33.2708 73.703 35.7138 61.5906 37.4398 56.9865C38.3496 54.5594 39.6663 50.7975 40.7713 47.4039C41.1506 46.239 41.5068 45.108 41.8155 44.0835C42.5956 44.8165 43.4699 45.618 44.3813 46.4373C47.0362 48.8241 50.0587 51.4241 52.0611 53.0714Z" fill="black"/>
<path fill-rule="evenodd" clip-rule="evenodd" d="M85.6833 32C85.7957 33.8733 89.9931 46.4886 91.7852 51.2693C93.6486 56.2401 96.2397 69.0511 90.4099 81.6215C85.746 91.6777 75.4016 91.7342 71.3861 90.659C67.3705 89.5838 58.4403 84.3664 59.4329 73.327C60.6736 59.5279 69.3276 49.7279 73.4285 46.3541C77.5293 42.9803 84.6485 33.5663 85.6833 32ZM69.1055 87.1281C67.8491 86.4174 66.484 85.4227 65.2747 84.1169C63.0601 81.7256 61.3706 78.306 61.7992 73.5394C62.9644 60.5805 71.1405 51.3115 74.9389 48.1865C77.1944 46.3309 80.1336 42.9602 82.5478 39.9986C83.2823 39.0976 83.9842 38.2107 84.6249 37.3891C84.9877 38.5869 85.404 39.9129 85.8434 41.2734C87.1369 45.278 88.6467 49.6644 89.5602 52.1016C91.2862 56.7057 93.7291 68.8181 88.2543 80.6231C86.2405 84.9651 83.0663 87.0825 79.952 88.047C76.7472 89.0394 73.6159 88.7985 72.0009 88.366C71.7762 88.3059 71.5279 88.2278 71.2608 88.1314C71.8403 86.708 72.4357 85.3031 73.0502 83.853C74.5959 80.2059 76.2626 76.2733 78.1005 71.0434C79.1003 68.1982 79.6821 65.8201 80.129 63.7563C82.8317 63.8587 85.4004 62.2105 86.3435 59.5268C87.5027 56.2281 85.7667 52.6154 82.4657 51.457C79.1647 50.2986 75.5495 52.0334 74.3903 55.3321C73.2854 58.4761 74.8117 61.9032 77.8153 63.2209C77.3798 65.2362 76.8205 67.521 75.8591 70.2568C74.0465 75.415 72.4246 79.2422 70.8883 82.8671C70.2829 84.2958 69.6907 85.6931 69.1055 87.1281Z" fill="black"/>
</svg>
