<svg width="128" height="128" viewBox="0 0 128 128" fill="none" xmlns="http://www.w3.org/2000/svg">
<circle cx="64" cy="64" r="62" fill="#F6F8FA" stroke="#E7E7E7" stroke-width="4"/>
<path fill-rule="evenodd" clip-rule="evenodd" d="M63.2134 51.4447L85.569 44.9332V61.6758L95.5 66.2222V84H40.8793V76.2222H37.569V84H31.5V60.1111H46.9483V44L63.2134 51.4447ZM33.7069 81.7778H35.3621V74H43.0862V81.7778H46.9483V66.2222H33.7069V81.7778ZM49.1552 81.7778H55.2241V75.1111H49.1552V81.7778ZM56.3276 81.7778H62.9483V75.1111H56.3276V81.7778ZM64.0517 81.7778H70.6724V75.1111H64.0517V81.7778ZM71.7759 81.7778H78.3966V75.1111H71.7759V81.7778ZM79.5 81.7778H86.1207V75.1111H79.5V81.7778ZM87.2241 81.7778H93.2931V75.1111H87.2241V81.7778ZM49.1552 74H55.2241V65.6667H49.1552V74ZM56.3276 74H62.9483V65.6667H56.3276V74ZM64.0517 74H70.6724V65.6667H64.0517V74ZM71.7759 74H78.3966V65.6667H71.7759V74ZM79.5 74H86.1207V65.6667H79.5V74ZM87.2241 74H93.2931V67.6523L88.9569 65.6667H87.2241V74ZM49.1552 64.5556H55.2241V56.7778H49.1552V64.5556ZM56.3276 64.5556H62.9483V56.7778H56.3276V64.5556ZM64.0517 64.5556H70.6724V57.2986L69.5345 56.7778H64.0517V64.5556ZM71.7759 64.5556H78.3966V60.8349L71.7759 57.8043V64.5556ZM79.5 64.5556H86.1207V64.3678L85.569 64.1161V64.1183L79.5 61.3394V64.5556ZM32.6034 64H34.4698L33.6627 62.3757L34.0442 61.2222H32.6034V64ZM34.8545 62.291L35.7026 64H37.2274L38.0356 62.3724L37.2737 61.2222H35.208L34.8545 62.291ZM39.1315 62.0252L39.3093 62.2932L38.4612 64H40.9515L40.4203 63.1971L40.2845 62.9931L40.7241 61.2222H38.6002L39.1315 62.0252ZM41.4731 62.7847L42.278 64H43.7586L44.1466 62.4364L43.3427 61.2222H41.8621L41.4731 62.7847ZM45.2004 62.0252L45.3362 62.2292L44.8966 64H46.9483V61.2222H44.6692L45.2004 62.0252ZM66.3028 52.8585L68.0927 53.6777L81.7069 49.9397V59.9082L83.3621 60.6667V47.8889L66.3028 52.8585ZM70.6369 54.1302L80.6034 58.6918V51.3937L70.6369 54.1302ZM49.1552 55.6667H55.2241V50.2272L49.1552 47.4494V55.6667ZM56.3276 55.6667H62.9483V53.7635L59.9547 52.3941L59.9558 52.393L56.3276 50.7318V55.6667ZM64.0517 55.6667H67.1056L64.0517 54.2691V55.6667Z" fill="black"/>
</svg>
