<svg width="128" height="128" viewBox="0 0 128 128" fill="none" xmlns="http://www.w3.org/2000/svg">
<circle cx="64" cy="64" r="62" fill="#F6F8FA" stroke="#E7E7E7" stroke-width="4"/>
<path fill-rule="evenodd" clip-rule="evenodd" d="M80.667 32C81.3784 32 82.0593 32.1291 82.6877 32.3639C82.6983 32.3533 82.7085 32.3423 82.719 32.3319L82.7928 32.4049C84.9002 33.2402 86.3894 35.2794 86.3894 37.6637V41.0619L86.7492 41.0774C88.6329 41.2318 90.2452 42.5248 90.7716 44.3485L96.7622 65.1007C97.8728 68.948 94.9539 72.7784 90.9113 72.7788C88.763 72.7788 86.8621 71.6716 85.778 69.9878C85.6136 70.215 85.4363 70.4323 85.2449 70.6372V90.3363C85.2449 93.4642 82.6828 95.9999 79.5226 96H66.9334V80.708H60.0666V96H47.4775C44.3171 96 41.7552 93.4643 41.7552 90.3363V70.6372C41.5636 70.4322 41.3854 70.2152 41.2209 69.9878C40.1368 71.6714 38.2369 72.7787 36.0887 72.7788C32.0459 72.7786 29.1272 68.9481 30.2378 65.1007L36.2284 44.3485C36.735 42.5937 38.2469 41.3334 40.0385 41.1029V37.6637C40.0385 35.2797 41.5268 33.2404 43.6339 32.4049L43.7088 32.3319C43.7192 32.3421 43.7286 32.3534 43.739 32.3639C44.3676 32.1289 45.0491 32 45.7608 32H80.667ZM74.701 69.8175C73.4924 71.5992 71.44 72.7787 69.0994 72.7788C66.7654 72.7786 64.7095 71.6042 63.4989 69.8208C62.2883 71.6037 60.2341 72.7785 57.9006 72.7788L57.5441 72.7699C55.352 72.6572 53.4436 71.5095 52.2968 69.8186C51.0862 71.6062 49.0286 72.7786 46.7007 72.7788L46.3364 72.7688C45.5242 72.7261 44.7525 72.5401 44.0441 72.2389V90.3363C44.0441 92.2131 45.5813 93.7345 47.4775 93.7345H57.7777V78.4425H69.2224V93.7345H79.5226C81.4187 93.7344 82.956 92.213 82.956 90.3363V72.2389C82.1423 72.585 81.2451 72.7787 80.2993 72.7788C77.9708 72.7786 75.9118 71.6058 74.701 69.8175ZM40.6308 43.3274C39.6089 43.3274 38.7099 43.9977 38.429 44.9701L32.4385 65.7235C31.7456 68.1237 33.5666 70.5131 36.0887 70.5133C38.0803 70.5132 39.7334 68.9895 39.8753 67.0232L41.5853 43.3274H40.6308ZM42.2648 65.7987C42.0811 68.3463 44.1201 70.5133 46.7007 70.5133C49.0946 70.5129 51.059 68.6367 51.1445 66.2688L51.9715 43.3274H43.8865L42.2648 65.7987ZM53.4479 65.9458C53.3579 68.4413 55.3777 70.5133 57.9006 70.5133C60.3608 70.5129 62.3554 68.539 62.3556 66.104V43.3274H54.2638L53.4479 65.9458ZM64.6445 66.104C64.6447 68.5391 66.6391 70.5131 69.0994 70.5133C71.6222 70.5132 73.6421 68.4412 73.5521 65.9458L72.7362 43.3274H64.6445V66.104ZM75.8556 66.2688C75.941 68.6368 77.9053 70.5131 80.2993 70.5133C82.8798 70.5131 84.9189 68.3462 84.7352 65.7987L83.1135 43.3274H75.0285L75.8556 66.2688ZM87.1248 67.0232C87.2667 68.9895 88.9196 70.5133 90.9113 70.5133C93.4332 70.5129 95.2544 68.1236 94.5616 65.7235L88.571 44.9701C88.2902 43.9978 87.391 43.3276 86.3692 43.3274H85.4148L87.1248 67.0232ZM45.9597 38.5277C45.7652 38.9672 45.5083 39.4377 45.2511 39.8816C45.1261 40.0975 44.9997 40.3006 44.8823 40.4956H47.2115C47.0941 40.3006 46.9677 40.0975 46.8427 39.8816C46.5856 39.4377 46.3286 38.9672 46.1341 38.5277C46.1045 38.4609 46.0753 38.3903 46.0458 38.3175C46.0163 38.3901 45.9892 38.4611 45.9597 38.5277ZM49.7094 34.2655C49.3917 34.6615 49.0215 35.2249 48.6912 35.8097C48.4791 36.1854 48.3019 36.5378 48.1816 36.8164C48.1217 36.9551 48.0826 37.062 48.0598 37.135C48.0642 37.1556 48.0691 37.1844 48.0799 37.2212C48.1097 37.3232 48.1587 37.4555 48.2308 37.6184C48.3759 37.9463 48.5841 38.334 48.8276 38.7544C49.1394 39.2927 49.5483 39.9473 49.8692 40.4956H53.6692C53.9902 39.9473 54.3991 39.2927 54.7109 38.7544C54.9543 38.334 55.1625 37.9463 55.3077 37.6184C55.3798 37.4555 55.4288 37.3231 55.4586 37.2212C55.4693 37.1844 55.4743 37.1556 55.4787 37.135C55.4558 37.062 55.4167 36.9551 55.3569 36.8164C55.2366 36.5378 55.0593 36.1854 54.8472 35.8097C54.517 35.2249 54.1467 34.6615 53.8291 34.2655H49.7094ZM57.4044 38.5277C57.2098 38.9672 56.9529 39.4377 56.6958 39.8816C56.5708 40.0975 56.4443 40.3006 56.327 40.4956H58.6562C58.5388 40.3006 58.4124 40.0975 58.2873 39.8816C58.0302 39.4377 57.7733 38.9672 57.5787 38.5277C57.5492 38.4609 57.52 38.3903 57.4905 38.3175C57.461 38.3901 57.4339 38.4611 57.4044 38.5277ZM61.1541 34.2655C60.8364 34.6615 60.4661 35.2249 60.1359 35.8097C59.9238 36.1854 59.7465 36.5378 59.6263 36.8164C59.5664 36.9551 59.5273 37.062 59.5044 37.135C59.5088 37.1556 59.5138 37.1844 59.5246 37.2212C59.5544 37.3232 59.6033 37.4555 59.6754 37.6184C59.8206 37.9463 60.0288 38.334 60.2723 38.7544C60.584 39.2927 60.9929 39.9473 61.3139 40.4956H65.1139C65.4349 39.9473 65.8438 39.2927 66.1555 38.7544C66.399 38.334 66.6072 37.9463 66.7524 37.6184C66.8245 37.4555 66.8734 37.3231 66.9032 37.2212C66.914 37.1844 66.919 37.1556 66.9234 37.135C66.9005 37.062 66.8614 36.9551 66.8015 36.8164C66.6813 36.5378 66.504 36.1854 66.2919 35.8097C65.9617 35.2249 65.5914 34.6615 65.2737 34.2655H61.1541ZM68.8491 38.5277C68.6545 38.9672 68.3976 39.4377 68.1405 39.8816C68.0155 40.0975 67.889 40.3006 67.7717 40.4956H70.1008C69.9834 40.3006 69.857 40.0975 69.732 39.8816C69.4749 39.4377 69.218 38.9672 69.0234 38.5277C68.9939 38.4609 68.9647 38.3903 68.9351 38.3175C68.9057 38.3901 68.8785 38.4611 68.8491 38.5277ZM72.5988 34.2655C72.2811 34.6615 71.9108 35.2249 71.5806 35.8097C71.3685 36.1854 71.1912 36.5378 71.0709 36.8164C71.0111 36.9551 70.972 37.062 70.9491 37.135C70.9535 37.1556 70.9585 37.1844 70.9692 37.2212C70.999 37.3232 71.048 37.4555 71.1201 37.6184C71.2653 37.9463 71.4735 38.334 71.7169 38.7544C72.0287 39.2927 72.4376 39.9473 72.7586 40.4956H76.5586C76.8795 39.9473 77.2885 39.2927 77.6002 38.7544C77.8437 38.334 78.0519 37.9463 78.197 37.6184C78.2691 37.4555 78.3181 37.3231 78.3479 37.2212C78.3587 37.1844 78.3636 37.1556 78.368 37.135C78.3452 37.062 78.3061 36.9551 78.2462 36.8164C78.1259 36.5378 77.9487 36.1854 77.7366 35.8097C77.4064 35.2249 77.036 34.6615 76.7184 34.2655H72.5988ZM80.2937 38.5277C80.0992 38.9672 79.8423 39.4377 79.5851 39.8816C79.4601 40.0975 79.3337 40.3006 79.2163 40.4956H81.5455C81.4281 40.3006 81.3017 40.0975 81.1767 39.8816C80.9196 39.4377 80.6626 38.9672 80.4681 38.5277C80.4385 38.4609 80.4093 38.3903 80.3798 38.3175C80.3503 38.3901 80.3232 38.4611 80.2937 38.5277ZM43.1768 35.4303C42.6491 36.0278 42.3274 36.8078 42.3274 37.6637V40.3219C42.6298 39.813 42.9868 39.2368 43.2662 38.7544C43.5097 38.334 43.7179 37.9463 43.863 37.6184C43.9351 37.4555 43.9841 37.3231 44.0139 37.2212C44.0247 37.1844 44.0296 37.1556 44.034 37.135C44.0112 37.062 43.9721 36.9551 43.9122 36.8164C43.7919 36.5378 43.6147 36.1854 43.4026 35.8097C43.33 35.6811 43.2523 35.5553 43.1768 35.4303ZM83.0252 35.8097C82.8131 36.1854 82.6359 36.5378 82.5156 36.8164C82.4557 36.9551 82.4166 37.062 82.3938 37.135C82.3982 37.1556 82.4031 37.1844 82.4139 37.2212C82.4437 37.3232 82.4927 37.4555 82.5648 37.6184C82.7099 37.9463 82.9181 38.334 83.1616 38.7544C83.441 39.2369 83.798 39.813 84.1004 40.3219V37.6637C84.1004 36.8077 83.7777 36.0278 83.2499 35.4303C83.1745 35.5551 83.0978 35.6813 83.0252 35.8097ZM45.7608 34.2655C45.5593 34.2655 45.3615 34.2823 45.1696 34.3153C45.2488 34.4473 45.3288 34.5759 45.4009 34.7035C45.6416 35.1298 45.858 35.5568 46.0178 35.927C46.0279 35.9503 46.036 35.9745 46.0458 35.9978C46.0557 35.9742 46.0658 35.9506 46.076 35.927C46.2358 35.5567 46.4522 35.1298 46.6929 34.7035C46.7739 34.5602 46.8623 34.4142 46.9522 34.2655H45.7608ZM56.8456 34.7035C57.0862 35.1298 57.3027 35.5568 57.4625 35.927C57.4726 35.9503 57.4806 35.9745 57.4905 35.9978C57.5004 35.9742 57.5105 35.9506 57.5206 35.927C57.6805 35.5567 57.8969 35.1298 58.1376 34.7035C58.2185 34.5602 58.3069 34.4142 58.3969 34.2655H56.5852C56.6752 34.4143 56.7645 34.56 56.8456 34.7035ZM68.2902 34.7035C68.5309 35.1298 68.7473 35.5568 68.9072 35.927C68.9172 35.9503 68.9253 35.9745 68.9351 35.9978C68.945 35.9742 68.9551 35.9506 68.9653 35.927C69.1251 35.5567 69.3416 35.1298 69.5822 34.7035C69.6632 34.5602 69.7516 34.4142 69.8415 34.2655H68.0298C68.1198 34.4143 68.2092 34.56 68.2902 34.7035ZM79.7349 34.7035C79.9756 35.1298 80.192 35.5568 80.3518 35.927C80.3619 35.9503 80.37 35.9745 80.3798 35.9978C80.3897 35.9742 80.3998 35.9506 80.41 35.927C80.5698 35.5567 80.7862 35.1298 81.0269 34.7035C81.0988 34.5762 81.1769 34.4471 81.256 34.3153C81.0646 34.2825 80.8678 34.2655 80.667 34.2655H79.4745C79.5645 34.4143 79.6539 34.56 79.7349 34.7035Z" fill="black"/>
</svg>
