<svg width="128" height="128" viewBox="0 0 128 128" fill="none" xmlns="http://www.w3.org/2000/svg">
<circle cx="64" cy="64" r="62" fill="#F6F8FA" stroke="#E7E7E7" stroke-width="4"/>
<path d="M50.278 54.4743C50.6251 54.4257 50.9862 54.4 51.3571 54.4C54.0397 54.4 56.2143 55.7431 56.2143 57.4C56.2143 59.0569 54.0397 60.4 51.3571 60.4C48.837 60.4 46.7652 59.2146 46.5235 57.6973C46.508 57.5995 46.5 57.5003 46.5 57.4C46.5 55.9722 48.1148 54.7774 50.278 54.4743Z" fill="#0B0B0D"/>
<path d="M95.0714 64C95.0714 58.3489 91.8307 53.0063 86.1303 48.9824C80.4345 44.9618 72.441 42.4 63.5 42.4C54.559 42.4 46.5655 44.9618 40.8697 48.9824C35.1693 53.0063 31.9286 58.3489 31.9286 64C31.9286 69.6511 35.1693 74.9937 40.8697 79.0176C46.5655 83.0382 54.559 85.6 63.5 85.6C72.441 85.6 80.4345 83.0382 86.1303 79.0176C91.8307 74.9937 95.0714 69.6511 95.0714 64ZM97.5 64C97.5 77.2548 82.2777 88 63.5 88C44.7223 88 29.5 77.2548 29.5 64C29.5 50.7452 44.7223 40 63.5 40C82.2777 40 97.5 50.7452 97.5 64Z" fill="black"/>
<path fill-rule="evenodd" clip-rule="evenodd" d="M70.5129 50.2658C70.1005 48.931 69.2431 47.8691 68.0891 47.1391C66.3316 46.0271 64.0076 45.7541 61.7663 46.2133L61.6975 46.2273L61.6311 46.2496C60.132 46.7411 58.9735 47.6625 58.0203 48.475C57.8698 48.6033 57.7256 48.7275 57.5865 48.8474C56.7865 49.5366 56.1542 50.0813 55.4482 50.4285C55.1061 50.5966 54.7362 50.6387 54.2304 50.5645C53.7197 50.4894 53.1713 50.3142 52.4482 50.0831L52.2821 50.0301C50.733 49.5361 48.6951 48.9215 46.1727 49.5121C44.2212 49.9691 42.5131 50.8898 41.2753 52.0832C40.0448 53.2697 39.2145 54.7959 39.2143 56.4391L39.2238 56.7379C39.3131 58.2365 40.0562 59.8273 40.9895 61.1969C41.5343 61.9964 42.1777 62.7704 42.8715 63.4649C42.862 63.6425 42.8571 63.8209 42.8571 64C42.8571 66.6084 43.8805 69.0547 45.6701 71.1648L46.2962 76.4629L70.8717 81.7233L74.8502 76.4269C77.3418 75.4357 79.5089 74.1101 81.2173 72.5412L87.7819 74.2669L86.5787 64.0854L85.3556 63.8236C85.2429 57.4604 79.0397 52.0903 70.5129 50.2658ZM70.7525 52.8473C70.7948 52.3968 70.7965 51.9646 70.7609 51.5518C73.7049 52.2403 76.3243 53.3699 78.4462 54.8078C80.5086 56.2054 82.0685 57.8667 83.0299 59.6777L76.3721 53.9031L70.4475 60.6325L67.7613 60.0575C69.4256 58.1174 70.473 55.8252 70.7525 52.8473ZM81.0848 62.9094L83.2534 60.1243C83.7724 61.2276 84.0722 62.3816 84.1318 63.5616L81.0848 62.9094ZM57.5068 75.3309L67.8239 76.9714L69.8809 77.2984L70.4958 76.5088L71.2744 75.5088L72.1694 75.7441L71.8499 76.1694L70.7059 77.6922L69.6259 79.1299L65.9633 78.3458L50.4277 75.02L48.5762 74.6236L48.4732 73.7531L48.2728 72.0589L47.9558 69.3782L59.9674 72.5361L57.5068 75.3309ZM45.3747 68.6654L45.093 66.2814L61.6435 70.6323L63.9576 68.0039L56.5676 66.0612L56.8194 65.7261C56.0436 65.8838 55.2576 66.0177 54.4782 66.1234C52.6346 66.3735 50.7707 66.4741 49.1112 66.3426C47.4835 66.2135 45.9031 65.8502 44.7509 65.0512C44.5292 64.8974 44.3082 64.7324 44.0894 64.5577C44.1809 65.9806 44.6216 67.3644 45.3747 68.6654ZM76.2597 74.4746C77.0358 74.0817 77.7665 73.6528 78.4462 73.1922C78.928 72.8656 79.3825 72.5247 79.8083 72.1708L74.8819 70.8757L72.7899 73.5625L76.2597 74.4746ZM68.8386 74.7016L67.2319 74.446L62.2075 73.6469L62.5805 73.2231L63.418 72.272L64.2567 71.3193L66.5708 68.6909L72.3378 70.2069L70.246 72.8937L69.4878 73.8677L68.8386 74.7016ZM60.8055 64.6712L60.7055 64.8042L65.6339 66.0999L66.9406 66.4435L68.247 66.787L73.8528 68.2608L75.1256 68.5954L76.3972 68.9297L81.6779 70.3181L82.9571 70.6544L84.9191 71.1702L84.5403 67.9676L84.2987 65.9248L83.9445 65.8489L79.5316 64.9042L78.2185 64.6231L76.9039 64.3417L71.4313 63.1701L70.0777 62.8803L68.7237 62.5905L65.809 61.9665L64.2851 61.6403L63.249 61.4184L62.1536 62.8766L60.8055 64.6712ZM78.4569 62.3469L73.1552 61.2121L76.6022 57.2969L80.0565 60.2922L78.4569 62.3469ZM54.1474 63.7457C55.8717 63.5118 57.5876 63.1358 59.1016 62.6878L62.0032 58.825L64.9929 59.465C66.9486 57.6098 68.0622 55.5163 68.3334 52.6258C68.3881 52.0429 68.3451 51.53 68.2232 51.0812C68.0839 50.5687 67.8418 50.1398 67.5249 49.7853C67.3085 49.5433 67.0572 49.336 66.78 49.1605C65.6922 48.4723 64.0817 48.2071 62.3367 48.5477C61.5465 48.8179 60.8532 49.2781 60.1395 49.8506C59.9638 49.9915 59.7869 50.1392 59.6069 50.2926C59.4844 50.397 59.3585 50.5061 59.2294 50.6179C58.9536 50.8568 58.663 51.1086 58.3579 51.3563C57.7967 51.8121 57.1867 52.254 56.5309 52.5766C55.6185 53.0253 54.712 53.0618 53.8735 52.9387C53.7191 52.916 53.5638 52.8873 53.4085 52.854C52.8387 52.732 52.2683 52.5489 51.7426 52.3802L51.6278 52.3434L51.5362 52.3141C50.0301 51.8338 48.5537 51.4212 46.7324 51.8477C45.1705 52.2134 43.8665 52.9377 42.971 53.8012C42.0682 54.6717 41.6429 55.615 41.6429 56.4402C41.6431 57.3246 42.1178 58.5555 43.0042 59.8563C43.1559 60.0789 43.3164 60.2987 43.484 60.5141C43.7748 60.8877 44.0868 61.2479 44.4112 61.5858C44.968 62.166 45.5612 62.6807 46.1454 63.0859C46.7728 63.521 47.8392 63.8333 49.3057 63.9496C50.7407 64.0634 52.4202 63.98 54.1474 63.7457Z" fill="black"/>
</svg>
