<svg width="128" height="128" viewBox="0 0 128 128" fill="none" xmlns="http://www.w3.org/2000/svg">
<circle cx="64" cy="64" r="62" fill="#F6F8FA" stroke="#E7E7E7" stroke-width="4"/>
<path fill-rule="evenodd" clip-rule="evenodd" d="M65.3944 87.831L50.2145 96.5951L32.5002 65.913L63.1824 48.1987L74.1819 67.2505L71.8773 71.0497L57.9985 70.3676L69.5679 63.6879L62.3715 51.2239L35.5254 66.7239L51.0254 93.5699L63.2331 86.5215L65.3944 87.831ZM67.6809 86.5109L80.8967 78.8808L79.1417 75.8411L74.296 75.6026L67.6809 86.5109ZM63.0477 85.6084L69.2652 75.3551L56.774 74.7422L63.0477 85.6084Z" fill="black"/>
<path fill-rule="evenodd" clip-rule="evenodd" d="M84.8188 34.9509L85.2621 31.405L88.2387 31.7781L87.8131 35.181C91.6556 36.1488 94.4998 39.6274 94.4998 43.7704L94.4891 44.2255C94.2686 48.5796 90.9034 52.1039 86.6195 52.5736L92.6244 75.3961L73.6916 74.4652L66.1081 86.9692L64.2138 85.821L71.1767 74.3409L57.3569 73.6619L57.465 71.4498L72.4828 72.1882L74.8139 68.3451L84.6428 52.5718C80.3704 52.0915 77.0178 48.5716 76.7977 44.2255L76.786 43.7704C76.786 39.1568 80.3137 35.3668 84.8188 34.9509ZM85.6434 37.913C88.8781 37.9131 91.4998 40.5357 91.4998 43.7704C91.4997 47.005 88.878 49.6267 85.6434 49.6268C82.4087 49.6268 79.7861 47.0051 79.786 43.7704C79.786 40.5356 82.4086 37.913 85.6434 37.913ZM89.7333 73.0359L85.2236 55.4524L74.9977 72.3115L89.7333 73.0359Z" fill="black"/>
</svg>
