<svg width="128" height="128" viewBox="0 0 128 128" fill="none" xmlns="http://www.w3.org/2000/svg">
<circle cx="64" cy="64" r="62" fill="#F6F8FA" stroke="#E7E7E7" stroke-width="4"/>
<path fill-rule="evenodd" clip-rule="evenodd" d="M34.4076 69.9034C34.4061 69.8735 34.4045 69.8429 34.4029 69.8115ZM32.0382 70.1636L32.036 70.1261C32.0375 70.1532 32.0389 70.176 32.0399 70.195C32.0394 70.1855 32.0388 70.1751 32.0382 70.1636Z" fill="#0B0B0D"/>
<path fill-rule="evenodd" clip-rule="evenodd" d="M93.8125 32.0534C94.9999 32.1066 95 32.1079 95 32.1079L94.9988 32.1306L94.9954 32.1942C94.9924 32.2496 94.9878 32.331 94.9814 32.436C94.9686 32.646 94.9486 32.9519 94.9187 33.3398C94.859 34.1155 94.7605 35.2211 94.6053 36.5462C94.2953 39.1921 93.7569 42.7345 92.8408 46.2892C91.9291 49.827 90.622 53.4638 88.7349 56.2411C87.0652 58.6986 84.8363 60.6197 81.9255 61.0349V84.8173L93.1554 90.3093L92.6238 92.512H70.5776C71.4232 91.2926 72.0126 89.8895 72.2701 88.3766L79.5481 84.8173V61.0349C76.6372 60.6197 74.4083 58.6986 72.7386 56.2411C70.8515 53.4638 69.5445 49.827 68.6327 46.2892C67.7166 42.7345 67.1782 39.1921 66.8682 36.5462C66.713 35.2211 66.6145 34.1155 66.5548 33.3398C66.5249 32.9519 66.5049 32.646 66.4921 32.436C66.4857 32.331 66.4811 32.2496 66.4782 32.1942L66.4747 32.1306L66.4735 32.1135C66.4735 32.1135 66.4736 32.1066 67.6611 32.0534L68.8486 32L68.8498 32.017L68.8504 32.034C68.8508 32.0445 68.8514 32.0604 68.8522 32.0756C68.8549 32.1257 68.8589 32.2002 68.8648 32.2975C68.8769 32.4962 68.8963 32.79 68.9252 33.1649C68.983 33.9151 69.0793 34.9899 69.2305 36.2805C69.5335 38.8665 70.0564 42.3005 70.9381 45.7215C71.8242 49.1595 73.0512 52.499 74.719 54.9536C76.3837 57.4036 78.3543 58.7947 80.7368 58.7947C83.1193 58.7947 85.0898 57.4037 86.7545 54.9536C88.4223 52.499 89.6493 49.1595 90.5354 45.7215C91.4171 42.3005 91.9401 38.8665 92.243 36.2805C92.3942 34.9899 92.4906 33.9151 92.5483 33.1649C92.5772 32.79 92.5966 32.4962 92.6087 32.2975C92.6146 32.2 92.6187 32.1234 92.6214 32.0732C92.6222 32.058 92.6227 32.0445 92.6231 32.034L92.6238 32.017C92.6241 32.011 92.6248 32.0062 92.6249 32.0034C92.6249 32.0034 92.6271 32.0002 93.8125 32.0534ZM87.588 90.1867L80.7368 86.8361L73.8855 90.1867H87.588Z" fill="#0B0B0D"/>
<path fill-rule="evenodd" clip-rule="evenodd" d="M83.1142 36.0693H89.7514C89.0096 41.8841 88.4159 49.3964 84.3029 54.0907L83.1142 53.5093V36.0693Z" fill="#0B0B0D"/>
<path d="M67.0667 73.856V60.4853H59.606L65.9314 74.0967L67.0667 73.856Z" fill="#0B0B0D"/>
<path fill-rule="evenodd" clip-rule="evenodd" d="M70.9248 89.0345C71.1222 88.2881 71.2272 87.5054 71.2272 86.6987V56.4694H41.5096V63.4453H36.7781C35.4643 63.4455 34.4146 63.8357 33.6357 64.5297C32.8796 65.2033 32.4802 66.0728 32.2659 66.8652C32.0512 67.6592 32.0017 68.4512 32 69.0634C31.9992 69.3734 32.011 69.6469 32.0221 69.8593L32.036 70.1261L32.0382 70.1636C32.0392 70.182 32.0401 70.1978 32.0407 70.2113L32.0418 70.2442C32.0418 70.5426 32.134 71.123 32.2334 71.693C32.3424 72.3186 32.4901 73.0903 32.6455 73.8673C32.9524 75.402 33.3056 77.0316 33.4639 77.5972L33.4756 77.6391C33.7541 78.6347 34.1219 79.9494 34.6874 81.109C35.2487 82.2598 36.1219 83.5074 37.5535 84.0191C38.6569 84.4135 39.5486 84.4197 40.2792 84.3166C40.5704 84.2754 40.841 84.2158 41.0395 84.172L41.1312 84.1519C41.3647 84.1013 41.4576 84.0895 41.5096 84.0895V86.6987L41.5224 87.1778C41.7691 91.9334 45.6673 95.7462 50.5294 95.9875L51.0192 96H61.7176C64.7207 96 67.3986 94.6384 69.1414 92.512C69.9679 91.5036 70.584 90.3232 70.9248 89.0345ZM51.0192 93.6747C47.0803 93.6746 43.887 90.5514 43.887 86.6987V58.7947H68.8498V86.6987C68.8498 90.5514 65.6566 93.6747 61.7176 93.6747H51.0192ZM35.2365 66.2487C35.5199 65.9962 35.9736 65.7708 36.7781 65.7707H41.5096V81.7642C41.1678 81.7642 40.8434 81.832 40.617 81.8811L40.488 81.9093C40.291 81.9526 40.1269 81.9887 39.9402 82.0151C39.5403 82.0715 39.052 82.0785 38.3696 81.8345C37.8301 81.6417 37.3126 81.0893 36.8338 80.1076C36.3673 79.1511 36.0468 78.0204 35.7565 76.9829C35.6257 76.5149 35.2894 74.9742 34.9788 73.4211C34.8253 72.6541 34.6817 71.9025 34.5771 71.3024C34.5247 71.0018 34.4832 70.7451 34.4552 70.5474C34.4244 70.3296 34.4192 70.2442 34.4192 70.2442C34.4192 70.1251 34.4116 69.979 34.4029 69.8115C34.3717 69.2119 34.3263 68.3392 34.5643 67.459C34.7073 66.9306 34.93 66.5217 35.2365 66.2487Z" fill="#0B0B0D"/>
</svg>
