<svg width="128" height="128" viewBox="0 0 128 128" fill="none" xmlns="http://www.w3.org/2000/svg">
<circle cx="64" cy="64" r="62" fill="#F6F8FA" stroke="#E7E7E7" stroke-width="4"/>
<path fill-rule="evenodd" clip-rule="evenodd" d="M84.2072 75.0281L83.9927 75.0988C84.0639 75.0753 84.1354 75.0517 84.2072 75.0281C84.2344 75.0191 84.2617 75.0102 84.289 75.0012L84.2072 75.0281Z" fill="black"/>
<path fill-rule="evenodd" clip-rule="evenodd" d="M44.0492 64.4487L33.4408 84.1751L32.0172 83.525L31 85.7215L53.5105 96L54.5276 93.8035L53.0515 93.1295L60.9796 72.0483C61.6601 70.2385 61.7344 68.3438 61.2976 66.591C62.2945 67.4847 63.3229 68.5635 64.1621 69.7841C64.6248 70.4571 64.6543 70.9434 64.5364 71.4539C64.4158 71.9759 64.1573 72.4896 63.7915 73.2167C63.6981 73.4024 63.5976 73.602 63.4907 73.8192C62.9997 74.8167 62.4628 76.0378 62.2561 77.5627C62.0479 79.0989 62.1823 80.8715 62.9203 82.9889C64.4338 87.3307 68.9701 91.1805 73.5375 93.0513C75.8429 93.9956 78.2824 94.49 80.4829 94.2263C82.7247 93.9575 84.7362 92.8895 85.9667 90.7474C87.4257 88.2076 89.2258 86.4708 90.8588 84.8953C91.3699 84.4021 91.8647 83.9248 92.3275 83.4435C93.2511 82.4831 94.1245 81.4196 94.4664 80.1583C94.8335 78.8034 94.5395 77.437 93.6108 76.0027C92.5293 74.3326 90.9205 73.8158 89.2736 73.8594C87.7221 73.9005 86.0122 74.4362 84.4612 74.9446L84.289 75.0012L84.2072 75.0281L83.9927 75.0988C82.5437 75.5763 81.2007 76.0189 79.9588 76.2035C78.6011 76.4052 77.6106 76.257 76.8753 75.6969C74.6823 74.0261 72.3812 71.8569 71.281 69.8762C70.7318 68.8876 70.5739 68.1088 70.688 67.5345C70.7888 67.0281 71.1532 66.4265 72.2874 65.8683C73.2199 65.4095 74.5541 65.4756 76.343 66.0147C77.7386 66.4353 79.2009 67.073 80.7041 67.7285C81.101 67.9016 81.5007 68.0759 81.9028 68.2478C83.7301 69.0289 85.6957 69.8022 87.3772 69.8538C88.2563 69.8807 89.1624 69.7162 89.9474 69.1689C90.7376 68.6178 91.2592 67.7804 91.5622 66.7398C91.8723 65.6747 91.8593 64.674 91.5527 63.7509C91.2512 62.843 90.6927 62.0891 90.0389 61.4576C88.7667 60.229 86.9407 59.2912 85.3369 58.4806L85.1447 58.3835C83.5238 57.5647 82.1453 56.8684 81.2529 56.0751C80.8089 55.6805 80.572 55.3329 80.4698 55.0241C80.377 54.7439 80.3599 54.3931 80.5577 53.8952C80.7731 53.3531 81.052 53.0179 81.3527 52.7934C81.6614 52.5629 82.0573 52.4013 82.5706 52.3092C83.6521 52.1153 84.9942 52.259 86.5905 52.4462L86.7234 52.4618C88.1871 52.6339 89.87 52.8317 91.3567 52.5891C92.9937 52.322 94.4977 51.504 95.3433 49.6286C96.8901 46.198 95.4925 41.9961 93.3518 38.9568C92.2549 37.3996 90.8899 36.0332 89.4305 35.1048C87.9889 34.1877 86.323 33.6178 84.6917 33.9132C83.3325 34.1594 82.3025 34.5942 81.4905 35.1567C80.68 35.7183 80.147 36.3658 79.7402 36.9422C79.6025 37.1373 79.4679 37.3417 79.3496 37.5211C79.3024 37.5929 79.2574 37.6612 79.2162 37.7228C79.0598 37.9567 78.9304 38.1378 78.8015 38.2885C78.5679 38.5613 78.3577 38.7094 78.0446 38.7844C76.9757 39.0403 75.6128 39.0494 74.4524 38.9769C74.1361 38.9572 73.8424 38.932 73.5837 38.906C73.0653 36.4228 71.459 34.1979 69.043 32.9634L68.6397 32.7694C64.2559 30.8017 59.0966 32.7384 57.1165 37.0949L56.943 37.5055C55.3157 41.6311 57.0993 46.3258 61.0646 48.3521L61.4695 48.5456C65.7162 50.4515 70.6901 48.6943 72.797 44.622L72.9911 44.2206C73.4159 43.286 73.6599 42.316 73.7378 41.3493C73.9158 41.3643 74.1041 41.3784 74.3003 41.3907C75.5318 41.4676 77.1855 41.4774 78.6137 41.1356C79.5489 40.9117 80.1789 40.4119 80.6552 39.8555C80.8811 39.5915 81.0753 39.3121 81.2434 39.0608C81.3007 38.975 81.3539 38.8943 81.4053 38.8164C81.5151 38.6498 81.617 38.4952 81.7329 38.331C82.0527 37.8779 82.3941 37.4786 82.882 37.1406C83.3684 36.8036 84.0615 36.4859 85.1278 36.2927C85.922 36.1489 86.9556 36.4008 88.1187 37.1406C89.2639 37.8692 90.4089 38.9961 91.3579 40.3432C93.3088 43.1129 94.1477 46.3663 93.1224 48.6402C92.6819 49.6168 91.9806 50.0363 90.9622 50.2025C89.8386 50.3858 88.4721 50.2327 86.8757 50.0455L86.7985 50.0364C85.3218 49.8631 83.6222 49.6636 82.1381 49.9297C81.3561 50.07 80.5779 50.3465 79.8911 50.8591C79.1962 51.378 78.6576 52.0921 78.2941 53.0071C77.913 53.9664 77.8665 54.9009 78.1574 55.7799C78.4391 56.6304 78.999 57.3177 79.6297 57.8783C80.7694 58.8914 82.4177 59.722 83.9127 60.4753L84.233 60.6369C85.9085 61.4838 87.383 62.2649 88.3432 63.1924C88.8056 63.639 89.0968 64.0733 89.2416 64.5091C89.3812 64.9297 89.4106 65.4298 89.2249 66.0678C89.0322 66.7295 88.7718 67.035 88.55 67.1897C88.3226 67.3483 87.9855 67.4528 87.452 67.4365C86.3085 67.4014 84.7646 66.8389 82.8641 66.0265C82.5459 65.8905 82.2178 65.7476 81.8845 65.6021L81.7502 65.5435C80.2344 64.8816 78.5968 64.1666 77.0488 63.7001C75.1376 63.1242 73.0178 62.8101 71.2085 63.7001C69.6015 64.4908 68.5862 65.6245 68.2996 67.0669C68.0266 68.4413 68.474 69.8263 69.1504 71.0441C70.5015 73.4767 73.1348 75.8953 75.3947 77.617C76.8859 78.7531 78.6697 78.841 80.3189 78.596C81.7814 78.3786 83.332 77.8662 84.7401 77.401L84.968 77.3257L85.224 77.2415C86.8329 76.714 88.2033 76.308 89.3378 76.2779C90.3771 76.2503 91.0611 76.5336 91.5646 77.3111C92.2205 78.3241 92.2627 78.9912 92.1172 79.5289C91.9461 80.1602 91.4571 80.8489 90.5689 81.7726C90.2379 82.1167 89.8581 82.4849 89.4468 82.8811L89.3031 83.0194C87.6426 84.6176 85.5018 86.6781 83.8528 89.5488C83.069 90.9132 81.809 91.6316 80.1917 91.8255C78.5331 92.0244 76.5255 91.6584 74.4655 90.8147C70.3018 89.1093 66.4318 85.6748 65.2196 82.1977C64.595 80.4057 64.5154 79.0148 64.6683 77.8862C64.8227 76.7465 65.2232 75.8005 65.6759 74.8809C65.7499 74.7305 65.829 74.5747 65.9103 74.4144C66.2887 73.6689 66.7159 72.827 66.9081 71.9948C67.1751 70.8386 67.024 69.6591 66.1714 68.419C64.7591 66.365 62.9314 64.7156 61.4849 63.5915C61.4371 63.5543 61.3896 63.5177 61.3426 63.4816C66.0317 63.2025 70.4112 60.4121 72.4791 55.8622L76.0644 47.9736C76.559 46.8847 76.072 45.6034 74.9765 45.1114C72.5016 50.5569 66.053 52.9773 60.5734 50.518C55.0937 48.0584 52.6569 41.6494 55.132 36.2037C54.0363 35.7122 52.7471 36.1961 52.252 37.2848L48.6667 45.1734C46.3842 50.1955 47.5822 55.9004 51.2438 59.6123C48.2856 59.9372 45.5466 61.6645 44.0492 64.4487ZM70.7733 43.2251C72.2 40.0859 70.7966 36.3915 67.6379 34.9735C64.4791 33.5556 60.7611 34.9512 59.3344 38.0905C57.9078 41.2297 59.3125 44.9236 62.4713 46.3415C65.63 47.7591 69.3464 46.364 70.7733 43.2251ZM71.4391 52.2751C67.8992 54.1931 63.5293 54.4984 59.5717 52.7221C55.6139 50.9456 52.9546 47.485 52.0623 43.5774L50.8845 46.1689C48.4677 51.4865 50.8464 57.7451 56.1972 60.1469C61.5478 62.5483 67.8445 60.184 70.2612 54.8666L71.4391 52.2751ZM43.0559 71.4258L44.2153 69.2699L57.2023 75.1854L56.3269 77.5129L43.0559 71.4258ZM58.7002 71.2026L58.0567 72.9135L45.3647 67.1324L46.1946 65.5892C47.9008 62.4164 51.7907 61.1014 55.0897 62.5822C58.3887 64.0631 59.9676 67.8328 58.7002 71.2026ZM41.9068 73.5628L55.4724 79.7851L51.2002 91.1443L36.0977 84.3652L41.9068 73.5628Z" fill="black"/>
</svg>
