<svg width="128" height="128" viewBox="0 0 128 128" fill="none" xmlns="http://www.w3.org/2000/svg">
<circle cx="64" cy="64" r="62" fill="#F6F8FA" stroke="#E7E7E7" stroke-width="4"/>
<path fill-rule="evenodd" clip-rule="evenodd" d="M63.5223 35C75.4778 35 85.1696 44.7378 85.1696 56.75C85.1696 68.7622 75.4778 78.5 63.5223 78.5C51.5668 78.5 41.875 68.7622 41.875 56.75C41.875 44.7378 51.5668 35 63.5223 35ZM59.9897 66.9733L60.1219 75.4152C61.225 75.6168 62.3613 75.7234 63.5223 75.7234C64.683 75.7234 65.819 75.6167 66.9218 75.4152L67.0531 66.9733L63.5214 63.5396L59.9897 66.9733ZM53.7844 73.0083C55.4404 74.0117 57.2617 74.7669 59.1981 75.2227L59.0829 67.8555L53.7844 73.0083ZM67.8457 75.2227C69.7821 74.7669 71.6033 74.0116 73.2593 73.0083L67.9608 67.8555L67.8457 75.2227ZM47.8482 67.3358C49.2127 69.3713 50.9598 71.1265 52.9856 72.4976L59.0631 66.5883L58.9804 61.3126L53.7305 61.2294L47.8482 67.3358ZM68.0634 61.3126L67.9806 66.5883L74.0581 72.4976C76.0841 71.1265 77.831 69.3714 79.1956 67.3358L73.3151 61.2294L68.0634 61.3126ZM45.136 61.0939C45.5895 63.0394 46.3414 64.8694 47.3399 66.5332L52.4675 61.2095L45.136 61.0939ZM74.5772 61.2095L79.7047 66.5323C80.703 64.8687 81.4543 63.0391 81.9078 61.0939L74.5772 61.2095ZM59.9699 65.7062L62.8593 62.8961L61.393 61.4699C61.3078 61.431 61.2238 61.3902 61.1411 61.3469L59.9015 61.327L59.9699 65.7062ZM65.9026 61.3469C65.8205 61.3899 65.7371 61.4303 65.6525 61.4689L64.1835 62.8961L67.0729 65.7052L67.1413 61.327L65.9026 61.3469ZM63.8651 61.92C63.7517 61.9274 63.6375 61.9326 63.5223 61.9326C63.4068 61.9326 63.2923 61.9275 63.1787 61.92L63.5214 62.2526L63.8651 61.92ZM68.2199 58.8885C68.1812 58.9741 68.1406 59.0585 68.0975 59.1416L68.0777 60.3871L72.4371 60.3184L69.6403 57.4143L68.2199 58.8885ZM54.6085 60.3175L58.966 60.3861L58.9462 59.1416C58.9034 59.0591 58.8632 58.9753 58.8248 58.8903L57.4043 57.4152L54.6085 60.3175ZM70.2808 56.7491L73.6992 60.2985L82.0994 60.1656C82.2999 59.0575 82.4061 57.9162 82.4061 56.75C82.4061 55.5835 82.3 54.4418 82.0994 53.3335L73.6992 53.2006L70.2808 56.7491ZM44.9444 53.3335C44.7438 54.4418 44.6385 55.5836 44.6385 56.75C44.6385 57.9161 44.7439 59.0576 44.9444 60.1656L53.3455 60.2976L56.7629 56.7491L53.3455 53.2006L44.9444 53.3335ZM63.5223 53.5106C61.7417 53.5106 60.2982 54.961 60.2982 56.75C60.2982 58.5391 61.7417 59.9894 63.5223 59.9894C65.3029 59.9894 66.7464 58.5391 66.7464 56.75C66.7464 54.961 65.3029 53.5106 63.5223 53.5106ZM58.0448 56.75L58.3759 57.0944C58.3684 56.9805 58.3642 56.8657 58.3642 56.75C58.3642 56.6343 58.3684 56.5195 58.3759 56.4056L58.0448 56.75ZM68.6679 56.4047C68.6753 56.5189 68.6805 56.634 68.6805 56.75C68.6805 56.8651 68.6752 56.9793 68.6679 57.0926L68.9989 56.7491L68.6679 56.4047ZM54.6067 53.1807L57.4034 56.0848L58.8248 54.6088C58.8632 54.5238 58.9034 54.44 58.9462 54.3575L58.9651 53.112L54.6067 53.1807ZM68.0975 54.3575C68.1403 54.44 68.1805 54.5238 68.219 54.6088L69.6394 56.0839L72.4362 53.1807L68.0777 53.112C68.0841 53.5186 68.0909 53.9333 68.0975 54.3575ZM47.3399 46.9659C46.3413 48.6296 45.5896 50.4598 45.136 52.4052L52.4675 52.2896L47.3399 46.9659ZM74.5763 52.2886L81.9078 52.4052C81.4541 50.4597 80.7025 48.6297 79.7038 46.9659L74.5763 52.2886ZM52.9856 41.0015C50.9598 42.3725 49.2127 44.1279 47.8482 46.1633L53.7287 52.2697L58.9795 52.1865L59.0622 46.9099L52.9856 41.0015ZM67.9815 46.9108C68.0079 48.6002 68.0341 50.3121 68.0634 52.1865L73.3142 52.2688L79.1947 46.1633C77.8301 44.128 76.0839 42.3724 74.0581 41.0015L67.9815 46.9108ZM59.9015 52.1721L61.1411 52.1522C61.2232 52.1092 61.3067 52.0688 61.3912 52.0302L62.8593 50.6021L59.9699 47.7929L59.9015 52.1721ZM64.1844 50.6021L65.6525 52.0302C65.7371 52.0687 65.8205 52.1092 65.9026 52.1522L67.1413 52.1721L67.0729 47.7939L64.1844 50.6021ZM63.1787 51.5791C63.2923 51.5716 63.4068 51.5674 63.5223 51.5674C63.6375 51.5674 63.7518 51.5717 63.8651 51.5791L63.5223 51.2456L63.1787 51.5791ZM63.5223 37.7766C62.3614 37.7766 61.225 37.8824 60.1219 38.0839L59.9897 46.524L63.5214 49.9585L67.0531 46.5249L66.9218 38.0839C65.819 37.8825 64.6829 37.7766 63.5223 37.7766ZM59.1981 38.2764C57.2618 38.7322 55.4403 39.4875 53.7844 40.4908L59.082 45.6418L59.1981 38.2764ZM67.9608 45.6409L73.2584 40.4899C71.6027 39.487 69.7816 38.732 67.8457 38.2764C67.8884 40.9952 67.9246 43.33 67.9608 45.6409Z" fill="black"/>
<path d="M94.0813 79.9408L94.0789 79.9432C94.0767 79.9448 94.0725 79.9476 94.0672 79.9514C94.0565 79.9592 94.0394 79.9717 94.0167 79.988C93.9713 80.0206 93.9023 80.0691 93.8123 80.132C93.6319 80.258 93.3661 80.4402 93.0313 80.6594C92.3606 81.0987 91.4181 81.6841 90.3325 82.2678C88.1064 83.4646 85.4817 84.5416 83.3856 84.5417H43.659C41.2537 84.5416 38.6213 83.4549 36.5019 82.276C35.4609 81.697 34.5807 81.1168 33.9616 80.6818C33.6526 80.4647 33.4097 80.2844 33.2464 80.1603C33.1649 80.0984 33.1034 80.0503 33.0632 80.0187C33.0431 80.0029 33.0277 79.9918 33.0186 79.9845C33.014 79.9808 33.0092 79.9762 33.0092 79.9762L33.008 79.975L31.5 81.8583L31.507 81.8642C31.511 81.8674 31.5166 81.8717 31.5235 81.8772C31.5372 81.8882 31.5573 81.9036 31.5822 81.9232C31.6321 81.9624 31.7039 82.0184 31.796 82.0884C31.9805 82.2286 32.2472 82.426 32.5828 82.6619C33.2535 83.1331 34.2059 83.7615 35.3369 84.3906C37.5622 85.6284 40.6328 86.9583 43.659 86.9583H83.3856C86.1199 86.9583 89.1981 85.6187 91.467 84.3989C92.6285 83.7744 93.6315 83.1512 94.3443 82.6843C94.7013 82.4505 94.9873 82.255 95.1852 82.1167C95.2842 82.0476 95.361 81.9921 95.4143 81.9539C95.4408 81.9348 95.4621 81.9207 95.4765 81.9102C95.4836 81.9051 95.4889 81.9002 95.493 81.8973L95.4976 81.8937L95.5 81.8925L94.0813 79.9408Z" fill="#0B0B0D"/>
<path d="M50.2934 90.5833C50.2934 91.918 49.2165 93 47.8882 93C46.5598 93 45.4829 91.918 45.4829 90.5833C45.4829 89.2486 46.5598 88.1667 47.8882 88.1667C49.2165 88.1667 50.2934 89.2486 50.2934 90.5833Z" fill="#0B0B0D"/>
<path d="M81.5617 90.5833C81.5617 91.918 80.4849 93 79.1565 93C77.8281 93 76.7512 91.918 76.7512 90.5833C76.7512 89.2486 77.8281 88.1667 79.1565 88.1667C80.4849 88.1667 81.5617 89.2486 81.5617 90.5833Z" fill="#0B0B0D"/>
</svg>
