<svg width="128" height="128" viewBox="0 0 128 128" fill="none" xmlns="http://www.w3.org/2000/svg">
<circle cx="64" cy="64" r="62" fill="#F6F8FA" stroke="#E7E7E7" stroke-width="4"/>
<path fill-rule="evenodd" clip-rule="evenodd" d="M36.5757 71.3895L48.0284 71.6624L38.9443 95.1743L41.0813 96L50.4621 71.7204L68.7978 72.1574L70.1918 83.2461L72.4654 82.9597L71.1143 72.2126L77.1201 72.3557L85.9129 95.9866L88.0612 95.1877L79.5874 72.4145L90.4242 72.6728V40.5928H68.4135L65.3213 32H63.303L59.9899 40.5928H38.2584L36.5757 71.3895ZM65.5665 39.4471H62.8868L64.272 35.8522L65.5665 39.4471ZM88.1328 42.8843V70.3266L38.9924 69.1551L40.4279 42.8843H88.1328Z" fill="black"/>
<path fill-rule="evenodd" clip-rule="evenodd" d="M69.7611 47.7457C72.3002 47.8839 74.2466 50.0547 74.1087 52.5938C73.9705 55.1327 71.8005 57.079 69.2616 56.9415C69.2204 56.9392 69.1793 56.9364 69.1384 56.9331C68.5632 57.6685 67.8638 58.2997 67.0737 58.7967C67.613 59.0002 68.1856 59.1384 68.7826 59.2013L69.1373 59.2295C72.8211 59.4293 75.9863 56.6997 76.3685 53.0718L76.3967 52.7181C76.5968 49.0341 73.8672 45.868 70.239 45.4858L69.8854 45.4576C69.1601 45.4182 68.455 45.4924 67.7872 45.6646C68.5187 46.2442 69.1456 46.9474 69.6377 47.7406C69.6787 47.7417 69.7199 47.7434 69.7611 47.7457Z" fill="black"/>
<path d="M85.314 56.8835L80.2941 65.0793L82.884 66.824C83.4084 67.1778 83.5464 67.8901 83.1929 68.4147C82.8391 68.939 82.1279 69.0771 81.6034 68.7235L77.1953 65.7537L80.8353 59.8077L71.4311 65.6508C70.8936 65.9846 70.1878 65.8194 69.8539 65.282C69.5202 64.7445 69.6853 64.0386 70.2227 63.7048L83.7329 55.3125L85.314 56.8835Z" fill="black"/>
<path d="M69.6791 52.3532C69.7694 50.6896 69.2623 49.1316 68.3449 47.8878C67.8377 47.2004 67.2052 46.6089 66.4788 46.1487C65.6093 45.5979 64.6055 45.2351 63.5214 45.1209L63.1677 45.0927C59.3647 44.8862 56.1137 47.8022 55.9072 51.6052L55.8969 51.9598C55.8843 55.4902 58.5539 58.4665 62.0649 58.8364L62.4197 58.8646C63.6391 58.9307 64.8017 58.6759 65.8254 58.1737C66.5975 57.7949 67.2905 57.2754 67.8693 56.6468C68.8411 55.5913 69.4906 54.228 69.6509 52.7069L69.6791 52.3532ZM63.0434 47.3808C63.5329 47.4074 64.0004 47.5096 64.4351 47.6754C65.1774 47.9585 65.8243 48.427 66.3226 49.0216C67.0465 49.8853 67.4569 51.015 67.391 52.2289C67.325 53.4426 66.7946 54.5209 65.9816 55.3009C65.4216 55.838 64.7277 56.2336 63.959 56.4346C63.509 56.5522 63.0333 56.6031 62.544 56.5766C60.0048 56.4386 58.0576 54.2686 58.1952 51.7295C58.3332 49.1901 60.5041 47.2429 63.0434 47.3808Z" fill="black"/>
<path d="M55.8403 60.8216C57.0052 63.0387 55.4841 65.6862 53.0376 65.8498L52.797 65.8576H41.9978L50.2427 50.169L55.8403 60.8216ZM45.7907 63.5662H52.797C53.6587 63.5662 54.2123 62.6507 53.8118 61.8879L50.2416 55.0942L45.7907 63.5662Z" fill="black"/>
</svg>
