<svg width="96" height="96" viewBox="0 0 96 96" fill="none" xmlns="http://www.w3.org/2000/svg">
<rect x="1" y="1" width="94" height="94" rx="29" fill="#0B0B0D" stroke="#E7E7E7" stroke-width="2"/>
<path fill-rule="evenodd" clip-rule="evenodd" d="M46.4918 25.2063C48.9234 24.8752 51.5648 24.8822 53.8012 25.7807C56.1067 26.7074 57.9021 28.5548 58.594 31.6677C59.2486 34.6137 58.8804 36.9049 57.8223 38.6449C56.7754 40.366 55.1374 41.4083 53.514 42.0407C51.8905 42.6731 50.2087 42.9256 48.9537 43.0235C48.5239 43.057 48.1379 43.0701 47.8165 43.0763C47.8052 43.4329 47.7891 43.8773 47.7755 44.3873C47.7385 45.7775 47.6997 47.6627 47.6915 49.6412C47.6832 51.622 47.7059 53.6887 47.7911 55.4442C47.8766 57.2029 48.0215 58.5275 48.2151 59.1722C50.786 59.6114 52.7435 61.8453 52.7442 64.5414C52.7442 67.5534 50.3029 69.9946 47.291 69.9946C44.2792 69.9944 41.8377 67.5532 41.8377 64.5414C41.8384 61.9153 43.6952 59.7234 46.1675 59.2054C45.9744 58.2668 45.8609 56.9518 45.7923 55.5399C45.7046 53.7338 45.6824 51.6275 45.6907 49.6315C45.6991 47.6334 45.7395 45.7321 45.7767 44.3326C45.7953 43.6331 45.8121 43.0568 45.8256 42.6562C45.8323 42.4566 45.8392 42.2998 45.8431 42.1931C45.8451 42.14 45.846 42.0976 45.847 42.07C45.8476 42.0568 45.8487 42.0457 45.849 42.0388L45.8881 41.0032L46.9099 41.0677C46.9099 41.0677 46.9259 41.0692 46.9353 41.0697C46.9555 41.0707 46.9887 41.072 47.0311 41.0736C47.1174 41.0767 47.2495 41.0807 47.416 41.0814C47.75 41.0827 48.2292 41.0729 48.7974 41.0286C49.9437 40.9393 51.413 40.7118 52.7872 40.1767C54.1618 39.6412 55.3698 38.8264 56.1126 37.6055C56.8438 36.4031 57.2099 34.6654 56.6402 32.1014C56.0926 29.6382 54.7535 28.3196 53.0548 27.6369C51.2869 26.9266 49.0511 26.878 46.7634 27.1894C44.4938 27.4985 42.2781 28.1458 40.6205 28.7232C39.7951 29.0107 39.1138 29.2785 38.6412 29.4735C38.4055 29.5708 38.2215 29.6499 38.098 29.7041C38.0367 29.731 37.9898 29.7528 37.9593 29.7666C37.9446 29.7732 37.9332 29.779 37.9261 29.7822L37.4963 28.8776C37.1167 28.0558 37.0831 27.9765 37.0801 27.969C37.0899 27.9645 37.1187 27.9498 37.1367 27.9417C37.1729 27.9254 37.2258 27.9028 37.293 27.8733C37.4291 27.8136 37.6284 27.7286 37.8792 27.6251C38.3807 27.4182 39.0976 27.1356 39.964 26.8338C41.691 26.2323 44.0423 25.5399 46.4918 25.2063ZM47.291 61.0889C45.3846 61.0891 43.8392 62.6352 43.8385 64.5414C43.8385 66.4482 45.3842 67.9936 47.291 67.9938C49.1979 67.9938 50.7434 66.4484 50.7434 64.5414C50.7427 62.635 49.1975 61.0889 47.291 61.0889Z" fill="#EFF2F5"/>
<path fill-rule="evenodd" clip-rule="evenodd" d="M46.4918 25.2063C48.9234 24.8752 51.5648 24.8822 53.8012 25.7807C56.1067 26.7074 57.9021 28.5548 58.594 31.6677C59.2486 34.6137 58.8804 36.9049 57.8223 38.6449C56.7754 40.366 55.1374 41.4083 53.514 42.0407C51.8905 42.6731 50.2087 42.9256 48.9537 43.0235C48.5239 43.057 48.1379 43.0701 47.8165 43.0763L47.8063 43.3875C47.7966 43.6804 47.7854 44.0165 47.7755 44.3873C47.7385 45.7775 47.6997 47.6627 47.6915 49.6412C47.6832 51.622 47.7059 53.6887 47.7911 55.4442C47.8766 57.2029 48.0215 58.5275 48.2151 59.1722C50.786 59.6114 52.7435 61.8453 52.7442 64.5414C52.7442 67.5534 50.3029 69.9946 47.291 69.9946C44.2792 69.9944 41.8377 67.5532 41.8377 64.5414C41.8384 61.9153 43.6952 59.7234 46.1675 59.2054C45.9744 58.2668 45.8609 56.9518 45.7923 55.5399C45.7046 53.7338 45.6824 51.6275 45.6907 49.6315C45.6991 47.6334 45.7395 45.7321 45.7767 44.3326C45.7953 43.6331 45.8121 43.0568 45.8256 42.6562C45.8299 42.527 45.8344 42.4157 45.838 42.3244L45.8431 42.1931L45.8456 42.1147L45.847 42.07C45.8474 42.0624 45.8486 42.0446 45.849 42.0388L45.8881 41.0032L46.9099 41.0677C46.9099 41.0677 46.9259 41.0692 46.9353 41.0697C46.9555 41.0707 46.9887 41.072 47.0311 41.0736C47.1174 41.0767 47.2495 41.0807 47.416 41.0814C47.75 41.0827 48.2292 41.0729 48.7974 41.0286C49.9437 40.9393 51.413 40.7118 52.7872 40.1767C54.1618 39.6412 55.3698 38.8264 56.1126 37.6055C56.8438 36.4031 57.2099 34.6654 56.6402 32.1014C56.0926 29.6382 54.7535 28.3196 53.0548 27.6369C51.2869 26.9266 49.0511 26.878 46.7634 27.1894C44.4938 27.4985 42.2781 28.1458 40.6205 28.7232C39.7951 29.0107 39.1138 29.2785 38.6412 29.4735C38.4055 29.5708 38.2215 29.6499 38.098 29.7041C38.0546 29.7231 38.0184 29.7397 37.9901 29.7526L37.9593 29.7666L37.9261 29.7822L37.4963 28.8776C37.1167 28.0558 37.0831 27.9765 37.0801 27.969L37.0995 27.9596C37.1116 27.9536 37.1261 27.9465 37.1367 27.9417C37.158 27.9321 37.1851 27.9203 37.2175 27.9062L37.293 27.8733C37.4291 27.8136 37.6284 27.7286 37.8792 27.6251C38.3807 27.4182 39.0976 27.1356 39.964 26.8338C41.691 26.2323 44.0423 25.5399 46.4918 25.2063Z" fill="#EFF2F5"/>
</svg>
