<svg xmlns="http://www.w3.org/2000/svg" width="64" height="64" viewBox="0 0 64 64" fill="none">
  <rect x="1" y="1" width="62" height="62" rx="7" fill="#0B0B0D" stroke="#E7E7E7" stroke-width="2"/>
  <path d="M24.5164 10.9487C26.8458 9.29577 29.7897 8.68709 32.615 8.85401C35.4394 9.02096 38.2456 9.96759 40.3386 11.5474C42.4414 13.1346 43.8899 15.4244 43.7429 18.2134C43.5741 21.414 41.5244 23.6719 39.073 25.0864C36.9579 26.3069 34.4423 26.9666 32.2439 27.1226V41.1606H30.2439V25.1606H31.2439C33.3374 25.1606 35.9644 24.5706 38.073 23.354C40.1741 22.1416 41.6241 20.3989 41.7449 18.1079C41.8479 16.1532 40.8589 14.4453 39.1335 13.1431C37.3985 11.8336 34.9856 10.9982 32.4978 10.8511C30.0108 10.7041 27.5481 11.2502 25.6746 12.5796C23.832 13.8871 22.471 16.0111 22.241 19.2319L20.2468 19.0894C20.5168 15.3104 22.1561 12.6238 24.5164 10.9487Z" fill="#EFF2F5"/>
  <path d="M36.7439 48.6729C36.7439 51.7104 34.2815 54.1729 31.2439 54.1729C28.2063 54.1729 25.7439 51.7104 25.7439 48.6729C25.7439 45.6353 28.2063 43.1729 31.2439 43.1729C34.2815 43.1729 36.7439 45.6353 36.7439 48.6729Z" fill="#EFF2F5"/>
</svg>