<svg width="96" height="96" viewBox="0 0 96 96" fill="none" xmlns="http://www.w3.org/2000/svg">
<rect x="1" y="1" width="94" height="94" rx="29" fill="#484A55" stroke="#E7E7E7" stroke-width="2"/>
<path d="M46.4922 25.2058C48.9236 24.8748 51.5645 24.8826 53.8008 25.781C56.1062 26.7077 57.9018 28.5549 58.5938 31.6677C59.2483 34.6137 58.8804 36.9053 57.8223 38.6453C56.7754 40.3662 55.137 41.4084 53.5137 42.0408C51.8905 42.673 50.209 42.9253 48.9541 43.0232C48.5243 43.0567 48.1377 43.0697 47.8164 43.0759C47.805 43.4325 47.789 43.8774 47.7754 44.3875C47.7384 45.7776 47.6997 47.6629 47.6914 49.6414C47.6832 51.6221 47.7057 53.6886 47.791 55.4441C47.8765 57.2028 48.0213 58.528 48.2148 59.1726C50.7857 59.6119 52.7435 61.8457 52.7441 64.5417C52.7439 67.5535 50.3028 69.9948 47.291 69.9949C44.2794 69.9946 41.8381 67.5534 41.8379 64.5417C41.8385 61.9157 43.6957 59.7238 46.168 59.2058C45.9749 58.2673 45.8606 56.9517 45.792 55.5398C45.7043 53.7337 45.6821 51.6275 45.6904 49.6316C45.6988 47.6336 45.7391 45.7323 45.7764 44.3328C45.795 43.6333 45.8117 43.0566 45.8252 42.656C45.8319 42.4565 45.8389 42.2997 45.8428 42.1931C45.8447 42.14 45.8456 42.0977 45.8467 42.0701C45.8472 42.0568 45.8484 42.0457 45.8486 42.0388V42.0291L45.8877 41.0037L46.9102 41.0681L46.9141 41.0701C46.9156 41.07 46.9268 41.0697 46.9355 41.0701C46.9557 41.0711 46.989 41.0725 47.0312 41.074C47.1175 41.0771 47.2496 41.0811 47.416 41.0818C47.75 41.0831 48.2297 41.0733 48.7979 41.0291C49.9441 40.9397 51.4132 40.7116 52.7871 40.1765C54.1617 39.641 55.3695 38.8261 56.1123 37.6052C56.8435 36.4029 57.2104 34.6653 56.6406 32.1013C56.093 29.6381 54.7534 28.3192 53.0547 27.6365C51.2868 26.9263 49.0511 26.8779 46.7637 27.1892C44.494 27.4983 42.2778 28.146 40.6201 28.7234C39.7952 29.0108 39.1141 29.2784 38.6416 29.4734C38.4058 29.5707 38.2211 29.6497 38.0977 29.7039C38.0364 29.7307 37.9894 29.7526 37.959 29.7664C37.9443 29.773 37.9328 29.7788 37.9258 29.782L37.916 29.7859L37.4961 28.8777C37.1223 28.0684 37.084 27.9791 37.0801 27.9695L37.082 27.9675C37.082 27.9675 37.0892 27.9638 37.0938 27.9617C37.1036 27.9572 37.1188 27.9502 37.1367 27.9421C37.1728 27.9259 37.2257 27.9023 37.293 27.8728C37.429 27.8131 37.6283 27.7282 37.8789 27.6248C38.3804 27.4179 39.0976 27.1355 39.9639 26.8337C41.6909 26.2322 44.0427 25.5395 46.4922 25.2058ZM47.291 61.0886C45.3847 61.0889 43.8396 62.6355 43.8389 64.5417C43.8391 66.4484 45.3844 67.9937 47.291 67.9939C49.1979 67.9939 50.743 66.4486 50.7432 64.5417C50.7424 62.6354 49.1975 61.0887 47.291 61.0886Z" fill="#9EA5B7"/>
<path d="M46.4922 25.2058C48.9236 24.8748 51.5645 24.8826 53.8008 25.781C56.1062 26.7077 57.9018 28.5549 58.5938 31.6677C59.2483 34.6137 58.8804 36.9053 57.8223 38.6453C56.7754 40.3662 55.137 41.4084 53.5137 42.0408C51.8905 42.673 50.209 42.9253 48.9541 43.0232C48.5243 43.0567 48.1377 43.0697 47.8164 43.0759C47.805 43.4325 47.789 43.8774 47.7754 44.3875C47.7384 45.7776 47.6997 47.6629 47.6914 49.6414C47.6832 51.6221 47.7057 53.6886 47.791 55.4441C47.8765 57.2028 48.0213 58.528 48.2148 59.1726C50.7857 59.6119 52.7435 61.8457 52.7441 64.5417C52.7439 67.5535 50.3028 69.9948 47.291 69.9949C44.2794 69.9946 41.8381 67.5534 41.8379 64.5417C41.8385 61.9157 43.6957 59.7238 46.168 59.2058C45.9749 58.2673 45.8606 56.9517 45.792 55.5398C45.7043 53.7337 45.6821 51.6275 45.6904 49.6316C45.6988 47.6336 45.7391 45.7323 45.7764 44.3328C45.795 43.6333 45.8117 43.0566 45.8252 42.656C45.8319 42.4565 45.8389 42.2997 45.8428 42.1931C45.8447 42.14 45.8456 42.0977 45.8467 42.0701C45.8472 42.0568 45.8484 42.0457 45.8486 42.0388V42.0291L45.8877 41.0037L46.9102 41.0681L46.9141 41.0701C46.9156 41.07 46.9268 41.0697 46.9355 41.0701C46.9557 41.0711 46.989 41.0725 47.0312 41.074C47.1175 41.0771 47.2496 41.0811 47.416 41.0818C47.75 41.0831 48.2297 41.0733 48.7979 41.0291C49.9441 40.9397 51.4132 40.7116 52.7871 40.1765C54.1617 39.641 55.3695 38.8261 56.1123 37.6052C56.8435 36.4029 57.2104 34.6653 56.6406 32.1013C56.093 29.6381 54.7534 28.3192 53.0547 27.6365C51.2868 26.9263 49.0511 26.8779 46.7637 27.1892C44.494 27.4983 42.2778 28.146 40.6201 28.7234C39.7952 29.0108 39.1141 29.2784 38.6416 29.4734C38.4058 29.5707 38.2211 29.6497 38.0977 29.7039C38.0364 29.7307 37.9894 29.7526 37.959 29.7664C37.9443 29.773 37.9328 29.7788 37.9258 29.782L37.916 29.7859L37.4961 28.8777C37.1223 28.0684 37.084 27.9791 37.0801 27.9695L37.082 27.9675C37.082 27.9675 37.0892 27.9638 37.0938 27.9617C37.1036 27.9572 37.1188 27.9502 37.1367 27.9421C37.1728 27.9259 37.2257 27.9023 37.293 27.8728C37.429 27.8131 37.6283 27.7282 37.8789 27.6248C38.3804 27.4179 39.0976 27.1355 39.9639 26.8337C41.6909 26.2322 44.0427 25.5395 46.4922 25.2058ZM47.291 61.0886C45.3847 61.0889 43.8396 62.6355 43.8389 64.5417C43.8391 66.4484 45.3844 67.9937 47.291 67.9939C49.1979 67.9939 50.743 66.4486 50.7432 64.5417C50.7424 62.6354 49.1975 61.0887 47.291 61.0886Z" stroke="#8C94A6"/>
</svg>
