<svg width="64" height="64" viewBox="0 0 64 64" fill="none" xmlns="http://www.w3.org/2000/svg">
<rect x="1" y="1" width="62" height="62" rx="29" fill="#484A55" stroke="#E7E7E7" stroke-width="2"/>
<path d="M30.4922 9.20581C32.9236 8.87482 35.5645 8.88262 37.8008 9.78101C40.1062 10.7077 41.9018 12.5549 42.5938 15.6677C43.2483 18.6137 42.8804 20.9053 41.8223 22.6453C40.7754 24.3662 39.137 25.4084 37.5137 26.0408C35.8905 26.673 34.209 26.9253 32.9541 27.0232C32.5243 27.0567 32.1377 27.0697 31.8164 27.0759C31.805 27.4325 31.789 27.8774 31.7754 28.3875C31.7384 29.7776 31.6997 31.6629 31.6914 33.6414C31.6832 35.6221 31.7057 37.6886 31.791 39.4441C31.8765 41.2028 32.0213 42.528 32.2148 43.1726C34.7857 43.6119 36.7435 45.8457 36.7441 48.5417C36.7439 51.5535 34.3028 53.9948 31.291 53.9949C28.2794 53.9946 25.8381 51.5534 25.8379 48.5417C25.8385 45.9157 27.6957 43.7238 30.168 43.2058C29.9749 42.2673 29.8606 40.9517 29.792 39.5398C29.7043 37.7337 29.6821 35.6275 29.6904 33.6316C29.6988 31.6336 29.7391 29.7323 29.7764 28.3328C29.795 27.6333 29.8117 27.0566 29.8252 26.656C29.8319 26.4565 29.8389 26.2997 29.8428 26.1931C29.8447 26.14 29.8456 26.0977 29.8467 26.0701C29.8472 26.0568 29.8484 26.0457 29.8486 26.0388V26.0291L29.8877 25.0037L30.9102 25.0681L30.9141 25.0701C30.9156 25.07 30.9268 25.0697 30.9355 25.0701C30.9557 25.0711 30.989 25.0725 31.0312 25.074C31.1175 25.0771 31.2496 25.0811 31.416 25.0818C31.75 25.0831 32.2297 25.0733 32.7979 25.0291C33.9441 24.9397 35.4132 24.7116 36.7871 24.1765C38.1617 23.641 39.3695 22.8261 40.1123 21.6052C40.8435 20.4029 41.2104 18.6653 40.6406 16.1013C40.093 13.6381 38.7534 12.3192 37.0547 11.6365C35.2868 10.9263 33.0511 10.8779 30.7637 11.1892C28.494 11.4983 26.2778 12.146 24.6201 12.7234C23.7952 13.0108 23.1141 13.2784 22.6416 13.4734C22.4058 13.5707 22.2211 13.6497 22.0977 13.7039C22.0364 13.7307 21.9894 13.7526 21.959 13.7664C21.9443 13.773 21.9328 13.7788 21.9258 13.782L21.916 13.7859L21.4961 12.8777C21.1223 12.0684 21.084 11.9791 21.0801 11.9695L21.082 11.9675C21.082 11.9675 21.0892 11.9638 21.0938 11.9617C21.1036 11.9572 21.1188 11.9502 21.1367 11.9421C21.1728 11.9259 21.2257 11.9023 21.293 11.8728C21.429 11.8131 21.6283 11.7282 21.8789 11.6248C22.3804 11.4179 23.0976 11.1355 23.9639 10.8337C25.6909 10.2322 28.0427 9.53945 30.4922 9.20581ZM31.291 45.0886C29.3847 45.0889 27.8396 46.6355 27.8389 48.5417C27.8391 50.4484 29.3844 51.9937 31.291 51.9939C33.1979 51.9939 34.743 50.4486 34.7432 48.5417C34.7424 46.6354 33.1975 45.0887 31.291 45.0886Z" fill="#9EA5B7"/>
<path d="M30.4922 9.20581C32.9236 8.87482 35.5645 8.88262 37.8008 9.78101C40.1062 10.7077 41.9018 12.5549 42.5938 15.6677C43.2483 18.6137 42.8804 20.9053 41.8223 22.6453C40.7754 24.3662 39.137 25.4084 37.5137 26.0408C35.8905 26.673 34.209 26.9253 32.9541 27.0232C32.5243 27.0567 32.1377 27.0697 31.8164 27.0759C31.805 27.4325 31.789 27.8774 31.7754 28.3875C31.7384 29.7776 31.6997 31.6629 31.6914 33.6414C31.6832 35.6221 31.7057 37.6886 31.791 39.4441C31.8765 41.2028 32.0213 42.528 32.2148 43.1726C34.7857 43.6119 36.7435 45.8457 36.7441 48.5417C36.7439 51.5535 34.3028 53.9948 31.291 53.9949C28.2794 53.9946 25.8381 51.5534 25.8379 48.5417C25.8385 45.9157 27.6957 43.7238 30.168 43.2058C29.9749 42.2673 29.8606 40.9517 29.792 39.5398C29.7043 37.7337 29.6821 35.6275 29.6904 33.6316C29.6988 31.6336 29.7391 29.7323 29.7764 28.3328C29.795 27.6333 29.8117 27.0566 29.8252 26.656C29.8319 26.4565 29.8389 26.2997 29.8428 26.1931C29.8447 26.14 29.8456 26.0977 29.8467 26.0701C29.8472 26.0568 29.8484 26.0457 29.8486 26.0388V26.0291L29.8877 25.0037L30.9102 25.0681L30.9141 25.0701C30.9156 25.07 30.9268 25.0697 30.9355 25.0701C30.9557 25.0711 30.989 25.0725 31.0312 25.074C31.1175 25.0771 31.2496 25.0811 31.416 25.0818C31.75 25.0831 32.2297 25.0733 32.7979 25.0291C33.9441 24.9397 35.4132 24.7116 36.7871 24.1765C38.1617 23.641 39.3695 22.8261 40.1123 21.6052C40.8435 20.4029 41.2104 18.6653 40.6406 16.1013C40.093 13.6381 38.7534 12.3192 37.0547 11.6365C35.2868 10.9263 33.0511 10.8779 30.7637 11.1892C28.494 11.4983 26.2778 12.146 24.6201 12.7234C23.7952 13.0108 23.1141 13.2784 22.6416 13.4734C22.4058 13.5707 22.2211 13.6497 22.0977 13.7039C22.0364 13.7307 21.9894 13.7526 21.959 13.7664C21.9443 13.773 21.9328 13.7788 21.9258 13.782L21.916 13.7859L21.4961 12.8777C21.1223 12.0684 21.084 11.9791 21.0801 11.9695L21.082 11.9675C21.082 11.9675 21.0892 11.9638 21.0938 11.9617C21.1036 11.9572 21.1188 11.9502 21.1367 11.9421C21.1728 11.9259 21.2257 11.9023 21.293 11.8728C21.429 11.8131 21.6283 11.7282 21.8789 11.6248C22.3804 11.4179 23.0976 11.1355 23.9639 10.8337C25.6909 10.2322 28.0427 9.53945 30.4922 9.20581ZM31.291 45.0886C29.3847 45.0889 27.8396 46.6355 27.8389 48.5417C27.8391 50.4484 29.3844 51.9937 31.291 51.9939C33.1979 51.9939 34.743 50.4486 34.7432 48.5417C34.7424 46.6354 33.1975 45.0887 31.291 45.0886Z" stroke="#8C94A6"/>
</svg>
