<svg xmlns="http://www.w3.org/2000/svg" width="96" height="96" viewBox="0 0 96 96" fill="none">
  <rect x="0.5" y="0.5" width="95" height="95" rx="7.5" fill="#484A55" stroke="#E7E7E7"/>
  <path d="M40.5164 26.9487C42.8458 25.2958 45.7897 24.6871 48.615 24.854C51.4394 25.021 54.2456 25.9676 56.3386 27.5474C58.4414 29.1346 59.8899 31.4244 59.7429 34.2134C59.5741 37.414 57.5244 39.6719 55.073 41.0864C52.9579 42.3069 50.4423 42.9666 48.2439 43.1226V57.1606H46.2439V41.1606H47.2439C49.3374 41.1606 51.9644 40.5706 54.073 39.354C56.1741 38.1416 57.6241 36.3989 57.7449 34.1079C57.8479 32.1532 56.8589 30.4453 55.1335 29.1431C53.3985 27.8336 50.9856 26.9982 48.4978 26.8511C46.0108 26.7041 43.5481 27.2502 41.6746 28.5796C39.832 29.8871 38.471 32.0111 38.241 35.2319L36.2468 35.0894C36.5168 31.3104 38.1561 28.6238 40.5164 26.9487Z" fill="#9EA5B7"/>
  <path d="M52.7439 64.6729C52.7439 67.7104 50.2815 70.1729 47.2439 70.1729C44.2063 70.1729 41.7439 67.7104 41.7439 64.6729C41.7439 61.6353 44.2063 59.1729 47.2439 59.1729C50.2815 59.1729 52.7439 61.6353 52.7439 64.6729Z" fill="#9EA5B7"/>
</svg>