<svg width="64" height="64" viewBox="0 0 64 64" fill="none" xmlns="http://www.w3.org/2000/svg">
<rect x="1" y="1" width="62" height="62" rx="7" fill="#EFF2F5" stroke="#484A55" stroke-width="2"/>
<path fill-rule="evenodd" clip-rule="evenodd" d="M30.4918 9.20627C32.9234 8.87521 35.5648 8.88216 37.8012 9.7807C40.1067 10.7074 41.9021 12.5548 42.594 15.6677C43.2486 18.6137 42.8804 20.9049 41.8223 22.6449C40.7754 24.366 39.1374 25.4083 37.514 26.0407C35.8905 26.6731 34.2087 26.9256 32.9537 27.0235C32.5239 27.057 32.1379 27.0701 31.8165 27.0763C31.8052 27.4329 31.7891 27.8773 31.7755 28.3873C31.7385 29.7775 31.6997 31.6627 31.6915 33.6412C31.6832 35.622 31.7059 37.6887 31.7911 39.4442C31.8766 41.2029 32.0215 42.5275 32.2151 43.1722C34.786 43.6114 36.7435 45.8453 36.7442 48.5414C36.7442 51.5534 34.3029 53.9946 31.291 53.9946C28.2792 53.9944 25.8377 51.5532 25.8377 48.5414C25.8384 45.9153 27.6952 43.7234 30.1675 43.2054C29.9744 42.2668 29.8609 40.9518 29.7923 39.5399C29.7046 37.7338 29.6824 35.6275 29.6907 33.6315C29.6991 31.6334 29.7395 29.7321 29.7767 28.3326C29.7953 27.6331 29.8121 27.0568 29.8256 26.6562C29.8323 26.4566 29.8392 26.2998 29.8431 26.1931C29.8451 26.14 29.846 26.0976 29.847 26.07C29.8476 26.0568 29.8487 26.0457 29.849 26.0388V26.029L29.8881 25.0032L30.9099 25.0677L30.9139 25.0697C30.9139 25.0697 30.9259 25.0692 30.9353 25.0697C30.9555 25.0707 30.9887 25.072 31.0311 25.0736C31.1174 25.0767 31.2495 25.0807 31.416 25.0814C31.75 25.0827 32.2292 25.0729 32.7974 25.0286C33.9437 24.9393 35.413 24.7118 36.7872 24.1767C38.1618 23.6412 39.3698 22.8264 40.1126 21.6055C40.8438 20.4031 41.2099 18.6654 40.6402 16.1014C40.0926 13.6382 38.7535 12.3196 37.0548 11.6369C35.2869 10.9266 33.0511 10.878 30.7634 11.1894C28.4938 11.4985 26.2781 12.1458 24.6205 12.7232C23.7951 13.0107 23.1138 13.2785 22.6412 13.4735C22.4055 13.5708 22.2215 13.6499 22.098 13.7041C22.0367 13.731 21.9898 13.7528 21.9593 13.7666C21.9446 13.7732 21.9332 13.779 21.9261 13.7822L21.9163 13.7861L21.4963 12.8776C21.1167 12.0558 21.0831 11.9765 21.0801 11.969L21.082 11.9671C21.082 11.9671 21.0892 11.9633 21.0938 11.9612C21.1036 11.9567 21.1187 11.9498 21.1367 11.9417C21.1729 11.9254 21.2258 11.9028 21.293 11.8733C21.4291 11.8136 21.6284 11.7286 21.8792 11.6251C22.3807 11.4182 23.0976 11.1356 23.964 10.8338C25.691 10.2323 28.0423 9.53991 30.4918 9.20627ZM31.291 45.0889C29.3846 45.0891 27.8392 46.6352 27.8385 48.5414C27.8385 50.4482 29.3842 51.9936 31.291 51.9938C33.1979 51.9938 34.7434 50.4484 34.7434 48.5414C34.7427 46.635 33.1975 45.0889 31.291 45.0889Z" fill="#0B0B0D"/>
</svg>
