<svg width="64" height="64" viewBox="0 0 64 64" fill="none" xmlns="http://www.w3.org/2000/svg">
<rect x="1" y="1" width="62" height="62" rx="7" fill="#0B0B0D" stroke="#E7E7E7" stroke-width="2"/>
<path d="M38.4063 21.4288C38.9674 20.6313 39.6605 20.1281 40.5257 19.9533C41.1354 19.8302 41.8461 20.0029 42.5977 20.6073C43.3558 21.217 44.1096 22.2377 44.7138 23.6686C45.9193 26.5242 46.4614 30.8648 45.3704 36.2408C44.9139 38.4903 44.3351 41.1353 43.3213 43.2294C42.3035 45.3316 40.9887 46.6076 39.1585 46.6594C38.1165 46.6888 37.3669 46.2916 36.7986 45.6586C37.709 44.3543 38.3523 42.75 38.8357 41.1665C39.3142 39.5988 39.6553 37.9887 39.9346 36.6123C41.2724 30.0204 40.3291 24.6642 38.4063 21.4288ZM31.9118 22.9462C31.6823 22.4024 31.4274 21.895 31.1504 21.4285C31.7115 20.6315 32.4049 20.1291 33.2685 19.9546C34.1764 19.7713 35.3733 20.267 36.4895 21.8793C38.2956 24.4881 39.4726 29.5471 38.114 36.2424C37.8354 37.6154 37.5094 39.1487 37.0593 40.6235C36.5912 42.1569 36.0066 43.5607 35.2514 44.6298C35.1974 44.7061 35.1426 44.7808 35.0869 44.8537C35.0312 44.9265 34.9746 44.9976 34.917 45.0669C34.0992 46.0513 33.1298 46.6255 31.9009 46.6603C30.8582 46.6897 30.1093 46.2913 29.5409 45.6576C30.4418 44.3668 31.0818 42.7818 31.5635 41.2144L31.5786 41.1651C31.7003 40.7663 31.8134 40.3649 31.9186 39.9653C32.2268 38.7935 32.4692 37.6371 32.6775 36.6109C33.8273 30.945 33.2907 26.2123 31.9118 22.9462ZM27.8302 44.8539L27.6608 45.0669C26.843 46.0511 25.8731 46.6254 24.6444 46.6602C22.8864 46.7098 21.8935 45.5126 21.2953 43.9577C21.0026 43.1967 20.8375 42.4191 20.7469 41.8223L29.3976 41.8223C28.9683 42.9873 28.457 44.034 27.8302 44.8539ZM31.216 34.0894L22.2648 34.0892C22.229 33.7133 22.1883 33.2214 22.1538 32.6467C22.0716 31.2748 22.0274 29.4444 22.1756 27.5854C22.3248 25.713 22.664 23.88 23.3085 22.4652C23.9487 21.0597 24.8253 20.1932 26.0122 19.9535C26.6218 19.8305 27.332 20.0042 28.0837 20.6087C28.8417 21.2184 29.5961 22.238 30.2002 23.6688C31.2405 26.1329 31.7867 29.7028 31.216 34.0894Z" fill="#F6F8FA"/>
<path fill-rule="evenodd" clip-rule="evenodd" d="M44.819 17.7293C43.5272 16.6905 41.8617 16.0204 40.0437 16.267L40.0283 16.2697L40.012 16.2724L39.7099 16.3241L39.6963 16.3259L39.6827 16.3287C38.7106 16.525 37.8643 16.9092 37.1353 17.4173C35.8195 16.4955 34.202 15.9708 32.4253 16.3296C31.4551 16.5256 30.6105 16.9092 29.8835 17.4154C28.5672 16.4969 26.9284 15.9731 25.168 16.3287C22.3789 16.8922 20.7351 18.9312 19.8193 20.9416C18.9145 22.9284 18.5275 25.2584 18.3643 27.3081C18.2205 29.1097 18.2391 30.8563 18.3035 32.2485H18.1329L17.1704 31.4112L16.4057 30.7834L16.0601 30.5013L15.8333 30.3172L15.689 30.1983L14.2385 29.0118L13.0637 30.4741L13.0401 30.504L13.0183 30.5294L12.9603 30.6002C12.8863 30.6891 12.7811 30.8144 12.6609 30.9549C12.533 31.1046 12.3987 31.2581 12.2717 31.3987C12.1493 31.534 12.0336 31.6574 11.937 31.7541C11.78 31.911 11.4997 32.1498 11.1995 32.3873C11.062 32.4959 10.9373 32.5904 10.8457 32.6595L10.745 32.7357L10.7241 32.7511L10.715 32.7574L7.95996 34.7777L10.4728 37.0529L10.5073 37.0873L10.5245 37.101L10.6343 37.2017L10.6706 37.2343L10.6987 37.2606C10.7822 37.337 10.8847 37.4303 10.9962 37.5337C11.2915 37.8077 11.629 38.1255 11.8698 38.3665C12.0726 38.5691 12.3534 38.8822 12.611 39.182C12.6877 39.2711 12.7584 39.3554 12.8201 39.4297L12.9095 39.5367L12.9167 39.5449L12.9394 39.5721L12.9857 39.6274L13.022 39.6719L14.1976 41.1233L16.7504 39.035L16.7531 39.0886L16.8239 41.0136V41.0281L16.8248 41.0517L16.8257 41.0698L16.8266 41.0825L16.8275 41.097L16.8311 41.1524C16.8352 41.2193 16.8416 41.3184 16.852 41.4417C16.8629 41.5683 16.8779 41.7212 16.8983 41.8956C16.916 42.0465 16.9382 42.2134 16.9654 42.3934C17.0806 43.1539 17.2983 44.216 17.7193 45.3099C18.5198 47.3906 20.4925 50.5078 24.6409 50.3909C25.9686 50.3535 27.137 49.986 28.1444 49.4021C29.1691 50.0427 30.4219 50.4325 31.8983 50.3909C33.2259 50.3534 34.3943 49.9861 35.4017 49.4021C36.4264 50.0426 37.6792 50.4316 39.1556 50.39C43.0823 50.279 45.3257 47.4114 46.5581 44.8663C46.6166 44.7457 46.6724 44.6237 46.7277 44.5016L49.6987 46.9455L50.8798 45.5276L50.8989 45.5086L50.9279 45.4678L50.947 45.4478L51.0041 45.3788L51.0159 45.365C51.0926 45.2726 51.1942 45.1515 51.3089 45.0178C51.5675 44.717 51.8478 44.4036 52.0501 44.2013C52.2905 43.9609 52.6275 43.6443 52.9237 43.3695L53.2394 43.0792L53.263 43.0565L53.2911 43.032L53.389 42.9413L53.4281 42.9068L55.96 40.6126L53.2267 38.6096L53.2031 38.5914L53.1786 38.5742L53.1695 38.5678L53.0743 38.4953C52.9849 38.4278 52.8597 38.3327 52.7214 38.2231C52.4955 38.0444 52.2809 37.8657 52.1217 37.7215L51.9829 37.5899C51.7861 37.393 51.5112 37.0844 51.259 36.7898L51.2028 36.7242C51.1048 36.6093 51.0173 36.5047 50.9551 36.4297L50.9107 36.377L50.888 36.348L50.8735 36.329L50.8499 36.299L50.82 36.2655L50.8118 36.2555L49.6288 34.892L49.2152 35.2295C49.9949 30.0276 49.4261 25.5483 48.0295 22.2407C47.2575 20.4121 46.1812 18.8248 44.819 17.7293ZM40.051 18.1492C41.331 17.8909 42.5883 18.3197 43.6542 19.1771C44.7143 20.0297 45.6296 21.3337 46.3177 22.9636C47.6966 26.2297 48.2332 30.9624 47.0833 36.6282C46.8765 37.6482 46.6347 38.8042 46.3249 39.982H49.1281C48.8872 39.7258 48.6373 39.4407 48.4368 39.2064C48.3021 39.049 48.1846 38.9093 48.1012 38.8091L48.0458 38.7428L48.0032 38.6902L47.986 38.6684L47.9769 38.6576L47.9705 38.6476C47.9751 38.6436 47.991 38.6295 48.0495 38.5809L48.0939 38.5444L48.1824 38.4714L48.2354 38.4275L48.3574 38.3276L49.4075 37.4719L49.4157 37.4819L49.4229 37.4918L49.4311 37.5009L49.4383 37.5118L49.4864 37.5699L49.5309 37.6225C49.6093 37.7172 49.7205 37.8495 49.8475 37.998C50.1065 38.3008 50.4194 38.6537 50.6694 38.9034C50.9057 39.1397 51.2563 39.433 51.5684 39.6799C51.7203 39.8 51.8555 39.9038 51.953 39.9775L52.0673 40.0628L52.0972 40.0845L52.1063 40.0918L53.0244 40.7649L52.1807 41.5296L52.1707 41.5378L52.1408 41.565L52.0319 41.6648C51.9385 41.7501 51.8083 41.8701 51.6609 42.0068C51.3633 42.2827 51.0041 42.6202 50.7365 42.8877C50.482 43.142 50.1645 43.5 49.901 43.8066L49.7418 43.9934L49.578 44.1885L49.5245 44.252L49.5091 44.2702L49.4837 44.301L49.4674 44.321L49.4601 44.331L49.4538 44.3382L48.0177 43.158L48.0241 43.1507L48.0522 43.1181L48.0649 43.1018L48.1511 42.9974L48.2985 42.8225L48.4922 42.5956C48.6886 42.3671 48.9308 42.0913 49.1662 41.8399H45.7743C45.518 42.6056 45.2259 43.3557 44.8862 44.057C43.7595 46.3841 41.9792 48.4526 39.103 48.5339C37.5059 48.5788 36.318 47.9568 35.4607 47.0779C34.4973 47.932 33.3053 48.4935 31.8457 48.5348C30.2486 48.5798 29.0607 47.9579 28.2034 47.0788C27.2404 47.9324 26.0484 48.4935 24.5892 48.5348C21.6409 48.6179 20.155 46.4676 19.4529 44.6421C19.0959 43.7143 18.9054 42.7944 18.8024 42.1157C18.7507 41.7741 18.7199 41.4872 18.7026 41.2838C18.694 41.1821 18.689 41.1 18.6854 41.0425L18.6827 40.9935L18.6818 40.9754L18.6809 40.9618L18.6799 40.9454L18.6446 39.9829H29.8862C30.24 38.7154 30.5126 37.4281 30.7498 36.2581C30.767 36.1725 30.7843 36.0869 30.8006 36.0017L30.8079 35.9642L14.7165 35.9651C14.9637 36.2269 15.2209 36.5201 15.4278 36.7607C15.5647 36.9198 15.684 37.0612 15.7689 37.1625L15.8568 37.2687L15.9049 37.3276L14.4662 38.5033L14.4208 38.4471L14.3627 38.3772L14.3419 38.3527L14.2203 38.2076L14.2053 38.1902C14.1496 38.1238 14.087 38.05 14.0198 37.9717C13.7563 37.665 13.4379 37.3063 13.1834 37.0519C12.9158 36.7844 12.5566 36.4477 12.259 36.1719C12.1116 36.0352 11.9814 35.9152 11.888 35.8299L11.7791 35.7292L11.7492 35.7029L11.7401 35.6947L10.8956 34.93L11.8145 34.256L11.8227 34.2496L11.8526 34.2279L11.9669 34.1417C12.0644 34.068 12.1996 33.9642 12.3516 33.8441C12.6636 33.5973 13.0142 33.3047 13.2506 33.0685C13.5 32.8189 13.8135 32.4659 14.0724 32.1631C14.1999 32.0145 14.311 31.8824 14.39 31.7876L14.4843 31.6724L14.5124 31.637L15.2327 32.2239C15.855 32.7303 15.9399 32.8038 15.9512 32.8136L15.8187 32.9742C15.7357 33.0743 15.6178 33.2134 15.4831 33.3706C15.293 33.5927 15.059 33.8608 14.8299 34.1063H20.2911C20.2575 33.7394 20.2221 33.2888 20.1913 32.7755C20.106 31.3524 20.0593 29.4292 20.2167 27.455C20.3732 25.494 20.7356 23.4132 21.5103 21.7126C22.2891 20.0026 23.5496 18.5514 25.5363 18.1501C26.8168 17.8916 28.0741 18.3196 29.1405 19.1771C29.4031 19.3882 29.6571 19.6273 29.9007 19.8919C30.6305 19.0376 31.578 18.3965 32.7936 18.1511C34.3998 17.8267 35.9315 18.5669 37.1553 19.8928C37.886 19.0371 38.8354 18.3948 40.051 18.1492Z" fill="#F6F8FA"/>
</svg>
