<svg width="64" height="64" viewBox="0 0 64 64" fill="none" xmlns="http://www.w3.org/2000/svg">
<rect x="1" y="1" width="62" height="62" rx="29" fill="#0B0B0D" stroke="#E7E7E7" stroke-width="2"/>
<path d="M37.4464 21.213C38.0074 20.4155 38.7005 19.9122 39.5657 19.7375C40.1754 19.6144 40.8861 19.787 41.6378 20.3915C42.3959 21.0012 43.1497 22.0219 43.7538 23.4528C44.9594 26.3084 45.5015 30.649 44.4105 36.025C43.954 38.2745 43.3751 40.9195 42.3613 43.0135C41.3435 45.1158 40.0287 46.3918 38.1985 46.4436C37.1565 46.473 36.4069 46.0758 35.8387 45.4428C36.7491 44.1384 37.3923 42.5342 37.8757 40.9507C38.3543 39.3829 38.6953 37.7729 38.9746 36.3965C40.3124 29.8045 39.3691 24.4484 37.4464 21.213ZM30.9519 22.7304C30.7223 22.1866 30.4675 21.6792 30.1904 21.2127C30.7515 20.4157 31.445 19.9133 32.3086 19.7388C33.2164 19.5554 34.4134 20.0512 35.5296 21.6634C37.3357 24.2723 38.5127 29.3313 37.154 36.0266C36.8754 37.3996 36.5494 38.9329 36.0993 40.4076C35.6312 41.9411 35.0467 43.3449 34.2914 44.414C34.2374 44.4903 34.1826 44.565 34.1269 44.6378C34.0712 44.7107 34.0146 44.7818 33.9571 44.851C33.1392 45.8355 32.1698 46.4097 30.9409 46.4444C29.8983 46.4739 29.1493 46.0755 28.581 45.4418C29.4819 44.151 30.1218 42.566 30.6035 40.9986L30.6186 40.9492C30.7403 40.5505 30.8535 40.1491 30.9587 39.7494C31.2669 38.5777 31.5093 37.4213 31.7175 36.3951C32.8674 30.7292 32.3307 25.9965 30.9519 22.7304ZM26.8702 44.6381L26.7009 44.851C25.8831 45.8353 24.9132 46.4096 23.6844 46.4444C21.9264 46.494 20.9335 45.2968 20.3353 43.7419C20.0426 42.9809 19.8775 42.2032 19.7869 41.6065L28.4377 41.6065C28.0084 42.7715 27.497 43.8182 26.8702 44.6381ZM30.256 33.8736L21.3049 33.8734C21.2691 33.4975 21.2283 33.0056 21.1939 32.4309C21.1117 31.059 21.0674 29.2286 21.2156 27.3696C21.3649 25.4972 21.704 23.6641 22.3485 22.2494C22.9888 20.8439 23.8653 19.9774 25.0522 19.7377C25.6619 19.6147 26.3721 19.7883 27.1237 20.3928C27.8817 21.0026 28.6362 22.0221 29.2403 23.453C30.2805 25.917 30.8268 29.4869 30.256 33.8736Z" fill="#F6F8FA"/>
<path fill-rule="evenodd" clip-rule="evenodd" d="M43.8591 17.5135C42.5673 16.4747 40.9017 15.8046 39.0838 16.0511L39.0683 16.0539L39.052 16.0566L38.7499 16.1083L38.7363 16.1101L38.7227 16.1128C37.7507 16.3092 36.9043 16.6934 36.1754 17.2014C34.8595 16.2797 33.2421 15.7549 31.4654 16.1137C30.4952 16.3098 29.6506 16.6934 28.9235 17.1996C27.6072 16.2811 25.9684 15.7573 24.208 16.1128C21.419 16.6764 19.7752 18.7154 18.8594 20.7258C17.9545 22.7126 17.5676 25.0426 17.4043 27.0923C17.2605 28.8939 17.2791 30.6405 17.3435 32.0327H17.173L16.2105 31.1954L15.4457 30.5676L15.1001 30.2855L14.8733 30.1013L14.7291 29.9825L13.2785 28.7959L12.1037 30.2583L12.0801 30.2882L12.0584 30.3136L12.0003 30.3844C11.9264 30.4733 11.8211 30.5986 11.7009 30.7391C11.573 30.8888 11.4388 31.0423 11.3118 31.1829C11.1893 31.3182 11.0736 31.4416 10.977 31.5383C10.8201 31.6952 10.5398 31.934 10.2395 32.1715C10.1021 32.2801 9.97732 32.3745 9.8857 32.4436L9.785 32.5198L9.76414 32.5353L9.75506 32.5416L7 34.5619L9.51285 36.8371L9.54732 36.8715L9.56456 36.8851L9.67433 36.9858L9.71061 37.0185L9.73874 37.0448C9.8222 37.1212 9.92471 37.2144 10.0363 37.3179C10.3316 37.5918 10.669 37.9097 10.9099 38.1506C11.1126 38.3532 11.3934 38.6664 11.651 38.9662C11.7277 39.0553 11.7985 39.1396 11.8601 39.2138L11.9495 39.3209L11.9568 39.329L11.9794 39.3563L12.0257 39.4116L12.062 39.456L13.2377 40.9075L15.7904 38.8192L15.7932 38.8727L15.8639 40.7977V40.8123L15.8648 40.8358L15.8657 40.854L15.8666 40.8667L15.8676 40.8812L15.8712 40.9365C15.8753 41.0035 15.8816 41.1026 15.892 41.2259C15.9029 41.3525 15.9179 41.5054 15.9383 41.6798C15.956 41.8306 15.9782 41.9976 16.0054 42.1775C16.1207 42.9381 16.3384 44.0002 16.7593 45.0941C17.5599 47.1748 19.5325 50.2919 23.681 50.1751C25.0086 50.1377 26.177 49.7702 27.1845 49.1863C28.2091 49.8269 29.4619 50.2166 30.9383 50.1751C32.2659 50.1376 33.4344 49.7703 34.4418 49.1863C35.4664 49.8268 36.7192 50.2158 38.1956 50.1742C42.1223 50.0632 44.3657 47.1956 45.5981 44.6505C45.6566 44.5299 45.7124 44.4079 45.7678 44.2858L48.7387 46.7297L49.9199 45.3118L49.9389 45.2928L49.9679 45.2519L49.987 45.232L50.0441 45.163L50.0559 45.1491C50.1326 45.0568 50.2342 44.9357 50.349 44.802C50.6075 44.5012 50.8878 44.1878 51.0901 43.9855C51.3305 43.745 51.6675 43.4285 51.9637 43.1537L52.2794 42.8634L52.303 42.8407L52.3311 42.8162L52.4291 42.7255L52.4681 42.691L55 40.3968L52.2667 38.3938L52.2431 38.3756L52.2186 38.3584L52.2096 38.352L52.1143 38.2794C52.0249 38.212 51.8998 38.1169 51.7614 38.0073C51.5355 37.8286 51.321 37.6499 51.1618 37.5056L51.023 37.3741C50.8261 37.1771 50.5513 36.8686 50.2991 36.574L50.2428 36.5084C50.1448 36.3935 50.0573 36.2889 49.9952 36.2138L49.9507 36.1612L49.928 36.1322L49.9135 36.1131L49.8899 36.0832L49.86 36.0496L49.8518 36.0397L48.6689 34.6762L48.2552 35.0137C49.0349 29.8118 48.4661 25.3325 47.0695 22.0248C46.2975 20.1963 45.2212 18.609 43.8591 17.5135ZM39.091 17.9334C40.371 17.6751 41.6284 18.1039 42.6943 18.9612C43.7543 19.8138 44.6696 21.1179 45.3577 22.7478C46.7366 26.0138 47.2732 30.7466 46.1234 36.4124C45.9165 37.4323 45.6748 38.5884 45.365 39.7662H48.1681C47.9273 39.51 47.6773 39.2249 47.4769 38.9906C47.3422 38.8332 47.2247 38.6935 47.1412 38.5932L47.0859 38.527L47.0432 38.4744L47.026 38.4526L47.0169 38.4417L47.0106 38.4318C47.0151 38.4278 47.031 38.4137 47.0895 38.3651L47.134 38.3286L47.2224 38.2556L47.2755 38.2117L47.3975 38.1118L48.4475 37.2561L48.4557 37.266L48.463 37.276L48.4711 37.2851L48.4784 37.296L48.5265 37.354L48.5709 37.4067C48.6494 37.5014 48.7605 37.6337 48.8875 37.7822C49.1465 38.085 49.4595 38.4379 49.7094 38.6876C49.9457 38.9239 50.2963 39.2172 50.6084 39.4641C50.7604 39.5842 50.8955 39.688 50.993 39.7617L51.1073 39.8469L51.1373 39.8687L51.1464 39.876L52.0644 40.5491L51.2207 41.3138L51.2108 41.322L51.1808 41.3492L51.072 41.449C50.9785 41.5343 50.8483 41.6542 50.7009 41.791C50.4034 42.0669 50.0441 42.4043 49.7765 42.6719C49.5221 42.9262 49.2046 43.2842 48.941 43.5908L48.7818 43.7775L48.6181 43.9727L48.5646 44.0362L48.5491 44.0544L48.5237 44.0852L48.5074 44.1052L48.5001 44.1152L48.4938 44.1224L47.0578 42.9422L47.0641 42.9349L47.0922 42.9023L47.1049 42.8859L47.1911 42.7816L47.3385 42.6067L47.5322 42.3797C47.7286 42.1513 47.9708 41.8754 48.2062 41.6241H44.8143C44.5581 42.3897 44.2659 43.1399 43.9262 43.8412C42.7995 46.1683 41.0192 48.2368 38.143 48.3181C36.546 48.363 35.358 47.741 34.5008 46.8621C33.5373 47.7162 32.3453 48.2777 30.8857 48.319C29.2886 48.364 28.1007 47.742 27.2434 46.863C26.2805 47.7166 25.0884 48.2777 23.6293 48.319C20.681 48.4021 19.195 46.2518 18.4929 44.4263C18.1359 43.4985 17.9454 42.5786 17.8425 41.8999C17.7907 41.5583 17.7599 41.2714 17.7427 41.068C17.734 40.9662 17.7291 40.8842 17.7254 40.8267L17.7227 40.7777L17.7218 40.7595L17.7209 40.7459L17.72 40.7296L17.6846 39.7671H28.9262C29.28 38.4996 29.5526 37.2122 29.7898 36.0423C29.8071 35.9567 29.8243 35.8711 29.8406 35.7859L29.8479 35.7484L13.7566 35.7493C14.0038 36.0111 14.261 36.3043 14.4678 36.5448C14.6048 36.704 14.7241 36.8454 14.8089 36.9467L14.8969 37.0529L14.945 37.1118L13.5062 38.2875L13.4608 38.2313L13.4028 38.1614L13.3819 38.1369L13.2604 37.9917L13.2454 37.9744C13.1896 37.908 13.127 37.8341 13.0599 37.7559C12.7963 37.4492 12.4779 37.0905 12.2235 36.836C11.9559 36.5686 11.5966 36.2319 11.2991 35.9561C11.1516 35.8194 11.0215 35.6994 10.928 35.6141L10.8192 35.5134L10.7892 35.4871L10.7802 35.4789L9.93559 34.7142L10.8546 34.0402L10.8627 34.0338L10.8927 34.012L11.007 33.9259C11.1045 33.8522 11.2396 33.7484 11.3916 33.6283C11.7037 33.3815 12.0543 33.0889 12.2906 32.8527C12.5401 32.603 12.8535 32.2501 13.1125 31.9473C13.2399 31.7986 13.3511 31.6665 13.43 31.5718L13.5243 31.4566L13.5525 31.4212L14.2728 32.0081C14.8951 32.5145 14.9799 32.5879 14.9912 32.5978L14.8588 32.7583C14.7758 32.8585 14.6578 32.9976 14.5231 33.1548C14.3331 33.3768 14.099 33.6449 13.87 33.8905H19.3311C19.2976 33.5235 19.2622 33.0729 19.2313 32.5597C19.1461 31.1366 19.0993 29.2134 19.2567 27.2391C19.4132 25.2782 19.7756 23.1974 20.5503 21.4968C21.3291 19.7868 22.5897 18.3356 24.5764 17.9343C25.8568 17.6757 27.1142 18.1038 28.1805 18.9612C28.4431 19.1724 28.6972 19.4115 28.9407 19.6761C29.6705 18.8217 30.6181 18.1807 31.8337 17.9352C33.4398 17.6109 34.9716 18.3511 36.1953 19.677C36.9261 18.8213 37.8754 18.179 39.091 17.9334Z" fill="#F6F8FA"/>
</svg>
