<svg width="96" height="96" viewBox="0 0 96 96" fill="none" xmlns="http://www.w3.org/2000/svg">
<rect x="1" y="1" width="94" height="94" rx="7" fill="#0B0B0D" stroke="#E7E7E7" stroke-width="2"/>
<path d="M54.4063 37.4288C54.9674 36.6313 55.6605 36.1281 56.5257 35.9533C57.1354 35.8302 57.8461 36.0029 58.5977 36.6073C59.3558 37.217 60.1096 38.2377 60.7138 39.6686C61.9193 42.5242 62.4614 46.8648 61.3704 52.2408C60.9139 54.4903 60.3351 57.1353 59.3213 59.2294C58.3035 61.3316 56.9887 62.6076 55.1585 62.6594C54.1165 62.6888 53.3669 62.2916 52.7986 61.6586C53.709 60.3543 54.3523 58.75 54.8357 57.1665C55.3142 55.5988 55.6553 53.9887 55.9346 52.6123C57.2724 46.0204 56.3291 40.6642 54.4063 37.4288ZM47.9118 38.9462C47.6823 38.4024 47.4274 37.895 47.1504 37.4285C47.7115 36.6315 48.4049 36.1291 49.2685 35.9546C50.1764 35.7713 51.3733 36.267 52.4895 37.8793C54.2956 40.4881 55.4726 45.5471 54.114 52.2424C53.8354 53.6154 53.5094 55.1487 53.0593 56.6235C52.5912 58.1569 52.0066 59.5607 51.2514 60.6298C51.1974 60.7061 51.1426 60.7808 51.0869 60.8537C51.0312 60.9265 50.9746 60.9976 50.917 61.0669C50.0992 62.0513 49.1298 62.6255 47.9009 62.6603C46.8582 62.6897 46.1093 62.2913 45.5409 61.6576C46.4418 60.3668 47.0818 58.7818 47.5635 57.2144L47.5786 57.1651C47.7003 56.7663 47.8134 56.3649 47.9186 55.9653C48.2268 54.7935 48.4692 53.6371 48.6775 52.6109C49.8273 46.945 49.2907 42.2123 47.9118 38.9462ZM43.8302 60.8539L43.6608 61.0669C42.843 62.0511 41.8731 62.6254 40.6444 62.6602C38.8864 62.7098 37.8935 61.5126 37.2953 59.9577C37.0026 59.1967 36.8375 58.4191 36.7469 57.8223L45.3976 57.8223C44.9683 58.9873 44.457 60.034 43.8302 60.8539ZM47.216 50.0894L38.2648 50.0892C38.229 49.7133 38.1883 49.2214 38.1538 48.6467C38.0716 47.2748 38.0274 45.4444 38.1756 43.5854C38.3248 41.713 38.664 39.88 39.3085 38.4652C39.9487 37.0597 40.8253 36.1932 42.0122 35.9535C42.6218 35.8305 43.332 36.0042 44.0837 36.6087C44.8417 37.2184 45.5961 38.238 46.2002 39.6688C47.2405 42.1329 47.7867 45.7028 47.216 50.0894Z" fill="#F6F8FA"/>
<path fill-rule="evenodd" clip-rule="evenodd" d="M60.819 33.7293C59.5272 32.6905 57.8617 32.0204 56.0437 32.267L56.0283 32.2697L56.012 32.2724L55.7099 32.3241L55.6963 32.3259L55.6827 32.3287C54.7106 32.525 53.8643 32.9092 53.1353 33.4173C51.8195 32.4955 50.202 31.9708 48.4253 32.3296C47.4551 32.5256 46.6105 32.9092 45.8835 33.4154C44.5672 32.4969 42.9284 31.9731 41.168 32.3287C38.3789 32.8922 36.7351 34.9312 35.8193 36.9416C34.9145 38.9284 34.5275 41.2584 34.3643 43.3081C34.2205 45.1097 34.2391 46.8563 34.3035 48.2485H34.1329L33.1704 47.4112L32.4057 46.7834L32.0601 46.5013L31.8333 46.3172L31.689 46.1983L30.2385 45.0118L29.0637 46.4741L29.0401 46.504L29.0183 46.5294L28.9603 46.6002C28.8863 46.6891 28.7811 46.8144 28.6609 46.9549C28.533 47.1046 28.3987 47.2581 28.2717 47.3987C28.1493 47.534 28.0336 47.6574 27.937 47.7541C27.78 47.911 27.4997 48.1498 27.1995 48.3873C27.062 48.4959 26.9373 48.5904 26.8457 48.6595L26.745 48.7357L26.7241 48.7511L26.715 48.7574L23.96 50.7777L26.4728 53.0529L26.5073 53.0873L26.5245 53.101L26.6343 53.2017L26.6706 53.2343L26.6987 53.2606C26.7822 53.337 26.8847 53.4303 26.9962 53.5337C27.2915 53.8077 27.629 54.1255 27.8698 54.3665C28.0726 54.5691 28.3534 54.8822 28.611 55.182C28.6877 55.2711 28.7584 55.3554 28.8201 55.4297L28.9095 55.5367L28.9167 55.5449L28.9394 55.5721L28.9857 55.6274L29.022 55.6719L30.1976 57.1233L32.7504 55.035L32.7531 55.0886L32.8239 57.0136V57.0281L32.8248 57.0517L32.8257 57.0698L32.8266 57.0825L32.8275 57.097L32.8311 57.1524C32.8352 57.2193 32.8416 57.3184 32.852 57.4417C32.8629 57.5683 32.8779 57.7212 32.8983 57.8956C32.916 58.0465 32.9382 58.2134 32.9654 58.3934C33.0806 59.1539 33.2983 60.216 33.7193 61.3099C34.5198 63.3906 36.4925 66.5078 40.6409 66.3909C41.9686 66.3535 43.137 65.986 44.1444 65.4021C45.1691 66.0427 46.4219 66.4325 47.8983 66.3909C49.2259 66.3534 50.3943 65.9861 51.4017 65.4021C52.4264 66.0426 53.6792 66.4316 55.1556 66.39C59.0823 66.279 61.3257 63.4114 62.5581 60.8663C62.6166 60.7457 62.6724 60.6237 62.7277 60.5016L65.6987 62.9455L66.8798 61.5276L66.8989 61.5086L66.9279 61.4678L66.947 61.4478L67.0041 61.3788L67.0159 61.365C67.0926 61.2726 67.1942 61.1515 67.3089 61.0178C67.5675 60.717 67.8478 60.4036 68.0501 60.2013C68.2905 59.9609 68.6275 59.6443 68.9237 59.3695L69.2394 59.0792L69.263 59.0565L69.2911 59.032L69.389 58.9413L69.4281 58.9068L71.96 56.6126L69.2267 54.6096L69.2031 54.5914L69.1786 54.5742L69.1695 54.5678L69.0743 54.4953C68.9849 54.4278 68.8597 54.3327 68.7214 54.2231C68.4955 54.0444 68.2809 53.8657 68.1217 53.7215L67.9829 53.5899C67.7861 53.393 67.5112 53.0844 67.259 52.7898L67.2028 52.7242C67.1048 52.6093 67.0173 52.5047 66.9551 52.4297L66.9107 52.377L66.888 52.348L66.8735 52.329L66.8499 52.299L66.82 52.2655L66.8118 52.2555L65.6288 50.892L65.2152 51.2295C65.9949 46.0276 65.4261 41.5483 64.0295 38.2407C63.2575 36.4121 62.1812 34.8248 60.819 33.7293ZM56.051 34.1492C57.331 33.8909 58.5883 34.3197 59.6542 35.1771C60.7143 36.0297 61.6296 37.3337 62.3177 38.9636C63.6966 42.2297 64.2332 46.9624 63.0833 52.6282C62.8765 53.6482 62.6347 54.8042 62.3249 55.982H65.1281C64.8872 55.7258 64.6373 55.4407 64.4368 55.2064C64.3021 55.049 64.1846 54.9093 64.1012 54.8091L64.0458 54.7428L64.0032 54.6902L63.986 54.6684L63.9769 54.6576L63.9705 54.6476C63.9751 54.6436 63.991 54.6295 64.0495 54.5809L64.0939 54.5444L64.1824 54.4714L64.2354 54.4275L64.3574 54.3276L65.4075 53.4719L65.4157 53.4819L65.4229 53.4918L65.4311 53.5009L65.4383 53.5118L65.4864 53.5699L65.5309 53.6225C65.6093 53.7172 65.7205 53.8495 65.8475 53.998C66.1065 54.3008 66.4194 54.6537 66.6694 54.9034C66.9057 55.1397 67.2563 55.433 67.5684 55.6799C67.7203 55.8 67.8555 55.9038 67.953 55.9775L68.0673 56.0628L68.0972 56.0845L68.1063 56.0918L69.0244 56.7649L68.1807 57.5296L68.1707 57.5378L68.1408 57.565L68.0319 57.6648C67.9385 57.7501 67.8083 57.8701 67.6609 58.0068C67.3633 58.2827 67.0041 58.6202 66.7365 58.8877C66.482 59.142 66.1645 59.5 65.901 59.8066L65.7418 59.9934L65.578 60.1885L65.5245 60.252L65.5091 60.2702L65.4837 60.301L65.4674 60.321L65.4601 60.331L65.4538 60.3382L64.0177 59.158L64.0241 59.1507L64.0522 59.1181L64.0649 59.1018L64.1511 58.9974L64.2985 58.8225L64.4922 58.5956C64.6886 58.3671 64.9308 58.0913 65.1662 57.8399H61.7743C61.518 58.6056 61.2259 59.3557 60.8862 60.057C59.7595 62.3841 57.9792 64.4526 55.103 64.5339C53.5059 64.5788 52.318 63.9568 51.4607 63.0779C50.4973 63.932 49.3053 64.4935 47.8457 64.5348C46.2486 64.5798 45.0607 63.9579 44.2034 63.0788C43.2404 63.9324 42.0484 64.4935 40.5892 64.5348C37.6409 64.6179 36.155 62.4676 35.4529 60.6421C35.0959 59.7143 34.9054 58.7944 34.8024 58.1157C34.7507 57.7741 34.7199 57.4872 34.7026 57.2838C34.694 57.1821 34.689 57.1 34.6854 57.0425L34.6827 56.9935L34.6818 56.9754L34.6809 56.9618L34.6799 56.9454L34.6446 55.9829H45.8862C46.24 54.7154 46.5126 53.4281 46.7498 52.2581C46.767 52.1725 46.7843 52.0869 46.8006 52.0017L46.8079 51.9642L30.7165 51.9651C30.9637 52.2269 31.2209 52.5201 31.4278 52.7607C31.5647 52.9198 31.684 53.0612 31.7689 53.1625L31.8568 53.2687L31.9049 53.3276L30.4662 54.5033L30.4208 54.4471L30.3627 54.3772L30.3419 54.3527L30.2203 54.2076L30.2053 54.1902C30.1496 54.1238 30.087 54.05 30.0198 53.9717C29.7563 53.665 29.4379 53.3063 29.1834 53.0519C28.9158 52.7844 28.5566 52.4477 28.259 52.1719C28.1116 52.0352 27.9814 51.9152 27.888 51.8299L27.7791 51.7292L27.7492 51.7029L27.7401 51.6947L26.8956 50.93L27.8145 50.256L27.8227 50.2496L27.8526 50.2279L27.9669 50.1417C28.0644 50.068 28.1996 49.9642 28.3516 49.8441C28.6636 49.5973 29.0142 49.3047 29.2506 49.0685C29.5 48.8189 29.8135 48.4659 30.0724 48.1631C30.1999 48.0145 30.311 47.8824 30.39 47.7876L30.4843 47.6724L30.5124 47.637L31.2327 48.2239C31.855 48.7303 31.9399 48.8038 31.9512 48.8136L31.8187 48.9742C31.7357 49.0743 31.6178 49.2134 31.4831 49.3706C31.293 49.5927 31.059 49.8608 30.8299 50.1063H36.2911C36.2575 49.7394 36.2221 49.2888 36.1913 48.7755C36.106 47.3524 36.0593 45.4292 36.2167 43.455C36.3732 41.494 36.7356 39.4132 37.5103 37.7126C38.2891 36.0026 39.5496 34.5514 41.5363 34.1501C42.8168 33.8916 44.0741 34.3196 45.1405 35.1771C45.4031 35.3882 45.6571 35.6273 45.9007 35.8919C46.6305 35.0376 47.578 34.3965 48.7936 34.1511C50.3998 33.8267 51.9315 34.5669 53.1553 35.8928C53.886 35.0371 54.8354 34.3948 56.051 34.1492Z" fill="#F6F8FA"/>
</svg>
