<svg width="64" height="64" viewBox="0 0 64 64" fill="none" xmlns="http://www.w3.org/2000/svg">
<rect x="1" y="1" width="62" height="62" rx="29" fill="#484A55" stroke="#E7E7E7" stroke-width="2"/>
<path fill-rule="evenodd" clip-rule="evenodd" d="M39.2746 16.642L39.9906 17.5239C39.9625 17.4846 39.9341 17.4456 39.9054 17.4069C39.8268 17.3005 39.7465 17.1964 39.6646 17.0948M39.2746 16.642C39.4078 16.7863 39.5384 16.9381 39.6646 17.0948Z" fill="black"/>
<path fill-rule="evenodd" clip-rule="evenodd" d="M39.2746 16.642L39.9906 17.5239C39.9625 17.4846 39.934 17.4456 39.9054 17.4069C39.8267 17.3005 39.7465 17.1964 39.6646 17.0948C39.5384 16.9381 39.4078 16.7863 39.2746 16.642Z" fill="black"/>
<path fill-rule="evenodd" clip-rule="evenodd" d="M16.3889 35.3968L16.378 35.384C16.3822 35.3889 16.3859 35.3932 16.3889 35.3968ZM14.8435 36.6674L14.8351 36.6567C14.8304 36.6506 14.8247 36.6432 14.8179 36.635M14.8351 36.6567C14.8383 36.6609 14.8411 36.6645 14.8435 36.6674ZM14.8971 29.2877C14.8951 29.2899 14.8988 29.2856 14.8971 29.2877ZM12.0066 33.7353C12.0264 33.7536 12.0491 33.7744 12.0744 33.7976L12.0066 33.7353ZM14.8971 29.2877L14.8829 29.3052C14.886 29.301 14.8947 29.2906 14.8971 29.2877Z" fill="black"/>
<path fill-rule="evenodd" clip-rule="evenodd" d="M52.529 42.9382L52.5206 42.949C52.5233 42.9456 52.5251 42.9433 52.529 42.9382C52.5333 42.9325 52.54 42.9239 52.5461 42.9165C52.5393 42.9248 52.5336 42.9321 52.529 42.9382ZM52.5504 35.6717C52.5499 35.671 52.5509 35.6723 52.5504 35.6717ZM52.4867 35.5939C52.4847 35.5914 52.4884 35.5961 52.4867 35.5939ZM50.9188 36.8358C50.9176 36.8344 50.9197 36.8368 50.9188 36.8358Z" fill="black"/>
<path fill-rule="evenodd" clip-rule="evenodd" d="M33.1555 39.5601L33.1394 39.6129L33.1473 39.5876C33.1486 39.5838 33.1497 39.5799 33.1508 39.5761C33.1524 39.5708 33.1539 39.5654 33.1555 39.5601Z" fill="black"/>
<path fill-rule="evenodd" clip-rule="evenodd" d="M19.3873 39.3222C19.3874 39.3263 19.3876 39.3311 19.3878 39.3365L19.3873 39.3222ZM33.1556 39.5598C33.2867 39.1305 33.4085 38.6985 33.5217 38.2682L33.55 38.2682L33.1556 39.5598Z" fill="black"/>
<path fill-rule="evenodd" clip-rule="evenodd" d="M14.8911 29.2946L14.9001 29.2842L14.8829 29.3051L14.8911 29.2946ZM14.8698 29.3219C14.8749 29.3156 14.8792 29.31 14.8829 29.3051Z" fill="black"/>
<path d="M38.4497 17.253C38.4792 17.2928 38.5084 17.333 38.5375 17.3735L37.7999 16.4651C37.9371 16.6138 38.0709 16.7691 38.2009 16.9305C38.2852 17.0352 38.3686 17.1433 38.4497 17.253ZM41.0106 14.5316C39.6623 14.8039 38.6101 15.5161 37.7999 16.4651C36.4426 14.9947 34.7447 14.1733 32.9633 14.5331C31.6154 14.8053 30.565 15.5165 29.7557 16.4639C29.4856 16.1703 29.2042 15.9054 28.913 15.6712C27.7305 14.7202 26.336 14.2454 24.916 14.5321C22.7133 14.9771 21.3157 16.5859 20.4519 18.482C19.5928 20.368 19.1906 22.6755 19.0173 24.8502C18.8428 27.0394 18.8945 29.1715 18.989 30.7495C19.0231 31.3189 19.0631 31.8187 19.1002 32.2257L13.0441 32.2256C13.2981 31.9533 13.5578 31.6563 13.7686 31.4101C13.9179 31.2356 14.0483 31.0809 14.1406 30.9698C14.1866 30.9143 14.2238 30.8694 14.2494 30.8382L14.2602 30.8249L14.2689 30.814L14.2786 30.8019L14.2871 30.792C14.2746 30.7811 14.181 30.6998 13.4912 30.1383C12.6923 29.488 12.6924 29.4874 12.6924 29.4874L12.6747 29.509C12.6709 29.514 12.6664 29.5198 12.6612 29.5263C12.6377 29.5549 12.5993 29.6015 12.5558 29.6539C12.4685 29.759 12.3456 29.9058 12.2044 30.0707C11.917 30.4065 11.5701 30.7975 11.2933 31.0743C11.0312 31.3364 10.642 31.6612 10.296 31.935C10.1276 32.0683 9.97731 32.1834 9.86924 32.2651C9.81526 32.3059 9.77195 32.3386 9.74264 32.3604L9.70991 32.3846L9.69996 32.3917L8.68138 33.1385L9.61745 33.9864L9.62811 33.9956L9.66083 34.0255L9.71194 34.0724L9.78175 34.1365C9.88529 34.2311 10.03 34.3639 10.1936 34.5156C10.5235 34.8216 10.922 35.1956 11.2186 35.4922C11.5007 35.7744 11.853 36.1714 12.1454 36.5115C12.2892 36.6788 12.4142 36.8281 12.5032 36.9347L12.5258 36.9617L12.5622 37.0049L12.5904 37.0384L12.6077 37.0592C12.6147 37.0677 12.6206 37.0753 12.6254 37.0816L12.6341 37.0926L12.6412 37.1012L14.2366 35.7974L14.2259 35.7839L14.2147 35.7706L14.2079 35.7626L14.1954 35.7476L14.1827 35.7323C14.1578 35.7021 14.1248 35.6621 14.0851 35.6146C13.9913 35.5022 13.8591 35.3451 13.7074 35.1686C13.478 34.9017 13.1924 34.5767 12.9184 34.2863L30.7612 34.2859C30.7403 34.3941 30.7188 34.5028 30.6966 34.6118C30.4334 35.9091 30.1319 37.336 29.7397 38.7415L17.2745 38.7415L17.3136 39.8092L17.3146 39.8271L17.3151 39.8419L17.3161 39.8622L17.3193 39.9173C17.3231 39.981 17.3289 40.0712 17.3385 40.184C17.3578 40.4096 17.3913 40.7276 17.4488 41.1066C17.5629 41.8593 17.7749 42.8793 18.1707 43.9084C18.9494 45.9326 20.596 48.3168 23.8654 48.2245C25.4838 48.1789 26.8053 47.5572 27.8734 46.6106C28.8241 47.5854 30.1408 48.2745 31.9119 48.2246C33.5308 48.1789 34.8528 47.5568 35.9211 46.6096C36.8719 47.5842 38.1887 48.2732 39.9594 48.2233C43.1488 48.1333 45.1229 45.8397 46.3723 43.2591C46.7488 42.4815 47.0738 41.6504 47.3578 40.8014L51.1182 40.801C50.8571 41.0798 50.5887 41.3857 50.3708 41.639C50.2191 41.8155 50.0869 41.9726 49.9931 42.085C49.9533 42.1327 49.9203 42.1727 49.8953 42.2029L49.8829 42.218L49.8635 42.241L49.8523 42.2543L49.8454 42.263L51.4371 43.5716L51.4442 43.5631L51.4528 43.552C51.4576 43.5458 51.4634 43.5382 51.4705 43.5297L51.4985 43.4961L51.516 43.4755C51.5334 43.4549 51.5532 43.4314 51.575 43.4052C51.664 43.2986 51.789 43.1493 51.9328 42.982C52.2252 42.6419 52.5775 42.2448 52.8596 41.9627C53.1563 41.6661 53.5547 41.292 53.8846 40.9861C54.0482 40.8344 54.1929 40.7016 54.2965 40.6069L54.3662 40.5429L54.4174 40.496L54.4501 40.4661C54.4536 40.4629 54.459 40.4585 54.4608 40.4569L55.3968 39.609L54.3783 38.8621L54.3683 38.855L54.3356 38.8308C54.3063 38.809 54.263 38.7763 54.209 38.7355C54.1009 38.6538 53.9506 38.5387 53.7822 38.4055C53.4362 38.1317 53.0471 37.8068 52.785 37.5448C52.5081 37.2679 52.1612 36.8769 51.8738 36.5412C51.7326 36.3762 51.6097 36.2295 51.5224 36.1243L51.4739 36.0658L51.4207 36.0013L51.4117 35.99L51.4036 35.9795L51.3951 35.9686L51.3858 35.9579C51.3858 35.9579 51.3859 35.9585 50.5871 36.6087C49.8971 37.1703 49.8052 37.2501 49.7927 37.261L49.7996 37.2724L49.8094 37.2845C49.8148 37.2914 49.8213 37.2995 49.8288 37.3086L49.8765 37.3665L49.9376 37.4402C50.0299 37.5514 50.1603 37.706 50.3096 37.8805C50.5321 38.1404 50.8089 38.4567 51.0761 38.7408L47.9679 38.7407C48.3116 37.4345 48.5795 36.1528 48.809 35.0218C50.084 28.7391 49.489 23.4911 47.96 19.8694C47.197 18.0621 46.1821 16.6164 45.0066 15.671C43.8243 14.7202 42.4303 14.245 41.0106 14.5316ZM39.068 18.187C39.6901 17.3027 40.4586 16.7447 41.418 16.5509C42.0941 16.4144 42.8822 16.6058 43.7157 17.2761C44.5563 17.9522 45.3922 19.084 46.0621 20.6707C47.3989 23.8372 48 28.6503 46.7902 34.6116C46.284 37.1059 45.6421 40.0389 44.518 42.361C43.3894 44.6921 41.9315 46.107 39.902 46.1644C38.7465 46.197 37.9153 45.7566 37.2852 45.0547C38.2947 43.6083 39.0081 41.8294 39.5441 40.0735C40.0747 38.3351 40.4529 36.5498 40.7626 35.0235C42.246 27.7139 41.2 21.7746 39.068 18.187ZM31.8664 19.8696C31.6119 19.2666 31.3293 18.7039 31.022 18.1867C31.6442 17.3029 32.4132 16.7458 33.3708 16.5523C34.3775 16.349 35.7048 16.8987 36.9425 18.6865C38.9452 21.5793 40.2504 27.1892 38.7438 34.6133C38.4348 36.1358 38.0734 37.836 37.5742 39.4713C37.0552 41.1717 36.407 42.7284 35.5695 43.9138C35.5097 43.9985 35.4489 44.0813 35.3871 44.1621C35.3253 44.2429 35.2626 44.3217 35.1988 44.3985C34.2919 45.4901 33.2169 46.1268 31.8543 46.1654C30.6981 46.198 29.8677 45.7562 29.2374 45.0536C30.2364 43.6222 30.946 41.8647 31.4801 40.1266L31.4969 40.0719C31.6319 39.6298 31.7573 39.1847 31.8739 38.7415C32.2157 37.4422 32.4845 36.1599 32.7154 35.0219C33.9904 28.7392 33.3954 23.4913 31.8664 19.8696ZM27.3404 44.1623L27.1526 44.3985C26.2458 45.4899 25.1703 46.1268 23.8078 46.1653C21.8584 46.2203 20.7574 44.8928 20.0941 43.1686C19.7695 42.3248 19.5864 41.4624 19.4859 40.8007L29.0785 40.8007C28.6025 42.0925 28.0354 43.2532 27.3404 44.1623ZM31.0948 32.226L21.1692 32.2257C21.1295 31.8089 21.0843 31.2635 21.0461 30.6262C20.9549 29.1049 20.9059 27.0753 21.0702 25.0138C21.2357 22.9376 21.6118 20.905 22.3264 19.3362C23.0364 17.7777 24.0084 16.8169 25.3245 16.5511C26.0005 16.4147 26.788 16.6073 27.6215 17.2776C28.462 17.9537 29.2986 19.0843 29.9685 20.6709C31.122 23.4032 31.7277 27.3617 31.0948 32.226Z" fill="black"/>
</svg>
