<svg width="96" height="96" viewBox="0 0 96 96" fill="none" xmlns="http://www.w3.org/2000/svg">
<rect x="1" y="1" width="94" height="94" rx="7" fill="#EFF2F5" stroke="#484A55" stroke-width="2"/>
<path fill-rule="evenodd" clip-rule="evenodd" d="M55.2746 32.642L55.9906 33.5239C55.9625 33.4846 55.9341 33.4456 55.9054 33.4069C55.8268 33.3005 55.7465 33.1964 55.6646 33.0948M55.2746 32.642C55.4078 32.7863 55.5384 32.9381 55.6646 33.0948Z" fill="black"/>
<path fill-rule="evenodd" clip-rule="evenodd" d="M55.2746 32.642L55.9906 33.5239C55.9625 33.4846 55.934 33.4456 55.9054 33.4069C55.8267 33.3005 55.7465 33.1964 55.6646 33.0948C55.5384 32.9381 55.4078 32.7863 55.2746 32.642Z" fill="black"/>
<path fill-rule="evenodd" clip-rule="evenodd" d="M32.3889 51.3968L32.378 51.384C32.3822 51.3889 32.3859 51.3932 32.3889 51.3968ZM30.8434 52.6674L30.8351 52.6567C30.8304 52.6506 30.8247 52.6432 30.8179 52.635M30.8351 52.6567C30.8383 52.6609 30.8411 52.6645 30.8434 52.6674ZM30.8971 45.2877C30.8951 45.2899 30.8987 45.2856 30.8971 45.2877ZM28.0066 49.7353C28.0264 49.7536 28.0491 49.7744 28.0744 49.7976L28.0066 49.7353ZM30.8971 45.2877L30.8829 45.3052C30.886 45.301 30.8947 45.2906 30.8971 45.2877Z" fill="black"/>
<path fill-rule="evenodd" clip-rule="evenodd" d="M68.529 58.9382L68.5206 58.949C68.5233 58.9456 68.5251 58.9433 68.529 58.9382C68.5333 58.9325 68.54 58.9239 68.5461 58.9165C68.5393 58.9248 68.5336 58.9321 68.529 58.9382ZM68.5504 51.6717C68.5499 51.671 68.5509 51.6723 68.5504 51.6717ZM68.4867 51.5939C68.4847 51.5914 68.4884 51.5961 68.4867 51.5939ZM66.9188 52.8358C66.9176 52.8344 66.9197 52.8368 66.9188 52.8358Z" fill="black"/>
<path fill-rule="evenodd" clip-rule="evenodd" d="M49.1555 55.5601L49.1394 55.6129L49.1473 55.5876C49.1486 55.5838 49.1497 55.5799 49.1508 55.5761C49.1524 55.5708 49.1539 55.5654 49.1555 55.5601Z" fill="black"/>
<path fill-rule="evenodd" clip-rule="evenodd" d="M35.3873 55.3222C35.3874 55.3263 35.3876 55.3311 35.3878 55.3365L35.3873 55.3222ZM49.1556 55.5598C49.2867 55.1305 49.4085 54.6985 49.5217 54.2682L49.55 54.2682L49.1556 55.5598Z" fill="black"/>
<path fill-rule="evenodd" clip-rule="evenodd" d="M30.8911 45.2946L30.9001 45.2842L30.8829 45.3051L30.8911 45.2946ZM30.8698 45.3219C30.8749 45.3156 30.8792 45.31 30.8829 45.3051Z" fill="black"/>
<path d="M54.4497 33.253C54.4792 33.2928 54.5084 33.333 54.5375 33.3735L53.7999 32.4651C53.9371 32.6138 54.0709 32.7691 54.2009 32.9305C54.2852 33.0352 54.3686 33.1433 54.4497 33.253ZM57.0106 30.5316C55.6623 30.8039 54.6101 31.5161 53.7999 32.4651C52.4426 30.9947 50.7447 30.1733 48.9633 30.5331C47.6154 30.8053 46.565 31.5165 45.7557 32.4639C45.4856 32.1703 45.2042 31.9054 44.913 31.6712C43.7305 30.7202 42.336 30.2454 40.916 30.5321C38.7133 30.9771 37.3157 32.5859 36.4519 34.482C35.5928 36.368 35.1906 38.6755 35.0173 40.8502C34.8427 43.0394 34.8945 45.1715 34.989 46.7495C35.0231 47.3189 35.0631 47.8187 35.1002 48.2257L29.0441 48.2256C29.2981 47.9533 29.5578 47.6563 29.7686 47.4101C29.9179 47.2356 30.0483 47.0809 30.1406 46.9698C30.1866 46.9143 30.2238 46.8694 30.2494 46.8382L30.2602 46.8249L30.2689 46.814L30.2786 46.8019L30.2871 46.792C30.2746 46.7811 30.181 46.6998 29.4912 46.1383C28.6923 45.488 28.6924 45.4874 28.6924 45.4874L28.6747 45.509C28.6709 45.514 28.6664 45.5198 28.6612 45.5263C28.6377 45.5549 28.5993 45.6015 28.5558 45.6539C28.4685 45.759 28.3456 45.9058 28.2044 46.0707C27.917 46.4065 27.5701 46.7975 27.2933 47.0743C27.0312 47.3364 26.642 47.6612 26.296 47.935C26.1276 48.0683 25.9773 48.1834 25.8692 48.2651C25.8153 48.3059 25.7719 48.3386 25.7426 48.3604L25.7099 48.3846L25.7 48.3917L24.6814 49.1385L25.6174 49.9864L25.6281 49.9956L25.6608 50.0255L25.7119 50.0724L25.7818 50.1365C25.8853 50.2311 26.03 50.3639 26.1936 50.5156C26.5235 50.8216 26.922 51.1956 27.2186 51.4922C27.5007 51.7744 27.853 52.1714 28.1454 52.5115C28.2892 52.6788 28.4142 52.8281 28.5032 52.9347L28.5258 52.9617L28.5622 53.0049L28.5904 53.0384L28.6077 53.0592C28.6147 53.0677 28.6206 53.0753 28.6254 53.0816L28.6341 53.0926L28.6412 53.1012L30.2366 51.7974L30.2259 51.7839L30.2147 51.7706L30.2079 51.7626L30.1954 51.7476L30.1827 51.7323C30.1578 51.7021 30.1248 51.6621 30.0851 51.6146C29.9913 51.5022 29.8591 51.3451 29.7074 51.1686C29.478 50.9017 29.1924 50.5767 28.9184 50.2863L46.7612 50.2859C46.7403 50.3941 46.7187 50.5028 46.6966 50.6118C46.4333 51.9091 46.1319 53.336 45.7397 54.7415L33.2745 54.7415L33.3136 55.8092L33.3146 55.8271L33.3151 55.8419L33.3161 55.8622L33.3193 55.9173C33.3231 55.981 33.3289 56.0712 33.3385 56.184C33.3578 56.4096 33.3913 56.7276 33.4488 57.1066C33.5629 57.8593 33.7749 58.8793 34.1707 59.9084C34.9494 61.9326 36.5959 64.3168 39.8654 64.2245C41.4837 64.1789 42.8053 63.5572 43.8734 62.6106C44.8241 63.5854 46.1408 64.2745 47.9119 64.2246C49.5308 64.1789 50.8528 63.5568 51.9211 62.6096C52.8719 63.5842 54.1887 64.2732 55.9594 64.2233C59.1488 64.1333 61.1229 61.8397 62.3723 59.2591C62.7488 58.4815 63.0738 57.6504 63.3578 56.8014L67.1182 56.801C66.8571 57.0798 66.5887 57.3857 66.3708 57.639C66.2191 57.8155 66.0869 57.9726 65.9931 58.085C65.9533 58.1327 65.9203 58.1727 65.8953 58.2029L65.8829 58.218L65.8635 58.241L65.8523 58.2543L65.8454 58.263L67.437 59.5716L67.4442 59.5631L67.4528 59.552C67.4576 59.5458 67.4634 59.5382 67.4705 59.5297L67.4985 59.4961L67.516 59.4755C67.5334 59.4549 67.5532 59.4314 67.575 59.4052C67.664 59.2986 67.789 59.1493 67.9328 58.982C68.2252 58.6419 68.5775 58.2448 68.8596 57.9627C69.1563 57.6661 69.5547 57.292 69.8846 56.9861C70.0482 56.8344 70.1929 56.7016 70.2965 56.6069L70.3662 56.5429L70.4174 56.496L70.4501 56.4661C70.4536 56.4629 70.459 56.4585 70.4608 56.4569L71.3968 55.609L70.3783 54.8621L70.3683 54.855L70.3356 54.8308C70.3063 54.809 70.263 54.7763 70.209 54.7355C70.1009 54.6538 69.9506 54.5387 69.7822 54.4055C69.4362 54.1317 69.0471 53.8068 68.785 53.5448C68.5081 53.2679 68.1612 52.8769 67.8738 52.5412C67.7326 52.3762 67.6097 52.2295 67.5224 52.1243L67.4739 52.0658L67.4207 52.0013L67.4117 51.99L67.4036 51.9795L67.3951 51.9686L67.3858 51.9579C67.3858 51.9579 67.3859 51.9585 66.587 52.6087C65.8971 53.1703 65.8052 53.2501 65.7927 53.261L65.7996 53.2724L65.8094 53.2845C65.8148 53.2914 65.8213 53.2995 65.8288 53.3086L65.8765 53.3665L65.9376 53.4402C66.0299 53.5514 66.1603 53.706 66.3096 53.8805C66.5321 54.1404 66.8089 54.4567 67.0761 54.7408L63.9679 54.7407C64.3116 53.4345 64.5795 52.1528 64.809 51.0218C66.084 44.7391 65.489 39.4911 63.96 35.8694C63.197 34.0621 62.1821 32.6164 61.0066 31.671C59.8243 30.7202 58.4303 30.245 57.0106 30.5316ZM55.068 34.187C55.6901 33.3027 56.4586 32.7447 57.418 32.5509C58.0941 32.4144 58.8822 32.6058 59.7157 33.2761C60.5563 33.9522 61.3921 35.084 62.0621 36.6707C63.3989 39.8372 64 44.6503 62.7902 50.6116C62.284 53.1059 61.6421 56.0389 60.518 58.361C59.3894 60.6921 57.9315 62.107 55.902 62.1644C54.7465 62.197 53.9153 61.7566 53.2852 61.0547C54.2947 59.6083 55.008 57.8294 55.544 56.0735C56.0747 54.3351 56.4529 52.5498 56.7626 51.0235C58.246 43.7139 57.2 37.7746 55.068 34.187ZM47.8664 35.8696C47.6119 35.2666 47.3293 34.7039 47.022 34.1867C47.6442 33.3029 48.4132 32.7458 49.3708 32.5523C50.3775 32.349 51.7048 32.8987 52.9425 34.6865C54.9452 37.5793 56.2504 43.1892 54.7438 50.6133C54.4348 52.1358 54.0734 53.836 53.5742 55.4713C53.0552 57.1717 52.407 58.7284 51.5695 59.9138C51.5097 59.9985 51.4489 60.0813 51.3871 60.1621C51.3253 60.2429 51.2626 60.3217 51.1988 60.3985C50.2919 61.4901 49.2169 62.1268 47.8543 62.1654C46.6981 62.198 45.8676 61.7562 45.2374 61.0536C46.2364 59.6222 46.946 57.8647 47.4801 56.1266L47.4969 56.0719C47.6319 55.6298 47.7573 55.1847 47.8739 54.7415C48.2157 53.4422 48.4845 52.1599 48.7154 51.0219C49.9904 44.7392 49.3954 39.4913 47.8664 35.8696ZM43.3404 60.1623L43.1526 60.3985C42.2458 61.4899 41.1703 62.1268 39.8078 62.1653C37.8584 62.2203 36.7574 60.8928 36.0941 59.1686C35.7695 58.3248 35.5864 57.4624 35.4859 56.8007L45.0785 56.8007C44.6025 58.0925 44.0354 59.2532 43.3404 60.1623ZM47.0948 48.226L37.1692 48.2257C37.1295 47.8089 37.0843 47.2635 37.0461 46.6262C36.9549 45.1049 36.9059 43.0753 37.0702 41.0138C37.2357 38.9376 37.6118 36.905 38.3264 35.3362C39.0364 33.7777 40.0084 32.8169 41.3245 32.5511C42.0005 32.4147 42.788 32.6073 43.6215 33.2776C44.462 33.9537 45.2986 35.0843 45.9685 36.6709C47.122 39.4032 47.7277 43.3617 47.0948 48.226Z" fill="black"/>
</svg>
