<svg width="64" height="64" viewBox="0 0 64 64" fill="none" xmlns="http://www.w3.org/2000/svg">
<rect x="1" y="1" width="62" height="62" rx="29" fill="#EFF2F5" stroke="#484A55" stroke-width="2"/>
<path fill-rule="evenodd" clip-rule="evenodd" d="M39.0117 16.6419L39.7277 17.5238C39.6995 17.4845 39.6711 17.4455 39.6425 17.4068C39.5638 17.3004 39.4835 17.1962 39.4017 17.0946M39.0117 16.6419C39.1449 16.7862 39.2755 16.9379 39.4017 17.0946Z" fill="black"/>
<path fill-rule="evenodd" clip-rule="evenodd" d="M39.0117 16.6419L39.7277 17.5238C39.6995 17.4845 39.6711 17.4455 39.6425 17.4068C39.5638 17.3003 39.4835 17.1962 39.4017 17.0946C39.2755 16.9379 39.1449 16.7862 39.0117 16.6419Z" fill="black"/>
<path fill-rule="evenodd" clip-rule="evenodd" d="M16.126 35.3967L16.1151 35.3838C16.1193 35.3888 16.123 35.3931 16.126 35.3967ZM14.5805 36.6673L14.5722 36.6566C14.5675 36.6505 14.5618 36.6431 14.555 36.6348M14.5722 36.6566C14.5754 36.6608 14.5782 36.6644 14.5805 36.6673ZM14.6341 29.2876C14.6322 29.2897 14.6358 29.2855 14.6341 29.2876ZM11.7437 33.7352C11.7635 33.7534 11.7862 33.7743 11.8115 33.7974L11.7437 33.7352ZM14.6341 29.2876L14.62 29.305C14.6231 29.3009 14.6318 29.2905 14.6341 29.2876Z" fill="black"/>
<path fill-rule="evenodd" clip-rule="evenodd" d="M52.2661 42.9381L52.2577 42.9488C52.2604 42.9455 52.2622 42.9431 52.2661 42.9381C52.2704 42.9324 52.2771 42.9238 52.2832 42.9164C52.2764 42.9247 52.2707 42.932 52.2661 42.9381ZM52.2875 35.6715C52.287 35.6709 52.288 35.6722 52.2875 35.6715ZM52.2238 35.5938C52.2218 35.5912 52.2255 35.596 52.2238 35.5938ZM50.6559 36.8357C50.6547 36.8343 50.6567 36.8366 50.6559 36.8357Z" fill="black"/>
<path fill-rule="evenodd" clip-rule="evenodd" d="M32.8926 39.56L32.8765 39.6128L32.8844 39.5875C32.8857 39.5837 32.8868 39.5798 32.8879 39.576C32.8895 39.5706 32.891 39.5653 32.8926 39.56Z" fill="black"/>
<path fill-rule="evenodd" clip-rule="evenodd" d="M19.1244 39.322C19.1245 39.3262 19.1246 39.3309 19.1249 39.3363L19.1244 39.322ZM32.8927 39.5597C33.0238 39.1304 33.1456 38.6983 33.2588 38.2681L33.287 38.2681L32.8927 39.5597Z" fill="black"/>
<path fill-rule="evenodd" clip-rule="evenodd" d="M14.6282 29.2944L14.6372 29.2841L14.62 29.305L14.6282 29.2944ZM14.6069 29.3218C14.612 29.3155 14.6163 29.3099 14.62 29.305Z" fill="black"/>
<path d="M38.1868 17.2528C38.2163 17.2927 38.2455 17.3329 38.2746 17.3734L37.537 16.4649C37.6742 16.6136 37.808 16.769 37.938 16.9304C38.0223 17.035 38.1057 17.1432 38.1868 17.2528ZM40.7476 14.5315C39.3994 14.8038 38.3472 15.5159 37.537 16.4649C36.1797 14.9946 34.4818 14.1732 32.7004 14.5329C31.3525 14.8052 30.3021 15.5163 29.4928 16.4637C29.2227 16.1702 28.9413 15.9053 28.6501 15.6711C27.4676 14.7201 26.0731 14.2452 24.6531 14.532C22.4503 14.977 21.0528 16.5858 20.189 18.4819C19.3299 20.3678 18.9277 22.6754 18.7543 24.8501C18.5798 27.0392 18.6316 29.1714 18.7261 30.7494C18.7602 31.3188 18.8002 31.8186 18.8373 32.2256L12.7812 32.2254C13.0352 31.9532 13.2949 31.6562 13.5057 31.41C13.655 31.2355 13.7854 31.0808 13.8777 30.9697C13.9237 30.9142 13.9609 30.8692 13.9865 30.8381L13.9973 30.8248L14.006 30.8139L14.0157 30.8018L14.0242 30.7918C14.0117 30.7809 13.9181 30.6996 13.2283 30.1382C12.4294 29.4879 12.4295 29.4873 12.4295 29.4873L12.4118 29.5089C12.408 29.5139 12.4035 29.5197 12.3983 29.5261C12.3748 29.5547 12.3364 29.6014 12.2929 29.6538C12.2056 29.7589 12.0827 29.9057 11.9415 30.0706C11.6541 30.4063 11.3072 30.7973 11.0304 31.0742C10.7683 31.3363 10.3791 31.6611 10.0331 31.9349C9.86474 32.0681 9.71441 32.1832 9.60634 32.2649C9.55236 32.3057 9.50904 32.3385 9.47973 32.3602L9.44701 32.3844L9.43705 32.3915L8.41847 33.1384L9.35454 33.9863L9.36521 33.9955L9.39793 34.0254L9.44903 34.0723L9.51885 34.1364C9.62238 34.231 9.7671 34.3638 9.93069 34.5155C10.2606 34.8215 10.659 35.1955 10.9557 35.4921C11.2378 35.7742 11.5901 36.1713 11.8825 36.5114C12.0263 36.6787 12.1513 36.828 12.2403 36.9346L12.2629 36.9616L12.2993 37.0048L12.3275 37.0383L12.3448 37.0591C12.3518 37.0676 12.3577 37.0752 12.3625 37.0815L12.3711 37.0925L12.3783 37.1011L13.9737 35.7972L13.963 35.7837L13.9518 35.7705L13.945 35.7624L13.9324 35.7475L13.9198 35.7322C13.8949 35.7019 13.8619 35.662 13.8222 35.6144C13.7284 35.5021 13.5962 35.3449 13.4445 35.1685C13.2151 34.9016 12.9295 34.5766 12.6555 34.2862L30.4983 34.2858C30.4774 34.394 30.4558 34.5026 30.4337 34.6116C30.1704 35.909 29.869 37.3359 29.4767 38.7414L17.0116 38.7414L17.0507 39.809L17.0517 39.827L17.0522 39.8418L17.0532 39.8621L17.0564 39.9171C17.0602 39.9809 17.066 40.0711 17.0756 40.1839C17.0949 40.4095 17.1284 40.7275 17.1859 41.1064C17.3 41.8592 17.512 42.8792 17.9078 43.9082C18.6865 45.9324 20.333 48.3166 23.6025 48.2244C25.2208 48.1788 26.5424 47.5571 27.6105 46.6105C28.5612 47.5852 29.8779 48.2743 31.649 48.2244C33.2679 48.1788 34.5899 47.5567 35.6582 46.6095C36.609 47.5841 37.9258 48.2731 39.6965 48.2232C42.8859 48.1332 44.86 45.8396 46.1094 43.259C46.4859 42.4814 46.8108 41.6503 47.0949 40.8013L50.8553 40.8009C50.5942 41.0797 50.3258 41.3855 50.1079 41.6389C49.9562 41.8154 49.824 41.9725 49.7302 42.0849C49.6904 42.1326 49.6574 42.1726 49.6324 42.2028L49.62 42.2179L49.6006 42.2409L49.5894 42.2542L49.5825 42.2629L51.1741 43.5715L51.1813 43.563L51.1899 43.5519C51.1947 43.5456 51.2005 43.5381 51.2076 43.5295L51.2356 43.496L51.2531 43.4753C51.2704 43.4547 51.2903 43.4312 51.3121 43.4051C51.4011 43.2985 51.5261 43.1492 51.6699 42.9818C51.9623 42.6418 52.3146 42.2447 52.5967 41.9626C52.8934 41.6659 53.2918 41.2919 53.6217 40.9859C53.7853 40.8342 53.93 40.7014 54.0336 40.6068L54.1033 40.5428L54.1545 40.4959L54.1872 40.466C54.1907 40.4628 54.1961 40.4583 54.1979 40.4567L55.1339 39.6089L54.1154 38.862L54.1054 38.8549L54.0727 38.8307C54.0434 38.8089 54 38.7762 53.9461 38.7354C53.838 38.6537 53.6877 38.5386 53.5193 38.4054C53.1733 38.1315 52.7841 37.8067 52.5221 37.5447C52.2452 37.2678 51.8983 36.8768 51.6109 36.541C51.4697 36.3761 51.3468 36.2293 51.2595 36.1242L51.211 36.0657L51.1578 36.0012L51.1488 35.9899L51.1407 35.9794L51.1322 35.9684L51.1229 35.9578C51.1229 35.9578 51.123 35.9584 50.3241 36.6086C49.6342 37.1702 49.5423 37.25 49.5298 37.2609L49.5367 37.2722L49.5465 37.2844C49.5519 37.2912 49.5584 37.2993 49.5659 37.3085L49.6136 37.3664L49.6747 37.4401C49.767 37.5513 49.8974 37.7059 50.0467 37.8804C50.2692 38.1403 50.546 38.4566 50.8132 38.7407L47.705 38.7406C48.0487 37.4344 48.3166 36.1527 48.5461 35.0216C49.8211 28.7389 49.2261 23.4909 47.6971 19.8693C46.9341 18.062 45.9192 16.6163 44.7437 15.6709C43.5614 14.72 42.1674 14.2449 40.7476 14.5315ZM38.8051 18.1869C39.4272 17.3026 40.1957 16.7445 41.1551 16.5508C41.8312 16.4143 42.6193 16.6057 43.4528 17.276C44.2934 17.9521 45.1292 19.0838 45.7992 20.6706C47.136 23.837 47.7371 28.6502 46.5273 34.6115C46.0211 37.1058 45.3792 40.0388 44.2551 42.3608C43.1265 44.692 41.6686 46.1069 39.6391 46.1643C38.4836 46.1969 37.6524 45.7565 37.0223 45.0546C38.0318 43.6082 38.7451 41.8293 39.2811 40.0734C39.8118 38.335 40.19 36.5496 40.4997 35.0234C41.9831 27.7138 40.9371 21.7745 38.8051 18.1869ZM31.6035 19.8695C31.349 19.2665 31.0664 18.7038 30.7591 18.1865C31.3813 17.3028 32.1503 16.7457 33.1079 16.5522C34.1146 16.3489 35.4419 16.8986 36.6796 18.6864C38.6823 21.5792 39.9874 27.1891 38.4809 34.6132C38.1719 36.1357 37.8105 37.8359 37.3113 39.4712C36.7923 41.1716 36.1441 42.7283 35.3066 43.9137C35.2468 43.9984 35.186 44.0812 35.1242 44.162C35.0624 44.2428 34.9997 44.3216 34.9359 44.3984C34.029 45.49 32.954 46.1267 31.5914 46.1652C30.4352 46.1979 29.6047 45.7561 28.9745 45.0535C29.9735 43.6221 30.6831 41.8646 31.2172 40.1265L31.234 40.0718C31.369 39.6296 31.4944 39.1846 31.611 38.7414C31.9528 37.4421 32.2216 36.1598 32.4525 35.0218C33.7275 28.7391 33.1325 23.4911 31.6035 19.8695ZM27.0775 44.1622L26.8897 44.3984C25.9829 45.4898 24.9074 46.1266 23.5449 46.1652C21.5955 46.2202 20.4945 44.8927 19.8312 43.1685C19.5066 42.3247 19.3235 41.4623 19.223 40.8006L28.8156 40.8006C28.3396 42.0924 27.7725 43.2531 27.0775 44.1622ZM30.8319 32.2258L20.9063 32.2256C20.8666 31.8087 20.8214 31.2633 20.7832 30.6261C20.692 29.1048 20.643 27.0752 20.8073 25.0137C20.9728 22.9375 21.3489 20.9049 22.0635 19.3361C22.7735 17.7776 23.7454 16.8168 25.0615 16.5509C25.7376 16.4146 26.5251 16.6071 27.3586 17.2775C28.1991 17.9536 29.0357 19.0841 29.7056 20.6708C30.8591 23.4031 31.4648 27.3616 30.8319 32.2258Z" fill="black"/>
</svg>
