<svg width="96" height="96" viewBox="0 0 96 96" fill="none" xmlns="http://www.w3.org/2000/svg">
<rect x="1" y="1" width="94" height="94" rx="29" fill="#EFF2F5" stroke="#484A55" stroke-width="2"/>
<path fill-rule="evenodd" clip-rule="evenodd" d="M55.0117 32.6419L55.7278 33.5238C55.6996 33.4845 55.6712 33.4455 55.6426 33.4068C55.5639 33.3004 55.4836 33.1962 55.4018 33.0946M55.0117 32.6419C55.1449 32.7862 55.2755 32.9379 55.4018 33.0946Z" fill="black"/>
<path fill-rule="evenodd" clip-rule="evenodd" d="M55.0117 32.6419L55.7278 33.5238C55.6996 33.4845 55.6712 33.4455 55.6425 33.4068C55.5639 33.3003 55.4836 33.1962 55.4018 33.0946C55.2755 32.9379 55.1449 32.7862 55.0117 32.6419Z" fill="black"/>
<path fill-rule="evenodd" clip-rule="evenodd" d="M32.126 51.3967L32.1151 51.3838C32.1193 51.3888 32.123 51.3931 32.126 51.3967ZM30.5806 52.6673L30.5722 52.6566C30.5675 52.6505 30.5618 52.6431 30.555 52.6348M30.5722 52.6566C30.5754 52.6608 30.5782 52.6644 30.5806 52.6673ZM30.6342 45.2876C30.6323 45.2897 30.6359 45.2855 30.6342 45.2876ZM27.7438 49.7352C27.7636 49.7534 27.7862 49.7743 27.8115 49.7974L27.7438 49.7352ZM30.6342 45.2876L30.62 45.305C30.6232 45.3009 30.6318 45.2905 30.6342 45.2876Z" fill="black"/>
<path fill-rule="evenodd" clip-rule="evenodd" d="M68.2661 58.9381L68.2577 58.9488C68.2604 58.9455 68.2622 58.9431 68.2661 58.9381C68.2705 58.9324 68.2771 58.9238 68.2832 58.9164C68.2764 58.9247 68.2708 58.932 68.2661 58.9381ZM68.2875 51.6715C68.287 51.6709 68.288 51.6722 68.2875 51.6715ZM68.2238 51.5938C68.2218 51.5912 68.2255 51.596 68.2238 51.5938ZM66.656 52.8357C66.6547 52.8343 66.6568 52.8366 66.656 52.8357Z" fill="black"/>
<path fill-rule="evenodd" clip-rule="evenodd" d="M48.8927 55.56L48.8765 55.6128L48.8845 55.5875C48.8857 55.5837 48.8868 55.5798 48.888 55.576C48.8895 55.5706 48.891 55.5653 48.8927 55.56Z" fill="black"/>
<path fill-rule="evenodd" clip-rule="evenodd" d="M35.1245 55.322C35.1246 55.3262 35.1247 55.3309 35.1249 55.3363L35.1245 55.322ZM48.8928 55.5597C49.0238 55.1304 49.1456 54.6983 49.2588 54.2681L49.2871 54.2681L48.8928 55.5597Z" fill="black"/>
<path fill-rule="evenodd" clip-rule="evenodd" d="M30.6282 45.2944L30.6372 45.2841L30.62 45.305L30.6282 45.2944ZM30.607 45.3218C30.612 45.3155 30.6163 45.3099 30.62 45.305Z" fill="black"/>
<path d="M54.1868 33.2528C54.2163 33.2927 54.2455 33.3329 54.2746 33.3734L53.537 32.4649C53.6742 32.6136 53.808 32.769 53.938 32.9304C54.0223 33.035 54.1058 33.1432 54.1868 33.2528ZM56.7477 30.5315C55.3994 30.8038 54.3472 31.5159 53.537 32.4649C52.1797 30.9946 50.4818 30.1732 48.7004 30.5329C47.3525 30.8052 46.3021 31.5163 45.4928 32.4637C45.2227 32.1702 44.9414 31.9053 44.6501 31.6711C43.4677 30.7201 42.0731 30.2452 40.6531 30.532C38.4504 30.977 37.0529 32.5858 36.1891 34.4819C35.3299 36.3678 34.9277 38.6754 34.7544 40.8501C34.5799 43.0392 34.6316 45.1714 34.7261 46.7494C34.7603 47.3188 34.8002 47.8186 34.8373 48.2256L28.7812 48.2254C29.0352 47.9532 29.2949 47.6562 29.5057 47.41C29.655 47.2355 29.7854 47.0808 29.8777 46.9697C29.9238 46.9142 29.9609 46.8692 29.9865 46.8381L29.9973 46.8248L30.006 46.8139L30.0157 46.8018L30.0242 46.7918C30.0117 46.7809 29.9181 46.6996 29.2283 46.1382C28.4294 45.4879 28.4295 45.4873 28.4295 45.4873L28.4118 45.5089C28.408 45.5139 28.4035 45.5197 28.3984 45.5261C28.3749 45.5547 28.3364 45.6014 28.2929 45.6538C28.2056 45.7589 28.0827 45.9057 27.9416 46.0706C27.6542 46.4063 27.3073 46.7973 27.0304 47.0742C26.7683 47.3363 26.3791 47.6611 26.0331 47.9349C25.8648 48.0681 25.7144 48.1832 25.6064 48.2649C25.5524 48.3057 25.5091 48.3385 25.4798 48.3602L25.447 48.3844L25.4371 48.3915L24.4185 49.1384L25.3546 49.9863L25.3652 49.9955L25.398 50.0254L25.4491 50.0723L25.5189 50.1364C25.6224 50.231 25.7671 50.3638 25.9307 50.5155C26.2607 50.8215 26.6591 51.1955 26.9557 51.4921C27.2378 51.7742 27.5901 52.1713 27.8825 52.5114C28.0264 52.6787 28.1513 52.828 28.2403 52.9346L28.2629 52.9616L28.2993 53.0048L28.3275 53.0383L28.3449 53.0591C28.3519 53.0676 28.3577 53.0752 28.3625 53.0815L28.3712 53.0925L28.3783 53.1011L29.9737 51.7972L29.9631 51.7837L29.9519 51.7705L29.945 51.7624L29.9325 51.7475L29.9199 51.7322C29.8949 51.7019 29.8619 51.662 29.8222 51.6144C29.7284 51.5021 29.5963 51.3449 29.4445 51.1685C29.2151 50.9016 28.9296 50.5766 28.6555 50.2862L46.4983 50.2858C46.4774 50.394 46.4559 50.5026 46.4337 50.6116C46.1705 51.909 45.869 53.3359 45.4768 54.7414L33.0116 54.7414L33.0508 55.809L33.0517 55.827L33.0522 55.8418L33.0532 55.8621L33.0564 55.9171C33.0602 55.9809 33.066 56.0711 33.0757 56.1839C33.095 56.4095 33.1284 56.7275 33.1859 57.1064C33.3 57.8592 33.512 58.8792 33.9079 59.9082C34.6865 61.9324 36.3331 64.3166 39.6025 64.2244C41.2209 64.1788 42.5425 63.5571 43.6105 62.6105C44.5612 63.5852 45.878 64.2743 47.649 64.2244C49.2679 64.1788 50.5899 63.5567 51.6582 62.6095C52.609 63.5841 53.9258 64.2731 55.6965 64.2232C58.886 64.1332 60.86 61.8396 62.1094 59.259C62.4859 58.4814 62.8109 57.6503 63.0949 56.8013L66.8553 56.8009C66.5942 57.0797 66.3258 57.3855 66.1079 57.6389C65.9562 57.8154 65.8241 57.9725 65.7302 58.0849C65.6904 58.1326 65.6574 58.1726 65.6325 58.2028L65.62 58.2179L65.6006 58.2409L65.5894 58.2542L65.5825 58.2629L67.1742 59.5715L67.1813 59.563L67.1899 59.5519C67.1947 59.5456 67.2006 59.5381 67.2076 59.5295L67.2356 59.496L67.2531 59.4753C67.2705 59.4547 67.2903 59.4312 67.3122 59.4051C67.4012 59.2985 67.5261 59.1492 67.6699 58.9818C67.9623 58.6418 68.3146 58.2447 68.5968 57.9626C68.8934 57.6659 69.2918 57.2919 69.6217 56.9859C69.7853 56.8342 69.93 56.7014 70.0336 56.6068L70.1033 56.5428L70.1545 56.4959L70.1872 56.466C70.1907 56.4628 70.1961 56.4583 70.1979 56.4567L71.134 55.6089L70.1154 54.862L70.1054 54.8549L70.0727 54.8307C70.0434 54.8089 70.0001 54.7762 69.9461 54.7354C69.838 54.6537 69.6877 54.5386 69.5193 54.4054C69.1733 54.1315 68.7842 53.8067 68.5221 53.5447C68.2452 53.2678 67.8983 52.8768 67.6109 52.541C67.4698 52.3761 67.3468 52.2293 67.2595 52.1242L67.211 52.0657L67.1578 52.0012L67.1488 51.9899L67.1407 51.9794L67.1322 51.9684L67.123 51.9578C67.123 51.9578 67.1231 51.9584 66.3242 52.6086C65.6342 53.1702 65.5424 53.25 65.5298 53.2609L65.5368 53.2722L65.5465 53.2844C65.5519 53.2912 65.5584 53.2993 65.5659 53.3085L65.6137 53.3664L65.6748 53.4401C65.767 53.5513 65.8974 53.7059 66.0468 53.8804C66.2692 54.1403 66.546 54.4566 66.8132 54.7407L63.705 54.7406C64.0488 53.4344 64.3166 52.1527 64.5462 51.0216C65.8212 44.7389 65.2261 39.4909 63.6971 35.8693C62.9341 34.062 61.9192 32.6163 60.7437 31.6709C59.5614 30.72 58.1675 30.2449 56.7477 30.5315ZM54.8051 34.1869C55.4272 33.3026 56.1957 32.7445 57.1552 32.5508C57.8312 32.4143 58.6193 32.6057 59.4528 33.276C60.2934 33.9521 61.1293 35.0838 61.7992 36.6706C63.136 39.837 63.7371 44.6502 62.5273 50.6115C62.0211 53.1058 61.3793 56.0388 60.2551 58.3608C59.1265 60.692 57.6686 62.1069 55.6391 62.1643C54.4837 62.1969 53.6525 61.7565 53.0223 61.0546C54.0318 59.6082 54.7452 57.8293 55.2812 56.0734C55.8118 54.335 56.19 52.5496 56.4997 51.0234C57.9831 43.7138 56.9371 37.7745 54.8051 34.1869ZM47.6035 35.8695C47.349 35.2665 47.0664 34.7038 46.7592 34.1865C47.3814 33.3028 48.1503 32.7457 49.1079 32.5522C50.1146 32.3489 51.4419 32.8986 52.6796 34.6864C54.6823 37.5792 55.9875 43.1891 54.4809 50.6132C54.1719 52.1357 53.8105 53.8359 53.3113 55.4712C52.7923 57.1716 52.1441 58.7283 51.3066 59.9137C51.2468 59.9984 51.186 60.0812 51.1242 60.162C51.0625 60.2428 50.9997 60.3216 50.9359 60.3984C50.029 61.49 48.954 62.1267 47.5914 62.1652C46.4352 62.1979 45.6048 61.7561 44.9745 61.0535C45.9735 59.6221 46.6831 57.8646 47.2173 56.1265L47.234 56.0718C47.369 55.6296 47.4944 55.1846 47.6111 54.7414C47.9528 53.4421 48.2216 52.1598 48.4526 51.0218C49.7276 44.7391 49.1325 39.4911 47.6035 35.8695ZM43.0775 60.1622L42.8897 60.3984C41.9829 61.4898 40.9074 62.1266 39.5449 62.1652C37.5955 62.2202 36.4945 60.8927 35.8312 59.1685C35.5066 58.3247 35.3236 57.4623 35.2231 56.8006L44.8156 56.8006C44.3396 58.0924 43.7725 59.2531 43.0775 60.1622ZM46.832 48.2258L36.9063 48.2256C36.8666 47.8087 36.8214 47.2633 36.7832 46.6261C36.6921 45.1048 36.643 43.0752 36.8073 41.0137C36.9728 38.9375 37.3489 36.9049 38.0635 35.3361C38.7735 33.7776 39.7455 32.8168 41.0616 32.5509C41.7376 32.4146 42.5252 32.6071 43.3586 33.2775C44.1991 33.9536 45.0357 35.0841 45.7056 36.6708C46.8591 39.4031 47.4648 43.3616 46.832 48.2258Z" fill="black"/>
</svg>
