<svg width="64" height="64" viewBox="0 0 64 64" fill="none" xmlns="http://www.w3.org/2000/svg">
<rect x="1" y="1" width="62" height="62" rx="7" fill="#0B0B0D" stroke="#E7E7E7" stroke-width="2"/>
<path d="M33.7866 19.6454C33.4976 19.1669 33.1732 18.5982 32.8641 18.0497L30.2381 28.6786C30.6322 28.5883 31.0875 28.4886 31.5924 28.3878C33.3992 28.0272 35.862 27.6386 38.4606 27.535C41.0485 27.4319 43.8368 27.6087 46.2622 28.4242C48.705 29.2456 50.8506 30.7433 51.9695 33.3057C53.4047 36.5929 51.6469 40.2642 47.9508 42.7711C44.2148 45.3049 38.2988 46.8617 30.6068 46.1577C27.5682 45.8796 23.6739 45.4747 20.2978 44.2523C16.9135 43.0269 13.851 40.9038 12.813 37.0789C12.2947 35.1685 12.5105 33.55 13.194 32.2217C13.8645 30.9188 14.9408 29.979 16.0112 29.3113C17.0843 28.642 18.2045 28.2127 19.0436 27.9514C19.4661 27.8198 19.8247 27.7287 20.0805 27.6697C20.2085 27.6403 20.3114 27.6183 20.3841 27.6039C20.4203 27.5967 20.4493 27.5912 20.47 27.5874L20.5028 27.5813L20.5049 27.5811L20.5063 27.5815C20.5074 27.5857 20.5194 27.649 20.6769 28.5668L20.8461 29.5517C20.844 29.5521 20.8387 29.553 20.8328 29.5541C20.8206 29.5564 20.8006 29.5605 20.7737 29.5658C20.7193 29.5766 20.6364 29.594 20.5295 29.6186C20.315 29.668 20.0059 29.7467 19.6388 29.861C18.8982 30.0916 17.9497 30.4596 17.0692 31.0088C16.1862 31.5597 15.4229 32.2598 14.9717 33.1367C14.5335 33.9882 14.3451 35.0894 14.7427 36.5547C15.5368 39.4813 17.8855 41.252 20.9785 42.3719C24.08 43.4949 27.7301 43.8864 30.7892 44.1664C38.1484 44.8398 43.5696 43.3261 46.8282 41.1161C50.1265 38.879 51.0205 36.1324 50.1358 34.1061C49.3073 32.2086 47.7063 31.0195 45.6248 30.3196C43.5257 29.6138 41.0115 29.435 38.5403 29.5335C36.0805 29.6315 33.728 30.0015 31.9841 30.3496C31.1143 30.5232 30.3997 30.69 29.905 30.8134C29.6578 30.875 29.465 30.926 29.3358 30.9608C29.2715 30.9782 29.2229 30.9915 29.1909 31.0004C29.1751 31.0048 29.1633 31.0081 29.1558 31.0103C29.152 31.0113 29.1488 31.0127 29.1472 31.0131L27.4833 31.492L30.846 17.8777C30.3949 18.2031 29.9285 18.5242 29.5017 18.7819C28.7379 19.2431 27.7428 19.763 26.954 20.1606C26.5564 20.361 26.2045 20.5334 25.9526 20.6558C25.8266 20.717 25.7248 20.7656 25.6547 20.7992C25.6198 20.8159 25.5927 20.8288 25.5741 20.8376C25.5649 20.842 25.5579 20.8457 25.553 20.8481C25.5505 20.8492 25.548 20.8501 25.5466 20.8508L25.545 20.8518L24.6884 19.0441L24.6897 19.0444C24.6907 19.0439 24.6926 19.0424 24.6947 19.0414C24.699 19.0393 24.7057 19.036 24.7142 19.0319C24.7314 19.0237 24.7573 19.012 24.7906 18.996C24.8579 18.9638 24.9565 18.9156 25.0791 18.8561C25.3243 18.7369 25.6669 18.5698 26.0536 18.3748C26.834 17.9815 27.7726 17.4897 28.4679 17.0698C29.1459 16.6604 29.9889 16.0408 30.6814 15.5062C31.0232 15.2422 31.3206 15.0048 31.5324 14.8337C31.6383 14.7482 31.7227 14.6788 31.7801 14.6317C31.8084 14.6084 31.8305 14.5908 31.8451 14.5788C31.8524 14.5727 31.8584 14.5681 31.8619 14.5651C31.8637 14.5637 31.8648 14.5624 31.8656 14.5618L32.8082 13.7782L33.3867 14.8571L33.3902 14.8629C33.3925 14.8673 33.3964 14.8741 33.401 14.8827C33.4102 14.8998 33.4244 14.9255 33.4421 14.9583C33.4777 15.0243 33.5291 15.1207 33.5943 15.2405C33.7249 15.481 33.9082 15.8171 34.1188 16.198C34.5418 16.9632 35.0685 17.8991 35.4987 18.6115C35.9185 19.3068 36.521 20.1786 37.0285 20.89C37.28 21.2426 37.5045 21.5505 37.6661 21.7701C37.7467 21.8797 37.8112 21.9676 37.8557 22.0275C37.8779 22.0574 37.8957 22.0803 37.9072 22.0957C37.9129 22.1033 37.9171 22.1093 37.9199 22.1131C37.9212 22.1148 37.9226 22.1158 37.9233 22.1167L37.9243 22.1184L36.3246 23.3194L36.3231 23.3169C36.3222 23.3158 36.3207 23.3144 36.3192 23.3124C36.316 23.3081 36.3115 23.3015 36.3054 23.2933C36.293 23.2768 36.2747 23.2522 36.2515 23.221C36.205 23.1586 36.1375 23.0681 36.0546 22.9554C35.8886 22.7298 35.6586 22.4135 35.4002 22.0512C34.8873 21.3321 34.2478 20.4092 33.7866 19.6454Z" fill="#EFF2F5"/>
</svg>
