<svg width="96" height="96" viewBox="0 0 96 96" fill="none" xmlns="http://www.w3.org/2000/svg">
<rect x="1" y="1" width="94" height="94" rx="29" fill="#0B0B0D" stroke="#E7E7E7" stroke-width="2"/>
<path d="M49.7863 35.6454C49.4974 35.1669 49.1729 34.5982 48.8639 34.0497L46.2379 44.6786C46.632 44.5883 47.0872 44.4886 47.5921 44.3878C49.399 44.0272 51.8617 43.6386 54.4604 43.535C57.0482 43.4319 59.8365 43.6087 62.2619 44.4242C64.7047 45.2456 66.8504 46.7433 67.9692 49.3057C69.4045 52.5929 67.6467 56.2642 63.9505 58.7711C60.2146 61.3049 54.2986 62.8617 46.6065 62.1577C43.568 61.8796 39.6736 61.4747 36.2976 60.2523C32.9132 59.0269 29.8507 56.9038 28.8127 53.0789C28.2944 51.1685 28.5102 49.55 29.1938 48.2217C29.8642 46.9188 30.9406 45.979 32.0109 45.3113C33.0841 44.642 34.2042 44.2127 35.0433 43.9514C35.4658 43.8198 35.8245 43.7287 36.0802 43.6697C36.2082 43.6403 36.3112 43.6183 36.3838 43.6039C36.42 43.5967 36.449 43.5912 36.4697 43.5874L36.5025 43.5813L36.5047 43.5811L36.506 43.5815C36.5072 43.5857 36.5191 43.649 36.6766 44.5668L36.8459 45.5517C36.8438 45.5521 36.8385 45.553 36.8325 45.5541C36.8203 45.5564 36.8004 45.5605 36.7734 45.5658C36.7191 45.5766 36.6362 45.594 36.5292 45.6186C36.3148 45.668 36.0057 45.7467 35.6386 45.861C34.898 46.0916 33.9494 46.4596 33.069 47.0088C32.1859 47.5597 31.4227 48.2598 30.9715 49.1367C30.5333 49.9882 30.3449 51.0894 30.7425 52.5547C31.5365 55.4813 33.8852 57.252 36.9783 58.3719C40.0798 59.4949 43.7299 59.8864 46.789 60.1664C54.1481 60.8398 59.5693 59.3261 62.8279 57.1161C66.1263 54.879 67.0203 52.1324 66.1356 50.1061C65.307 48.2086 63.7061 47.0195 61.6245 46.3196C59.5255 45.6138 57.0112 45.435 54.5401 45.5335C52.0802 45.6315 49.7277 46.0015 47.9839 46.3496C47.114 46.5232 46.3994 46.69 45.9048 46.8134C45.6575 46.875 45.4647 46.926 45.3356 46.9608C45.2713 46.9782 45.2226 46.9915 45.1907 47.0004C45.1749 47.0048 45.163 47.0081 45.1555 47.0103C45.1518 47.0113 45.1486 47.0127 45.147 47.0131L43.4831 47.492L46.8458 33.8777C46.3946 34.2031 45.9282 34.5242 45.5014 34.7819C44.7377 35.2431 43.7425 35.763 42.9538 36.1606C42.5562 36.361 42.2043 36.5334 41.9523 36.6558C41.8264 36.717 41.7245 36.7656 41.6544 36.7992C41.6196 36.8159 41.5924 36.8288 41.5738 36.8376C41.5646 36.842 41.5577 36.8457 41.5528 36.8481C41.5503 36.8492 41.5477 36.8501 41.5464 36.8508L41.5447 36.8518L40.6881 35.0441L40.6895 35.0444C40.6905 35.0439 40.6924 35.0424 40.6945 35.0414C40.6988 35.0393 40.7054 35.036 40.7139 35.0319C40.7312 35.0237 40.7571 35.012 40.7903 34.996C40.8576 34.9638 40.9563 34.9156 41.0789 34.8561C41.3241 34.7369 41.6666 34.5698 42.0534 34.3748C42.8337 33.9815 43.7724 33.4897 44.4676 33.0698C45.1457 32.6604 45.9887 32.0408 46.6811 31.5062C47.023 31.2422 47.3204 31.0048 47.5322 30.8337C47.638 30.7482 47.7224 30.6788 47.7798 30.6317C47.8082 30.6084 47.8302 30.5908 47.8448 30.5788C47.8521 30.5727 47.8582 30.5681 47.8617 30.5651C47.8635 30.5637 47.8646 30.5624 47.8654 30.5618L48.8079 29.7782L49.3864 30.8571L49.39 30.8629C49.3923 30.8673 49.3961 30.8741 49.4007 30.8827C49.41 30.8998 49.4241 30.9255 49.4418 30.9583C49.4775 31.0243 49.5289 31.1207 49.594 31.2405C49.7246 31.481 49.908 31.8171 50.1186 32.198C50.5416 32.9632 51.0682 33.8991 51.4984 34.6115C51.9182 35.3068 52.5208 36.1786 53.0283 36.89C53.2798 37.2426 53.5043 37.5505 53.6658 37.7701C53.7465 37.8797 53.8109 37.9676 53.8555 38.0275C53.8777 38.0574 53.8954 38.0803 53.9069 38.0957C53.9126 38.1033 53.9168 38.1093 53.9197 38.1131C53.921 38.1148 53.9224 38.1158 53.923 38.1167L53.9241 38.1184L52.3243 39.3194L52.3228 39.3169C52.322 39.3158 52.3205 39.3144 52.319 39.3124C52.3157 39.3081 52.3113 39.3015 52.3052 39.2933C52.2928 39.2768 52.2744 39.2522 52.2512 39.221C52.2048 39.1586 52.1373 39.0681 52.0543 38.9554C51.8884 38.7298 51.6584 38.4135 51.3999 38.0512C50.887 37.3321 50.2476 36.4092 49.7863 35.6454Z" fill="#EFF2F5"/>
</svg>
