<svg width="64" height="64" viewBox="0 0 64 64" fill="none" xmlns="http://www.w3.org/2000/svg">
<rect x="1" y="1" width="62" height="62" rx="7" fill="#0B0B0D" stroke="#E7E7E7" stroke-width="2"/>
<path d="M32.5056 15.3296L28.8691 30.0524C28.8691 30.0524 47.1579 24.7857 51.0525 33.7061C53.3725 39.0197 45.7494 46.5398 30.6975 45.1622C24.5999 44.6042 15.6096 43.5683 13.7777 36.8166C11.9457 30.0649 20.6762 28.5665 20.6762 28.5665M32.5056 15.3296C32.5056 15.3296 30.4434 17.0447 28.9843 17.9258C27.5252 18.8068 25.1165 19.9482 25.1165 19.9482M32.5056 15.3296C32.5056 15.3296 33.7617 17.669 34.6428 19.1281C35.5239 20.5872 37.1242 22.7188 37.1242 22.7188" stroke="#EFF2F5" stroke-width="2"/>
</svg>
