<svg width="64" height="64" viewBox="0 0 64 64" fill="none" xmlns="http://www.w3.org/2000/svg">
<rect x="1" y="1" width="62" height="62" rx="7" fill="#484A55" stroke="#E7E7E7" stroke-width="2"/>
<path d="M33.7866 19.6453C33.4976 19.1667 33.1732 18.598 32.8641 18.0496L30.2381 28.6784C30.6322 28.5882 31.0875 28.4885 31.5924 28.3877C33.3992 28.0271 35.862 27.6385 38.4606 27.5349C41.0485 27.4318 43.8368 27.6086 46.2622 28.4241C48.705 29.2455 50.8506 30.7431 51.9695 33.3056C53.4047 36.5928 51.6469 40.2641 47.9508 42.771C44.2148 45.3048 38.2988 46.8615 30.6068 46.1576C27.5682 45.8795 23.6739 45.4745 20.2978 44.2522C16.9135 43.0268 13.851 40.9036 12.813 37.0788C12.2947 35.1684 12.5105 33.5499 13.194 32.2216C13.8645 30.9187 14.9408 29.9789 16.0112 29.3112C17.0843 28.6418 18.2045 28.2126 19.0436 27.9512C19.4661 27.8197 19.8247 27.7285 20.0805 27.6696C20.2085 27.6401 20.3114 27.6182 20.3841 27.6038C20.4203 27.5966 20.4493 27.5911 20.47 27.5873L20.5028 27.5812L20.5049 27.581L20.5063 27.5813C20.5074 27.5856 20.5194 27.6489 20.6769 28.5666L20.8461 29.5516C20.844 29.552 20.8387 29.5529 20.8328 29.554C20.8206 29.5562 20.8006 29.5604 20.7737 29.5657C20.7193 29.5765 20.6364 29.5939 20.5295 29.6185C20.315 29.6679 20.0059 29.7465 19.6388 29.8608C18.8982 30.0915 17.9497 30.4595 17.0692 31.0086C16.1862 31.5595 15.4229 32.2597 14.9717 33.1365C14.5335 33.9881 14.3451 35.0892 14.7427 36.5546C15.5368 39.4811 17.8855 41.2519 20.9785 42.3718C24.08 43.4948 27.7301 43.8863 30.7892 44.1662C38.1484 44.8397 43.5696 43.326 46.8282 41.116C50.1265 38.8788 51.0205 36.1323 50.1358 34.106C49.3073 32.2085 47.7063 31.0194 45.6248 30.3194C43.5257 29.6137 41.0115 29.4349 38.5403 29.5334C36.0805 29.6314 33.728 30.0014 31.9841 30.3495C31.1143 30.5231 30.3997 30.6899 29.905 30.8132C29.6578 30.8749 29.465 30.9259 29.3358 30.9607C29.2715 30.9781 29.2229 30.9914 29.1909 31.0003C29.1751 31.0047 29.1633 31.008 29.1558 31.0101C29.152 31.0112 29.1488 31.0126 29.1472 31.013L27.4833 31.4918L30.846 17.8776C30.3949 18.203 29.9285 18.5241 29.5017 18.7818C28.7379 19.243 27.7428 19.7629 26.954 20.1605C26.5564 20.3609 26.2045 20.5333 25.9526 20.6557C25.8266 20.7169 25.7248 20.7655 25.6547 20.7991C25.6198 20.8158 25.5927 20.8286 25.5741 20.8375C25.5649 20.8419 25.5579 20.8456 25.553 20.8479C25.5505 20.8491 25.548 20.85 25.5466 20.8506L25.545 20.8516L24.6884 19.0439L24.6897 19.0443C24.6907 19.0438 24.6926 19.0423 24.6947 19.0412C24.699 19.0392 24.7057 19.0358 24.7142 19.0318C24.7314 19.0236 24.7573 19.0119 24.7906 18.9959C24.8579 18.9637 24.9565 18.9155 25.0791 18.8559C25.3243 18.7368 25.6669 18.5696 26.0536 18.3747C26.834 17.9814 27.7726 17.4895 28.4679 17.0697C29.1459 16.6602 29.9889 16.0407 30.6814 15.5061C31.0232 15.2421 31.3206 15.0047 31.5324 14.8336C31.6383 14.7481 31.7227 14.6787 31.7801 14.6316C31.8084 14.6083 31.8305 14.5907 31.8451 14.5786C31.8524 14.5726 31.8584 14.568 31.8619 14.565C31.8637 14.5636 31.8648 14.5623 31.8656 14.5617L32.8082 13.778L33.3867 14.857L33.3902 14.8628C33.3925 14.8671 33.3964 14.874 33.401 14.8826C33.4102 14.8997 33.4244 14.9253 33.4421 14.9581C33.4777 15.0242 33.5291 15.1206 33.5943 15.2404C33.7249 15.4809 33.9082 15.8169 34.1188 16.1979C34.5418 16.9631 35.0685 17.899 35.4987 18.6114C35.9185 19.3067 36.521 20.1784 37.0285 20.8898C37.28 21.2425 37.5045 21.5504 37.6661 21.77C37.7467 21.8796 37.8112 21.9675 37.8557 22.0274C37.8779 22.0573 37.8957 22.0802 37.9072 22.0956C37.9129 22.1032 37.9171 22.1091 37.9199 22.1129C37.9212 22.1146 37.9226 22.1157 37.9233 22.1166L37.9243 22.1183L36.3246 23.3193L36.3231 23.3168C36.3222 23.3156 36.3207 23.3143 36.3192 23.3123C36.316 23.3079 36.3115 23.3014 36.3054 23.2932C36.293 23.2767 36.2747 23.2521 36.2515 23.2209C36.205 23.1585 36.1375 23.068 36.0546 22.9553C35.8886 22.7297 35.6586 22.4134 35.4002 22.0511C34.8873 21.332 34.2478 20.4091 33.7866 19.6453Z" fill="#8C94A6"/>
</svg>
