<svg width="96" height="96" viewBox="0 0 96 96" fill="none" xmlns="http://www.w3.org/2000/svg">
<rect x="0.5" y="0.5" width="95" height="95" rx="7.5" fill="#484A55" stroke="#E7E7E7"/>
<path d="M48.5056 31.3296L44.8691 46.0524C44.8691 46.0524 63.1579 40.7857 67.0525 49.7061C69.3725 55.0197 61.7494 62.5398 46.6975 61.1622C40.5999 60.6042 31.6096 59.5683 29.7777 52.8166C27.9457 46.0649 36.6762 44.5665 36.6762 44.5665M48.5056 31.3296C48.5056 31.3296 46.4434 33.0447 44.9843 33.9258C43.5252 34.8068 41.1165 35.9482 41.1165 35.9482M48.5056 31.3296C48.5056 31.3296 49.7617 33.669 50.6428 35.1281C51.5239 36.5872 53.1242 38.7188 53.1242 38.7188" stroke="#8C94A6" stroke-width="2"/>
</svg>
